<?xml version="1.0" encoding="iso-8859-1"?>
<!-- Generator: Adobe Illustrator 15.0.0, SVG Export Plug-In . SVG Version: 6.00 Build 0)  -->
<!DOCTYPE svg PUBLIC "-//W3C//DTD SVG 1.1//EN" "http://www.w3.org/Graphics/SVG/1.1/DTD/svg11.dtd">
<svg version="1.1" id="Layer_1" xmlns="http://www.w3.org/2000/svg" xmlns:xlink="http://www.w3.org/1999/xlink" x="0px" y="0px"
	 width="64px" height="64px" viewBox="0 0 64 64" style="enable-background:new 0 0 64 64;" xml:space="preserve">
<g id="Page-1">
	<g id="Core" transform="translate(-253.000000, -211.000000)">
		<g id="extension" transform="translate(253.500000, 211.500000)">
			<path id="Shape" style="fill:#010101;" d="M52.165,30.209H48.29V19.877c0-2.841-2.326-5.167-5.166-5.167H32.79v-3.874
				c0-3.618-2.84-6.458-6.457-6.458s-6.457,2.84-6.457,6.458v3.874H9.544c-2.842,0-5.166,2.326-5.166,5.167v9.813h3.875
				c3.873,0,6.975,3.102,6.975,6.976s-3.102,6.976-6.975,6.976H4.378v9.814c0,2.841,2.324,5.166,5.166,5.166h9.814v-3.875
				c0-3.874,3.1-6.975,6.975-6.975s6.977,3.101,6.977,6.975v3.875h9.814c2.84,0,5.166-2.325,5.166-5.166V43.124h3.875
				c3.617,0,6.457-2.841,6.457-6.458S55.782,30.209,52.165,30.209L52.165,30.209z"/>
		</g>
	</g>
</g>
</svg>
