<?xml version="1.0" encoding="iso-8859-1"?>
<!-- Generator: Adobe Illustrator 15.0.0, SVG Export Plug-In . SVG Version: 6.00 Build 0)  -->
<!DOCTYPE svg PUBLIC "-//W3C//DTD SVG 1.1//EN" "http://www.w3.org/Graphics/SVG/1.1/DTD/svg11.dtd">
<svg version="1.1" id="Layer_1" xmlns="http://www.w3.org/2000/svg" xmlns:xlink="http://www.w3.org/1999/xlink" x="0px" y="0px"
	 width="64px" height="64px" viewBox="0 0 64 64" style="enable-background:new 0 0 64 64;" xml:space="preserve">
<g>
	<path style="fill:#010101;" d="M15.216,51.658c4.403,3.521,10.166,5.393,17.081,5.393c6.745,0,12.893-2.158,18.382-6.469
		l-2.554-3.75c-4.573,3.414-10.064,5.172-15.828,5.172c-12.082,0-19.862-7.145-19.862-18.326c0-7.09,3.105-13.379,8.6-17.465
		c3.64-2.66,8.103-4.014,13.38-4.014c10.385,0,17.183,6.312,17.183,14.994c0,7.146-4.35,13.318-9.141,13.318
		c-1.135,0-1.684-0.49-1.684-1.566c0-0.281,0.061-0.395,0.106-0.74l4.09-16.586h-5.501l-1.355,2.227
		c-1.355-2.268-3.366-3.732-6.092-3.732c-7.228,0-13.049,6.635-13.049,15.717c0,6.299,3.043,9.529,8.807,9.529
		c3.429,0,5.817-1.297,7.832-4.361c0.163,2.949,2.12,4.426,5.873,4.426c3.154,0,6.251-1.076,8.755-3.184
		c4.411-3.686,6.804-8.953,6.812-15.143c0-6.359-2.389-11.301-7.175-15.211c-3.757-3.064-9.196-4.938-15.392-4.938
		c-9.146,0-16.756,3.635-21.988,10.326c-3.646,4.65-5.545,10.33-5.545,16.572C6.95,41.338,9.67,47.182,15.216,51.658z M35.227,34.77
		c-0.872,3.738-3.37,6.004-6.256,6.004c-2.229,0-3.541-1.703-3.541-4.824c0-6.188,3.325-11.289,6.913-11.289
		c2.396,0,3.92,1.477,4.242,4.314L35.227,34.77z"/>
</g>
</svg>
