<?xml version="1.0" encoding="iso-8859-1"?>
<!-- Generator: Adobe Illustrator 15.0.0, SVG Export Plug-In . SVG Version: 6.00 Build 0)  -->
<!DOCTYPE svg PUBLIC "-//W3C//DTD SVG 1.1//EN" "http://www.w3.org/Graphics/SVG/1.1/DTD/svg11.dtd">
<svg version="1.1" id="Layer_1" xmlns="http://www.w3.org/2000/svg" xmlns:xlink="http://www.w3.org/1999/xlink" x="0px" y="0px"
	 width="64px" height="64px" viewBox="0 0 64 64" style="enable-background:new 0 0 64 64;" xml:space="preserve">
<g>
	<g>
		<path style="fill:#010101;" d="M4.749,17.941c-3.22-3.122-3.298-8.261-0.175-11.478c3.122-3.217,8.26-3.293,11.478-0.172
			L4.749,17.941z"/>
		<path style="fill:#010101;" d="M59.255,17.943c3.216-3.122,3.293-8.261,0.171-11.478c-3.121-3.217-8.258-3.297-11.475-0.175
			L59.255,17.943z"/>
	</g>
	<g>
		<g>
			<path style="fill:#010101;" d="M33.847,33.167c0,3.48-5.223,3.48-5.223,0C28.624,29.688,33.847,29.688,33.847,33.167"/>
			<rect x="29.688" y="20" style="fill:#010101;" width="3.094" height="13.166"/>
			
				<rect x="29.171" y="35.929" transform="matrix(-0.6266 -0.7794 0.7794 -0.6266 27.2415 88.0027)" style="fill:#010101;" width="11.064" height="3.093"/>
		</g>
		<path style="fill:#010101;" d="M32.973,55.109V51.24h-3.244v3.869c-9.732-0.785-19.301-10.356-20.086-20.087h3.868v-3.243H9.643
			c0.785-11.03,10.354-20.599,20.086-21.388v5.816h3.244v-5.816c11.031,0.786,20.6,10.357,21.385,21.388h-5.816v3.243h5.816
			C53.572,44.755,44,54.324,32.973,55.109z M32,5.504c-15.049,0-27.248,12.199-27.248,27.248C4.752,47.804,16.951,60,32,60
			s27.248-12.199,27.248-27.248S47.049,5.504,32,5.504z"/>
	</g>
</g>
</svg>
