<?xml version="1.0" encoding="iso-8859-1"?>
<!-- Generator: Adobe Illustrator 15.0.0, SVG Export Plug-In . SVG Version: 6.00 Build 0)  -->
<!DOCTYPE svg PUBLIC "-//W3C//DTD SVG 1.1//EN" "http://www.w3.org/Graphics/SVG/1.1/DTD/svg11.dtd">
<svg version="1.1" id="Layer_1" xmlns="http://www.w3.org/2000/svg" xmlns:xlink="http://www.w3.org/1999/xlink" x="0px" y="0px"
	 width="64px" height="64px" viewBox="0 0 64 64" style="enable-background:new 0 0 64 64;" xml:space="preserve">
<path style="fill:#010101;" d="M36.155,34.919c0,2.293-1.859,4.155-4.155,4.155c-2.293,0-4.155-1.859-4.155-4.155V17.582
	c0-2.293,1.859-4.156,4.155-4.156c2.293,0,4.155,1.86,4.155,4.156V34.919z M32,50.574c-2.293,0-4.155-1.86-4.155-4.156
	c0-2.293,1.859-4.155,4.155-4.155c2.293,0,4.155,1.859,4.155,4.155C36.155,48.711,34.293,50.574,32,50.574z M32,5
	C17.088,5,5,17.088,5,32s12.088,27,27,27s27-12.088,27-27S46.912,5,32,5z"/>
</svg>
