<?xml version="1.0" encoding="iso-8859-1"?>
<!-- Generator: Adobe Illustrator 15.0.0, SVG Export Plug-In . SVG Version: 6.00 Build 0)  -->
<!DOCTYPE svg PUBLIC "-//W3C//DTD SVG 1.1//EN" "http://www.w3.org/Graphics/SVG/1.1/DTD/svg11.dtd">
<svg version="1.1" id="Layer_1" xmlns="http://www.w3.org/2000/svg" xmlns:xlink="http://www.w3.org/1999/xlink" x="0px" y="0px"
	 width="64px" height="64px" viewBox="0 0 64 64" style="enable-background:new 0 0 64 64;" xml:space="preserve">
<path style="fill:#010101;" d="M31.999,8.281c1.915,0.005,3.466,1.559,3.47,3.471c-0.004,1.915-1.555,3.464-3.47,3.469
	c-1.915-0.005-3.465-1.554-3.468-3.469C28.534,9.84,30.084,8.29,31.999,8.281z M60.202,41.062l-4.344-14.957
	c-0.042-0.083-0.116-0.144-0.209-0.163c-0.093-0.025-0.185-0.007-0.263,0.047L44.602,37.192c-0.1,0.074-0.149,0.195-0.125,0.316
	c0.025,0.118,0.113,0.215,0.234,0.246l4.142,1.029c-0.751,7.562-6.21,13.726-13.405,15.533V20.597
	c3.539-1.379,6.051-4.813,6.051-8.842c-0.004-5.249-4.253-9.498-9.499-9.502c-5.245,0.004-9.494,4.253-9.498,9.502
	c0,4.028,2.511,7.463,6.052,8.842v33.716c-7.197-1.805-12.659-7.966-13.408-15.528l4.143-1.029c0.121-0.031,0.213-0.128,0.238-0.246
	c0.021-0.121-0.025-0.245-0.128-0.316L8.611,25.991c-0.078-0.056-0.17-0.074-0.262-0.045c-0.092,0.021-0.167,0.081-0.209,0.162
	L3.799,41.062c-0.057,0.109-0.043,0.244,0.035,0.336c0.078,0.099,0.203,0.142,0.323,0.109l4.249-1.054
	c1.6,11.524,11.133,20.502,22.912,21.239v0.054c0.227-0.005,0.453-0.018,0.681-0.022c0.228,0.005,0.454,0.022,0.681,0.022v-0.054
	c11.779-0.737,21.313-9.715,22.913-21.239l4.249,1.054c0.121,0.029,0.244-0.013,0.322-0.109S60.257,41.172,60.202,41.062z"/>
</svg>
