<?xml version="1.0" encoding="iso-8859-1"?>
<!-- Generator: Adobe Illustrator 15.0.0, SVG Export Plug-In . SVG Version: 6.00 Build 0)  -->
<!DOCTYPE svg PUBLIC "-//W3C//DTD SVG 1.1//EN" "http://www.w3.org/Graphics/SVG/1.1/DTD/svg11.dtd">
<svg version="1.1" id="Layer_1" xmlns="http://www.w3.org/2000/svg" xmlns:xlink="http://www.w3.org/1999/xlink" x="0px" y="0px"
	 width="64px" height="64px" viewBox="0 0 64 64" style="enable-background:new 0 0 64 64;" xml:space="preserve">
<g>
	<path style="fill:#010101;" d="M52.57,42.661c0,0-3.32-0.215-3.32-3.645V28.731c0-9.465-7.727-17.305-17.195-17.305
		c-9.465,0.004-17.195,7.984-17.195,16.984H14.75v10.605c0,0,0.105,3.645-3.32,3.645H8v6.75h48v-6.75H52.57z"/>
	<path style="fill:#010101;" d="M35.43,8.161c0,4.57-6.859,4.57-6.859,0S35.43,3.591,35.43,8.161"/>
	<path style="fill:#010101;" d="M32,59.267c3.789,0,6.855-3.105,6.855-6.855H25.145C25.145,56.161,28.211,59.267,32,59.267z"/>
</g>
</svg>
