<?xml version="1.0" encoding="iso-8859-1"?>
<!-- Generator: Adobe Illustrator 15.0.0, SVG Export Plug-In . SVG Version: 6.00 Build 0)  -->
<!DOCTYPE svg PUBLIC "-//W3C//DTD SVG 1.1//EN" "http://www.w3.org/Graphics/SVG/1.1/DTD/svg11.dtd">
<svg version="1.1" id="Layer_1" xmlns="http://www.w3.org/2000/svg" xmlns:xlink="http://www.w3.org/1999/xlink" x="0px" y="0px"
	 width="64px" height="64px" viewBox="0 0 64 64" style="enable-background:new 0 0 64 64;" xml:space="preserve">
<g>
	<path style="fill:#010101;" d="M39.076,49.698c1.062,0,1.77,0.708,1.77,1.77c0,1.062,0.707,1.77,1.771,1.77
		c1.061,0,1.768-0.707,1.768-1.77c0-1.062,0.709-1.77,1.771-1.77c1.061,0,1.77,0.708,1.77,1.77c0,2.832-2.479,5.309-5.309,5.309
		c-2.834,0-5.309-2.477-5.309-5.309C37.309,50.406,38.016,49.698,39.076,49.698z M17.84,49.698c1.061,0,1.768,0.708,1.768,1.77
		c0,1.062,0.709,1.77,1.771,1.77s1.768-0.707,1.768-1.77c0-1.062,0.709-1.77,1.771-1.77s1.77,0.708,1.77,1.77
		c0,2.832-2.479,5.309-5.309,5.309c-2.832,0-5.311-2.477-5.311-5.309C16.068,50.406,16.777,49.698,17.84,49.698z M42.617,35.54
		c1.061,0,1.768,0.708,1.768,1.77c0,1.063-0.707,1.77-1.768,1.77c-1.064,0-1.771,0.707-1.771,1.77c0,1.062,0.707,1.77,1.771,1.77
		c1.061,0,1.768,0.708,1.768,1.77c0,1.061-0.707,1.77-1.768,1.77c-2.834,0-5.309-2.478-5.309-5.31
		C37.309,38.017,39.783,35.54,42.617,35.54z M21.379,35.54c2.83,0,5.309,2.478,5.309,5.309c0,2.832-2.479,5.31-5.309,5.31
		c-1.062,0-1.771-0.708-1.771-1.77c0-1.062,0.709-1.77,1.771-1.77s1.768-0.708,1.768-1.77c0-1.062-0.705-1.77-1.768-1.77
		s-1.771-0.707-1.771-1.77C19.607,36.248,20.316,35.54,21.379,35.54z M39.076,17.841c1.062,0,1.77,0.708,1.77,1.77
		c0,1.062,0.707,1.771,1.771,1.771c4.953,0,8.848,3.894,8.848,8.849c0,1.062-0.707,1.77-1.77,1.77s-1.77-0.708-1.77-1.77
		c0-2.832-2.479-5.31-5.309-5.31c-2.834,0-5.309-2.478-5.309-5.31C37.309,18.549,38.016,17.841,39.076,17.841z M24.918,17.841
		c1.062,0,1.77,0.708,1.77,1.77c0,2.832-2.479,5.31-5.309,5.31c-2.832,0-5.311,2.478-5.311,5.31c0,1.062-0.707,1.77-1.77,1.77
		c-1.061,0-1.77-0.708-1.77-1.77c0-4.956,3.893-8.849,8.85-8.849c1.062,0,1.768-0.708,1.768-1.771
		C23.146,18.549,23.855,17.841,24.918,17.841z M39.076,7.223c4.955,0,8.85,3.894,8.85,8.849c0,1.062-0.709,1.77-1.77,1.77
		c-1.062,0-1.771-0.708-1.771-1.77c0-2.832-2.477-5.31-5.309-5.31c-1.061,0-1.768-0.708-1.768-1.77S38.016,7.223,39.076,7.223z
		 M24.918,7.223c1.062,0,1.77,0.708,1.77,1.77s-0.707,1.77-1.77,1.77c-2.832,0-5.311,2.478-5.311,5.31
		c0,1.062-0.707,1.77-1.768,1.77c-1.062,0-1.771-0.708-1.771-1.77C16.068,11.117,19.963,7.223,24.918,7.223z M37.309,3.683
		c-2.127,0-3.541,1.416-3.541,3.54V28.46h1.77c1.061,0,1.771,0.708,1.771,1.77S36.598,32,35.537,32h-1.77v21.238
		c0,3.893,3.186,7.079,7.078,7.079c9.203,0,13.805-6.017,15.928-14.159c-1.062,0-1.768-0.708-1.768-1.77
		c0-1.062,0.705-1.77,1.768-1.77c0.355,0,0.756,0.021,1.111-0.333C58.238,39.1,58.549,35.54,58.549,32s-0.373-7.434-1.436-10.619
		h-0.332c-1.062,0-1.771-0.708-1.771-1.771c0-0.708,0.402-1.436,1.109-1.436C52.934,9.679,46.516,3.683,37.312,3.683H37.309z
		 M26.688,3.683c-9.201,0-15.615,5.996-18.807,14.492c0.707,0,1.109,0.729,1.109,1.436c0,1.062-0.709,1.771-1.771,1.771H6.887
		C5.824,24.921,5.451,28.46,5.451,32s0.307,7.1,0.666,10.286c0.354,0.353,0.754,0.333,1.107,0.333c1.062,0,1.771,0.708,1.771,1.77
		c0,1.061-0.709,1.77-1.771,1.77c2.125,8.142,6.725,14.159,15.93,14.159c3.893,0,7.078-3.186,7.078-7.079V32h-1.77
		c-1.062,0-1.77-0.708-1.77-1.77s0.707-1.77,1.77-1.77h1.77V7.223c0-2.124-1.414-3.54-3.539-3.54H26.688z"/>
</g>
</svg>
