<?xml version="1.0" encoding="iso-8859-1"?>
<!-- Generator: Adobe Illustrator 15.0.0, SVG Export Plug-In . SVG Version: 6.00 Build 0)  -->
<!DOCTYPE svg PUBLIC "-//W3C//DTD SVG 1.1//EN" "http://www.w3.org/Graphics/SVG/1.1/DTD/svg11.dtd">
<svg version="1.1" id="Layer_1" xmlns="http://www.w3.org/2000/svg" xmlns:xlink="http://www.w3.org/1999/xlink" x="0px" y="0px"
	 width="64px" height="64px" viewBox="0 0 64 64" style="enable-background:new 0 0 64 64;" xml:space="preserve">
<g>
	<path style="fill:#010101;" d="M20.439,11.121c0-0.515,0.44-0.88,0.88-0.88h21.138c0.515,0,0.881,0.44,0.881,0.88v5.211
		c0,0.294-0.221,0.514-0.515,0.514H21.027c-0.294,0-0.514-0.22-0.514-0.514v-5.211H20.439z M14.128,24.624h43.45
		c0.294,0,0.515-0.22,0.515-0.515v-4.258c0-1.688-1.321-3.008-3.009-3.008h-8.072c-0.294,0-0.515-0.221-0.515-0.515v-7.63
		c0-0.806-0.66-1.467-1.467-1.467H18.972c-0.806,0-1.467,0.661-1.467,1.467v7.633c0,0.294-0.22,0.514-0.515,0.514H8.918
		c-1.688,0-3.009,1.321-3.009,3.009v4.258c0,0.294,0.221,0.515,0.516,0.515h7.703V24.624z"/>
	<path style="fill:#010101;" d="M49.796,29.837v1.175c0,1.176-0.805,2.276-1.98,2.568c-1.615,0.294-3.082-0.881-3.082-2.496v-1.176
		c0-0.294-0.222-0.515-0.515-0.515H19.633c-0.295,0-0.515,0.221-0.515,0.515v1.026c0,1.396-1.027,2.568-2.422,2.643
		c-1.467,0.074-2.643-1.101-2.643-2.496v-1.176c0-0.294-0.22-0.515-0.515-0.515H6.422c-0.295,0-0.515,0.221-0.515,0.515V53.76
		c0,1.687,1.321,3.008,3.008,3.008h46.093c1.687,0,3.008-1.321,3.008-3.008V29.837c0-0.295-0.221-0.515-0.515-0.515h-7.189
		C50.018,29.396,49.796,29.616,49.796,29.837z"/>
</g>
</svg>
