<?xml version="1.0" encoding="iso-8859-1"?>
<!-- Generator: Adobe Illustrator 15.0.0, SVG Export Plug-In . SVG Version: 6.00 Build 0)  -->
<!DOCTYPE svg PUBLIC "-//W3C//DTD SVG 1.1//EN" "http://www.w3.org/Graphics/SVG/1.1/DTD/svg11.dtd">
<svg version="1.1" id="Layer_1" xmlns="http://www.w3.org/2000/svg" xmlns:xlink="http://www.w3.org/1999/xlink" x="0px" y="0px"
	 width="64px" height="64px" viewBox="0 0 64 64" style="enable-background:new 0 0 64 64;" xml:space="preserve">
<g>
	<path style="fill:#010101;" d="M32.312,9.119c-1.057,0-2.098,0.065-3.119,0.188c-0.068-0.253-0.184-0.485-0.338-0.689
		c0.541-0.554,0.871-1.283,0.871-2.084c0-1.727-1.529-3.126-3.414-3.126c-1.887,0-3.414,1.399-3.414,3.126
		c0,1.384,0.982,2.557,2.344,2.969c-0.018,0.107-0.029,0.216-0.029,0.331c0,0.093,0.008,0.182,0.02,0.272
		C14.461,13.18,6.576,23.097,6.576,34.856c0,14.214,11.521,25.737,25.736,25.737S58.049,49.07,58.049,34.856
		C58.049,20.642,46.527,9.119,32.312,9.119z M23.709,6.533c0-1.317,1.166-2.384,2.604-2.384c1.439,0,2.605,1.067,2.605,2.384
		c0,0.599-0.242,1.144-0.639,1.563c-0.305-0.183-0.66-0.29-1.041-0.29c-0.74,0-1.387,0.398-1.738,0.991
		C24.459,8.484,23.709,7.589,23.709,6.533z M32.312,56.542c-11.977,0-21.686-9.709-21.686-21.686
		c0-11.978,9.709-21.686,21.686-21.686s21.686,9.708,21.686,21.686C53.998,46.833,44.289,56.542,32.312,56.542z"/>
	<g>
		<g>
			<path style="fill:#010101;" d="M47.447,44.024l1.416,0.9c1.789-2.935,2.82-6.381,2.82-10.068c0-1.3-0.131-2.57-0.373-3.798
				l-1.533,0.34c-0.195,0.044-0.385-0.074-0.426-0.261c-0.041-0.187,0.082-0.373,0.273-0.416l1.537-0.342
				c-1.133-4.792-4.047-8.897-8.004-11.576l-1,1.573c-0.104,0.164-0.32,0.214-0.482,0.111c-0.162-0.104-0.207-0.32-0.102-0.485
				l1.002-1.577c-2.977-1.862-6.494-2.94-10.264-2.94c-1.24,0-2.451,0.118-3.625,0.34l0.398,1.792
				c0.043,0.192-0.074,0.381-0.262,0.422c-0.188,0.042-0.373-0.08-0.416-0.272l-0.402-1.803c-4.857,1.103-9.023,4.033-11.734,8.029
				l1.588,1.01c0.168,0.106,0.219,0.323,0.115,0.486c-0.102,0.162-0.32,0.207-0.486,0.1l-1.596-1.014
				c-1.867,2.981-2.951,6.503-2.951,10.278c0,1.292,0.129,2.552,0.369,3.772l1.85-0.41c0.191-0.043,0.383,0.073,0.424,0.261
				c0.041,0.187-0.08,0.374-0.273,0.417l-1.854,0.413c1.146,4.874,4.133,9.037,8.186,11.717l1.133-1.783
				c0.105-0.165,0.322-0.216,0.484-0.113c0.162,0.104,0.207,0.32,0.104,0.485l-1.135,1.784c2.938,1.794,6.389,2.83,10.084,2.83
				c1.352,0,2.67-0.139,3.943-0.402l-0.406-1.828c-0.043-0.191,0.074-0.38,0.262-0.423c0.188-0.042,0.373,0.08,0.416,0.272
				l0.406,1.824c4.807-1.176,8.908-4.146,11.557-8.16l-1.416-0.9c-0.166-0.106-0.217-0.322-0.113-0.483
				C47.062,43.963,47.281,43.918,47.447,44.024z M24.518,29.419l3.539,1.29c0.512-0.522,1.115-0.951,1.785-1.258v-7.175l3.105,6.671
				c0.244,0.026,0.484,0.066,0.717,0.122l-0.52,0.486c-0.27-0.042-0.549-0.063-0.832-0.063c-2.963,0-5.363,2.401-5.363,5.364
				c0,0.611,0.104,1.198,0.293,1.746l-0.377,0.626c-0.004-0.006-0.006-0.012-0.01-0.02h-7.084l6.646-3.094
				c0.094-0.758,0.33-1.472,0.682-2.114L24.518,29.419z M20.697,49.017l9.477-15.75l0.076-0.126l0.068-0.064l13.314-12.487
				l-9.475,15.748l-0.076,0.127l-0.068,0.064L20.697,49.017z M40.426,39.886l-3.467-1.327c-0.465,0.582-1.035,1.074-1.684,1.447
				l0.09-0.015l-0.117,7.404l-2.947-6.597c-0.512-0.001-1.006-0.067-1.48-0.19l0.512-0.479c0.318,0.059,0.646,0.09,0.98,0.09
				c2.963,0,5.365-2.401,5.365-5.363c0-0.829-0.188-1.612-0.523-2.311l0.35-0.581c0.006,0.011,0.014,0.021,0.02,0.032l7.252,0.113
				l-6.523,2.915c-0.023,0.757-0.184,1.479-0.463,2.14L40.426,39.886z M32.252,33.195c-0.916,0.041-1.623,0.816-1.582,1.731
				c0.039,0.916,0.814,1.625,1.73,1.583c0.914-0.041,1.625-0.815,1.582-1.731C33.943,33.863,33.168,33.154,32.252,33.195z"/>
		</g>
	</g>
</g>
</svg>
