<?xml version="1.0" encoding="iso-8859-1"?>
<!-- Generator: Adobe Illustrator 15.0.0, SVG Export Plug-In . SVG Version: 6.00 Build 0)  -->
<!DOCTYPE svg PUBLIC "-//W3C//DTD SVG 1.1//EN" "http://www.w3.org/Graphics/SVG/1.1/DTD/svg11.dtd">
<svg version="1.1" id="Layer_1" xmlns="http://www.w3.org/2000/svg" xmlns:xlink="http://www.w3.org/1999/xlink" x="0px" y="0px"
	 width="64px" height="64px" viewBox="0 0 64 64" style="enable-background:new 0 0 64 64;" xml:space="preserve">
<g id="g6625" transform="translate(-141.91412,-143.63566)">
	<path id="path5-5" style="fill:#010101;" d="M174.228,189.697c-2.791,0-5.332-0.752-7.623-2.254
		c-2.291-1.501-4.008-3.435-5.15-5.795l-11.271-19.751c-2.361,4.223-3.435,8.945-3.435,13.738c0,6.87,2.236,12.863,6.709,17.979
		c4.471,5.115,10.035,8.174,16.689,9.178l7.97-13.792C177.316,189.236,175.979,189.697,174.228,189.697L174.228,189.697z"/>
	<path id="path7-1" style="fill:#010101;" d="M165.586,164.526c2.539-1.967,5.42-2.629,8.642-2.629c0.429,0,23.612,0,23.612,0
		c-2.433-4.149-5.743-7.656-9.928-10.09c-4.187-2.432-8.747-3.649-13.685-3.649c-4.295,0-8.303,0.912-12.021,2.737
		c-3.723,1.823-7.166,4.48-9.688,7.89l7.97,13.417C161.273,169.125,163.045,166.496,165.586,164.526L165.586,164.526z"/>
	<path id="path9-7" style="fill:#010101;" d="M199.638,165.331h-15.965c2.79,2.792,4.615,6.37,4.615,10.305
		c0,2.935-0.822,5.617-2.47,8.052l-11.27,19.426c7.515-0.072,13.918-2.79,19.214-8.157c5.294-5.366,7.941-11.806,7.941-19.32
		C201.704,172.131,201.114,168.443,199.638,165.331L199.638,165.331z"/>
	<circle id="circle11" style="fill:#010101;" cx="174.228" cy="175.636" r="10.305"/>
</g>
</svg>
