<?xml version="1.0" encoding="iso-8859-1"?>
<!-- Generator: Adobe Illustrator 15.0.0, SVG Export Plug-In . SVG Version: 6.00 Build 0)  -->
<!DOCTYPE svg PUBLIC "-//W3C//DTD SVG 1.1//EN" "http://www.w3.org/Graphics/SVG/1.1/DTD/svg11.dtd">
<svg version="1.1" id="Layer_1" xmlns="http://www.w3.org/2000/svg" xmlns:xlink="http://www.w3.org/1999/xlink" x="0px" y="0px"
	 width="64px" height="64px" viewBox="0 0 64 64" style="enable-background:new 0 0 64 64;" xml:space="preserve">
<g>
	<path d="M49.877,12.981c4.65,4.772,6.977,11.043,6.977,18.813c0,7.09-2.326,13.258-6.977,18.509
		c-4.65,5.249-10.539,7.873-17.668,7.873c-7.061,0-12.898-2.624-17.514-7.873c-4.617-5.251-6.924-11.418-6.924-18.509
		c0-7.771,2.275-14.042,6.824-18.813c4.545-4.771,10.418-7.158,17.613-7.158C39.338,5.823,45.227,8.21,49.877,12.981z
		 M40.969,23.923c-0.203-2.113-0.611-4.177-1.223-6.187c-0.611-2.012-1.545-3.563-2.799-4.652c-1.258-1.09-2.838-1.636-4.738-1.636
		s-3.461,0.527-4.682,1.584c-1.223,1.058-2.123,2.608-2.699,4.653c-0.576,2.044-0.967,4.09-1.17,6.135
		c-0.205,2.044-0.307,4.535-0.307,7.465c0,1.84,0.033,3.39,0.102,4.652c0.064,1.26,0.184,2.795,0.355,4.599
		c0.17,1.808,0.443,3.324,0.816,4.551c0.373,1.227,0.879,2.438,1.525,3.629c0.646,1.194,1.477,2.097,2.496,2.71
		c1.016,0.613,2.205,0.919,3.562,0.919s2.561-0.308,3.617-0.919c1.053-0.613,1.898-1.516,2.545-2.71
		c0.645-1.191,1.172-2.401,1.58-3.628c0.406-1.228,0.713-2.744,0.914-4.55c0.205-1.806,0.324-3.357,0.359-4.653
		c0.033-1.294,0.051-2.828,0.051-4.601C41.275,28.487,41.174,26.034,40.969,23.923z"/>
</g>
</svg>
