<?xml version="1.0" encoding="iso-8859-1"?>
<!-- Generator: Adobe Illustrator 15.0.0, SVG Export Plug-In . SVG Version: 6.00 Build 0)  -->
<!DOCTYPE svg PUBLIC "-//W3C//DTD SVG 1.1//EN" "http://www.w3.org/Graphics/SVG/1.1/DTD/svg11.dtd">
<svg version="1.1" id="Layer_1" xmlns="http://www.w3.org/2000/svg" xmlns:xlink="http://www.w3.org/1999/xlink" x="0px" y="0px"
	 width="64px" height="64px" viewBox="0 0 64 64" style="enable-background:new 0 0 64 64;" xml:space="preserve">
<g>
	<path style="fill:#77C043;" d="M51.624,10.637c-0.158-0.157-0.318-0.312-0.481-0.464C51.302,10.327,51.462,10.482,51.624,10.637z"
		/>
	<path style="fill:#010101;" d="M4.707,26.177c0,0-0.081,0.1-0.204,0.267c-0.018,0.091-0.037,0.182-0.053,0.272
		C4.528,26.5,4.613,26.318,4.707,26.177z"/>
	<path style="fill:#010101;" d="M12.84,13.044c0.052-0.054,0.104-0.108,0.156-0.161c2.452-2.451,5.305-4.375,8.483-5.719
		c3.288-1.391,6.781-2.096,10.385-2.096c3.4,0,6.704,0.629,9.831,1.87c1.825,0.315,4.259,0.922,6.286,2.075
		C43.433,5.783,37.87,3.882,31.864,3.882c-7.786,0-14.826,3.194-19.883,8.343C12.217,12.511,12.501,12.787,12.84,13.044z"/>
	<path style="fill:#010101;" d="M22.732,34.003c-0.193-0.162-0.36-0.333-0.501-0.514c-0.048,0.398-0.079,0.827-0.079,1.276
		c0,0.837,0.104,1.742,0.392,2.638c0.286,0.897,0.752,1.786,1.485,2.612c0.489,0.551,1.101,1.074,1.862,1.549l-0.043,0.069
		c1.434,0.025,3.767-0.002,4.948-0.396c1.778-0.593,4.625-2.846,4.625-2.846c0.712-0.712,1.541-0.356,2.253-0.356
		s0.949-1.068,0-2.134c-0.948-1.067-4.27-2.135-6.76-0.475C28.424,37.087,24.867,35.783,22.732,34.003z M24.452,18.353
		c-0.158,0.591-0.298,1.341-0.296,2.157c0,0.824,0.138,1.709,0.523,2.58c0.312,0.699,0.605,1.211,0.871,1.623
		c0.188,0.29,0.363,0.528,0.526,0.751c0.334-0.307,0.724-0.615,1.044-0.828c0.712-0.475,3.438-1.779,3.794-2.135
		c0.356-0.355,1.068-2.253,0.474-2.846c-0.592-0.593-4.387-0.238-5.573-0.475C25.316,19.08,24.839,18.728,24.452,18.353z
		 M25.217,29.957c0.005,0.009,0.007,0.015,0.007,0.015c0.003-0.009,0.008-0.019,0.013-0.028L25.217,29.957z M60.325,24.636
		c0,0.963-0.871,2.314-1.039,2.566c0.035-0.089,0.09-0.372,0.09-1.262c0-1.304,0.355-4.625-1.303-8.301
		c-1.662-3.676-4.153-5.455-4.153-5.455v0.83c-0.354-1.186-3.674-3.439-3.674-3.439v1.186c5.928,5.456,6.521,9.25,6.521,9.25
		c-1.067-3.439-4.15-6.048-6.76-8.538c-2.608-2.491-8.062-3.795-8.062-3.795c5.81,3.321,8.655,8.539,8.655,8.539
		c-2.965-2.846-5.336-2.609-5.336-2.609c1.778,1.304,2.608,2.728,4.269,5.336c1.661,2.609,1.543,8.776,1.543,8.776
		c-0.83-2.017-2.492-2.846-2.492-2.846s0.356,3.558,0.595,5.573c0.235,2.016-0.83,5.811-0.83,5.811c0-1.423-0.832-1.779-0.832-1.779
		s0.238,0.83-0.948,4.625c-1.185,3.794-3.438,5.099-3.795,4.98c-0.354-0.119,0-0.711,0-0.711s-0.593-0.475-1.422,0.83
		c-0.7,1.101-1.907,1.695-2.269,1.854c0.389-0.22,0.489-1.023,0.489-1.023s-0.831,0.475-4.624,1.067
		c-3.795,0.592-5.574-1.067-5.574-1.067c0.355-0.356,2.015,0,2.015,0c0-0.356-1.897-0.949-3.794-1.186
		c-1.543-0.192-2.291-0.908-2.648-1.482c-0.711-0.478-1.309-1.004-1.803-1.561c-0.568-0.638-1.001-1.316-1.324-2.004
		c-0.647-1.377-0.852-2.788-0.852-4.035c0-1.177,0.182-2.212,0.366-2.96c0.182-0.747,0.367-1.205,0.375-1.225l0,0l0.025,0.01
		c0.222-0.686,0.659-1.237,1.177-1.461c-0.162-0.11-0.329-0.214-0.502-0.305c-0.773-0.415-1.65-0.586-2.514-0.443
		c-0.865,0.137-1.693,0.565-2.428,1.127c-0.707,0.539-1.268,1.306-1.637,2.152c-0.372,0.85-0.557,1.787-0.557,2.729
		c-0.002,0.943,0.184,1.89,0.527,2.782c0.34,0.893,0.834,1.731,1.433,2.49c0.599,0.76,1.299,1.442,2.06,2.05
		c-0.792-0.565-1.535-1.209-2.185-1.946c-0.649-0.735-1.203-1.562-1.609-2.469c-0.405-0.904-0.658-1.888-0.714-2.893
		c-0.056-1.004,0.086-2.026,0.441-2.985c0.358-0.957,0.926-1.851,1.733-2.544c0.39-0.327,0.813-0.624,1.276-0.869
		c0.461-0.247,0.961-0.438,1.487-0.546c0.527-0.107,1.078-0.128,1.617-0.054c0.536,0.073,1.06,0.239,1.541,0.468
		c0.484,0.229,0.93,0.521,1.34,0.852c0.204,0.166,0.398,0.342,0.586,0.528c0.093,0.093,0.186,0.188,0.273,0.288
		c0.073,0.083,0.142,0.162,0.216,0.256c0.423-1.096,0.127-2.926,0.057-3.311c-0.223-0.316-0.54-0.716-0.897-1.286
		c-0.27-0.431-0.561-0.958-0.86-1.629c-0.467-1.05-0.627-2.107-0.627-3.062c0-1.114,0.217-2.095,0.433-2.802
		c0.066-0.218,0.134-0.41,0.194-0.572c0.67-2.915,3.879-5.783,3.879-5.783c-4.506-0.593-7.59,3.558-7.59,3.558
		c-0.013-0.007-0.025-0.014-0.038-0.022c-0.318,0.354-1.403,1.622-1.503,2.631c0,0,0.037-1.815,0.491-3.083
		c-1.72-0.548-3.742-0.261-4.781-0.046l0.008,0.037c-1.064,0.191-2.035,0.6-2.898,1.115c-0.863,0.515-1.615,1.135-2.233,1.736
		c-1.235,1.199-1.932,2.319-1.94,2.331l0,0v0.001l-0.033-0.021c-2.183,3.163-3.554,9.908-3.554,9.908
		c0.236-1.067,1.304-2.372,1.304-2.372c-1.185,1.778-0.949,9.961-0.949,9.961c0-1.304,0.713-2.846,0.713-2.846
		c0.236,2.728,1.423,11.503,9.131,18.144c7.708,6.641,14.23,7.233,14.23,7.233c-1.543-0.474-1.897-1.186-1.897-1.186
		c4.98,2.017,8.064,1.661,8.064,1.661c-0.831-0.475-0.948-0.83-0.948-0.83c5.336,0.237,12.451-1.661,14.111-2.847
		c1.66-1.186,3.084-3.557,3.084-3.557c4.269-2.016,7.233-6.167,8.062-8.301c0.83-2.134,0-4.388,0-4.388s0-0.118,2.017-4.625
		S60.325,24.636,60.325,24.636z M10.533,14.538c0.501-0.3,1.041-0.571,1.616-0.795c-2.282-1.901-2.105-4.405-2.105-4.405
		c-2.285,2.206-2.841,5.929-2.958,8.18c0.031-0.038,0.063-0.076,0.097-0.114C7.957,16.514,9.083,15.409,10.533,14.538z"/>
</g>
</svg>
