<?xml version="1.0" encoding="iso-8859-1"?>
<!-- Generator: Adobe Illustrator 15.0.0, SVG Export Plug-In . SVG Version: 6.00 Build 0)  -->
<!DOCTYPE svg PUBLIC "-//W3C//DTD SVG 1.1//EN" "http://www.w3.org/Graphics/SVG/1.1/DTD/svg11.dtd">
<svg version="1.1" id="Layer_1" xmlns="http://www.w3.org/2000/svg" xmlns:xlink="http://www.w3.org/1999/xlink" x="0px" y="0px"
	 width="64px" height="64px" viewBox="0 0 64 64" style="enable-background:new 0 0 64 64;" xml:space="preserve">
<g>
	<path d="M24.992,35.9v0.104c0,1.693,0.387,3.321,1.168,4.871c0.916,1.625,2.176,2.912,3.768,3.864
		c1.588,0.952,3.357,1.427,5.299,1.427c1.947,0,3.717-0.475,5.309-1.427c1.59-0.954,2.846-2.241,3.762-3.864h12.627
		c-1.631,4.589-4.457,8.348-8.486,11.273c-4.033,2.929-8.561,4.395-13.58,4.395c-3.748,0-7.285-0.811-10.607-2.436
		c-7.426,3.6-12.766,3.776-16.018,0.53c-1.133-1.058-1.697-2.823-1.697-5.293c0-2.469,0.475-5.223,1.434-8.258
		c0.953-3.033,2.543-6.37,4.773-10.005c2.227-3.634,4.859-6.934,7.9-9.898c1.77-1.835,2.898-2.966,3.395-3.388
		c-4.387,2.116-8.346,5.399-11.879,9.844c1.271-5.153,4.012-9.386,8.219-12.706c4.207-3.317,9.035-4.975,14.48-4.975
		c0.564,0,1.131,0.036,1.695,0.104c3.965-1.766,7.568-2.75,10.824-2.963c3.252-0.212,5.547,0.317,6.893,1.589
		c2.686,2.751,2.936,7.057,0.742,12.913c2.051,3.606,3.078,7.489,3.078,11.652c0,0.989-0.035,1.871-0.104,2.65H45.465H24.992V35.9z
		 M22.766,53.264c-4.736-2.893-8.064-6.95-9.975-12.175c-3.182,6.21-3.605,10.48-1.271,12.809
		C13.57,55.946,17.316,55.733,22.766,53.264z M44.617,29.761c-0.141-2.541-1.166-4.711-3.074-6.513
		c-1.91-1.798-4.156-2.699-6.738-2.699s-4.824,0.901-6.734,2.699c-1.912,1.801-2.936,3.972-3.078,6.513H44.617z M43.451,11.656
		c4.523,1.836,8.131,4.799,10.818,8.894c1.627-4.375,1.557-7.445-0.213-9.21C52.148,9.365,48.613,9.469,43.451,11.656z"/>
</g>
</svg>
