<?xml version="1.0" encoding="iso-8859-1"?>
<!-- Generator: Adobe Illustrator 15.0.0, SVG Export Plug-In . SVG Version: 6.00 Build 0)  -->
<!DOCTYPE svg PUBLIC "-//W3C//DTD SVG 1.1//EN" "http://www.w3.org/Graphics/SVG/1.1/DTD/svg11.dtd">
<svg version="1.1" id="Layer_1" xmlns="http://www.w3.org/2000/svg" xmlns:xlink="http://www.w3.org/1999/xlink" x="0px" y="0px"
	 width="64px" height="64px" viewBox="0 0 64 64" style="enable-background:new 0 0 64 64;" xml:space="preserve">
<path style="fill:#010101;" d="M34.109,12.562c-10.916-1.575-12.791,10.212-12.863,10.719c-0.086,0.584-0.588,1.004-1.164,1.004
	c-0.053,0-0.109-0.005-0.17-0.014c-0.643-0.092-1.086-0.687-0.994-1.33c0.021-0.148,0.551-3.662,2.68-6.986
	c2.029-3.166,5.902-6.735,12.846-5.72c0.643,0.091,1.086,0.688,0.996,1.331C35.346,12.211,34.748,12.662,34.109,12.562z M32,4.1
	c-10.174,0-18.447,8.273-18.447,18.446c0,6.271,3.145,12.04,8.42,15.467v1.647h20.055v-1.647c5.273-3.424,8.42-9.195,8.42-15.467
	C50.447,12.373,42.172,4.1,32,4.1z"/>
<path style="fill:#010101;" d="M21.973,51.368c0,1.996,1.627,3.618,3.621,3.618h0.881c0.012,2.535,2.484,4.593,5.525,4.593
	c3.039,0,5.516-2.058,5.525-4.589h0.883c1.996,0,3.619-1.622,3.619-3.618v-0.564H21.977v0.561H21.973z"/>
<g>
	<polygon style="fill:#010101;" points="21.973,42.919 21.973,45.144 42.027,42.802 42.027,40.577 	"/>
	<polygon style="fill:#010101;" points="21.973,49.735 42.027,47.393 42.027,45.17 21.973,47.512 	"/>
</g>
</svg>
