<?xml version="1.0" encoding="iso-8859-1"?>
<!-- Generator: Adobe Illustrator 15.0.0, SVG Export Plug-In . SVG Version: 6.00 Build 0)  -->
<!DOCTYPE svg PUBLIC "-//W3C//DTD SVG 1.1//EN" "http://www.w3.org/Graphics/SVG/1.1/DTD/svg11.dtd">
<svg version="1.1" id="Layer_1" xmlns="http://www.w3.org/2000/svg" xmlns:xlink="http://www.w3.org/1999/xlink" x="0px" y="0px"
	 width="64px" height="64px" viewBox="0 0 64 64" style="enable-background:new 0 0 64 64;" xml:space="preserve">
<g>
	<path style="fill:#010101;" d="M9.978,47.178c1.629,1.586,3.849,2.566,6.296,2.566c3.37,0,6.312-1.857,7.863-4.598
		c1.557,2.74,4.494,4.598,7.864,4.598c3.369,0,6.311-1.857,7.862-4.598c1.557,2.744,4.5,4.598,7.863,4.598
		c2.448,0,4.668-0.98,6.298-2.566v13.568H9.978V47.178z"/>
	<path style="fill:#010101;" d="M20.521,10.342c0,1.557-1.26,2.82-2.82,2.82c-1.556,0-2.817-1.26-2.817-2.82
		c0-1.559,2.817-7.088,2.817-7.088S20.521,8.783,20.521,10.342z"/>
	<path style="fill:#010101;" d="M30.057,10.342c0,1.557-1.261,2.82-2.817,2.82c-1.557,0-2.816-1.26-2.816-2.82
		c0-1.559,2.816-7.088,2.816-7.088S30.057,8.783,30.057,10.342z"/>
	<path style="fill:#010101;" d="M39.587,10.342c0,1.557-1.261,2.82-2.821,2.82c-1.556,0-2.821-1.26-2.821-2.82
		c0-1.559,2.821-7.088,2.821-7.088S39.587,8.783,39.587,10.342z"/>
	<path style="fill:#010101;" d="M49.123,10.342c0,1.557-1.266,2.82-2.822,2.82s-2.821-1.26-2.821-2.82
		c0-1.559,2.821-7.088,2.821-7.088S49.123,8.783,49.123,10.342z"/>
	<path style="fill:#010101;" d="M39.025,29.969V17.225c0-1.246-1.014-2.254-2.254-2.254c-1.246,0-2.254,1.008-2.254,2.254v12.74
		h4.508V29.969z"/>
	<path style="fill:#010101;" d="M48.555,29.969V17.225c0-1.246-1.009-2.254-2.254-2.254c-1.246,0-2.255,1.008-2.255,2.254v12.74
		h4.509V29.969z"/>
	<path style="fill:#010101;" d="M19.959,29.969V17.225c0-1.246-1.009-2.254-2.255-2.254c-1.245,0-2.253,1.008-2.253,2.254v12.74
		h4.508V29.969z"/>
	<path style="fill:#010101;" d="M29.492,29.969V17.225c0-1.246-1.011-2.254-2.257-2.254s-2.254,1.008-2.254,2.254v12.74h4.511
		V29.969z"/>
	<path style="fill:#010101;" d="M9.978,32.318h44.055v10.613c-0.926,2.592-3.394,4.455-6.297,4.455
		c-3.685,0-6.689-3.002-6.689-6.689c0-0.65-0.529-1.18-1.178-1.18c-0.65,0-1.178,0.529-1.178,1.18c0,3.688-3.001,6.689-6.689,6.689
		c-3.69,0-6.69-3.002-6.69-6.689c0-0.65-0.529-1.18-1.178-1.18s-1.178,0.529-1.178,1.18c0,3.688-3.001,6.689-6.689,6.689
		c-2.904,0-5.372-1.863-6.298-4.455L9.978,32.318z"/>
</g>
</svg>
