<?xml version="1.0" encoding="iso-8859-1"?>
<!-- Generator: Adobe Illustrator 15.0.0, SVG Export Plug-In . SVG Version: 6.00 Build 0)  -->
<!DOCTYPE svg PUBLIC "-//W3C//DTD SVG 1.1//EN" "http://www.w3.org/Graphics/SVG/1.1/DTD/svg11.dtd">
<svg version="1.1" id="Layer_1" xmlns="http://www.w3.org/2000/svg" xmlns:xlink="http://www.w3.org/1999/xlink" x="0px" y="0px"
	 width="64px" height="64px" viewBox="0 0 64 64" style="enable-background:new 0 0 64 64;" xml:space="preserve">
<g>
	<path style="fill:#020202;" d="M18.33,14.912V8.078c0-1.889,1.529-3.418,3.418-3.418c1.887,0,3.416,1.529,3.416,3.418v6.834
		c0,1.889-1.529,3.418-3.416,3.418C19.859,18.33,18.33,16.801,18.33,14.912z"/>
	<path style="fill:#020202;" d="M49.088,38.836h-6.836V32h6.836V38.836z M42.252,52.506V45.67h6.836L42.252,52.506z M35.418,38.85
		h-6.836v-6.836h6.836V38.85z M35.418,52.506h-6.836V45.67h6.836V52.506z M21.748,38.836h-6.836V32h6.836V38.836z M21.748,52.506
		h-6.836V45.67h6.836V52.506z M49.088,11.494v3.498c0,3.779-3.057,6.834-6.836,6.834s-6.834-3.055-6.834-6.834v-3.498h-6.836v3.498
		c0,3.779-3.055,6.834-6.834,6.834s-6.836-3.055-6.836-6.834v-3.498H4.66V59.34h54.68V11.494H49.088z"/>
	<path style="fill:#020202;" d="M38.836,14.912V8.078c0-1.889,1.529-3.418,3.416-3.418c1.889,0,3.418,1.529,3.418,3.418v6.834
		c0,1.889-1.529,3.418-3.418,3.418C40.365,18.33,38.836,16.801,38.836,14.912z"/>
</g>
</svg>
