<?xml version="1.0" encoding="iso-8859-1"?>
<!-- Generator: Adobe Illustrator 15.0.0, SVG Export Plug-In . SVG Version: 6.00 Build 0)  -->
<!DOCTYPE svg PUBLIC "-//W3C//DTD SVG 1.1//EN" "http://www.w3.org/Graphics/SVG/1.1/DTD/svg11.dtd">
<svg version="1.1" id="Layer_1" xmlns="http://www.w3.org/2000/svg" xmlns:xlink="http://www.w3.org/1999/xlink" x="0px" y="0px"
	 width="64px" height="64px" viewBox="0 0 64 64" style="enable-background:new 0 0 64 64;" xml:space="preserve">
<g>
	<g>
		<path style="fill:#010101;" d="M22.387,45.393c0,2.12-1.718,3.837-3.838,3.837c-2.119,0-3.84-1.718-3.84-3.837
			c0-2.123,1.721-3.84,3.84-3.84C20.669,41.552,22.387,43.27,22.387,45.393"/>
		<path style="fill:#010101;" d="M31.906,24.333c0,2.121-1.72,3.838-3.84,3.838s-3.841-1.717-3.841-3.838
			c0-2.123,1.721-3.84,3.841-3.84S31.906,22.21,31.906,24.333"/>
		<path style="fill:#010101;" d="M44.499,36.327c0,2.123-1.718,3.84-3.837,3.84c-2.123,0-3.841-1.718-3.841-3.84
			c0-2.121,1.718-3.838,3.841-3.838C42.781,32.489,44.499,34.206,44.499,36.327"/>
		<path style="fill:#010101;" d="M56.544,17.368c0,2.12-1.721,3.841-3.84,3.841c-2.12,0-3.841-1.721-3.841-3.841
			s1.721-3.84,3.841-3.84C54.823,13.528,56.544,15.249,56.544,17.368"/>
		<polygon style="fill:#010101;" points="19.436,45.79 17.661,44.99 27.745,22.681 40.473,34.807 51.877,16.844 53.527,17.89 
			40.848,37.853 28.388,25.98 		"/>
	</g>
	<polygon style="fill:#010101;" points="11.75,52.25 11.75,5 5,5 5,59 59,59 59,52.25 	"/>
</g>
</svg>
