<?xml version="1.0" encoding="iso-8859-1"?>
<!-- Generator: Adobe Illustrator 15.0.0, SVG Export Plug-In . SVG Version: 6.00 Build 0)  -->
<!DOCTYPE svg PUBLIC "-//W3C//DTD SVG 1.1//EN" "http://www.w3.org/Graphics/SVG/1.1/DTD/svg11.dtd">
<svg version="1.1" id="Layer_1" xmlns="http://www.w3.org/2000/svg" xmlns:xlink="http://www.w3.org/1999/xlink" x="0px" y="0px"
	 width="64px" height="64px" viewBox="0 0 64 64" style="enable-background:new 0 0 64 64;" xml:space="preserve">
<path style="fill-rule:evenodd;clip-rule:evenodd;fill:#010101;" d="M53.968,17.896h-0.93c0.039,0.257,0.055,0.517,0.055,0.786
	v19.95c0,3.345-2.753,6.084-6.117,6.084H27.693c-1.254,1.362-3.358,3.638-3.358,3.638s0.673,1.66,2.796,1.66h16.924
	c0.644,2.048,2.366,3.764,3.513,4.648c1.248,0.955,3.426,2.278,5.236,2.366c1.81,0.081,2.009-0.508,1.697-0.904
	c-0.312-0.393-1.216-2.535-1.586-3.494c-0.237-0.617-0.211-1.833-0.169-2.612h1.216c3.364,0,6.117-2.74,6.117-6.092V23.984
	c0-3.352-2.753-6.085-6.117-6.085L53.968,17.896z M15.807,21.159c-1.748,0-3.168,1.417-3.168,3.159s1.424,3.159,3.168,3.159
	c1.756,0,3.169-1.417,3.169-3.159S17.56,21.159,15.807,21.159z M26.68,20.821c-1.749,0-3.169,1.417-3.169,3.159
	s1.424,3.159,3.169,3.159c1.755,0,3.168-1.417,3.168-3.159S28.431,20.821,26.68,20.821z M37.551,20.483
	c-1.75,0-3.169,1.41-3.169,3.159c0,1.742,1.424,3.152,3.169,3.152c1.755,0,3.169-1.41,3.169-3.152
	C40.72,21.894,39.303,20.483,37.551,20.483z M42.42,40.995H25.87c-0.985,1.099-2.165,2.366-3.263,3.608
	c-2.49,2.814-8.324,5.129-9.172,5.353c-0.849,0.225-3.114,0.114-1.756-1.466c1.362-1.579,2.714-5.636,2.714-7.495h-3.906
	c-3.608,0-6.566-2.938-6.566-6.539V13.495c0-3.595,2.958-6.532,6.566-6.532H42.42c3.614,0,6.572,2.938,6.572,6.532v20.961
	C48.992,38.058,46.035,40.995,42.42,40.995z"/>
</svg>
