<?xml version="1.0" encoding="iso-8859-1"?>
<!-- Generator: Adobe Illustrator 15.0.0, SVG Export Plug-In . SVG Version: 6.00 Build 0)  -->
<!DOCTYPE svg PUBLIC "-//W3C//DTD SVG 1.1//EN" "http://www.w3.org/Graphics/SVG/1.1/DTD/svg11.dtd">
<svg version="1.1" id="Layer_1" xmlns="http://www.w3.org/2000/svg" xmlns:xlink="http://www.w3.org/1999/xlink" x="0px" y="0px"
	 width="64px" height="64px" viewBox="0 0 64 64" style="enable-background:new 0 0 64 64;" xml:space="preserve">
<g>
	<g>
		<path style="fill-rule:evenodd;clip-rule:evenodd;" d="M23.479,51.07c1.443-1.441,1.443-3.779,0-5.223l-2.61-2.611l-2.612,2.611
			c-1.441,1.443-1.441,3.781,0,5.223C19.701,52.513,22.039,52.513,23.479,51.07z"/>
		<path style="fill-rule:evenodd;clip-rule:evenodd;" d="M32.097,60.919c1.442-1.44,1.442-3.782,0-5.224l-2.608-2.611l-2.612,2.611
			c-1.443,1.441-1.443,3.783,0,5.224C28.316,62.36,30.655,62.36,32.097,60.919z"/>
		<path style="fill-rule:evenodd;clip-rule:evenodd;" d="M38.104,43.236l-2.609,2.611c-1.444,1.443-1.444,3.781,0,5.223
			c1.441,1.442,3.778,1.442,5.222,0c1.442-1.441,1.442-3.779,0-5.223L38.104,43.236z"/>
	</g>
	<path style="fill:#010101;" d="M43.022,23.03c-0.403,0-0.812,0.015-1.218,0.052c-3.426-4.427-8.768-7.104-14.401-7.104
		c-9.122,0-16.699,6.739-18.015,15.504c-4.468,1.271-7.751,5.391-7.751,10.262c0,5.884,4.783,10.671,10.666,10.667h0.757V46.18
		h-0.757c-2.446,0-4.436-1.989-4.436-4.436c0-2.447,1.989-4.437,4.436-4.437h3.115v-3.115c0-6.61,5.378-11.988,11.984-11.988
		c4.238,0,8.08,2.191,10.273,5.862l1.18,1.97l2.228-0.539c0.652-0.155,1.306-0.237,1.938-0.237c4.667,0,8.46,3.79,8.46,8.454
		c0,3.511-2.146,6.523-5.192,7.807v6.497c6.528-1.49,11.423-7.323,11.423-14.304C57.713,29.617,51.121,23.026,43.022,23.03z"/>
	<g>
		<path style="fill:#010101;" d="M60.484,13.547l-3.928,1.608c-0.86,0.351-1.271,1.333-0.919,2.194
			c0.268,0.65,0.895,1.044,1.558,1.044c0.212,0,0.428-0.04,0.636-0.126l3.93-1.606c0.858-0.353,1.269-1.336,0.917-2.194
			C62.326,13.606,61.344,13.194,60.484,13.547z"/>
		<path style="fill:#010101;" d="M40.96,9.995c-4.918,0-9.218,2.628-11.573,6.531c1.209,0.136,2.394,0.397,3.541,0.768
			c1.851-2.386,4.759-3.935,8.032-3.935c5.581,0,10.119,4.479,10.119,9.983c0,0.814-0.11,1.602-0.297,2.359
			c1.027,0.643,1.972,1.403,2.809,2.271c0.543-1.445,0.854-3.001,0.854-4.631C54.445,15.983,48.396,9.995,40.96,9.995z"/>
		<path style="fill:#010101;" d="M60.484,33.14c0.208,0.085,0.424,0.125,0.636,0.125c0.663,0,1.292-0.395,1.558-1.045
			c0.352-0.859-0.061-1.842-0.919-2.193l-3.928-1.608c-0.859-0.352-1.842,0.06-2.193,0.921c-0.352,0.858,0.059,1.84,0.919,2.192
			L60.484,33.14z"/>
		<path style="fill:#010101;" d="M47.703,9.015c0.659,0,1.282-0.388,1.553-1.031l1.627-3.882c0.359-0.858-0.044-1.842-0.9-2.202
			c-0.856-0.358-1.842,0.046-2.201,0.901l-1.629,3.881c-0.359,0.857,0.046,1.844,0.902,2.201
			C47.267,8.972,47.486,9.015,47.703,9.015z"/>
		<path style="fill:#010101;" d="M25.433,15.155l-3.927-1.608c-0.86-0.353-1.843,0.06-2.194,0.92
			c-0.352,0.858,0.062,1.842,0.919,2.194l1.585,0.648c1.474-0.478,3.025-0.77,4.636-0.853
			C26.364,15.893,25.998,15.387,25.433,15.155z"/>
		<path style="fill:#010101;" d="M34.285,9.015c0.218,0,0.438-0.043,0.649-0.132c0.858-0.357,1.262-1.344,0.902-2.201L34.21,2.801
			c-0.358-0.855-1.345-1.26-2.203-0.901c-0.854,0.36-1.258,1.344-0.898,2.202l1.625,3.882C33.004,8.627,33.627,9.015,34.285,9.015z"
			/>
	</g>
</g>
</svg>
