<?xml version="1.0" encoding="iso-8859-1"?>
<!-- Generator: Adobe Illustrator 15.0.0, SVG Export Plug-In . SVG Version: 6.00 Build 0)  -->
<!DOCTYPE svg PUBLIC "-//W3C//DTD SVG 1.1//EN" "http://www.w3.org/Graphics/SVG/1.1/DTD/svg11.dtd">
<svg version="1.1" id="Layer_1" xmlns="http://www.w3.org/2000/svg" xmlns:xlink="http://www.w3.org/1999/xlink" x="0px" y="0px"
	 width="64px" height="64px" viewBox="0 0 64 64" style="enable-background:new 0 0 64 64;" xml:space="preserve">
<path style="fill:#010101;" d="M60.701,35.602c0-8.289-6.747-15.035-15.038-15.031c-0.412,0-0.83,0.016-1.246,0.053
	c-3.508-4.531-8.975-7.271-14.742-7.271c-9.338,0-17.094,6.898-18.439,15.871c-4.574,1.299-7.937,5.518-7.937,10.504
	c0,6.023,4.897,10.922,10.919,10.92h31.445v0.002c0.023,0,0.043-0.002,0.065-0.002H46.4v-0.035
	C54.348,50.223,60.701,43.65,60.701,35.602z M45.729,44.268H14.218c-2.504,0-4.541-2.037-4.541-4.541s2.037-4.541,4.541-4.541h3.189
	v-3.188c0-6.768,5.504-12.271,12.268-12.271c4.338,0,8.271,2.242,10.518,5.998l1.205,2.018l2.283-0.553
	c0.668-0.158,1.334-0.242,1.982-0.242c4.777,0,8.66,3.881,8.66,8.654C54.323,40.359,50.475,44.232,45.729,44.268z"/>
</svg>
