<?xml version="1.0" encoding="iso-8859-1"?>
<!-- Generator: Adobe Illustrator 15.0.0, SVG Export Plug-In . SVG Version: 6.00 Build 0)  -->
<!DOCTYPE svg PUBLIC "-//W3C//DTD SVG 1.1//EN" "http://www.w3.org/Graphics/SVG/1.1/DTD/svg11.dtd">
<svg version="1.1" id="Layer_1" xmlns="http://www.w3.org/2000/svg" xmlns:xlink="http://www.w3.org/1999/xlink" x="0px" y="0px"
	 width="64px" height="64px" viewBox="0 0 64 64" style="enable-background:new 0 0 64 64;" xml:space="preserve">
<g>
	<g>
		<defs>
			<rect id="SVGID_1_" x="-1.153" y="-1.153" width="62.307" height="62.307"/>
		</defs>
		<clipPath id="SVGID_2_">
			<use xlink:href="#SVGID_1_"  style="overflow:visible;"/>
		</clipPath>
		<g style="clip-path:url(#SVGID_2_);">
			<defs>
				<rect id="SVGID_3_" x="-1.153" y="-1.153" width="62.307" height="62.307"/>
			</defs>
			<clipPath id="SVGID_4_">
				<use xlink:href="#SVGID_3_"  style="overflow:visible;"/>
			</clipPath>
			<g style="clip-path:url(#SVGID_4_);">
				<defs>
					<rect id="SVGID_5_" x="-1.153" y="-1.153" width="62.307" height="62.307"/>
				</defs>
				<clipPath id="SVGID_6_">
					<use xlink:href="#SVGID_5_"  style="overflow:visible;"/>
				</clipPath>
				<g style="clip-path:url(#SVGID_6_);">
					<defs>
						<rect id="SVGID_7_" x="-1.153" y="-1.153" width="62.307" height="62.307"/>
					</defs>
					<clipPath id="SVGID_8_">
						<use xlink:href="#SVGID_7_"  style="overflow:visible;"/>
					</clipPath>
					<polygon style="clip-path:url(#SVGID_8_);fill:#020202;" points="27.168,24.336 41.326,24.336 32.831,38.498 42.743,38.498 
						24.335,61.153 29.432,44.162 20.086,44.162 					"/>
				</g>
			</g>
		</g>
	</g>
	<path style="fill:#010101;" d="M45.01,12.119c-0.402,0-0.812,0.017-1.218,0.053c-3.427-4.427-8.769-7.104-14.402-7.104
		c-9.122,0-16.7,6.739-18.014,15.505c-4.468,1.268-7.752,5.39-7.752,10.261c0,5.884,4.783,10.67,10.667,10.667h0.756v-6.23h-0.756
		c-2.447,0-4.437-1.99-4.437-4.437s1.989-4.437,4.437-4.437h3.114v-3.114c0-6.611,5.377-11.988,11.984-11.988
		c4.238,0,8.08,2.19,10.274,5.861l1.178,1.97l2.229-0.539c0.653-0.155,1.305-0.237,1.938-0.237c4.666,0,8.459,3.79,8.459,8.454
		c0,3.51-2.146,6.523-5.192,7.805v6.498C54.806,39.615,59.7,33.782,59.7,26.804C59.7,18.707,53.108,12.116,45.01,12.119z"/>
</g>
</svg>
