<?xml version="1.0" encoding="iso-8859-1"?>
<!-- Generator: Adobe Illustrator 15.0.0, SVG Export Plug-In . SVG Version: 6.00 Build 0)  -->
<!DOCTYPE svg PUBLIC "-//W3C//DTD SVG 1.1//EN" "http://www.w3.org/Graphics/SVG/1.1/DTD/svg11.dtd">
<svg version="1.1" id="Layer_1" xmlns="http://www.w3.org/2000/svg" xmlns:xlink="http://www.w3.org/1999/xlink" x="0px" y="0px"
	 width="64px" height="64px" viewBox="0 0 64 64" style="enable-background:new 0 0 64 64;" xml:space="preserve">
<g>
	<polygon style="fill:#010101;" points="41.182,41.273 35.188,41.273 35.188,35.273 28.812,35.273 28.812,41.273 22.817,41.273 
		22.817,47.65 28.812,47.65 28.812,53.646 35.188,53.646 35.188,47.65 41.182,47.65 	"/>
	<path style="fill:#010101;" d="M45.663,47.65v-6.377c4.776,0,8.66-3.891,8.66-8.67c0-4.773-3.884-8.654-8.66-8.654
		c-0.648,0-1.315,0.084-1.983,0.242l-2.282,0.553l-1.206-2.018c-2.245-3.758-6.179-5.998-10.518-5.998
		c-6.763,0-12.268,5.504-12.268,12.27v3.189h-3.188c-2.504,0-4.541,2.037-4.541,4.541s2.037,4.541,4.541,4.541h4.119v6.377h-4.119
		C8.195,47.65,3.299,42.752,3.299,36.729c0-4.986,3.361-9.205,7.937-10.504c1.345-8.973,9.101-15.871,18.438-15.871
		c5.768,0,11.235,2.74,14.743,7.271c0.415-0.037,0.834-0.055,1.246-0.055c8.291-0.002,15.038,6.744,15.038,15.033
		C60.701,40.9,53.954,47.65,45.663,47.65z"/>
</g>
</svg>
