<?xml version="1.0" encoding="iso-8859-1"?>
<!-- Generator: Adobe Illustrator 15.0.0, SVG Export Plug-In . SVG Version: 6.00 Build 0)  -->
<!DOCTYPE svg PUBLIC "-//W3C//DTD SVG 1.1//EN" "http://www.w3.org/Graphics/SVG/1.1/DTD/svg11.dtd">
<svg version="1.1" id="Layer_1" xmlns="http://www.w3.org/2000/svg" xmlns:xlink="http://www.w3.org/1999/xlink" x="0px" y="0px"
	 width="64px" height="64px" viewBox="0 0 64 64" style="enable-background:new 0 0 64 64;" xml:space="preserve">
<g>
	<g>
		<path style="fill-rule:evenodd;clip-rule:evenodd;" d="M25.805,42.598c1.441-1.441,1.441-3.779,0-5.223l-2.611-2.609l-2.611,2.609
			c-1.441,1.443-1.441,3.781,0,5.223C22.025,44.041,24.361,44.041,25.805,42.598z"/>
		<path style="fill-rule:evenodd;clip-rule:evenodd;" d="M34.42,52.447c1.443-1.441,1.443-3.781,0-5.225l-2.607-2.611l-2.611,2.611
			c-1.443,1.443-1.443,3.783,0,5.225C30.643,53.889,32.98,53.889,34.42,52.447z"/>
		<path style="fill-rule:evenodd;clip-rule:evenodd;" d="M40.428,34.766l-2.609,2.609c-1.445,1.443-1.445,3.781,0,5.223
			c1.441,1.443,3.779,1.443,5.221,0c1.443-1.441,1.443-3.779,0-5.223L40.428,34.766z"/>
	</g>
	<path style="fill:#010101;" d="M45.348,14.523c-0.404,0-0.812,0.016-1.217,0.051c-3.428-4.426-8.77-7.104-14.404-7.104
		c-9.121,0-16.697,6.742-18.014,15.506c-4.467,1.27-7.75,5.391-7.75,10.262c0,5.883,4.781,10.67,10.666,10.666h0.756v-6.23h-0.756
		c-2.447,0-4.438-1.988-4.438-4.436s1.99-4.436,4.438-4.436h3.113v-3.115c0-6.611,5.379-11.988,11.984-11.988
		c4.24,0,8.082,2.191,10.275,5.861l1.178,1.969l2.229-0.537c0.654-0.158,1.307-0.238,1.939-0.238c4.664,0,8.459,3.791,8.459,8.453
		c0,3.51-2.145,6.525-5.191,7.807v6.498c6.527-1.492,11.422-7.324,11.422-14.305C60.037,21.111,53.447,14.52,45.348,14.523z"/>
</g>
</svg>
