<?xml version="1.0" encoding="iso-8859-1"?>
<!-- Generator: Adobe Illustrator 15.0.0, SVG Export Plug-In . SVG Version: 6.00 Build 0)  -->
<!DOCTYPE svg PUBLIC "-//W3C//DTD SVG 1.1//EN" "http://www.w3.org/Graphics/SVG/1.1/DTD/svg11.dtd">
<svg version="1.1" id="Layer_1" xmlns="http://www.w3.org/2000/svg" xmlns:xlink="http://www.w3.org/1999/xlink" x="0px" y="0px"
	 width="64px" height="64px" viewBox="0 0 64 64" style="enable-background:new 0 0 64 64;" xml:space="preserve">
<g>
	<path style="fill:#010101;" d="M45.658,45.475v-6.377c4.777,0,8.664-3.891,8.664-8.666c0-4.773-3.887-8.654-8.664-8.654
		c-0.644,0-1.314,0.084-1.985,0.242l-2.278,0.549l-1.203-2.01c-2.248-3.758-6.182-6-10.518-6c-6.766,0-12.27,5.506-12.27,12.271
		v3.189h-3.189c-2.502,0-4.538,2.035-4.538,4.541c0,2.504,2.036,4.541,4.538,4.541h4.122v6.377h-4.122
		C8.195,45.475,3.299,40.58,3.299,34.561c0-4.986,3.358-9.203,7.933-10.504C12.576,15.084,20.334,8.18,29.671,8.18
		c5.764,0,11.235,2.742,14.743,7.273c0.418-0.037,0.834-0.057,1.244-0.057c8.297,0,15.043,6.742,15.043,15.035
		S53.955,45.475,45.658,45.475z"/>
	<polygon style="fill:#010101;" points="25.492,47.828 28.811,44.754 28.811,55.82 35.189,55.82 35.189,44.754 38.508,47.828 
		42.842,43.146 32,33.105 21.157,43.146 	"/>
</g>
</svg>
