<?xml version="1.0" encoding="iso-8859-1"?>
<!-- Generator: Adobe Illustrator 15.0.0, SVG Export Plug-In . SVG Version: 6.00 Build 0)  -->
<!DOCTYPE svg PUBLIC "-//W3C//DTD SVG 1.1//EN" "http://www.w3.org/Graphics/SVG/1.1/DTD/svg11.dtd">
<svg version="1.1" id="Layer_1" xmlns="http://www.w3.org/2000/svg" xmlns:xlink="http://www.w3.org/1999/xlink" x="0px" y="0px"
	 width="64px" height="64px" viewBox="0 0 64 64" style="enable-background:new 0 0 64 64;" xml:space="preserve">
<g>
	<path style="fill:#010101;" d="M45.659,14.275c-0.411,0-0.827,0.021-1.245,0.057c-3.505-4.534-8.976-7.274-14.739-7.274
		c-9.341,0-17.098,6.902-18.439,15.876c-4.578,1.299-7.937,5.518-7.937,10.503c0,6.02,4.896,10.919,10.916,10.919h4.122v-6.378
		h-4.122c-2.501,0-4.538-2.037-4.538-4.541c0-2.505,2.037-4.541,4.538-4.541h3.188v-3.188c0-6.767,5.505-12.271,12.271-12.271
		c4.338,0,8.268,2.242,10.518,5.999l1.202,2.01l2.278-0.548c0.675-0.163,1.343-0.242,1.986-0.242c4.777,0,8.664,3.88,8.664,8.653
		c0,4.78-3.887,8.67-8.664,8.67v6.378c8.295,0,15.042-6.75,15.042-15.048C60.701,21.02,53.954,14.275,45.659,14.275z"/>
	<path style="fill:#010101;" d="M32,25.474c-6.823,0-12.374,5.552-12.374,12.374h6.378c0-3.305,2.691-5.996,5.996-5.996
		c3.306,0,5.996,2.691,5.996,5.996c0,3.306-2.69,5.996-5.996,5.996h-0.083l2.209-2.209l-4.511-4.508l-9.906,9.906l9.909,9.909
		l4.511-4.509l-2.209-2.208H32c6.823,0,12.374-5.551,12.374-12.374S38.823,25.474,32,25.474z"/>
</g>
</svg>
