<?xml version="1.0" encoding="iso-8859-1"?>
<!-- Generator: Adobe Illustrator 15.0.0, SVG Export Plug-In . SVG Version: 6.00 Build 0)  -->
<!DOCTYPE svg PUBLIC "-//W3C//DTD SVG 1.1//EN" "http://www.w3.org/Graphics/SVG/1.1/DTD/svg11.dtd">
<svg version="1.1" id="Layer_1" xmlns="http://www.w3.org/2000/svg" xmlns:xlink="http://www.w3.org/1999/xlink" x="0px" y="0px"
	 width="64px" height="64px" viewBox="0 0 64 64" style="enable-background:new 0 0 64 64;" xml:space="preserve">
<g>
	<path style="fill:#010101;" d="M45.659,45.476v-6.378c4.777,0,8.663-3.891,8.663-8.667c0-4.773-3.886-8.653-8.663-8.653
		c-0.644,0-1.315,0.083-1.986,0.243l-2.275,0.548l-1.203-2.011c-2.248-3.757-6.182-5.999-10.517-5.999
		c-6.767,0-12.271,5.505-12.271,12.271v3.189h-3.189c-2.504,0-4.541,2.035-4.541,4.537c0,2.504,2.037,4.541,4.538,4.541h4.122v6.378
		h-4.122c-6.02,0-10.915-4.896-10.915-10.915c0-4.987,3.357-9.202,7.932-10.505c1.346-8.972,9.102-15.875,18.439-15.875
		c5.764,0,11.235,2.74,14.743,7.271c0.418-0.036,0.834-0.057,1.245-0.057c8.295,0,15.042,6.744,15.042,15.035
		C60.701,38.726,53.954,45.476,45.659,45.476z"/>
	<polygon style="fill:#010101;" points="38.508,41.098 35.189,44.17 35.189,33.105 28.812,33.105 28.812,44.17 25.492,41.098 
		21.157,45.774 32,55.819 42.843,45.774 	"/>
</g>
</svg>
