<?xml version="1.0" encoding="iso-8859-1"?>
<!-- Generator: Adobe Illustrator 15.0.0, SVG Export Plug-In . SVG Version: 6.00 Build 0)  -->
<!DOCTYPE svg PUBLIC "-//W3C//DTD SVG 1.1//EN" "http://www.w3.org/Graphics/SVG/1.1/DTD/svg11.dtd">
<svg version="1.1" id="Layer_1" xmlns="http://www.w3.org/2000/svg" xmlns:xlink="http://www.w3.org/1999/xlink" x="0px" y="0px"
	 width="64px" height="64px" viewBox="0 0 64 64" style="enable-background:new 0 0 64 64;" xml:space="preserve">
<g>
	<path style="fill:#010101;" d="M60.037,27.713c0-8.093-6.59-14.687-14.689-14.683c-0.402,0-0.811,0.016-1.217,0.052
		c-3.428-4.426-8.768-7.104-14.402-7.104c-9.123,0-16.699,6.742-18.014,15.507c-4.467,1.269-7.752,5.389-7.752,10.26
		c0,5.885,4.783,10.67,10.666,10.666h30.719v0.004c0.021,0,0.043-0.004,0.064-0.004h0.656v-0.032
		C53.832,41.999,60.037,35.579,60.037,27.713z M45.412,36.184H14.629c-2.447,0-4.436-1.992-4.436-4.438
		c0-2.447,1.988-4.436,4.436-4.436h3.117v-3.116c0-6.61,5.375-11.986,11.982-11.986c4.238,0,8.082,2.191,10.273,5.859l1.18,1.97
		l2.229-0.537c0.652-0.156,1.305-0.238,1.938-0.238c4.666,0,8.461,3.791,8.461,8.452C53.809,32.361,50.049,36.145,45.412,36.184z"/>
	<g>
		<path style="fill-rule:evenodd;clip-rule:evenodd;" d="M12.686,58.021c0.838,0,1.645-0.463,2.045-1.262l4.568-9.139
			c0.564-1.13,0.107-2.502-1.02-3.065c-1.129-0.565-2.502-0.107-3.064,1.022l-4.57,9.137c-0.564,1.128-0.109,2.5,1.021,3.063
			C11.992,57.942,12.342,58.021,12.686,58.021z"/>
		<path style="fill-rule:evenodd;clip-rule:evenodd;" d="M21.824,58.021c0.838,0,1.643-0.463,2.045-1.262l4.568-9.139
			c0.562-1.13,0.105-2.502-1.023-3.065s-2.5-0.107-3.062,1.022l-4.57,9.137c-0.564,1.128-0.107,2.5,1.021,3.063
			C21.131,57.942,21.48,58.021,21.824,58.021z"/>
		<path style="fill-rule:evenodd;clip-rule:evenodd;" d="M30.961,58.021c0.838,0,1.646-0.463,2.045-1.262l4.57-9.139
			c0.562-1.13,0.105-2.502-1.023-3.065c-1.129-0.565-2.5-0.107-3.064,1.022l-4.568,9.137c-0.564,1.128-0.107,2.5,1.021,3.063
			C30.268,57.942,30.617,58.021,30.961,58.021z"/>
		<path style="fill-rule:evenodd;clip-rule:evenodd;" d="M45.691,44.556c-1.129-0.565-2.5-0.107-3.064,1.022l-4.57,9.137
			c-0.564,1.128-0.107,2.5,1.023,3.063c0.326,0.164,0.676,0.243,1.02,0.243c0.838,0,1.645-0.463,2.045-1.262l4.568-9.139
			C47.275,46.491,46.82,45.119,45.691,44.556z"/>
	</g>
</g>
</svg>
