<?xml version="1.0" encoding="iso-8859-1"?>
<!-- Generator: Adobe Illustrator 15.0.0, SVG Export Plug-In . SVG Version: 6.00 Build 0)  -->
<!DOCTYPE svg PUBLIC "-//W3C//DTD SVG 1.1//EN" "http://www.w3.org/Graphics/SVG/1.1/DTD/svg11.dtd">
<svg version="1.1" id="Layer_1" xmlns="http://www.w3.org/2000/svg" xmlns:xlink="http://www.w3.org/1999/xlink" x="0px" y="0px"
	 width="64px" height="64px" viewBox="0 0 64 64" style="enable-background:new 0 0 64 64;" xml:space="preserve">
<g>
	<g>
		<path style="fill-rule:evenodd;clip-rule:evenodd;" d="M24.742,51.071c1.443-1.442,1.443-3.781,0-5.223l-2.611-2.611l-2.609,2.611
			c-1.443,1.441-1.443,3.78,0,5.223C20.963,52.514,23.301,52.514,24.742,51.071z"/>
		<path style="fill-rule:evenodd;clip-rule:evenodd;" d="M33.359,60.918c1.441-1.44,1.441-3.779,0-5.223l-2.609-2.612l-2.611,2.612
			c-1.443,1.443-1.443,3.782,0,5.223C29.58,62.361,31.918,62.361,33.359,60.918z"/>
		<path style="fill-rule:evenodd;clip-rule:evenodd;" d="M39.367,43.237l-2.611,2.611c-1.443,1.441-1.443,3.78,0,5.223
			c1.441,1.442,3.779,1.442,5.223,0c1.441-1.442,1.441-3.781,0-5.223L39.367,43.237z"/>
	</g>
	<path style="fill:#010101;" d="M44.285,22.995c-0.402,0-0.811,0.017-1.217,0.052c-3.428-4.426-8.768-7.103-14.402-7.103
		c-9.123,0-16.699,6.74-18.014,15.505C6.184,32.718,2.9,36.84,2.9,41.711c0,5.883,4.783,10.669,10.666,10.665h0.756v-6.229h-0.756
		c-2.447,0-4.436-1.99-4.436-4.437c0-2.447,1.988-4.436,4.436-4.436h3.115v-3.116c0-6.61,5.377-11.987,11.984-11.987
		c4.238,0,8.08,2.189,10.273,5.86l1.18,1.969l2.229-0.537c0.652-0.157,1.305-0.237,1.938-0.237c4.666,0,8.459,3.79,8.459,8.453
		c0,3.509-2.145,6.525-5.191,7.807v6.496c6.529-1.49,11.424-7.324,11.424-14.303C58.977,29.584,52.385,22.992,44.285,22.995z"/>
	<path style="fill:#010101;" d="M56.658,19.744c-4.519,2.263-9.956,1.382-13.528-2.191c-2.157-2.158-5.872-6.181-2.192-13.53
		c0.232-0.467,0.141-1.031-0.229-1.4c-0.367-0.368-0.932-0.459-1.399-0.226c-1.36,0.681-2.595,1.571-3.669,2.646
		c-3.62,3.618-4.848,8.724-3.715,13.367c0.238-0.014,0.477-0.033,0.719-0.033c0.612,0,1.217,0.059,1.816,0.146
		c-1.245-4.022-0.284-8.587,2.895-11.766c0.057-0.056,0.113-0.112,0.17-0.169c-0.877,4.53,0.508,9.296,3.89,12.679
		c3.382,3.382,8.147,4.768,12.677,3.89c-0.055,0.058-0.111,0.113-0.168,0.17c-1.053,1.053-2.261,1.851-3.548,2.418
		c0.666,0.54,1.258,1.163,1.775,1.848c1.256-0.65,2.436-1.498,3.487-2.551c1.075-1.074,1.965-2.31,2.646-3.67
		c0.234-0.466,0.144-1.029-0.227-1.399C57.689,19.603,57.126,19.511,56.658,19.744z"/>
</g>
</svg>
