<?xml version="1.0" encoding="iso-8859-1"?>
<!-- Generator: Adobe Illustrator 15.0.0, SVG Export Plug-In . SVG Version: 6.00 Build 0)  -->
<!DOCTYPE svg PUBLIC "-//W3C//DTD SVG 1.1//EN" "http://www.w3.org/Graphics/SVG/1.1/DTD/svg11.dtd">
<svg version="1.1" id="Layer_1" xmlns="http://www.w3.org/2000/svg" xmlns:xlink="http://www.w3.org/1999/xlink" x="0px" y="0px"
	 width="64px" height="64px" viewBox="0 0 64 64" style="enable-background:new 0 0 64 64;" xml:space="preserve">
<path style="fill:#010101;" d="M31.88,5.399c-6.046,0-10.948,4.955-10.948,11.066c0,3.154,1.328,5.991,3.426,8.009
	c1.62,1.558,3.929,5.093,4.698,7.927c-1.498-0.913-2.848-1.953-3.662-2.817c-1.995-2.12-4.803-3.419-7.923-3.419
	c-6.048,0-10.948,4.951-10.948,11.066c0,6.113,4.9,11.068,10.948,11.068c3.12,0,5.924-1.343,7.923-3.461
	c0.855-0.91,2.303-2.06,3.898-3.021c-0.225,10.152-3.672,16.783-9.954,16.783h25.118c-6.298,0-9.78-6.667-9.988-16.861
	c1.685,0.979,3.249,2.157,4.14,3.102c1.998,2.12,4.799,3.461,7.922,3.461c6.046,0,10.948-4.956,10.948-11.066
	c0-6.117-4.902-11.068-10.948-11.068c-3.12,0-5.924,1.301-7.922,3.419c-0.846,0.898-2.314,1.963-3.901,2.899
	c0.745-2.848,3.104-6.435,4.738-8.009c2.095-2.018,3.383-4.853,3.383-8.007C42.824,10.354,37.926,5.399,31.88,5.399z"/>
</svg>
