<?xml version="1.0" encoding="iso-8859-1"?>
<!-- Generator: Adobe Illustrator 15.0.0, SVG Export Plug-In . SVG Version: 6.00 Build 0)  -->
<!DOCTYPE svg PUBLIC "-//W3C//DTD SVG 1.1//EN" "http://www.w3.org/Graphics/SVG/1.1/DTD/svg11.dtd">
<svg version="1.1" id="Layer_1" xmlns="http://www.w3.org/2000/svg" xmlns:xlink="http://www.w3.org/1999/xlink" x="0px" y="0px"
	 width="64px" height="64px" viewBox="0 0 64 64" style="enable-background:new 0 0 64 64;" xml:space="preserve">
<g>
	<path style="fill:#010101;" d="M51.297,14.357v10.475h5.514V14.357H51.297z M51.297,37.514h5.514v-8.822h-5.514V37.514z
		 M51.297,40.822h5.514v8.82h-5.514V40.822z"/>
	<path style="fill:#010101;" d="M36.201,36.344c-1.062,0.895-2.377,1.352-3.716,1.352c-1.594,0-2.424-0.627-2.493-1.879
		c-0.855,1.301-1.869,1.852-3.324,1.852c-2.447,0-3.739-1.371-3.739-4.045c0-3.855,2.472-6.672,5.539-6.672
		c1.157,0,2.011,0.621,2.587,1.584l0.574-0.945h2.336l-1.736,7.041c-0.02,0.146-0.045,0.195-0.045,0.314
		c0,0.457,0.232,0.664,0.715,0.664c2.033,0,3.88-2.619,3.88-5.652c0-3.686-2.886-6.365-7.294-6.365c-2.24,0-4.135,0.574-5.68,1.703
		c-2.332,1.734-3.65,4.404-3.65,7.414c0,4.746,3.303,7.779,8.432,7.779c2.446,0,4.777-0.746,6.719-2.195l1.084,1.592
		c-2.33,1.83-4.939,2.746-7.803,2.746c-2.936,0-5.382-0.795-7.251-2.289c-2.354-1.9-3.509-4.381-3.509-7.561
		c0-2.65,0.806-5.061,2.354-7.035c2.221-2.84,5.451-4.383,9.334-4.383c2.63,0,4.938,0.795,6.533,2.096
		c2.032,1.66,3.046,3.758,3.046,6.457C39.09,32.543,38.074,34.779,36.201,36.344z M44.469,7.189H12.443
		c-2.902,0-5.254,2.246-5.254,5.016v39.59c0,2.77,2.352,5.016,5.254,5.016h32.025c2.9,0,5.174-2.246,5.174-5.016v-39.59
		C49.643,9.436,47.369,7.189,44.469,7.189z"/>
	<path style="fill:#010101;" d="M28.605,28.881c-1.523,0-2.935,2.166-2.935,4.793c0,1.324,0.557,2.047,1.503,2.047
		c1.225,0,2.285-0.961,2.655-2.549l0.577-2.459C30.269,29.508,29.622,28.881,28.605,28.881z"/>
</g>
</svg>
