<?xml version="1.0" encoding="iso-8859-1"?>
<!-- Generator: Adobe Illustrator 15.0.0, SVG Export Plug-In . SVG Version: 6.00 Build 0)  -->
<!DOCTYPE svg PUBLIC "-//W3C//DTD SVG 1.1//EN" "http://www.w3.org/Graphics/SVG/1.1/DTD/svg11.dtd">
<svg version="1.1" id="Layer_1" xmlns="http://www.w3.org/2000/svg" xmlns:xlink="http://www.w3.org/1999/xlink" x="0px" y="0px"
	 width="64px" height="64px" viewBox="0 0 64 64" style="enable-background:new 0 0 64 64;" xml:space="preserve">
<g>
	<path style="fill-rule:evenodd;clip-rule:evenodd;fill:#010101;" d="M41.105,17.38c9.044-0.453,14.085,4.275,14.526,14.467h-2.403
		c-0.869-9.057-4.935-12.732-12.126-12.186V17.38H41.105z M10.603,33.794c-0.356,0.306-0.82,0.487-1.322,0.487
		c-1.122,0-2.035-0.909-2.035-2.035c0-0.887,0.565-1.641,1.359-1.918c-0.125-0.266-0.197-0.56-0.197-0.872
		c0-1.122,0.909-2.035,2.035-2.035c1.046,0,1.912,0.794,2.022,1.812l6.81,2.585l-1.763,4.594l-6.91-2.622V33.794z M57.272,21.364
		c5.61,9.47,2.407,22.455-7.821,27.793c-7.292,3.382-25.272,4.163-30.41-3.382c-1.609-2.719-2.266-5.178-2.228-7.326l-6.582-2.496
		c-0.663,0.565-1.519,0.909-2.459,0.909c-2.088,0-3.782-1.693-3.782-3.781c0-1.65,1.057-3.05,2.528-3.569
		c-0.234-0.493-0.366-1.044-0.366-1.625c0-2.088,1.695-3.781,3.782-3.781c1.95,0,3.553,1.475,3.76,3.372l8.09,3.069
		c5.741-3.082,14.577-1.179,15.993,8.153h2.282c-1.469-9.791-7.767-13.076-17.202-11.433c7.529-16.063,25.609-20.779,34.419-5.903
		H57.272z"/>
</g>
</svg>
