<?xml version="1.0" encoding="iso-8859-1"?>
<!-- Generator: Adobe Illustrator 15.0.0, SVG Export Plug-In . SVG Version: 6.00 Build 0)  -->
<!DOCTYPE svg PUBLIC "-//W3C//DTD SVG 1.1//EN" "http://www.w3.org/Graphics/SVG/1.1/DTD/svg11.dtd">
<svg version="1.1" id="Layer_1" xmlns="http://www.w3.org/2000/svg" xmlns:xlink="http://www.w3.org/1999/xlink" x="0px" y="0px"
	 width="64px" height="64px" viewBox="0 0 64 64" style="enable-background:new 0 0 64 64;" xml:space="preserve">
<g>
	<path style="fill:#010101;" d="M16.653,26.174c0.123,0,0.239-0.01,0.36-0.024c0,0.007,0.003,0.014,0.007,0.024h23.161
		c0.003-0.01,0.007-0.018,0.01-0.024c0.113,0.014,0.233,0.024,0.354,0.024c1.515,0,2.739-1.221,2.739-2.726
		c0-0.962-0.501-1.802-1.255-2.29c-0.062-0.034-0.12-0.068-0.183-0.11c-0.003,0-0.003,0-0.003,0
		c-0.377-0.253-0.651-0.647-0.754-1.104c-0.01-0.038-0.021-0.076-0.024-0.117v-0.006c-0.003-0.011-0.003-0.021-0.003-0.032
		c-0.186-0.812-0.912-1.418-1.779-1.418c-0.052,0-0.1,0-0.15,0.003c0,0,0,0-0.007,0.003c-0.072,0.011-0.141,0.02-0.213,0.027
		c-0.302,0.034-0.606,0.059-0.919,0.059c-4.127,0-7.473-3.336-7.473-7.453c0-0.078,0.004-0.157,0.004-0.236
		c0.003-0.056,0.003-0.106,0.007-0.162c-0.004-0.959-0.758-1.741-1.707-1.799c-0.059,0-0.12-0.003-0.182-0.003h-0.045
		c-6.385,0-11.661,4.758-12.454,10.907c-0.002,0.034-0.005,0.068-0.009,0.104c-0.004,0-0.004,0.002-0.004,0.006
		c-0.079,0.508-0.367,0.944-0.775,1.221c-0.003,0-0.003,0-0.003,0c-0.058,0.038-0.121,0.076-0.182,0.106
		c-0.758,0.483-1.256,1.327-1.256,2.29C13.916,24.954,15.141,26.174,16.653,26.174z M61.438,13.056l-0.106-0.106
		c-0.511-0.497-1.299-0.542-1.851-0.127l-0.278,0.271l-8.74,8.603l-1.827,1.8l-0.556,0.548c-0.01,0.003-0.014,0.01-0.023,0.021
		c-0.113,0.116-0.182,0.271-0.182,0.445c0,0.36,0.294,0.652,0.658,0.652h1.857c0.473,0,0.905-0.183,1.214-0.477
		c0.023-0.018,0.044-0.035,0.062-0.059l9.618-9.471l0.281-0.277C61.986,14.332,61.941,13.553,61.438,13.056z M53.231,27.764H6.108
		c-2.186,0-3.959,1.742-3.959,3.898c0,0.202,0.018,0.4,0.048,0.596L2.18,32.262c0.059,0.343,0.124,0.687,0.192,1.029
		c0.004,0.021,0.007,0.034,0.011,0.051C2.554,34.117,3.257,34.7,4.1,34.7h51.129c0.848,0,1.558-0.594,1.726-1.385v-0.011
		c0.072-0.343,0.142-0.692,0.198-1.046h-0.003c0.034-0.195,0.048-0.394,0.048-0.596C57.194,29.506,55.422,27.764,53.231,27.764z
		 M54.105,38.161H5.217c-0.481,0-0.878,0.388-0.878,0.868c0,0.116,0.025,0.223,0.063,0.322c0.012,0.035,0.026,0.062,0.043,0.093
		c0,0,0,0.003,0.003,0.003c1.351,2.829,3.207,5.433,5.516,7.706c1.126,1.107,2.325,2.108,3.597,2.996c0,0,0.004,0.003,0.007,0.007
		c0.106,0.062,0.201,0.13,0.299,0.202c0.008,0.003,0.008,0.007,0.011,0.011c0.585,0.479,0.962,1.203,0.962,2.008
		c0,0.144-0.011,0.292-0.034,0.425c-0.016,0.089-0.034,0.175-0.057,0.257c0,0.003,0,0.007,0,0.007
		c-0.015,0.076-0.019,0.154-0.019,0.237v0.188c0,0.867,0.647,1.58,1.49,1.697h26.893c0.847-0.117,1.494-0.83,1.494-1.697v-0.188
		c0-0.051-0.003-0.103-0.007-0.154c-0.044-0.137-0.071-0.278-0.092-0.422c-0.018-0.116-0.028-0.233-0.028-0.353
		c0-0.805,0.378-1.529,0.964-2.008c0.003,0,0.007-0.007,0.007-0.007c0.103-0.082,0.213-0.154,0.322-0.219
		c1.269-0.891,2.465-1.885,3.585-2.993c2.311-2.276,4.165-4.884,5.516-7.709c0.014-0.024,0.028-0.051,0.034-0.075
		c0.045-0.106,0.072-0.22,0.072-0.339C54.986,38.552,54.589,38.161,54.105,38.161z"/>
</g>
</svg>
