<?xml version="1.0" encoding="iso-8859-1"?>
<!-- Generator: Adobe Illustrator 15.0.0, SVG Export Plug-In . SVG Version: 6.00 Build 0)  -->
<!DOCTYPE svg PUBLIC "-//W3C//DTD SVG 1.1//EN" "http://www.w3.org/Graphics/SVG/1.1/DTD/svg11.dtd">
<svg version="1.1" id="Layer_1" xmlns="http://www.w3.org/2000/svg" xmlns:xlink="http://www.w3.org/1999/xlink" x="0px" y="0px"
	 width="64px" height="64px" viewBox="0 0 64 64" style="enable-background:new 0 0 64 64;" xml:space="preserve">
<g>
	<path style="fill:#010101;" d="M4.662,52.547c0,2.221,1.785,4.019,3.987,4.019h46.7c2.203,0,3.988-1.798,3.988-4.019H4.662z"/>
	<path style="fill:#010101;" d="M25.041,20.196l0.021-0.033c0,0,4.661-1.444,2.856-6.855c-1.3-3.897-0.218-5.793-0.171-5.873
		l-0.021,0.033c0,0-4.661,1.443-2.856,6.854C26.17,18.22,25.088,20.119,25.041,20.196z"/>
	<path style="fill:#010101;" d="M30.644,20.196l0.02-0.033c0,0,4.662-1.444,2.856-6.855c-1.299-3.897-0.218-5.793-0.171-5.873
		l-0.02,0.033c0,0-4.661,1.443-2.856,6.854C31.771,18.22,30.69,20.119,30.644,20.196z"/>
	<path style="fill:#010101;" d="M36.245,20.196l0.021-0.033c0,0,4.661-1.444,2.856-6.855c-1.299-3.897-0.218-5.793-0.171-5.873
		l-0.02,0.033c0,0-4.662,1.443-2.856,6.854C37.374,18.22,36.292,20.119,36.245,20.196z"/>
	<path style="fill:#010101;" d="M40.84,27.409c0-0.442,0.358-0.804,0.804-0.804c0.442,0,0.804,0.361,0.804,0.804v15.354
		c0,0.442-0.361,0.804-0.804,0.804c-0.445,0-0.804-0.361-0.804-0.804V27.409z M18.2,23.465c-0.814,0-1.474,0.659-1.474,1.473v18.625
		c0,3.554,2.876,6.43,6.429,6.43H40.84c3.553,0,6.43-2.876,6.43-6.43V26.686h3.318c1.329,0,2.411,1.082,2.411,2.411v6.43
		c0,1.33-1.082,2.411-2.411,2.411l-0.231-0.011c-0.851,0-1.537,0.687-1.537,1.537l0.007,1.685h1.762
		c3.101,0,5.626-2.524,5.626-5.626v-6.429c0-3.101-2.525-5.626-5.626-5.626L18.2,23.465z"/>
</g>
</svg>
