<?xml version="1.0" encoding="iso-8859-1"?>
<!-- Generator: Adobe Illustrator 15.0.0, SVG Export Plug-In . SVG Version: 6.00 Build 0)  -->
<!DOCTYPE svg PUBLIC "-//W3C//DTD SVG 1.1//EN" "http://www.w3.org/Graphics/SVG/1.1/DTD/svg11.dtd">
<svg version="1.1" id="Layer_1" xmlns="http://www.w3.org/2000/svg" xmlns:xlink="http://www.w3.org/1999/xlink" x="0px" y="0px"
	 width="64px" height="64px" viewBox="0 0 64 64" style="enable-background:new 0 0 64 64;" xml:space="preserve">
<g>
	<path style="fill:#010101;" d="M32.906,18.758c-7.295,0-13.229,5.934-13.229,13.229s5.935,13.229,13.229,13.229
		s13.229-5.934,13.229-13.229S40.201,18.758,32.906,18.758z"/>
	<path style="fill:#010101;" d="M32.906,45.866c-7.654,0-13.879-6.227-13.879-13.88c0-7.652,6.225-13.879,13.879-13.879
		c7.652,0,13.879,6.227,13.879,13.879C46.785,39.64,40.559,45.866,32.906,45.866z M32.906,13.985
		c-9.939,0-17.997,8.058-17.997,17.998c0,9.943,8.054,18.001,17.997,18.001c9.939,0,18.001-8.058,18.001-17.998
		C50.907,22.043,42.846,13.985,32.906,13.985z"/>
	<path style="fill:#010101;" d="M11.008,14.151v8.782c0,0.464-0.377,0.842-0.842,0.842c-0.466,0-0.843-0.378-0.843-0.842v-8.948
		H6.902v8.948c0,0.464-0.377,0.842-0.843,0.842c-0.465,0-0.842-0.378-0.842-0.842v-8.782c-1.104,0.392-1.892,1.44-1.892,2.679v7.367
		c0,1.54,1.586,2.792,3.112,2.838V47.95c0,1.125,0.551,2.034,1.676,2.034c1.122,0,1.677-0.912,1.677-2.034V27.035
		c1.53-0.046,3.112-1.298,3.112-2.838V16.83C12.903,15.592,12.113,14.543,11.008,14.151z"/>
	<path style="fill:#010101;" d="M54.11,22.585c0.025-4.235,2.83-7.76,6.551-8.573v13.511h0.013v20.491
		c0,1.104-0.538,2.001-1.643,2.001c-1.105,0-1.643-0.896-1.643-2.001V33.317c-2.111-0.717-3.249-2.153-3.278-3.844h-0.004v-6.886
		h0.004V22.585z"/>
</g>
</svg>
