<?xml version="1.0" encoding="iso-8859-1"?>
<!-- Generator: Adobe Illustrator 15.0.0, SVG Export Plug-In . SVG Version: 6.00 Build 0)  -->
<!DOCTYPE svg PUBLIC "-//W3C//DTD SVG 1.1//EN" "http://www.w3.org/Graphics/SVG/1.1/DTD/svg11.dtd">
<svg version="1.1" id="Layer_1" xmlns="http://www.w3.org/2000/svg" xmlns:xlink="http://www.w3.org/1999/xlink" x="0px" y="0px"
	 width="64px" height="64px" viewBox="0 0 64 64" style="enable-background:new 0 0 64 64;" xml:space="preserve">
<g>
	<path style="fill:#010101;" d="M32,48.87c-15.925,0-25.704-4.68-25.704-8.034c0-1.281,1.419-2.71,3.839-3.976
		c-0.338,1.503-0.542,3.029-0.603,4.572c-0.023,0.609,0.298,1.178,0.83,1.47c4.974,2.73,13.062,4.359,21.638,4.359
		c8.578,0,16.664-1.629,21.634-4.356c0.532-0.295,0.857-0.863,0.834-1.47c-0.061-1.543-0.265-3.068-0.603-4.571
		c2.423,1.262,3.839,2.687,3.839,3.972C57.704,44.19,47.925,48.87,32,48.87z M32,15.132c0.887,0,1.606,0.72,1.606,1.607
		s-0.72,1.606-1.606,1.606s-1.606-0.719-1.606-1.606S31.113,15.132,32,15.132z M52.576,32.777c-0.732-1.797-1.643-3.484-2.734-5.004
		c-3.394-4.735-8.17-7.864-13.494-8.976c0.298-0.627,0.469-1.326,0.469-2.062c0-2.658-2.162-4.819-4.82-4.819
		c-2.657,0-4.819,2.161-4.819,4.819c0,0.739,0.171,1.435,0.472,2.064c-5.321,1.111-10.093,4.24-13.486,8.973
		c-1.089,1.52-1.998,3.204-2.732,5c-5.459,2.072-8.347,4.85-8.347,8.062c0,7.304,14.9,11.247,28.917,11.247
		s28.917-3.943,28.917-11.247C60.917,37.623,58.032,34.85,52.576,32.777z"/>
</g>
</svg>
