<?xml version="1.0" encoding="iso-8859-1"?>
<!-- Generator: Adobe Illustrator 15.0.0, SVG Export Plug-In . SVG Version: 6.00 Build 0)  -->
<!DOCTYPE svg PUBLIC "-//W3C//DTD SVG 1.1//EN" "http://www.w3.org/Graphics/SVG/1.1/DTD/svg11.dtd">
<svg version="1.1" id="Layer_1" xmlns="http://www.w3.org/2000/svg" xmlns:xlink="http://www.w3.org/1999/xlink" x="0px" y="0px"
	 width="64px" height="64px" viewBox="0 0 64 64" style="enable-background:new 0 0 64 64;" xml:space="preserve">
<path style="fill:#010101;" d="M48.627,5.855c-3.054-0.284-5.97,0.441-8.451,1.897c-2.155-1.952-5.004-3.151-8.141-3.151
	c-3.128,0-5.969,1.191-8.121,3.134c-1.73-1.015-3.688-1.684-5.804-1.88c-7.916-0.739-14.945,5.257-15.7,13.391
	c-0.745,7.993,4.854,15.058,12.562,15.999v20.962c0.005-0.001,0.011-0.003,0.017-0.003c-0.001,0.013-0.017,0.025-0.017,0.038
	c0,1.109,7.86,3.156,17.555,3.156c9.693,0,17.555-2.047,17.555-3.156c0-0.015-0.016-0.028-0.019-0.042
	c0.006,0.001,0.013,0.003,0.019,0.004V35.06c6.067-1.275,10.889-6.493,11.507-13.146C62.347,13.78,56.542,6.591,48.627,5.855z"/>
</svg>
