<?xml version="1.0" encoding="iso-8859-1"?>
<!-- Generator: Adobe Illustrator 15.0.0, SVG Export Plug-In . SVG Version: 6.00 Build 0)  -->
<!DOCTYPE svg PUBLIC "-//W3C//DTD SVG 1.1//EN" "http://www.w3.org/Graphics/SVG/1.1/DTD/svg11.dtd">
<svg version="1.1" id="Layer_1" xmlns="http://www.w3.org/2000/svg" xmlns:xlink="http://www.w3.org/1999/xlink" x="0px" y="0px"
	 width="64px" height="64px" viewBox="0 0 64 64" style="enable-background:new 0 0 64 64;" xml:space="preserve">
<path style="fill:#010101;" d="M11.374,33.006c-1.523-3.052-2.035-8.814-0.51-11.356c1.523-2.542,3.559-2.035,3.559-1.355
	c0,0.679,0.848,1.355,0.848,1.355C10.188,28.6,11.374,33.006,11.374,33.006z M57.422,19.311c-0.058-0.399-0.378-0.736-0.838-0.818
	c-0.463-0.078-2.765-0.601-3.495-0.618c-0.729-0.02-1.721-0.112-2.251,0.006c-0.534,0.119-1.069,0.504-1.281,0.896
	c-0.209,0.392-1.923,2.734-2.48,3.778s-1.312,2.154-1.312,2.154s-0.442-0.808-1.42-1.494c-0.977-0.69-1.43-1.031-1.689-1.302
	c-0.257-0.27-0.372-1.003-0.169-1.197c0.202-0.192,0.023-0.858-0.237-1.131c-0.257-0.271-1.041-0.724-2.494-0.825
	c-1.451-0.105-1.717-0.108-1.717-0.108s-0.943-0.622-2.096-0.98c-1.149-0.361-2.038-0.547-2.237-0.588s-0.689-0.284-0.643-0.777
	c0.044-0.498,0.544-0.518,0.541-1.677s-1.108-1.951-3.394-1.94c-2.285,0.007-3.657,0.538-3.721,1.825
	c-0.068,1.292,0.658,1.44,0.551,1.802c-0.108,0.361-0.314,0.555-0.413,0.585c-0.101,0.03-1.53,0.358-2.5,0.73
	c-0.97,0.372-1.906,0.713-1.906,0.713s-1.326,0.034-2.021,0.047c-0.696,0.013-1.625,0.121-1.625,0.121s-1.847-2.96-6.236-2.213
	c-4.392,0.747-5.449,5.888-5.599,6.546c-0.148,0.66-0.611,5.814,1.153,9.302c1.764,3.488,2.271,4.364,2.271,4.364l0.126,0.267
	c0,0-0.064,2.447,1.305,5.928c1.368,3.478,4.417,6.006,4.738,6.348s4.31,2.363,12.857,2.251c8.548-0.111,11.417-1.031,12.695-1.727
	c1.274-0.696,2.353-1.328,3.309-2.498c0.957-1.166,1.312-2.085,1.312-2.085s2.143-0.872,3.454-3.025
	c1.315-2.149,1.717-4.925,1.876-6.043c0.162-1.122,0.551-5.945,0.862-7.726c0.311-1.778,0.784-4.747,1.937-5.845
	c1.156-1.095,1.294-1.358,1.899-1.741C57.135,20.23,57.477,19.709,57.422,19.311z"/>
</svg>
