<?xml version="1.0" encoding="iso-8859-1"?>
<!-- Generator: Adobe Illustrator 15.0.0, SVG Export Plug-In . SVG Version: 6.00 Build 0)  -->
<!DOCTYPE svg PUBLIC "-//W3C//DTD SVG 1.1//EN" "http://www.w3.org/Graphics/SVG/1.1/DTD/svg11.dtd">
<svg version="1.1" id="Layer_1" xmlns="http://www.w3.org/2000/svg" xmlns:xlink="http://www.w3.org/1999/xlink" x="0px" y="0px"
	 width="64px" height="64px" viewBox="0 0 64 64" style="enable-background:new 0 0 64 64;" xml:space="preserve">
<g>
	<path style="fill:#010101;" d="M43.984,47.75c0,0-7.915-1.336-14.501-8.621c-6.589-7.283-8.717-12.434-11.476-15.498
		c-2.757-3.066-1.669-1.669-2.771-0.138s-1.953,0.756-3.174,1.546c0,0-2.428,0.978-2.973,2.29c0,0-0.757,1.954,4.84,8.862
		c5.591,6.908,12.32,12.168,16.264,13.788c3.942,1.621,8.238,3.752,13.085,3.955c4.851,0.205,15.541-0.558,15.241,3.17
		C58.52,57.104,63.796,51.314,43.984,47.75z"/>
	<path style="fill:#010101;" d="M12.99,23.736c1.138,0.324,2.198-1.636,1.851-1.979c-0.049-0.049-0.319,0.078-0.422,0.1
		c0,0-1.879,2.009-5.658-4.035c-3.786-6.045-1.47-10.926-1.47-10.926S3.355,8.648,5.463,14.18c2.109,5.532,2.277,5.815,3.013,7.072
		c0.735,1.258,1.756,2.222,0.216,4.86C8.688,26.11,11.692,23.367,12.99,23.736z"/>
</g>
</svg>
