<?xml version="1.0" encoding="iso-8859-1"?>
<!-- Generator: Adobe Illustrator 15.0.0, SVG Export Plug-In . SVG Version: 6.00 Build 0)  -->
<!DOCTYPE svg PUBLIC "-//W3C//DTD SVG 1.1//EN" "http://www.w3.org/Graphics/SVG/1.1/DTD/svg11.dtd">
<svg version="1.1" id="Layer_1" xmlns="http://www.w3.org/2000/svg" xmlns:xlink="http://www.w3.org/1999/xlink" x="0px" y="0px"
	 width="64px" height="64px" viewBox="0 0 64 64" style="enable-background:new 0 0 64 64;" xml:space="preserve">
<g>
	<path style="fill:#010101;" d="M30.149,44.91c-1.782,0-3.237-1.518-3.237-3.384c0-1.863,1.451-3.385,3.237-3.385
		c1.782,0,3.238,1.518,3.238,3.385C33.387,43.393,31.935,44.91,30.149,44.91z M25.924,36.97l-0.2,0.209
		c-1.121,1.172-1.782,2.83-1.782,4.556c0,3.589,2.841,6.56,6.275,6.56c1.717,0,3.238-0.69,4.359-1.863l0.199-0.276L55.12,15.706
		L25.924,36.97z"/>
	<path style="fill:#010101;" d="M51.356,23.438l-4.294,6.423c4.424,4.279,7.201,10.356,7.201,17.053h7.397
		C61.661,37.523,57.632,29.17,51.356,23.438z"/>
	<path style="fill:#010101;" d="M32,15.911c-16.384,0-29.661,13.878-29.661,31.002h7.397C9.74,34.14,19.714,23.715,32,23.715
		c2.907,0,5.615,0.554,8.192,1.657l6.936-5.109C42.7,17.501,37.549,15.911,32,15.911z"/>
</g>
</svg>
