<?xml version="1.0" encoding="iso-8859-1"?>
<!-- Generator: Adobe Illustrator 15.0.0, SVG Export Plug-In . SVG Version: 6.00 Build 0)  -->
<!DOCTYPE svg PUBLIC "-//W3C//DTD SVG 1.1//EN" "http://www.w3.org/Graphics/SVG/1.1/DTD/svg11.dtd">
<svg version="1.1" id="Layer_1" xmlns="http://www.w3.org/2000/svg" xmlns:xlink="http://www.w3.org/1999/xlink" x="0px" y="0px"
	 width="64px" height="64px" viewBox="0 0 64 64" style="enable-background:new 0 0 64 64;" xml:space="preserve">
<g>
	<path style="fill:#010101;" d="M11.86,10.641c0.133-0.118,0.336-0.24,0.606-0.359c0.204-0.119,0.404-0.181,0.674-0.3
		c0.204-0.119,0.469-0.182,0.806-0.3C15.834,9.081,21.423,7.581,32,7.581c10.17,0,15.696,1.382,17.646,1.919
		c2.021,0.601,2.628,1.141,2.628,1.259c0,0-0.067,0.06-0.204,0.182c-0.066,0.06-0.203,0.119-0.27,0.182l-0.066,0.059
		c-0.134,0.06-0.271,0.12-0.471,0.241l-0.133,0.06c-0.133,0.06-0.336,0.119-0.54,0.181l-0.204,0.061
		c-0.203,0.059-0.403,0.118-0.673,0.24l-0.204,0.06c-0.27,0.059-0.47,0.118-0.74,0.24l-0.337,0.059
		c-0.27,0.06-0.54,0.119-0.877,0.182l-0.403,0.06c-0.337,0.059-0.673,0.119-1.01,0.181c-0.204,0.06-0.47,0.06-0.74,0.119
		l-0.674,0.119c-0.203,0.06-0.47,0.06-0.673,0.118h-0.133c-0.271,0.06-0.47,0.06-0.74,0.119s-0.541,0.06-0.877,0.119
		c-0.271,0.059-0.607,0.059-0.877,0.118c-0.27,0-0.606,0.06-0.877,0.06c-0.336,0.06-0.673,0.06-1.01,0.06
		c-0.27,0-0.607,0.06-0.877,0.06c-0.403,0-0.807,0.059-1.214,0.059l-0.877,0.06c-0.47,0-0.944,0.06-1.414,0.06h-0.741
		c-0.74,0-1.551,0-2.357,0s-1.55,0-2.291,0h-0.741c-0.47,0-0.944,0-1.414-0.06l-0.877-0.06c-0.403,0-0.807-0.059-1.214-0.059
		c-0.271,0-0.607-0.06-0.877-0.06c-0.336,0-0.674-0.06-1.009-0.06c-0.271,0-0.607-0.06-0.878-0.06
		c-0.336-0.06-0.607-0.06-0.877-0.118c-0.269-0.06-0.606-0.06-0.876-0.119c-0.27-0.06-0.471-0.06-0.74-0.119l-0.39,0.119
		c-0.204,0-0.403-0.06-0.606-0.06l-0.674-0.118c-0.271-0.06-0.54-0.06-0.741-0.119c-0.336-0.06-0.673-0.119-1.01-0.181l-0.403-0.06
		c-0.336-0.061-0.607-0.119-0.877-0.182l-0.337-0.119c-0.271-0.06-0.54-0.118-0.74-0.24l-0.271-0.06
		c-0.203-0.059-0.403-0.118-0.607-0.182l-0.203-0.059c-0.204-0.06-0.337-0.118-0.541-0.24l-0.066-0.06
		c-0.133-0.06-0.337-0.119-0.47-0.24l-0.067-0.061c-0.133-0.06-0.203-0.118-0.337-0.24c-0.066-0.06-0.133-0.119-0.133-0.119
		C11.66,10.818,11.726,10.759,11.86,10.641z M54.901,24.619c0.067,0,0.204-0.06,0.271-0.06V10.818C55.172,5.06,32.944,5,32,5
		S8.828,5.06,8.828,10.818V24.5c0.134,0,0.204,0.06,0.271,0.119C10.109,24.919,32.607,31.641,54.901,24.619z"/>
	<path style="fill:#010101;" d="M54.966,39.741c0.066,0,0.133,0,0.204-0.06V27.26c-7.679,2.281-15.425,3.118-22.361,3.118
		c-11.45,0-20.748-2.159-23.979-3.118v12.6C13.005,41.118,34.423,46.818,54.966,39.741z"/>
	<path style="fill:#010101;" d="M8.828,42.5v10.682C8.828,58.94,31.056,59,32,59s23.172-0.06,23.172-5.818V42.44
		c-7.746,2.52-15.426,3.419-22.361,3.419C21.83,45.859,12.803,43.699,8.828,42.5z"/>
</g>
</svg>
