<?xml version="1.0" encoding="iso-8859-1"?>
<!-- Generator: Adobe Illustrator 15.0.0, SVG Export Plug-In . SVG Version: 6.00 Build 0)  -->
<!DOCTYPE svg PUBLIC "-//W3C//DTD SVG 1.1//EN" "http://www.w3.org/Graphics/SVG/1.1/DTD/svg11.dtd">
<svg version="1.1" id="Layer_1" xmlns="http://www.w3.org/2000/svg" xmlns:xlink="http://www.w3.org/1999/xlink" x="0px" y="0px"
	 width="64px" height="64px" viewBox="0 0 64 64" style="enable-background:new 0 0 64 64;" xml:space="preserve">
<g>
	<path style="fill:#020202;" d="M18.33,14.912V8.078c0-1.889,1.529-3.418,3.418-3.418c1.887,0,3.416,1.529,3.416,3.418v6.834
		c0,1.889-1.529,3.418-3.416,3.418C19.859,18.33,18.33,16.801,18.33,14.912z"/>
	<path style="fill:#020202;" d="M53.748,54.836H9.912V28h43.836V54.836z M49.088,11.494v3.498c0,3.779-3.057,6.834-6.836,6.834
		s-6.834-3.055-6.834-6.834v-3.498h-6.836v3.498c0,3.779-3.055,6.834-6.834,6.834s-6.836-3.055-6.836-6.834v-3.498H4.66V59.34h54.68
		V11.494H49.088z"/>
	<path style="fill:#020202;" d="M38.836,14.912V8.078c0-1.889,1.529-3.418,3.416-3.418c1.889,0,3.418,1.529,3.418,3.418v6.834
		c0,1.889-1.529,3.418-3.418,3.418C40.365,18.33,38.836,16.801,38.836,14.912z"/>
	<g>
		<path d="M17.862,47.732c0.6-1.426,2.017-2.936,4.249-4.528c1.938-1.387,3.191-2.381,3.762-2.98
			c0.875-0.935,1.313-1.957,1.313-3.068c0-0.905-0.251-1.657-0.753-2.258c-0.501-0.6-1.22-0.899-2.153-0.899
			c-1.279,0-2.149,0.477-2.611,1.431c-0.266,0.551-0.423,1.427-0.473,2.626H17.11c0.068-1.819,0.398-3.29,0.989-4.411
			c1.122-2.134,3.116-3.201,5.98-3.201c2.265,0,4.066,0.627,5.405,1.881s2.009,2.914,2.009,4.979c0,1.583-0.473,2.99-1.419,4.219
			c-0.621,0.816-1.641,1.727-3.06,2.729l-1.686,1.195c-1.054,0.747-1.775,1.288-2.164,1.623c-0.389,0.334-0.716,0.723-0.981,1.165
			h9.339v3.703H16.874C16.913,50.403,17.243,49.002,17.862,47.732z"/>
		<path d="M34.344,42.746c0.542-0.974,1.336-1.706,2.382-2.198c-1.036-0.688-1.71-1.433-2.021-2.234
			c-0.311-0.802-0.466-1.552-0.466-2.25c0-1.554,0.586-2.879,1.759-3.977c1.173-1.097,2.829-1.645,4.969-1.645
			c2.139,0,3.795,0.548,4.968,1.645c1.173,1.098,1.76,2.423,1.76,3.977c0,0.698-0.155,1.448-0.465,2.25
			c-0.311,0.802-0.981,1.497-2.014,2.087c1.057,0.591,1.853,1.372,2.386,2.346s0.801,2.061,0.801,3.261
			c0,1.8-0.667,3.332-2.001,4.596s-3.197,1.896-5.59,1.896s-4.204-0.632-5.435-1.896s-1.846-2.796-1.846-4.596
			C33.53,44.807,33.801,43.72,34.344,42.746z M38.716,48.176c0.546,0.58,1.301,0.87,2.265,0.87s1.719-0.29,2.265-0.87
			s0.818-1.396,0.818-2.449c0-1.092-0.277-1.92-0.833-2.486c-0.556-0.565-1.306-0.848-2.25-0.848s-1.694,0.282-2.25,0.848
			c-0.556,0.566-0.834,1.395-0.834,2.486C37.896,46.779,38.17,47.596,38.716,48.176z M38.983,38.438
			c0.479,0.492,1.142,0.737,1.989,0.737c0.858,0,1.521-0.245,1.99-0.737c0.468-0.491,0.702-1.126,0.702-1.903
			c0-0.846-0.234-1.507-0.702-1.984c-0.469-0.477-1.132-0.715-1.99-0.715c-0.848,0-1.511,0.238-1.989,0.715
			c-0.479,0.478-0.718,1.139-0.718,1.984C38.266,37.312,38.505,37.947,38.983,38.438z"/>
	</g>
</g>
</svg>
