<?xml version="1.0" encoding="iso-8859-1"?>
<!-- Generator: Adobe Illustrator 15.0.0, SVG Export Plug-In . SVG Version: 6.00 Build 0)  -->
<!DOCTYPE svg PUBLIC "-//W3C//DTD SVG 1.1//EN" "http://www.w3.org/Graphics/SVG/1.1/DTD/svg11.dtd">
<svg version="1.1" id="Layer_1" xmlns="http://www.w3.org/2000/svg" xmlns:xlink="http://www.w3.org/1999/xlink" x="0px" y="0px"
	 width="64px" height="64px" viewBox="0 0 64 64" style="enable-background:new 0 0 64 64;" xml:space="preserve">
<g>
	<path style="fill:#010101;" d="M49.11,46.72h-5.42V29.402h5.42c0.649,0.604,1.794,3.649,1.794,8.658S49.76,46.112,49.11,46.72z
		 M41.945,14.683c-0.111,1.969-1.74,3.535-3.74,3.535c-0.862,0-1.653-0.295-2.287-0.784c-0.638-0.493-1.113-1.185-1.329-1.984
		c-0.316,0.436-0.776,0.757-1.314,0.89c-0.18,0.045-0.359,0.075-0.552,0.075c-0.701,0-1.321-0.318-1.745-0.812
		c0.003,0.078,0.013,0.156,0.013,0.234c0,0.82-0.217,1.587-0.59,2.255c-0.791,1.41-2.296,2.363-4.028,2.363
		c-1.39,0-2.63-0.613-3.476-1.585c-0.534-0.613-0.912-1.365-1.062-2.194c-0.424,0.538-1.074,0.893-1.812,0.893
		c-0.124,0-0.241-0.018-0.36-0.036c-0.53-0.084-0.996-0.343-1.341-0.722c-0.374-0.411-0.607-0.953-0.607-1.551
		c0-0.202,0.034-0.392,0.083-0.577c0.024-0.094,0.048-0.189,0.084-0.277c-0.149,0.103-0.31,0.192-0.472,0.277
		c-0.604,0.321-1.283,0.52-2.005,0.562c-0.098,0.006-0.19,0.016-0.29,0.016c-0.721,0-1.403-0.159-2.019-0.439
		c-1.701-0.77-2.886-2.48-2.886-4.468c0-2.709,2.196-4.906,4.904-4.906c2.71,0,4.908,2.197,4.908,4.906
		c0,0.097-0.01,0.192-0.016,0.289c-0.053,0.914-0.352,1.765-0.839,2.478c0.265-0.105,0.551-0.169,0.854-0.169
		c0.018,0,0.035,0.006,0.058,0.006c0.577,0.016,1.098,0.241,1.493,0.602c0.198,0.181,0.361,0.397,0.487,0.638
		c0.298-0.782,0.797-1.458,1.438-1.97c0.789-0.628,1.784-1.007,2.874-1.007c0.848,0,1.639,0.231,2.32,0.631
		c0.743,0.437,1.356,1.071,1.763,1.834c0.159-0.856,0.79-1.536,1.614-1.782c0.207-0.063,0.424-0.105,0.653-0.105
		c0.005,0,0.008,0,0.011,0c0.872,0.006,1.621,0.499,2.008,1.218c0.319-0.758,0.879-1.383,1.582-1.792
		c0.554-0.321,1.193-0.508,1.879-0.508c2.072,0,3.752,1.681,3.752,3.752C41.958,14.538,41.951,14.61,41.945,14.683z M37.34,51.626
		h-2.309V23.918h2.309V51.626z M31.567,51.626h-2.309V23.918h2.309V51.626z M25.795,51.626h-2.309V23.918h2.309V51.626z
		 M20.022,51.626h-2.309V23.918h2.309V51.626z M49.281,24.207H43.69v-7.246c0.236-0.508,0.404-1.055,0.492-1.626
		c0.003-0.019,0.006-0.033,0.009-0.052c0.03-0.195,0.048-0.396,0.058-0.598c0.009-0.1,0.019-0.195,0.019-0.292
		c0-3.347-2.716-6.062-6.062-6.062c-1.491,0-2.855,0.542-3.911,1.435c-0.49-0.178-1.02-0.279-1.571-0.279
		c-0.876,0-1.693,0.249-2.392,0.67C29.21,9.373,27.845,8.91,26.372,8.91c-1.512,0-2.907,0.489-4.046,1.313
		c-0.073-3.924-3.269-7.086-7.212-7.086c-3.981,0-7.214,3.231-7.214,7.215c0,2.959,1.782,5.49,4.328,6.603v37.846
		c0,3.347,2.716,6.062,6.062,6.062h19.336c3.348,0,6.063-2.715,6.063-6.062v-2.886h5.591c1.443,0,4.095-0.688,5.632-5.295
		c0.767-2.3,1.187-5.339,1.187-8.56C56.1,31.362,54.309,24.207,49.281,24.207z"/>
</g>
</svg>
