<?xml version="1.0" encoding="iso-8859-1"?>
<!-- Generator: Adobe Illustrator 15.0.0, SVG Export Plug-In . SVG Version: 6.00 Build 0)  -->
<!DOCTYPE svg PUBLIC "-//W3C//DTD SVG 1.1//EN" "http://www.w3.org/Graphics/SVG/1.1/DTD/svg11.dtd">
<svg version="1.1" id="Layer_1" xmlns="http://www.w3.org/2000/svg" xmlns:xlink="http://www.w3.org/1999/xlink" x="0px" y="0px"
	 width="64px" height="64px" viewBox="0 0 64 64" style="enable-background:new 0 0 64 64;" xml:space="preserve">
<g>
	<path style="fill:#010101;" d="M32.003,32.826c7.315,0,13.241-5.928,13.241-13.244H18.763
		C18.763,26.898,24.69,32.826,32.003,32.826z"/>
	<path style="fill:#010101;" d="M36.28,54.324c-1.205-0.152-2.141-1.178-2.141-2.426V40.617c0-0.918,0.68-1.684,1.562-1.816
		l-0.004-0.006c8.807-1.727,15.473-9.502,15.473-18.809c0-3.857-1.057-10.533-3.169-15.666h-3.713
		c2.1,4.357,3.463,11.312,3.463,15.666c0,8.684-7.064,15.752-15.751,15.752c-8.683,0-15.75-7.064-15.75-15.752
		c0-4.035,1.724-11.184,4.113-15.666h-3.792C14.19,9.543,12.83,16.309,12.83,19.986c0,9.311,6.675,17.088,15.486,18.809
		c0,0-0.003,0.004,0,0.004c0.833,0.125,1.477,0.812,1.549,1.662v11.455c0,0.004,0,0.004,0,0.006c0,1.26-0.945,2.295-2.166,2.434
		c-0.012,0-0.021,0.016-0.029,0.035c-6.689,0.682-11.567,2.791-11.567,5.289h32.451C48.554,57.094,43.33,54.924,36.28,54.324z"/>
</g>
</svg>
