<?xml version="1.0" encoding="iso-8859-1"?>
<!-- Generator: Adobe Illustrator 15.0.0, SVG Export Plug-In . SVG Version: 6.00 Build 0)  -->
<!DOCTYPE svg PUBLIC "-//W3C//DTD SVG 1.1//EN" "http://www.w3.org/Graphics/SVG/1.1/DTD/svg11.dtd">
<svg version="1.1" id="Layer_1" xmlns="http://www.w3.org/2000/svg" xmlns:xlink="http://www.w3.org/1999/xlink" x="0px" y="0px"
	 width="64px" height="64px" viewBox="0 0 64 64" style="enable-background:new 0 0 64 64;" xml:space="preserve">
<g>
	<defs>
		<rect id="SVGID_1_" x="5.16" y="5.16" width="53.68" height="53.68"/>
	</defs>
	<clipPath id="SVGID_2_">
		<use xlink:href="#SVGID_1_"  style="overflow:visible;"/>
	</clipPath>
	<g style="clip-path:url(#SVGID_2_);">
		<defs>
			<rect id="SVGID_3_" x="5.16" y="5.16" width="53.68" height="53.68"/>
		</defs>
		<clipPath id="SVGID_4_">
			<use xlink:href="#SVGID_3_"  style="overflow:visible;"/>
		</clipPath>
		<g style="clip-path:url(#SVGID_4_);">
			<defs>
				<rect id="SVGID_5_" x="5.16" y="5.16" width="53.68" height="53.68"/>
			</defs>
			<clipPath id="SVGID_6_">
				<use xlink:href="#SVGID_5_"  style="overflow:visible;"/>
			</clipPath>
			<g style="clip-path:url(#SVGID_6_);">
				<defs>
					<rect id="SVGID_7_" x="5.16" y="5.16" width="53.68" height="53.68"/>
				</defs>
				<clipPath id="SVGID_8_">
					<use xlink:href="#SVGID_7_"  style="overflow:visible;"/>
				</clipPath>
				<path style="clip-path:url(#SVGID_8_);fill:#010101;" d="M44.949,46.168c-0.439,0.32-0.948,0.623-1.506,0.914
					c-0.137,0.57-0.291,1.117-0.443,1.656c-1.33,1.5-2.902,2.83-4.512,3.902c-0.031,0.021-0.049,0.047-0.076,0.066
					c-1.165,0.42-2.366,0.766-3.605,0.988c1.033-1.709,2.131-4.246,3.169-7.266c-0.669-0.545-1.369-1.123-2.11-1.75
					c-0.282-1.396-0.583-2.879-0.917-4.414c0.499-0.766,0.983-1.537,1.469-2.299c-0.417,0.068-0.838,0.146-1.263,0.213
					c-0.572-0.789-1.168-1.6-1.777-2.412c-0.526-0.275-1.059-0.562-1.592-0.838c-1.254-0.479-2.521-0.969-3.764-1.443
					c-0.998-1.643-1.967-3.271-2.891-4.826c-0.553-1.121-1.082-2.211-1.578-3.25c0.082-1.434,0.18-2.826,0.292-4.137
					c-0.771-1.377-1.479-2.605-2.097-3.705c-0.928-0.402-1.789-0.742-2.582-1.055c-0.598,0.434-1.172,0.904-1.695,1.391
					c-0.953,0.824-1.762,1.723-2.326,2.676c0.369-0.834,0.85-1.641,1.42-2.408c-0.314,0.047-0.606,0.094-0.883,0.145
					c-0.078-0.492-0.156-0.988-0.256-1.486c0.359-0.551,0.762-1.074,1.213-1.561c-0.402,0.059-0.785,0.119-1.16,0.195
					c0.084-0.391,0.178-0.764,0.279-1.137c0.305-0.066,0.615-0.146,0.928-0.213c-0.121-0.207-0.264-0.426-0.404-0.654
					c0.855-0.693,1.766-1.324,2.71-1.891c1.348,0.594,2.629,0.984,4.026,1.385c0.713-0.4,1.43-0.721,2.131-0.971
					c1.182,0.312,2.441,0.633,3.808,1.059c2.734-0.168,5.447-0.164,7.992-0.078c0.174,0.693,0.315,1.574,0.45,2.613
					c-1.084,0.008-2.205,0.059-3.365,0.133c-0.209,0.438-0.436,0.885-0.665,1.381c1.192,1.035,2.411,2.217,3.612,3.486
					c0.271,0,0.553,0,0.822,0c0.117-1.389,0.212-2.672,0.271-3.811c0.695,0.082,1.371,0.178,2.023,0.279
					c0.355,0.73,0.707,1.488,1.04,2.287c0.317-0.119,0.627-0.234,0.922-0.342c0.858,1.797,1.621,3.766,2.239,5.727
					c-0.766,0.24-1.665,0.533-2.688,0.891c-0.787,0.369-1.644,0.773-2.569,1.211c-0.71,0.998-1.483,2.055-2.291,3.15
					c-0.007,0.568-0.012,1.137-0.019,1.719c-0.29,0.033-0.59,0.059-0.894,0.098c-0.211-0.629-0.418-1.262-0.627-1.885
					c-1.17,0.125-2.381,0.266-3.605,0.414c-0.287,0.752-0.568,1.518-0.857,2.275c0.307,0.461,0.615,0.922,0.922,1.387
					c0.455-0.357,0.914-0.713,1.373-1.055c0.443,0.051,0.898,0.109,1.33,0.162c-0.225,0.635-0.467,1.266-0.697,1.896
					c0.525,0.053,1.051,0.096,1.575,0.131c0.157,0.674,0.315,1.344,0.463,2.008c0.339,0.119,0.681,0.23,1.011,0.344
					c0.266-0.426,0.527-0.846,0.785-1.271c1.637,0.17,3.154,0.318,4.457,0.426c0.848,0.779,1.592,1.5,2.221,2.137
					c0.072,0.578,0.133,1.158,0.191,1.725c0.79,0.41,1.381,0.713,1.768,0.922C45.891,42.961,45.482,44.58,44.949,46.168z M32,5.158
					C17.174,5.158,5.16,17.174,5.16,32c0,14.824,12.014,26.84,26.84,26.84c14.825,0,26.84-12.016,26.84-26.84
					C58.84,17.174,46.825,5.158,32,5.158z"/>
			</g>
		</g>
	</g>
</g>
</svg>
