<?xml version="1.0" encoding="iso-8859-1"?>
<!-- Generator: Adobe Illustrator 15.0.0, SVG Export Plug-In . SVG Version: 6.00 Build 0)  -->
<!DOCTYPE svg PUBLIC "-//W3C//DTD SVG 1.1//EN" "http://www.w3.org/Graphics/SVG/1.1/DTD/svg11.dtd">
<svg version="1.1" id="Layer_1" xmlns="http://www.w3.org/2000/svg" xmlns:xlink="http://www.w3.org/1999/xlink" x="0px" y="0px"
	 width="64px" height="64px" viewBox="0 0 64 64" style="enable-background:new 0 0 64 64;" xml:space="preserve">
<g>
	<path style="fill:#010101;" d="M58.272,19.574V17.25c0-1.234-1.018-2.18-2.18-2.18H7.908c-1.234,0-2.181,1.018-2.181,2.18v2.324
		C6.019,19.498,57.909,19.498,58.272,19.574z M58.272,46.754V27.713c-0.363,0.072-52.186,0.072-52.549,0v19.041
		c0,1.234,1.019,2.18,2.181,2.18h48.188C57.259,49.01,58.272,47.992,58.272,46.754z M61.18,17.246v29.508
		c0,2.836-2.324,5.088-5.087,5.088H7.908c-2.836,0-5.088-2.324-5.088-5.088V17.246c0-2.834,2.324-5.088,5.088-5.088h48.188
		C58.855,12.158,61.18,14.412,61.18,17.246z"/>
	<path style="fill:#010101;" d="M53.333,38.324v-2.182c0-0.363-0.292-0.727-0.727-0.727h-4.581c-0.363,0-0.727,0.363-0.727,0.727
		v2.182c0,0.363,0.363,0.727,0.727,0.727h4.581C53.041,39.051,53.333,38.688,53.333,38.324z M56.24,36.143v2.182
		c0,2.035-1.598,3.633-3.634,3.633h-4.581c-2.036,0-3.634-1.598-3.634-3.633v-2.182c0-2.035,1.598-3.633,3.634-3.633h4.581
		C54.639,32.51,56.24,34.111,56.24,36.143z"/>
	<path style="fill:#010101;" d="M39.815,38.324v-2.182c0-0.363-0.363-0.727-0.727-0.727H10.088c-0.363,0-0.727,0.363-0.727,0.727
		v2.182c0,0.363,0.363,0.727,0.727,0.727h28.929C39.452,39.051,39.815,38.688,39.815,38.324z M42.723,36.143v2.182
		c0,2.035-1.598,3.633-3.634,3.633H10.088c-2.036,0-3.634-1.598-3.634-3.633v-2.182c0-2.035,1.598-3.633,3.634-3.633h28.929
		C41.049,32.51,42.723,34.111,42.723,36.143z"/>
</g>
</svg>
