<?xml version="1.0" encoding="iso-8859-1"?>
<!-- Generator: Adobe Illustrator 15.0.0, SVG Export Plug-In . SVG Version: 6.00 Build 0)  -->
<!DOCTYPE svg PUBLIC "-//W3C//DTD SVG 1.1//EN" "http://www.w3.org/Graphics/SVG/1.1/DTD/svg11.dtd">
<svg version="1.1" id="Layer_1" xmlns="http://www.w3.org/2000/svg" xmlns:xlink="http://www.w3.org/1999/xlink" x="0px" y="0px"
	 width="64px" height="64px" viewBox="0 0 64 64" style="enable-background:new 0 0 64 64;" xml:space="preserve">
<g>
	<path style="fill:#010101;" d="M13.268,40.325h3.252l1.783,2.769l1.879-2.769h3.129l-3.414,4.771l3.727,5.303H20.35l-2.047-3.118
		l-2.068,3.118h-3.118l3.634-5.189L13.268,40.325z M4.643,50.18c0,5.066,4.108,9.178,9.178,9.178h16.724V33.456H4.643V50.18z"/>
	<path style="fill:#010101;" d="M48.528,19.388h-5.235v-2.665h5.235V19.388z M50.18,4.643H33.456V30.54h25.898V13.82
		C59.354,8.754,55.247,4.643,50.18,4.643z"/>
	<path style="fill:#010101;" d="M17.18,13.748h2.428v3.613h3.651v2.493h-3.651v3.613H17.18v-3.613h-3.642v-2.493h3.642V13.748z
		 M4.643,13.82v16.724H30.54V4.643H13.82C8.754,4.643,4.643,8.754,4.643,13.82z"/>
	<path style="fill:#010101;" d="M45.935,37.983h2.003l-3.479,14.381h-1.965L45.935,37.983z M33.456,59.357H50.18
		c5.07,0,9.178-4.111,9.178-9.178V33.456H33.456V59.357z"/>
</g>
</svg>
