<?xml version="1.0" encoding="iso-8859-1"?>
<!-- Generator: Adobe Illustrator 15.0.0, SVG Export Plug-In . SVG Version: 6.00 Build 0)  -->
<!DOCTYPE svg PUBLIC "-//W3C//DTD SVG 1.1//EN" "http://www.w3.org/Graphics/SVG/1.1/DTD/svg11.dtd">
<svg version="1.1" id="Layer_1" xmlns="http://www.w3.org/2000/svg" xmlns:xlink="http://www.w3.org/1999/xlink" x="0px" y="0px"
	 width="64px" height="64px" viewBox="0 0 64 64" style="enable-background:new 0 0 64 64;" xml:space="preserve">
<g>
	<path style="fill:#010101;" d="M22.752,35.79c0.017,0.052,0.03,0.107,0.047,0.159L22.752,35.79z"/>
	<path style="fill:#010101;" d="M17.792,37.502l-0.047-0.154C17.762,37.4,17.775,37.452,17.792,37.502z"/>
	<path style="fill:#010101;" d="M58.383,14.687h-41.85l-1.742-5.903H5.617l0.989,3.33h3.701l7.435,25.234l0.047,0.154
		c1.188,3.729,4.68,6.438,8.797,6.438h31.797v-5.243H26.589c-1.768,0-3.265-1.154-3.79-2.752c-0.017-0.052-0.033-0.104-0.047-0.158
		l-0.217-0.737l35.848-7.008V14.687z"/>
	<path style="fill:#010101;" d="M27.795,45.246c-2.772,0-5.023,2.25-5.023,5.023c0,2.775,2.251,5.023,5.023,5.023
		c2.776,0,5.027-2.248,5.027-5.023C32.822,47.496,30.571,45.246,27.795,45.246z M27.797,51.117c-0.468,0-0.847-0.379-0.847-0.848
		c0-0.467,0.379-0.846,0.847-0.846s0.847,0.379,0.847,0.846C28.644,50.738,28.265,51.117,27.797,51.117z"/>
	<path style="fill:#010101;" d="M49.545,45.246c-2.772,0-5.023,2.25-5.023,5.023c0,2.775,2.251,5.023,5.023,5.023
		c2.776,0,5.027-2.248,5.027-5.023C54.572,47.496,52.321,45.246,49.545,45.246z M49.547,51.117c-0.468,0-0.847-0.379-0.847-0.848
		c0-0.467,0.379-0.846,0.847-0.846s0.847,0.379,0.847,0.846C50.394,50.738,50.015,51.117,49.547,51.117z"/>
</g>
</svg>
