<?xml version="1.0" encoding="iso-8859-1"?>
<!-- Generator: Adobe Illustrator 15.0.0, SVG Export Plug-In . SVG Version: 6.00 Build 0)  -->
<!DOCTYPE svg PUBLIC "-//W3C//DTD SVG 1.1//EN" "http://www.w3.org/Graphics/SVG/1.1/DTD/svg11.dtd">
<svg version="1.1" id="Layer_1" xmlns="http://www.w3.org/2000/svg" xmlns:xlink="http://www.w3.org/1999/xlink" x="0px" y="0px"
	 width="64px" height="64px" viewBox="0 0 64 64" style="enable-background:new 0 0 64 64;" xml:space="preserve">
<path style="fill:#010101;" d="M40.49,31.77c-1.188-0.913-2.372-1.646-3.741-2.282c-1.368-0.638-2.556-1.188-3.74-1.823
	c-1.188-0.546-2.101-1.189-2.827-1.826c-0.732-0.637-1.093-1.459-1.093-2.371c0-1.37,0.366-2.283,1.093-2.83
	c0.731-0.546,1.825-0.912,3.193-0.912c1.279,0,2.372,0.276,3.284,0.732c1.004,0.457,2.006,1.189,3.013,2.192l4.289-4.932
	c-1.008-1.186-2.197-2.191-3.655-3.011c-1.369-0.823-3.013-1.46-4.929-1.736V7.04h-5.656v6.021
	c-2.738,0.547-4.929,1.736-6.479,3.651c-1.55,1.916-2.371,4.285-2.371,7.121c0,1.731,0.365,3.19,1.092,4.471
	c0.732,1.189,1.735,2.282,2.829,3.194c1.188,0.913,2.37,1.646,3.74,2.28c1.278,0.639,2.557,1.278,3.741,1.915
	c1.188,0.64,2.101,1.279,2.827,2.007c0.731,0.732,1.093,1.55,1.093,2.558c0,1.369-0.366,2.373-1.093,3.013
	c-0.731,0.639-1.916,1.005-3.561,1.005c-1.368,0-2.736-0.279-4.105-0.821c-1.37-0.548-2.738-1.37-4.197-2.56l-3.74,5.75
	c1.37,1.28,3.014,2.282,4.838,3.016c1.916,0.729,3.65,1.276,5.386,1.457v5.843h5.656v-6.111c3.014-0.64,5.294-2.009,6.844-4.018
	c1.55-2.005,2.282-4.384,2.282-7.21c0-1.825-0.366-3.468-1.094-4.744C42.587,33.778,41.674,32.682,40.49,31.77z"/>
</svg>
