<?xml version="1.0" encoding="iso-8859-1"?>
<!-- Generator: Adobe Illustrator 15.0.0, SVG Export Plug-In . SVG Version: 6.00 Build 0)  -->
<!DOCTYPE svg PUBLIC "-//W3C//DTD SVG 1.1//EN" "http://www.w3.org/Graphics/SVG/1.1/DTD/svg11.dtd">
<svg version="1.1" id="Layer_1" xmlns="http://www.w3.org/2000/svg" xmlns:xlink="http://www.w3.org/1999/xlink" x="0px" y="0px"
	 width="64px" height="64px" viewBox="0 0 64 64" style="enable-background:new 0 0 64 64;" xml:space="preserve">
<path style="fill:#010101;" d="M39.394,43.82c-0.823,0.546-1.825,0.82-2.919,0.82c-1.645,0-3.013-0.546-4.106-1.734
	c-1.093-1.094-1.916-2.739-2.461-4.929h10.037v-4.383h-10.68c0-0.276-0.091-0.547-0.091-0.822s0-0.548,0-0.912v-1.188h13.052v-4.288
	H29.721c0.456-2.19,1.278-3.927,2.372-5.109c1.093-1.188,2.462-1.825,4.196-1.825c1.004,0,1.916,0.274,2.738,0.732
	c0.822,0.457,1.549,1.093,2.281,1.824l4.743-4.654c-1.278-1.459-2.737-2.646-4.382-3.374c-1.645-0.821-3.375-1.188-5.109-1.188
	c-1.915,0-3.741,0.276-5.476,0.914c-1.645,0.637-3.194,1.459-4.562,2.648c-1.369,1.187-2.462,2.556-3.375,4.287
	c-0.912,1.733-1.646,3.648-2.101,5.84l-3.65,0.276v4.017h3.194c0,0.274-0.091,0.546-0.091,0.73c0,0.274,0,0.459,0,0.733
	s0,0.546,0,0.73c0,0.276,0,0.456,0.091,0.731l-3.1,0.263v4.017h3.65c0.913,4.383,2.647,7.666,5.386,9.856
	c2.646,2.281,5.841,3.376,9.491,3.376c2.101,0,4.016-0.457,5.841-1.369c1.826-0.914,3.375-2.282,4.744-4.017l-4.744-4.474
	C41.038,42.45,40.215,43.272,39.394,43.82z"/>
</svg>
