<?xml version="1.0" encoding="iso-8859-1"?>
<!-- Generator: Adobe Illustrator 15.0.0, SVG Export Plug-In . SVG Version: 6.00 Build 0)  -->
<!DOCTYPE svg PUBLIC "-//W3C//DTD SVG 1.1//EN" "http://www.w3.org/Graphics/SVG/1.1/DTD/svg11.dtd">
<svg version="1.1" id="Layer_1" xmlns="http://www.w3.org/2000/svg" xmlns:xlink="http://www.w3.org/1999/xlink" x="0px" y="0px"
	 width="64px" height="64px" viewBox="0 0 64 64" style="enable-background:new 0 0 64 64;" xml:space="preserve">
<g>
	<path style="fill:#010101;" d="M47.22,48.947c-0.089,0.446-0.575,1.08-1.086,1.08h-2.776c-0.512,0-0.876-0.634-0.817-1.08
		l1.396-10.043c0.08-0.585,0.628-0.939,1.222-0.939h3.226c0.594,0,0.979,0.354,0.863,0.939L47.22,48.947z M38.8,48.947
		c-0.04,0.446-0.483,1.08-0.995,1.08h-2.779c-0.511,0-0.915-0.634-0.906-1.08l0.251-10.043c0.016-0.585,0.509-0.939,1.105-0.939
		h3.229c0.594,0,1.034,0.354,0.982,0.939L38.8,48.947z M29.47,50.03h-2.775c-0.512,0-0.955-0.634-0.998-1.08l-0.885-10.043
		c-0.052-0.585,0.389-0.939,0.982-0.939h3.229c0.594,0,1.086,0.217,1.104,0.802l0.251,10.312
		C30.389,49.525,29.981,50.03,29.47,50.03z M21.139,50.03h-2.776c-0.512,0-0.998-0.634-1.087-1.08l-2.029-10.043
		c-0.116-0.585,0.27-0.939,0.863-0.939h3.227c0.594,0,1.142,0.217,1.221,0.802l1.393,10.312
		C22.014,49.525,21.649,50.03,21.139,50.03z M57.465,22.191h-6.098L37.624,7.295c-0.869-0.943-2.338-1.001-3.278-0.132
		c-0.942,0.869-1.001,2.338-0.131,3.278l10.841,11.75H19.688L30.64,10.998c0.896-0.915,0.881-2.384-0.037-3.281
		c-0.915-0.894-2.385-0.882-3.281,0.037L13.195,22.191H7.031c-1.564,0-2.868,1.993-2.868,3.558v5.662
		c0,1.564,1.304,2.844,2.868,2.844H7.71l5.314,21.279c0.232,1.233,1.386,1.919,2.586,1.919h33.278c1.196,0,2.354-0.683,2.583-1.919
		l5.313-21.279h0.68c1.564,0,2.372-1.282,2.372-2.844v-5.662C59.837,24.185,59.029,22.191,57.465,22.191z"/>
</g>
</svg>
