<?xml version="1.0" encoding="iso-8859-1"?>
<!-- Generator: Adobe Illustrator 15.0.0, SVG Export Plug-In . SVG Version: 6.00 Build 0)  -->
<!DOCTYPE svg PUBLIC "-//W3C//DTD SVG 1.1//EN" "http://www.w3.org/Graphics/SVG/1.1/DTD/svg11.dtd">
<svg version="1.1" id="Layer_1" xmlns="http://www.w3.org/2000/svg" xmlns:xlink="http://www.w3.org/1999/xlink" x="0px" y="0px"
	 width="64px" height="64px" viewBox="0 0 64 64" style="enable-background:new 0 0 64 64;" xml:space="preserve">
<path style="fill:#010101;" d="M58.488,13.79V46.9h-3.312v-29.8H8.824V13.79H58.488z M20.412,35.311
	c0-4.571,3.704-8.276,8.275-8.276c4.574,0,8.278,3.705,8.278,8.276c0,4.572-3.704,8.277-8.278,8.277
	C24.116,43.588,20.412,39.883,20.412,35.311z M8.824,30.344c3.656,0,6.622-2.966,6.622-6.621h26.485
	c0,3.655,2.968,6.621,6.625,6.621v9.935c-3.657,0-6.625,2.965-6.625,6.622H15.446c0-3.657-2.966-6.622-6.622-6.622V30.344z
	 M5.512,50.21h46.354V20.412H5.512V50.21z"/>
</svg>
