<?xml version="1.0" encoding="iso-8859-1"?>
<!-- Generator: Adobe Illustrator 15.0.0, SVG Export Plug-In . SVG Version: 6.00 Build 0)  -->
<!DOCTYPE svg PUBLIC "-//W3C//DTD SVG 1.1//EN" "http://www.w3.org/Graphics/SVG/1.1/DTD/svg11.dtd">
<svg version="1.1" id="Layer_1" xmlns="http://www.w3.org/2000/svg" xmlns:xlink="http://www.w3.org/1999/xlink" x="0px" y="0px"
	 width="64px" height="64px" viewBox="0 0 64 64" style="enable-background:new 0 0 64 64;" xml:space="preserve">
<path style="fill:#010101;" d="M31.866,21.414c0.913-0.91,2.192-1.369,3.74-1.369c0.913,0,1.735,0.18,2.558,0.639
	c0.732,0.365,1.459,1.002,2.102,1.824l4.652-4.652c-1.369-1.551-2.828-2.648-4.383-3.471c-1.549-0.82-3.559-1.188-5.656-1.188
	c-1.824,0-3.469,0.275-5.019,0.82c-1.55,0.547-2.829,1.371-3.926,2.373c-1.093,1.002-2.006,2.279-2.558,3.74
	c-0.637,1.459-0.912,3.104-0.912,4.93c0,0.545,0.092,1.094,0.182,1.643h-0.182l-3.374,0.367v4.016h4.743
	c0.18,0.457,0.275,0.914,0.456,1.371c0.09,0.453,0.276,0.912,0.366,1.369h-1.279L19.091,34.1v4.018h5.841
	c-0.275,1.734-1.003,3.193-2.101,4.473c-1.093,1.277-2.463,2.191-3.925,2.918v5.295h26.188v-7.211H29.771v-0.275
	c0.822-0.822,1.369-1.645,1.735-2.463c0.365-0.82,0.637-1.734,0.822-2.736h7.48V33.83h-7.666c-0.092-0.457-0.182-0.914-0.276-1.369
	c-0.09-0.457-0.181-0.914-0.366-1.369h8.305v-4.381h-9.217c0-0.182-0.091-0.367-0.091-0.547c0-0.184,0-0.367,0-0.547
	C30.497,23.695,30.953,22.328,31.866,21.414z"/>
</svg>
