<?xml version="1.0" encoding="iso-8859-1"?>
<!-- Generator: Adobe Illustrator 15.0.0, SVG Export Plug-In . SVG Version: 6.00 Build 0)  -->
<!DOCTYPE svg PUBLIC "-//W3C//DTD SVG 1.1//EN" "http://www.w3.org/Graphics/SVG/1.1/DTD/svg11.dtd">
<svg version="1.1" id="Layer_1" xmlns="http://www.w3.org/2000/svg" xmlns:xlink="http://www.w3.org/1999/xlink" x="0px" y="0px"
	 width="64px" height="64px" viewBox="0 0 64 64" style="enable-background:new 0 0 64 64;" xml:space="preserve">
<path style="fill:#010101;" d="M43.927,19.668c0.323,1.971,0.556,4.025,0.684,6.153c0.096,1.154-0.773,2.023-1.929,2.117
	c0-0.094-0.096-0.094-0.096-0.094c-1.061,0-1.929-0.869-2.026-1.93c-0.14-2.16-0.407-4.248-0.774-6.247H24.981
	c-0.348,1.88-0.606,3.837-0.754,5.86c-0.095,1.157-1.06,1.931-2.12,1.833c-1.155-0.094-1.929-1.06-1.835-2.12
	c0.14-1.921,0.367-3.78,0.67-5.573h-5.543l-2.358,30.221h37.914l-2.416-30.221H43.927z"/>
<path style="fill:#010101;" d="M42.475,26.468c-0.617,0-1.123-0.506-1.18-1.123c-0.561-8.65-4.438-15.447-8.931-15.447
	c-4.382,0-8.256,6.686-8.876,15.222c-0.056,0.674-0.617,1.124-1.234,1.067c-0.673-0.055-1.123-0.617-1.068-1.234
	C21.918,14.897,26.633,7.597,32.42,7.597c5.897,0,10.616,7.412,11.233,17.693c0.056,0.672-0.45,1.178-1.123,1.232
	C42.53,26.468,42.475,26.468,42.475,26.468z"/>
<polygon style="fill:#010101;" points="52.529,56.403 11.471,56.403 13.041,52.08 50.955,52.08 "/>
</svg>
