<?xml version="1.0" encoding="iso-8859-1"?>
<!-- Generator: Adobe Illustrator 15.0.0, SVG Export Plug-In . SVG Version: 6.00 Build 0)  -->
<!DOCTYPE svg PUBLIC "-//W3C//DTD SVG 1.1//EN" "http://www.w3.org/Graphics/SVG/1.1/DTD/svg11.dtd">
<svg version="1.1" id="Layer_1" xmlns="http://www.w3.org/2000/svg" xmlns:xlink="http://www.w3.org/1999/xlink" x="0px" y="0px"
	 width="64px" height="64px" viewBox="0 0 64 64" style="enable-background:new 0 0 64 64;" xml:space="preserve">
<g>
	<path style="fill:#010101;" d="M51.262,8.271c-0.145-0.406-0.527-0.676-0.959-0.676h-36.67c-0.432,0-0.816,0.271-0.961,0.678
		l-3.043,8.635v6.957c0,1.652,0.93,3.051,2.035,3.051c1.682,0,3.049-1.367,3.049-3.051c0-0.561,0.455-1.018,1.018-1.018
		c0.561,0,1.016,0.457,1.016,1.018c0,1.684,1.369,3.051,3.051,3.051c1.684,0,3.051-1.367,3.051-3.051
		c0-0.561,0.455-1.018,1.018-1.018s1.016,0.457,1.016,1.018c0,1.684,1.369,3.051,3.051,3.051c1.684,0,3.053-1.367,3.053-3.051
		c0-0.561,0.453-1.018,1.016-1.018s1.016,0.457,1.016,1.018c0,1.684,1.369,3.051,3.053,3.051c1.682,0,3.051-1.367,3.051-3.051
		c0-0.561,0.457-1.018,1.016-1.018c0.561,0,1.018,0.457,1.018,1.018c0,1.684,1.367,3.051,3.051,3.051s3.051-1.367,3.051-3.051
		c0-0.561,0.457-1.018,1.016-1.018s1.018,0.457,1.018,1.018c0,1.406,0.666,3.051,2.541,3.051c1.877,0,2.543-1.645,2.543-3.051
		v-6.887L51.262,8.271z"/>
	<path style="fill:#010101;" d="M44.203,28.824c-1.662,0-3.139-0.736-4.068-1.977c-0.932,1.234-2.408,2.068-4.066,2.068
		c-1.662,0-3.137-0.785-4.068-2.021c-0.932,1.236-2.406,2.045-4.068,2.045s-3.137-0.799-4.066-2.033
		c-0.93,1.234-2.404,2.039-4.068,2.039c-0.727,0-1.408-0.176-2.033-0.451v17.742h28.473V28.33
		C45.607,28.631,44.93,28.824,44.203,28.824z"/>
	<path style="fill:#010101;" d="M48.27,47.254c0,0.559-0.459,1.016-1.016,1.016H16.746c-0.561,0-1.016-0.457-1.016-1.016V26.91
		c-0.932,1.236-2.404,2.039-4.066,2.039v26.439c0,0.559,0.453,1.016,1.016,1.016H51.32c0.559,0,1.016-0.457,1.016-1.016
		c0,0,0-24.947,0-26.922c-1.512,0-3.221-0.453-4.066-1.543V47.254z"/>
</g>
</svg>
