<?xml version="1.0" encoding="iso-8859-1"?>
<!-- Generator: Adobe Illustrator 15.0.0, SVG Export Plug-In . SVG Version: 6.00 Build 0)  -->
<!DOCTYPE svg PUBLIC "-//W3C//DTD SVG 1.1//EN" "http://www.w3.org/Graphics/SVG/1.1/DTD/svg11.dtd">
<svg version="1.1" id="Layer_1" xmlns="http://www.w3.org/2000/svg" xmlns:xlink="http://www.w3.org/1999/xlink" x="0px" y="0px"
	 width="64px" height="64px" viewBox="0 0 64 64" style="enable-background:new 0 0 64 64;" xml:space="preserve">
<g>
	<path style="fill-rule:evenodd;clip-rule:evenodd;fill:#010101;" d="M31.795,50.433c-6.529,0-11.824-5.295-11.824-11.824
		c0-6.533,5.295-11.828,11.824-11.828s11.827,5.292,11.827,11.828C43.619,45.138,38.324,50.433,31.795,50.433z M49.246,18.992
		H38.611v-6.399h-13.91v6.399H14.488L3.699,57.282h56.602L49.246,18.992z"/>
	<path style="fill-rule:evenodd;clip-rule:evenodd;fill:#010101;" d="M30.617,37.992c-0.673,0.511-0.809,1.47-0.299,2.144
		c0.511,0.673,1.471,0.809,2.144,0.299c0.32-0.241,0.511-0.589,0.573-0.957l5.549-5.978l-6.994,4.208
		C31.252,37.696,30.907,37.771,30.617,37.992z"/>
	<rect x="7.473" y="6.718" style="fill-rule:evenodd;clip-rule:evenodd;fill:#010101;" width="49.119" height="5.771"/>
</g>
</svg>
