<?xml version="1.0" encoding="iso-8859-1"?>
<!-- Generator: Adobe Illustrator 15.0.0, SVG Export Plug-In . SVG Version: 6.00 Build 0)  -->
<!DOCTYPE svg PUBLIC "-//W3C//DTD SVG 1.1//EN" "http://www.w3.org/Graphics/SVG/1.1/DTD/svg11.dtd">
<svg version="1.1" id="Layer_1" xmlns="http://www.w3.org/2000/svg" xmlns:xlink="http://www.w3.org/1999/xlink" x="0px" y="0px"
	 width="64px" height="64px" viewBox="0 0 64 64" style="enable-background:new 0 0 64 64;" xml:space="preserve">
<g>
	<defs>
		<rect id="SVGID_1_" x="-1.662" y="-1.663" width="67.324" height="67.325"/>
	</defs>
	<clipPath id="SVGID_2_">
		<use xlink:href="#SVGID_1_"  style="overflow:visible;"/>
	</clipPath>
	<g style="clip-path:url(#SVGID_2_);">
		<defs>
			<rect id="SVGID_3_" x="-1.662" y="-1.663" width="67.324" height="67.325"/>
		</defs>
		<clipPath id="SVGID_4_">
			<use xlink:href="#SVGID_3_"  style="overflow:visible;"/>
		</clipPath>
		<g style="clip-path:url(#SVGID_4_);">
			<defs>
				<rect id="SVGID_5_" x="-1.662" y="-1.663" width="67.324" height="67.325"/>
			</defs>
			<clipPath id="SVGID_6_">
				<use xlink:href="#SVGID_5_"  style="overflow:visible;"/>
			</clipPath>
			<g style="clip-path:url(#SVGID_6_);">
				<defs>
					<rect id="SVGID_7_" x="-1.662" y="-1.663" width="67.324" height="67.325"/>
				</defs>
				<clipPath id="SVGID_8_">
					<use xlink:href="#SVGID_7_"  style="overflow:visible;"/>
				</clipPath>
				<path style="clip-path:url(#SVGID_8_);fill:#010101;" d="M52.287,22.255C44.34,7.344,21.072,4.067,21.072,4.067
					s10.742,12.441-2.99,22.266c-8.679,6.211-12.125,14.272-8.4,23.089c2.846,6.748,8.863,9.492,15.353,10.512
					c-1.653-3.336-2.081-8.147-0.851-13.093c0.127-0.515,0.271-1.015,0.428-1.505c1.824,2.924,4.803,4.533,7.723,3.795
					c3.993-1.013,6.338-6.012,5.238-11.164c-0.251-1.176-0.674-2.241-1.203-3.2c0.16,0.033,0.318,0.053,0.477,0.1
					c4.981,1.475,7.39,9.227,5.375,17.317c-0.65,2.621-1.691,4.949-2.964,6.859c8.554-2.859,14.252-10.021,15.827-16.406
					C56.727,35.965,55.473,28.234,52.287,22.255z"/>
			</g>
		</g>
	</g>
</g>
</svg>
