<?xml version="1.0" encoding="iso-8859-1"?>
<!-- Generator: Adobe Illustrator 15.0.0, SVG Export Plug-In . SVG Version: 6.00 Build 0)  -->
<!DOCTYPE svg PUBLIC "-//W3C//DTD SVG 1.1//EN" "http://www.w3.org/Graphics/SVG/1.1/DTD/svg11.dtd">
<svg version="1.1" id="Layer_1" xmlns="http://www.w3.org/2000/svg" xmlns:xlink="http://www.w3.org/1999/xlink" x="0px" y="0px"
	 width="64px" height="64px" viewBox="0 0 64 64" style="enable-background:new 0 0 64 64;" xml:space="preserve">
<path style="fill:#010101;" d="M41.755,34.798c3.379-2.364,5.778-6.182,5.778-9.771c0-7.897-6.113-14.009-14.01-14.009H11.635v49.03
	h24.655c7.336,0,12.994-5.954,12.994-13.273C49.284,41.451,46.254,36.917,41.755,34.798z M22.142,19.773h10.507
	c2.907,0,5.252,2.346,5.252,5.253c0,2.907-2.345,5.252-5.252,5.252H22.142V19.773z M34.399,51.293H22.142V40.786h12.257
	c2.908,0,5.253,2.346,5.253,5.253C39.652,48.946,37.307,51.293,34.399,51.293z"/>
</svg>
