<?xml version="1.0" encoding="iso-8859-1"?>
<!-- Generator: Adobe Illustrator 15.0.0, SVG Export Plug-In . SVG Version: 6.00 Build 0)  -->
<!DOCTYPE svg PUBLIC "-//W3C//DTD SVG 1.1//EN" "http://www.w3.org/Graphics/SVG/1.1/DTD/svg11.dtd">
<svg version="1.1" id="Layer_1" xmlns="http://www.w3.org/2000/svg" xmlns:xlink="http://www.w3.org/1999/xlink" x="0px" y="0px"
	 width="64px" height="64px" viewBox="0 0 64 64" style="enable-background:new 0 0 64 64;" xml:space="preserve">
<path style="fill:#010101;" d="M51.206,32.703c0-2.341-1.228-2.748-2.747-2.748c-1.518,0-2.748,1.23-2.748,2.748v10.709h-1.099
	V13.755c0-1.517-1.231-2.748-2.747-2.748c-1.518,0-2.748,1.231-2.748,2.748V34.9h-1.099V10.46c0.003-1.517-1.225-2.747-2.741-2.747
	c-1.518,0-2.748,1.23-2.748,2.747V34.9h-1.099V13.755c0-1.517-1.231-2.748-2.747-2.748c-1.518,0-2.748,1.231-2.748,2.748v22.794
	h-1.099V23.642c0-1.516-1.231-2.747-2.747-2.747c-1.512,0-2.742,1.231-2.742,3.572v22.791c0.004,7.152,7.133,14.278,15.93,14.281
	c8.797-0.003,15.926-7.129,15.929-15.93V32.703z"/>
</svg>
