<?xml version="1.0" encoding="iso-8859-1"?>
<!-- Generator: Adobe Illustrator 15.0.0, SVG Export Plug-In . SVG Version: 6.00 Build 0)  -->
<!DOCTYPE svg PUBLIC "-//W3C//DTD SVG 1.1//EN" "http://www.w3.org/Graphics/SVG/1.1/DTD/svg11.dtd">
<svg version="1.1" id="Layer_1" xmlns="http://www.w3.org/2000/svg" xmlns:xlink="http://www.w3.org/1999/xlink" x="0px" y="0px"
	 width="64px" height="64px" viewBox="0 0 64 64" style="enable-background:new 0 0 64 64;" xml:space="preserve">
<g>
	<path style="fill:#010101;" d="M32.905,8.301c0-2.061-1.1-4.716-3.561-4.716c-2.458,0-3.558,2.655-3.558,4.716v34.978l7.119-7.14
		V8.301z"/>
	<path style="fill:#010101;" d="M56.413,9.36c-2.465,0-2.988,2.855-2.988,4.742V27.06c0,0.074-0.003,4.083-0.003,4.083v9.301
		c0,3.398-2.226,5.87-5.29,5.87c-2.432,0-4.33-1.552-5.015-3.889c-0.021-0.073-0.146-0.076-0.195-0.003
		c-0.368,0.581-0.819,1.14-1.36,1.678l-5.052,5.051c-0.242,0.242-0.592,0.306-0.897,0.199c-0.117-0.041-0.232-0.104-0.328-0.199
		c-0.337-0.338-0.337-0.887,0-1.226l3.951-3.946l1.104-1.104c0.007-0.007,0.016-0.015,0.022-0.021
		c0.644-0.647,1.141-1.324,1.48-2.027c1.018-2.097,0.672-4.407-1.02-6.921c-1.034-1.536-1.526-1.688-1.777-1.438L25.878,45.633
		c-0.779,0.78-1.21,1.821-1.21,2.925c0,0.949,0.319,1.848,0.901,2.575c0.096,0.123,0.199,0.239,0.309,0.351l3.507,3.485
		c0.661,0.774,1.384,1.493,2.161,2.148l0.064,0.063l0.012-0.001c3.218,2.684,7.352,4.306,11.869,4.306
		c5.581,0,10.586-2.47,13.985-6.372c0.959-0.917,1.937-2.518,1.937-5.488V14.076C59.417,12.189,58.877,9.36,56.413,9.36z"/>
	<path style="fill:#010101;" d="M39.395,30.646c0.93,0.088,1.894,0.858,2.865,2.289c0.217,0.316,0.41,0.636,0.586,0.952v-8.922
		c0-2.279-1.859-4.138-4.136-4.138c-1.828,0-3.381,1.191-3.925,2.841c-0.095,0.295-0.163,0.603-0.191,0.923
		c-0.011,0.125-0.018,0.25-0.018,0.374v9.533l3.255-3.256C38.269,30.794,38.809,30.59,39.395,30.646z"/>
	<path style="fill:#010101;" d="M48.135,44.581c2.457,0,3.557-2.079,3.557-4.138V27.272c0-2.06-1.1-4.138-3.557-4.138
		c-1.799,0-2.871,1.113-3.314,2.515c-0.167,0.516-0.248,3.958-0.248,4.511v10.278C44.573,42.502,45.674,44.581,48.135,44.581z"/>
</g>
</svg>
