<?xml version="1.0" encoding="iso-8859-1"?>
<!-- Generator: Adobe Illustrator 15.0.0, SVG Export Plug-In . SVG Version: 6.00 Build 0)  -->
<!DOCTYPE svg PUBLIC "-//W3C//DTD SVG 1.1//EN" "http://www.w3.org/Graphics/SVG/1.1/DTD/svg11.dtd">
<svg version="1.1" id="Layer_1" xmlns="http://www.w3.org/2000/svg" xmlns:xlink="http://www.w3.org/1999/xlink" x="0px" y="0px"
	 width="64px" height="64px" viewBox="0 0 64 64" style="enable-background:new 0 0 64 64;" xml:space="preserve">
<path style="fill:#010101;" d="M37.753,51.816H28.84c-1.986,0.003-3.597-1.607-3.597-3.595c0-1.985,1.61-3.595,3.597-3.595h-4.47
	c-1.986,0-3.595-1.609-3.595-3.598c0-1.985,1.608-3.594,3.595-3.594h-4.466c-1.987,0-3.597-1.609-3.597-3.597
	c0-1.989,1.609-3.596,3.597-3.596H6.062c-1.986,0-3.598-1.611-3.598-3.597c0-1.987,1.611-3.598,3.598-3.598h22.732
	c-6.211-5.712-4.135-10.874-1.874-10.874l15.604,5.371c7.369,2.047,12.779,8.8,12.779,16.819c0,9.643-7.818,17.459-17.46,17.459
	C37.812,51.824,37.783,51.819,37.753,51.816z"/>
</svg>
