<?xml version="1.0" encoding="iso-8859-1"?>
<!-- Generator: Adobe Illustrator 15.0.0, SVG Export Plug-In . SVG Version: 6.00 Build 0)  -->
<!DOCTYPE svg PUBLIC "-//W3C//DTD SVG 1.1//EN" "http://www.w3.org/Graphics/SVG/1.1/DTD/svg11.dtd">
<svg version="1.1" id="Layer_1" xmlns="http://www.w3.org/2000/svg" xmlns:xlink="http://www.w3.org/1999/xlink" x="0px" y="0px"
	 width="64px" height="64px" viewBox="0 0 64 64" style="enable-background:new 0 0 64 64;" xml:space="preserve">
<g>
	<path style="fill:#010101;" d="M24.403,22.955c1.907,0,3.457-1.55,3.457-3.459V8.148c0-1.906-1.55-3.456-3.457-3.456
		c-1.906,0-3.459,1.55-3.459,3.456v11.35C20.944,21.408,22.497,22.955,24.403,22.955z"/>
	<path style="fill:#010101;" d="M37.041,32.049c-3.544,0-6.424-2.882-6.424-6.427c0-0.514,0.066-1.007,0.181-1.485
		c-0.854-0.407-1.577-1.041-2.093-1.825c-0.92,1.402-2.502,2.33-4.299,2.33c-1.8,0-3.382-0.928-4.303-2.33
		c-0.919,1.402-2.503,2.33-4.301,2.33c-1.314,0-2.51-0.497-3.419-1.311v6.54c0,0-0.075,0.658-0.032,1.675
		c-0.004,0.155-0.014,0.31-0.014,0.466c0,9.093,7.371,16.463,16.463,16.463c8.715,0,15.848-6.771,16.426-15.338
		c0.025-0.372,0.037-1.114,0.037-1.114l-1.491,0.026H37.041z"/>
	<path style="fill:#010101;" d="M15.802,22.955c1.904,0,3.456-1.55,3.456-3.459v-7.66c0-1.906-1.55-3.459-3.456-3.459
		c-1.907,0-3.456,1.553-3.456,3.459v7.662C12.346,21.408,13.896,22.955,15.802,22.955z"/>
	<path style="fill:#010101;" d="M31.396,22.557c1.002-1.837,2.877-3.132,5.063-3.326V8.148c0.002-1.906-1.55-3.456-3.457-3.456
		c-1.906,0-3.456,1.55-3.456,3.456v11.348C29.546,20.822,30.298,21.978,31.396,22.557z"/>
	<path style="fill:#010101;" d="M45.06,19.272V8.148c0.003-1.906-1.55-3.456-3.457-3.456s-3.457,1.55-3.457,3.456v11.05h5.999
		C44.457,19.198,44.762,19.229,45.06,19.272z"/>
	<path style="fill:#010101;" d="M44.146,20.887h-7.104c-2.611,0-4.735,2.127-4.735,4.738c0,2.61,2.124,4.735,4.735,4.735h7.107
		c2.611,0,4.735-2.125,4.735-4.735C48.883,23.014,46.759,20.887,44.146,20.887z"/>
</g>
</svg>
