<?xml version="1.0" encoding="iso-8859-1"?>
<!-- Generator: Adobe Illustrator 15.0.0, SVG Export Plug-In . SVG Version: 6.00 Build 0)  -->
<!DOCTYPE svg PUBLIC "-//W3C//DTD SVG 1.1//EN" "http://www.w3.org/Graphics/SVG/1.1/DTD/svg11.dtd">
<svg version="1.1" id="Layer_1" xmlns="http://www.w3.org/2000/svg" xmlns:xlink="http://www.w3.org/1999/xlink" x="0px" y="0px"
	 width="64px" height="64px" viewBox="0 0 64 64" style="enable-background:new 0 0 64 64;" xml:space="preserve">
<g>
	<path style="fill:#010101;" d="M34.545,29.974l5.739-22.169c0.224-0.831,0.112-1.693-0.312-2.432
		c-0.423-0.737-1.109-1.267-1.935-1.487c-0.272-0.072-0.554-0.109-0.832-0.109c-1.44,0-2.703,0.972-3.079,2.362l-6.213,23.838h6.63
		V29.974z"/>
	<path style="fill:#010101;" d="M25.759,29.974h0.762l-0.336-1.646L21.716,6.247c-0.287-1.508-1.602-2.597-3.126-2.597
		c-0.199,0-0.405,0.018-0.607,0.057c-0.834,0.161-1.56,0.639-2.038,1.344c-0.48,0.704-0.653,1.554-0.493,2.391l4.56,22.532H25.759z"
		/>
	<path style="fill:#010101;" d="M39.258,22.502l-1.956,7.475h5.896l1.518-5.801c0.459-1.541-0.399-3.135-1.908-3.585
		c-0.267-0.078-0.544-0.121-0.82-0.121C40.74,20.464,39.615,21.302,39.258,22.502z"/>
	<path style="fill:#010101;" d="M46.968,45.746c-0.223,0.033-0.444,0.059-0.671,0.059c-0.483,0-0.964-0.073-1.43-0.212
		c-1.273-0.381-2.322-1.237-2.954-2.407c-0.351-0.644-0.529-1.342-0.575-2.049c-0.035-0.561,0.015-1.123,0.172-1.676
		c0.006-0.021,0.006-0.043,0.012-0.063l0.447-1.703c-0.185,0.202-0.375,0.403-0.574,0.585c-0.272,0.254-0.56,0.48-0.85,0.692
		c-0.257,0.301-0.581,0.541-0.938,0.719c-0.251,0.124-0.517,0.21-0.795,0.261c-0.816,0.332-1.669,0.495-2.527,0.508
		c-0.109,0.003-0.218,0.009-0.324,0.006l-1.312-0.003l-0.629-0.003l-2.195-0.007l-1.101-0.002l-1.061-0.004l-0.738-0.006
		c0.257,0.255,0.487,0.532,0.729,0.798c0.299,0.324,0.611,0.629,0.886,0.971c0.115,0.143,0.206,0.3,0.318,0.444
		c0.214,0.282,0.42,0.572,0.62,0.864c0.202,0.298,0.405,0.588,0.592,0.898c0.645,1.062,1.177,2.192,1.615,3.362
		c0.082,0.225,0.19,0.436,0.264,0.663l-0.992,0.326l-0.989,0.325c-0.42-1.266-0.988-2.472-1.675-3.605
		c-0.193-0.319-0.399-0.629-0.61-0.932c-0.076-0.112-0.146-0.225-0.228-0.333c-0.148-0.203-0.305-0.396-0.462-0.593
		c-0.067-0.088-0.136-0.172-0.206-0.256c-0.227-0.275-0.466-0.545-0.71-0.805c-0.811-0.868-1.696-1.66-2.664-2.338
		c-0.021-0.017-0.036-0.039-0.054-0.057c-0.145-0.117-0.254-0.27-0.317-0.433c-0.079-0.215-0.094-0.453-0.021-0.684
		c0.061-0.188,0.178-0.345,0.321-0.466c0.126-0.108,0.272-0.181,0.435-0.22c0.079-0.022,0.157-0.039,0.239-0.039
		c0.002,0,0.006,0,0.006,0l2.189,0.005l1.083,0.007l1.082,0.003l1.989,0.009h1.098l0.048-0.178c0.012,0.057,0.021,0.123,0.036,0.178
		l1.013,0.005l0.04-0.15c0.015,0.052,0.024,0.103,0.042,0.15l1.152,0.005l0.205,0.002c1.802,0.055,3.136-0.846,3.967-1.623
		c0.697-0.649,1.328-2.136,1.244-3.1c-0.139-1.597-1.741-1.597-1.741-1.597H18.938c-0.167,0.36-0.299,0.738-0.442,1.109
		c-0.797,2.069-1.24,4.294-1.24,6.546c-0.006,9.698,7.577,17.586,16.899,17.586c8.23,0,15.097-6.149,16.593-14.263
		C50.012,44.505,48.589,45.522,46.968,45.746z"/>
	<path style="fill:#010101;" d="M50.981,35.479l0.528-2.016l0.456-1.739l1.065-4.07c0.457-1.541-0.513-3.165-2.162-3.656
		c-0.29-0.084-0.593-0.133-0.893-0.139c-1.356-0.029-2.559,0.787-2.918,1.983l-1.291,4.941l-0.945,3.614l-1.371,5.248
		c-0.231,0.766-0.128,1.542,0.282,2.227c0.41,0.681,1.074,1.19,1.871,1.43c0.79,0.233,1.609,0.145,2.29-0.174
		c0.721-0.334,1.295-0.92,1.524-1.674L50.981,35.479z"/>
</g>
</svg>
