<?xml version="1.0" encoding="iso-8859-1"?>
<!-- Generator: Adobe Illustrator 15.0.0, SVG Export Plug-In . SVG Version: 6.00 Build 0)  -->
<!DOCTYPE svg PUBLIC "-//W3C//DTD SVG 1.1//EN" "http://www.w3.org/Graphics/SVG/1.1/DTD/svg11.dtd">
<svg version="1.1" id="Layer_1" xmlns="http://www.w3.org/2000/svg" xmlns:xlink="http://www.w3.org/1999/xlink" x="0px" y="0px"
	 width="64px" height="64px" viewBox="0 0 64 64" style="enable-background:new 0 0 64 64;" xml:space="preserve">
<path style="fill:#010101;" d="M50.389,38.552c0-5.248-2.909-9.814-7.201-12.18C36.762,21.414,29.514,13.289,31.139,6.44
	c0.527-2.223-0.974-3.96-3.071-3.689c-2.526,0.322-4.261,3.438-4.368,6.673c-0.123,3.767,0.47,7.569,1.547,10.94
	c0.121,0.932-0.035,1.89-1.162,1.987c-1.516,0.129-3.46,0.227-4.966,0.289c-0.808,0.011-1.589,0.041-2.34,0.082
	c-0.015,0-0.026,0-0.026,0c-1.29,0.076-2.484,0.193-3.534,0.35c-2.192,0.321-4.209,1.756-4.453,3.936
	c-0.241,2.181,1.381,3.66,3.581,3.959c0.163,0.023,0.332,0.045,0.504,0.064c-0.53,0.053-1.039,0.117-1.518,0.189
	c-2.192,0.322-4.208,1.756-4.45,3.936c-0.239,2.181,1.364,3.834,3.579,3.959c0.774,0.046,1.623,0.098,2.537,0.175
	c-0.072,0.012-0.148,0.023-0.217,0.033c-2.188,0.365-4.178,1.832-4.379,4.017c-0.202,2.184,1.446,3.667,3.647,3.891
	c0.79,0.085,1.612,0.155,2.466,0.231c-1.463,0.551-2.608,1.592-2.712,3.503c-0.117,2.191,2.461,3.875,4.668,4.111
	c0.838,0.086,1.585,0.154,2.264,0.204l-0.004,0.004c0.091,0.004,0.187,0.008,0.277,0.014c0.709,0.047,1.342,0.069,1.927,0.073
	c8.042,0.184,15.177-1.13,20.333-3.779C46.588,49.641,50.389,44.545,50.389,38.552z"/>
</svg>
