<?xml version="1.0" encoding="iso-8859-1"?>
<!-- Generator: Adobe Illustrator 15.0.0, SVG Export Plug-In . SVG Version: 6.00 Build 0)  -->
<!DOCTYPE svg PUBLIC "-//W3C//DTD SVG 1.1//EN" "http://www.w3.org/Graphics/SVG/1.1/DTD/svg11.dtd">
<svg version="1.1" id="Layer_1" xmlns="http://www.w3.org/2000/svg" xmlns:xlink="http://www.w3.org/1999/xlink" x="0px" y="0px"
	 width="64px" height="64px" viewBox="0 0 64 64" style="enable-background:new 0 0 64 64;" xml:space="preserve">
<path style="fill:#010101;" d="M50.361,39.589v-8.913c0.003-1.987-1.606-3.598-3.595-3.598c-1.984,0-3.595,1.61-3.595,3.598v-4.47
	c0-1.987-1.609-3.597-3.597-3.597c-1.985,0-3.595,1.609-3.595,3.597v-4.467c0-1.986-1.611-3.596-3.598-3.596
	c-1.987,0-3.596,1.609-3.596,3.596V7.896c0-1.986-1.611-3.597-3.597-3.597c-1.987,0-3.597,1.61-3.597,3.597v22.732
	c-5.712-6.21-10.873-4.135-10.873-1.874l5.369,15.604c2.047,7.368,8.8,12.778,16.82,12.778c9.643,0,17.457-7.817,17.457-17.46
	C50.367,39.646,50.362,39.618,50.361,39.589z"/>
</svg>
