<?xml version="1.0" encoding="iso-8859-1"?>
<!-- Generator: Adobe Illustrator 15.0.0, SVG Export Plug-In . SVG Version: 6.00 Build 0)  -->
<!DOCTYPE svg PUBLIC "-//W3C//DTD SVG 1.1//EN" "http://www.w3.org/Graphics/SVG/1.1/DTD/svg11.dtd">
<svg version="1.1" id="Layer_1" xmlns="http://www.w3.org/2000/svg" xmlns:xlink="http://www.w3.org/1999/xlink" x="0px" y="0px"
	 width="64px" height="64px" viewBox="0 0 64 64" style="enable-background:new 0 0 64 64;" xml:space="preserve">
<g>
	<path style="fill:#010101;" d="M52.789,42.907v-8.299c0.003-1.848-1.496-3.347-3.345-3.347c-1.848,0-3.347,1.499-3.347,3.347
		v-4.159c0-1.849-1.499-3.348-3.348-3.348s-3.347,1.499-3.347,3.348v-4.158c0-1.848-1.499-3.348-3.348-3.348
		c-1.85,0-3.348,1.5-3.348,3.348V13.404c0-1.848-1.499-3.348-3.348-3.348s-3.348,1.5-3.348,3.348v21.164
		c-5.317-5.782-10.122-3.851-10.122-1.746l4.999,14.525c1.906,6.859,8.191,11.896,15.657,11.896c8.976,0,16.251-7.276,16.251-16.253
		C52.795,42.961,52.79,42.937,52.789,42.907z"/>
	<g>
		<path style="fill:#010101;" d="M20.332,8.035l-1.135,1.708c-0.342,0.513-0.202,1.211,0.313,1.552
			c0.191,0.129,0.403,0.188,0.62,0.188c0.364,0,0.717-0.175,0.935-0.504l2.298-3.466c0.254-0.387,0.249-0.888-0.015-1.261
			l-2.3-3.307c-0.354-0.507-1.051-0.633-1.558-0.277c-0.51,0.353-0.634,1.054-0.278,1.562l1.149,1.641
			c-0.078-0.01-0.149-0.041-0.232-0.041h-6.724c-0.617,0-1.121,0.501-1.121,1.121c0,0.616,0.504,1.119,1.121,1.119h6.724
			C20.202,8.074,20.264,8.046,20.332,8.035z"/>
		<path style="fill:#010101;" d="M37.188,10.981c0.216,0.327,0.571,0.502,0.935,0.502c0.214,0,0.426-0.06,0.617-0.188
			c0.515-0.339,0.655-1.036,0.313-1.548l-1.126-1.699c0.047,0.006,0.083,0.028,0.134,0.028h6.724c0.616,0,1.12-0.505,1.12-1.12
			c0-0.619-0.504-1.121-1.12-1.121h-6.724c-0.056,0-0.104,0.026-0.157,0.031l1.137-1.634c0.356-0.51,0.233-1.204-0.276-1.558
			c-0.514-0.353-1.208-0.229-1.558,0.277l-2.303,3.307c-0.263,0.375-0.269,0.88-0.014,1.261L37.188,10.981z"/>
	</g>
</g>
</svg>
