<?xml version="1.0" encoding="iso-8859-1"?>
<!-- Generator: Adobe Illustrator 15.0.0, SVG Export Plug-In . SVG Version: 6.00 Build 0)  -->
<!DOCTYPE svg PUBLIC "-//W3C//DTD SVG 1.1//EN" "http://www.w3.org/Graphics/SVG/1.1/DTD/svg11.dtd">
<svg version="1.1" id="Layer_1" xmlns="http://www.w3.org/2000/svg" xmlns:xlink="http://www.w3.org/1999/xlink" x="0px" y="0px"
	 width="64px" height="64px" viewBox="0 0 64 64" style="enable-background:new 0 0 64 64;" xml:space="preserve">
<path style="fill:#010101;" d="M51.779,23.576v8.913c0.003,1.986-1.606,3.597-3.594,3.597c-1.985,0-3.596-1.61-3.596-3.597v4.47
	c0,1.986-1.609,3.596-3.597,3.596c-1.985,0-3.595-1.609-3.595-3.596v4.466c0,1.987-1.612,3.597-3.598,3.597
	c-1.987,0-3.597-1.609-3.597-3.597v13.844c0,1.986-1.61,3.597-3.596,3.597c-1.987,0-3.597-1.61-3.597-3.597V32.535
	C17.3,38.746,12.139,36.67,12.139,34.41l5.37-15.604c2.046-7.369,8.799-12.779,16.819-12.779c9.643,0,17.456,7.817,17.456,17.46
	C51.784,23.518,51.779,23.546,51.779,23.576z"/>
</svg>
