<?xml version="1.0" encoding="iso-8859-1"?>
<!-- Generator: Adobe Illustrator 15.0.0, SVG Export Plug-In . SVG Version: 6.00 Build 0)  -->
<!DOCTYPE svg PUBLIC "-//W3C//DTD SVG 1.1//EN" "http://www.w3.org/Graphics/SVG/1.1/DTD/svg11.dtd">
<svg version="1.1" id="Layer_1" xmlns="http://www.w3.org/2000/svg" xmlns:xlink="http://www.w3.org/1999/xlink" x="0px" y="0px"
	 width="64px" height="64px" viewBox="0 0 64 64" style="enable-background:new 0 0 64 64;" xml:space="preserve">
<g>
	<path style="fill:#010101;" d="M47.52,31.012c0,3.569-5.352,3.569-5.352,0C42.168,27.442,47.52,27.442,47.52,31.012"/>
	<path style="fill:#010101;" d="M48.417,39.651c0,3.569-5.352,3.569-5.352,0C43.064,36.085,48.417,36.085,48.417,39.651"/>
	<path style="fill:#010101;" d="M52.32,23.598c0,3.566-5.353,3.566-5.353,0C46.967,20.029,52.32,20.029,52.32,23.598"/>
	<path style="fill:#010101;" d="M56,32.45c0,3.566-5.352,3.566-5.352,0C50.648,28.881,56,28.881,56,32.45"/>
	<path style="fill:#010101;" d="M39.356,31.29c0,3.569-5.353,3.569-5.353,0C34.004,27.724,39.356,27.724,39.356,31.29"/>
	<path style="fill:#010101;" d="M13.239,37.799c0,3.569-5.353,3.569-5.353,0C7.886,34.233,13.239,34.233,13.239,37.799"/>
	<path style="fill:#010101;" d="M15.915,28.95c0,3.566-5.354,3.566-5.354,0C10.562,25.381,15.915,25.381,15.915,28.95"/>
	<path style="fill:#010101;" d="M26.31,9.436c2.854-0.761,5.79,0.935,6.555,3.785l1.846,6.895l-10.336,2.77l-1.849-6.896
		C21.76,13.141,23.459,10.201,26.31,9.436z M17.479,24.731l1.846,6.896l6.892-1.849l10.339-2.77l1.859-0.497l5.033-1.349
		l-1.843-6.895l-1.849-6.896c-1.783-6.648-8.644-10.61-15.296-8.827c-6.647,1.783-10.609,8.644-8.827,15.295L17.479,24.731z"/>
	<path style="fill:#010101;" d="M28.26,53.855c2.95,0,5.352-2.402,5.352-5.352v-7.959h0.014c0-0.024-0.014-0.046-0.014-0.07
		c0-0.986,0.799-1.786,1.783-1.786c0.987,0,1.783,0.8,1.783,1.786c0,0.024-0.014,0.045-0.014,0.07h0.014v7.959
		c0,4.921-4.004,8.921-8.921,8.921c-0.987,0-1.783-0.798-1.783-1.783C26.477,54.654,27.276,53.855,28.26,53.855z M15.772,42.261
		v7.134c0,6.886,5.602,12.488,12.487,12.488c6.884,0,12.487-5.603,12.487-12.488V35.123H15.772V42.261z"/>
</g>
</svg>
