<?xml version="1.0" encoding="iso-8859-1"?>
<!-- Generator: Adobe Illustrator 15.0.0, SVG Export Plug-In . SVG Version: 6.00 Build 0)  -->
<!DOCTYPE svg PUBLIC "-//W3C//DTD SVG 1.1//EN" "http://www.w3.org/Graphics/SVG/1.1/DTD/svg11.dtd">
<svg version="1.1" id="Layer_1" xmlns="http://www.w3.org/2000/svg" xmlns:xlink="http://www.w3.org/1999/xlink" x="0px" y="0px"
	 width="64px" height="64px" viewBox="0 0 64 64" style="enable-background:new 0 0 64 64;" xml:space="preserve">
<g>
	<path style="fill:#010101;" d="M37.652,27.527c-0.887,0-1.605-0.719-1.602-1.604c-0.004-0.884,0.719-1.604,1.607-1.603
		c0.883,0,1.602,0.719,1.602,1.604C39.256,26.812,38.537,27.527,37.652,27.527z M37.646,33.586c-0.889,0-1.604-0.72-1.602-1.607
		c-0.002-0.886,0.721-1.602,1.607-1.602c0.889,0,1.602,0.722,1.602,1.607C39.252,32.873,38.529,33.586,37.646,33.586z M37.637,39.68
		c-0.885,0-1.604-0.722-1.602-1.607c0-0.887,0.723-1.604,1.605-1.601c0.889,0,1.604,0.719,1.604,1.604
		C39.24,38.965,38.523,39.68,37.637,39.68z M32,27.521c-0.887,0-1.604-0.719-1.6-1.607c0-0.883,0.719-1.604,1.605-1.604
		c0.885,0.003,1.604,0.725,1.602,1.61C33.609,26.806,32.889,27.524,32,27.521z M31.994,33.579c-0.887-0.003-1.602-0.722-1.602-1.609
		c0-0.887,0.717-1.603,1.602-1.603c0.889,0.004,1.604,0.722,1.604,1.608C33.6,32.864,32.883,33.579,31.994,33.579z M31.99,39.671
		c-0.889,0-1.607-0.719-1.607-1.606c0.002-0.887,0.721-1.602,1.611-1.602c0.885,0.002,1.604,0.718,1.6,1.606
		C33.594,38.958,32.873,39.674,31.99,39.671z M26.352,27.516c-0.885-0.003-1.602-0.722-1.598-1.608c0-0.885,0.715-1.604,1.604-1.601
		c0.887,0,1.604,0.719,1.604,1.604S27.24,27.516,26.352,27.516z M26.346,33.57c-0.885,0-1.602-0.719-1.602-1.601
		c0.004-0.89,0.723-1.608,1.607-1.608c0.889,0.004,1.609,0.722,1.605,1.61C27.953,32.854,27.232,33.573,26.346,33.57z M26.34,39.665
		c-0.887-0.003-1.604-0.719-1.604-1.607c0.002-0.886,0.721-1.604,1.605-1.602c0.891,0,1.607,0.719,1.607,1.604
		C27.943,38.952,27.223,39.668,26.34,39.665z M22.23,21.503l-0.025,20.966l19.566,0.024l0.027-20.969L22.23,21.503z"/>
	<path style="fill:#010101;" d="M22.193,51.261c-0.006,5.4,4.365,9.787,9.77,9.794c5.404,0.008,9.791-4.367,9.797-9.77l0.006-7.039
		l-19.561-0.023L22.193,51.261z"/>
	<path style="fill:#010101;" d="M32.035,2.945c-5.4-0.009-9.783,4.366-9.789,9.769l-0.012,7.038l19.566,0.021l0.006-7.035
		C41.814,7.335,37.439,2.951,32.035,2.945z"/>
</g>
</svg>
