<?xml version="1.0" encoding="iso-8859-1"?>
<!-- Generator: Adobe Illustrator 15.0.0, SVG Export Plug-In . SVG Version: 6.00 Build 0)  -->
<!DOCTYPE svg PUBLIC "-//W3C//DTD SVG 1.1//EN" "http://www.w3.org/Graphics/SVG/1.1/DTD/svg11.dtd">
<svg version="1.1" id="Layer_1" xmlns="http://www.w3.org/2000/svg" xmlns:xlink="http://www.w3.org/1999/xlink" x="0px" y="0px"
	 width="64px" height="64px" viewBox="0 0 64 64" style="enable-background:new 0 0 64 64;" xml:space="preserve">
<g>
	<path style="fill:#010101;" d="M18.164,38.125l6.94-6.941l4.908,4.905l1.401-1.402l-4.907-4.905l2.748-2.749l4.54,4.54l1.401-1.402
		l-4.54-4.54l3.255-3.255l3.235,3.234l1.401-1.402l-3.234-3.234l3.193-3.193l6.473,6.472L24.635,44.597L18.164,38.125z
		 M14.306,52.902l-3.538-3.539l6.979-6.978l3.538,3.538L14.306,52.902z M48.844,16.255L59.371,5.728l-2.339-2.339L46.505,13.916
		l-1.408-1.409L41.504,16.1l-1.829-1.829c-0.645-0.647-1.695-0.647-2.339,0L15.824,35.786l-2.174-2.173l-2.339,2.339l4.1,4.096
		l-6.979,6.979l-1.464-1.464L4.629,47.9l10.737,10.733l2.339-2.339l-1.058-1.058l6.979-6.979l3.996,3.996l2.34-2.338l-2.983-2.984
		l21.511-21.515c0.647-0.644,0.647-1.691,0-2.339l-1.826-1.826l3.593-3.593L48.844,16.255z"/>
</g>
</svg>
