<?xml version="1.0" encoding="iso-8859-1"?>
<!-- Generator: Adobe Illustrator 15.0.0, SVG Export Plug-In . SVG Version: 6.00 Build 0)  -->
<!DOCTYPE svg PUBLIC "-//W3C//DTD SVG 1.1//EN" "http://www.w3.org/Graphics/SVG/1.1/DTD/svg11.dtd">
<svg version="1.1" id="Layer_1" xmlns="http://www.w3.org/2000/svg" xmlns:xlink="http://www.w3.org/1999/xlink" x="0px" y="0px"
	 width="64px" height="64px" viewBox="0 0 64 64" style="enable-background:new 0 0 64 64;" xml:space="preserve">
<g>
	<path style="fill:#010101;" d="M51.161,42.223c-2.384,0-4.315-1.932-4.315-4.315s1.932-4.315,4.315-4.315
		c2.383,0,4.314,1.932,4.314,4.315S53.544,42.223,51.161,42.223z M59.469,37.908c0-4.588-3.72-8.308-8.308-8.308
		c-4.589,0-8.312,3.72-8.312,8.308c0,3.855,2.628,7.095,6.187,8.035c-0.816,4.68-3.711,9.553-12.229,9.553
		c-3.873,0-6.949-1.185-9.137-3.519c-2.455-2.616-3.449-6.272-3.854-8.912c0.776-1.153,1.409-2.863,1.566-4.234
		c10.059-5.037,13.009-26.833,13.031-27.052c0.069-0.693,0.23-2.308-4.519-4.853c-0.578-1.512-2.045-2.524-3.669-2.524
		c-2.173,0-3.938,1.768-3.938,3.938c0,2.173,1.769,3.938,3.938,3.938c1.029,0,2.024-0.411,2.76-1.136
		c0.529,0.328,0.978,0.635,1.266,0.868c-0.773,5.074-5.055,23.196-12.767,23.731c-7.711-0.535-11.99-18.654-12.765-23.731
		c0.287-0.233,0.736-0.541,1.266-0.868c0.736,0.725,1.729,1.136,2.76,1.136c2.174,0,3.938-1.768,3.938-3.938
		c0-2.173-1.767-3.938-3.938-3.938c-1.624,0-3.091,1.012-3.675,2.527c-4.749,2.544-4.588,4.16-4.519,4.853
		c0.022,0.216,2.972,22.015,13.031,27.052c0.185,1.575,1.034,3.826,2.196,5.016c0.5,3.148,1.756,7.572,4.884,10.919
		c2.998,3.205,7.084,4.829,12.144,4.829c12.584,0,15.646-8.69,16.371-13.629C56.792,45.066,59.469,41.8,59.469,37.908z"/>
	<path style="fill:#010101;" d="M53.279,37.908c0,2.826-4.237,2.826-4.237,0C49.042,35.082,53.279,35.082,53.279,37.908"/>
</g>
</svg>
