<?xml version="1.0" encoding="iso-8859-1"?>
<!-- Generator: Adobe Illustrator 15.0.0, SVG Export Plug-In . SVG Version: 6.00 Build 0)  -->
<!DOCTYPE svg PUBLIC "-//W3C//DTD SVG 1.1//EN" "http://www.w3.org/Graphics/SVG/1.1/DTD/svg11.dtd">
<svg version="1.1" id="Layer_1" xmlns="http://www.w3.org/2000/svg" xmlns:xlink="http://www.w3.org/1999/xlink" x="0px" y="0px"
	 width="64px" height="64px" viewBox="0 0 64 64" style="enable-background:new 0 0 64 64;" xml:space="preserve">
<g>
	<path style="fill:#010101;" d="M19.293,34.609l5.003-9.924l3.646,10.867l5.582-17.995l4.412,21.878l3.888-4.822l11.862-0.004
		c2.996-4.068,4.668-8.017,4.668-12.305C58.359,14.177,52.018,7.89,43.829,7.89c-4.49,0-8.981,2.098-11.886,5.503
		C29.038,9.987,24.547,7.89,20.057,7.89c-8.189,0-14.53,6.287-14.53,14.412c0,3.366,1.042,6.527,2.938,9.698H3.011v2.609H19.293z"/>
	<path style="fill:#010101;" d="M60.875,37.22H42.461l-5.264,6.525l-4.211-15.566l-4.995,12.956l-3.948-10.439l-3.131,6.524h-8.628
		c3.936,4.6,9.393,9.457,15.967,15.22l3.692,3.671l3.694-3.671c5.35-4.689,9.913-8.772,13.563-12.612h11.675V37.22z"/>
</g>
</svg>
