<?xml version="1.0" encoding="iso-8859-1"?>
<!-- Generator: Adobe Illustrator 15.0.0, SVG Export Plug-In . SVG Version: 6.00 Build 0)  -->
<!DOCTYPE svg PUBLIC "-//W3C//DTD SVG 1.1//EN" "http://www.w3.org/Graphics/SVG/1.1/DTD/svg11.dtd">
<svg version="1.1" id="Layer_1" xmlns="http://www.w3.org/2000/svg" xmlns:xlink="http://www.w3.org/1999/xlink" x="0px" y="0px"
	 width="64px" height="64px" viewBox="0 0 64 64" style="enable-background:new 0 0 64 64;" xml:space="preserve">
<g>
	<path style="fill-rule:evenodd;clip-rule:evenodd;fill:#010101;" d="M31.339,6.457c2.895-0.826,3.906,3.552,1.344,4.172
		c-1.308,0.318-3.121-0.549-2.825-2.556C29.945,7.471,30.355,6.738,31.339,6.457z"/>
	<path style="fill-rule:evenodd;clip-rule:evenodd;fill:#010101;" d="M30.934,13.989c0.367,0.573,0.719,1.166,0.941,1.883
		c-1.311-0.08-2.948,0.17-4.036-0.136c0.036-0.277,0.501-0.126,0.539-0.404c-1.576,0.583-2.352-0.542-3.363-0.94
		c0.178-0.268,0.598-0.299,0.939-0.404c-1.525,0.015-2.857-0.021-3.767-0.94c0.318-0.444,1.073-0.45,1.615-0.672
		c-1.972,0.105-6.181,0.935-7.131-1.076c1.008-0.956,2.581-1.819,4.307-2.691c1.076-0.542,5.261-2.626,6.459-0.808
		c0.518,0.787,0.088,1.925,0.136,2.96C27.656,12.774,28.391,14.039,30.934,13.989z"/>
	<path style="fill-rule:evenodd;clip-rule:evenodd;fill:#010101;" d="M35.375,15.873c-1.076,0-2.152,0-3.228,0
		c0.096-0.802,0.564-1.229,0.808-1.883c3.569,0.206,3.197-2.149,3.228-4.708c0.019-1.52,0.876-2.333,2.824-2.152
		c2.933,0.274,5.997,2.833,8.342,4.036c-0.909,2.072-4.947,1.514-7.264,1.076c0.451,0.265,0.993,0.444,1.616,0.54
		c-0.519,1.233-2.075,1.351-3.768,1.076c0.259,0.234,0.703,0.284,1.077,0.404c-0.892,0.715-2.094,1.409-3.499,1.212l-0.202,0.157
		L35.375,15.873z"/>
	<path style="fill-rule:evenodd;clip-rule:evenodd;fill:#010101;" d="M30.395,10.625c1.095,0.155,2.137,0.155,3.229,0
		c-0.184,0.669-0.561,1.144-1.345,1.212c0.038,0.41,0.602,0.296,0.673,0.672c0.052,1.307-0.435,2.078-1.076,2.691
		c-0.195-0.971-1.024-1.311-0.808-2.691c0.237-0.12,0.172-0.546,0.671-0.404C31.261,11.646,30.504,11.46,30.395,10.625z"/>
	<path style="fill-rule:evenodd;clip-rule:evenodd;fill:#010101;" d="M19.096,13.453c-3.191,1.165-8.106,3.277-12.512,2.96
		c-1.73-0.124-3.231-0.673-4.036-2.02c4.729-0.743,9.404-1.539,13.455-2.96c0.488,1.085,1.665,1.475,3.095,1.616l-0.067,0.2
		L19.096,13.453z"/>
	<path style="fill-rule:evenodd;clip-rule:evenodd;fill:#010101;" d="M44.926,13.049c1.181-0.299,2.707-0.253,2.823-1.616
		c4.25,1.225,8.58,2.362,13.588,2.825c-3.17,4.496-12.2,0.657-16.415-0.808l0.069-0.201L44.926,13.049z"/>
	<path style="fill-rule:evenodd;clip-rule:evenodd;fill:#010101;" d="M23.267,14.125c-2.757,1.948-6.77,4.307-12.108,3.9
		c-1.264-0.095-2.726-0.327-3.364-1.212c4.287-0.638,9.552-1.819,12.78-3.767C21.657,12.396,22.477,14.26,23.267,14.125z"/>
	<path style="fill-rule:evenodd;clip-rule:evenodd;fill:#010101;" d="M55.421,17.22c-5.306,2.195-11.296-0.663-14.663-2.96
		c0.761-0.552,1.374-1.289,2.419-1.211c0.758,0.056,1.844,0.839,2.824,1.211c2.708,1.027,6.298,1.995,9.419,2.556l-0.068,0.2
		L55.421,17.22z"/>
	<path style="fill-rule:evenodd;clip-rule:evenodd;fill:#010101;" d="M26.359,15.873c-3.14,1.526-8.017,5.146-12.243,2.556
		c3.354-0.475,6.912-2.608,9.552-3.9C24.338,14.199,25.918,15.105,26.359,15.873z"/>
	<path style="fill-rule:evenodd;clip-rule:evenodd;fill:#010101;" d="M49.905,18.296c-3.733,2.839-9.24-0.777-12.243-2.42
		c0.548-0.875,1.643-1.446,2.556-1.344c0.599,0.065,1.366,0.804,2.152,1.211C44.442,16.804,47.278,17.923,49.905,18.296z"/>
	<path style="fill-rule:evenodd;clip-rule:evenodd;fill:#010101;" d="M23.535,18.161c-0.352,0.499-0.882,0.823-1.077,1.479
		c-0.54-0.089-1.171-0.083-1.615-0.268l0.068-0.201l-0.068-0.203c0.721-0.401,1.474-0.771,2.288-1.076l0.176,0.176L23.535,18.161z"
		/>
	<path style="fill-rule:evenodd;clip-rule:evenodd;fill:#010101;" d="M40.623,17.757c1.113,0.367,1.923,1.036,3.095,1.344
		c-0.327,0.524-1.431,0.274-2.02,0.539c-0.585-0.311-0.795-0.999-1.211-1.479l0.181-0.164L40.623,17.757z"/>
	<path style="fill-rule:evenodd;clip-rule:evenodd;fill:#010101;" d="M31.875,16.141c0.036,0.712-0.006,1.338-0.269,1.748
		c-0.539-0.404-0.937-0.946-1.615-1.211C30.282,16.166,31.018,16.092,31.875,16.141z"/>
	<path style="fill-rule:evenodd;clip-rule:evenodd;fill:#010101;" d="M34.03,16.681c-0.429,0.512-1.165,0.718-1.48,1.344
		c-0.465-0.295-0.425-1.101-0.54-1.749C32.698,15.91,33.719,16.237,34.03,16.681z"/>
	<path style="fill-rule:evenodd;clip-rule:evenodd;fill:#010101;" d="M28.916,17.621c0.39,0.197,0.39-0.601,0-0.404
		C28.916,17.353,28.916,17.488,28.916,17.621z M35.105,32.42c1.271-0.321,3.029-1.634,1.616-3.364
		c-0.617-0.756-2.094-1.218-3.632-1.344c-3.203-0.269-6.672-0.17-8.88-2.02c-1.297-1.085-2.556-3.987-1.211-6.324
		c1.072-1.865,4.736-3.277,6.592-2.556c0.542,0.21,1.702,0.762,1.748,1.616c-0.519,0.808-1.378,1.083-2.288,1.076
		c-0.728-0.006-1.307-0.502-2.02-0.404c-1.199,0.167-2.346,1.945-1.748,3.632c0.461,1.304,2.796,2.119,5.112,2.288
		c3.235,0.235,6.794,0.333,8.476,2.556c1.498,1.979,0.898,5.543-1.48,6.459c-0.732-0.389-1.355-0.885-2.152-1.212l-0.067-0.2
		L35.105,32.42z"/>
	<path style="fill-rule:evenodd;clip-rule:evenodd;fill:#010101;" d="M35.238,17.621c0.006-0.231-0.105-0.346-0.268-0.404
		C34.779,17.415,34.772,17.741,35.238,17.621z M35.642,24.753c1.277-0.608,2.893-0.888,3.229-2.152
		c0.398-1.502-0.407-3.228-1.615-3.5c-0.732-0.164-1.323,0.382-2.152,0.404c-1.123,0.028-1.837-0.401-2.42-1.076
		c0.841-2.562,5.266-2.053,7.4-0.268c2.731,2.288,1.67,7.085-1.48,8.34c-1.057-0.376-1.917-0.953-2.96-1.344l0.068-0.2
		L35.642,24.753z"/>
	<path style="fill-rule:evenodd;clip-rule:evenodd;fill:#010101;" d="M31.875,17.892c1.384,1.172,0.838,4.273,0.94,6.728
		c-0.54,0-1.077,0-1.616,0C31.265,21.916,30.858,19.521,31.875,17.892z"/>
	<path style="fill-rule:evenodd;clip-rule:evenodd;fill:#010101;" d="M28.511,28.251c-0.855,0.549-1.853,1.073-1.748,2.288
		c0.186,2.17,3.684,1.988,6.591,2.288c3.678,0.376,6.653,4.356,3.095,7.535c-0.841-0.28-1.316-0.928-2.288-1.076
		c0.691-0.635,1.7-0.577,1.885-1.48c0.261-1.273-1.099-2.482-2.288-2.691c-0.731-0.13-1.53,0.037-2.289,0
		c-4.699-0.234-9.552-3.056-5.784-7.939c0.91,0.256,1.779,0.555,2.691,0.808l-0.068,0.201L28.511,28.251z"/>
	<path style="fill-rule:evenodd;clip-rule:evenodd;fill:#010101;" d="M31.203,28.116c0.54,0,1.076,0,1.616,0
		c0.104,1.585-0.198,2.763-0.136,4.305c-0.494,0-0.987,0-1.48,0C31.203,30.987,31.203,29.553,31.203,28.116z"/>
	<path style="fill-rule:evenodd;clip-rule:evenodd;fill:#010101;" d="M29.455,35.248c-0.767,0.718-1.575,1.434-1.344,2.556
		c0.311,1.52,2.393,1.246,4.574,1.479c3.417,0.367,5.687,4.652,2.289,6.86c-0.685-0.256-1.175-0.709-2.153-0.672
		c1.009-0.678,2.43-0.786,2.153-2.556c-0.284-1.782-2.026-1.572-4.308-1.748c-2.161-0.169-3.842-0.934-4.575-2.691
		c-0.17-1.785,0.225-3.003,0.94-3.9C27.88,34.757,28.44,35.229,29.455,35.248z"/>
	<path style="fill-rule:evenodd;clip-rule:evenodd;fill:#010101;" d="M31.339,35.38c0.447,0,0.897,0,1.344,0
		c0,1.255,0,2.514,0,3.768c-0.45,0-0.897,0-1.344,0C31.339,37.894,31.339,36.638,31.339,35.38z"/>
	<path style="fill-rule:evenodd;clip-rule:evenodd;fill:#010101;" d="M29.991,41.572c-0.61,0.453-0.965,1.153-0.94,1.747
		c0.114,2.849,5.855,1.338,6.324,4.576c0.151,1.042-0.235,2.565-1.748,3.096c-0.301-0.234-0.756-0.32-1.076-0.54
		c1.254-0.435,2.06-1.754,1.344-2.825c-0.622-0.933-2.195-0.502-3.632-0.939c-2.05-0.626-3.916-3.312-2.151-5.651
		C28.881,41.069,29.319,41.438,29.991,41.572z"/>
	<path style="fill-rule:evenodd;clip-rule:evenodd;fill:#010101;" d="M31.339,41.303c0.404,0,0.808,0,1.211,0
		c0,1.254,0,2.51,0,3.768c-0.357,0-0.718,0-1.076,0C31.292,43.948,31.339,42.601,31.339,41.303z"/>
	<path style="fill-rule:evenodd;clip-rule:evenodd;fill:#010101;" d="M33.354,54.622c1.302-3.33-2.58-2.796-3.9-4.171
		c-0.876-0.91-0.969-2.368-0.268-3.768c0.705-0.034,1.018,0.327,1.615,0.404c-1.44,0.983-0.94,2.393,0.268,3.096
		c0.926,0.537,2.514,0.749,2.96,1.884c0.194,0.496,0.367,2.222-0.404,2.824l-0.068-0.2L33.354,54.622z"/>
	<path style="fill-rule:evenodd;clip-rule:evenodd;fill:#010101;" d="M32.347,55.427l0.067,0.136c-0.045,0-0.089,0-0.136,0
		c0.013,0.191,0.023,0.382-0.135,0.404l-0.133-0.235l-0.268-0.034c0-0.045,0-0.089,0-0.136l-0.136-0.271c0.046,0,0.09,0,0.136,0
		c0.018-0.305-0.104-0.653-0.136-1.076c-0.058-0.839-0.172-2.069,0.269-2.423c0.697-0.006,0.38,0.993,0.403,1.616
		c0.023,0.66-0.015,1.359,0,1.883L32.347,55.427z"/>
	<path style="fill-rule:evenodd;clip-rule:evenodd;fill:#010101;" d="M30.419,54.419l-0.157,0.2c-0.833-0.795-0.32-3.921,0.94-2.96
		c0.407,0.201-0.577,0.762-0.671,1.48c-0.065,0.49,0.125,0.801,0.135,1.344L30.419,54.419z"/>
	<path style="fill-rule:evenodd;clip-rule:evenodd;fill:#010101;" d="M31.471,47.087c0.315,0,0.629,0,0.94,0
		c0,1.076,0,2.151,0,3.228c-0.268,0-0.54,0-0.808,0C31.312,49.492,31.551,48.132,31.471,47.087z"/>
	<path style="fill:none;stroke:#010101;stroke-width:0.5299;stroke-linecap:round;" d="M35.307,15.626
		c0.088,0.024,0.178,0.034,0.268,0.046"/>
	<path style="fill:none;stroke:#010101;stroke-width:0.4175;stroke-linecap:round;" d="M19.631,13.181
		c-0.15-0.015-0.388,0.043-0.604,0.068"/>
	<path style="fill:none;stroke:#010101;stroke-width:0.4214;stroke-linecap:round;" d="M44.39,13.181
		c0.15-0.015,0.388,0.043,0.604,0.068"/>
	<path style="fill:none;stroke:#010101;stroke-width:0.451;stroke-linecap:round;" d="M55.353,17.017
		c0.136-0.025,0.269-0.052,0.405-0.067"/>
	<path style="fill:none;stroke:#010101;stroke-width:0.4636;stroke-linecap:round;" d="M20.575,19.236
		c0.087-0.024,0.219-0.052,0.337-0.067"/>
	<path style="fill:none;stroke:#010101;stroke-width:0.5332;stroke-linecap:round;" d="M23.308,18.065
		c1.82-1.301,3.939-2.226,6.215-1.723"/>
	<path style="fill:none;stroke:#010101;stroke-width:0.4977;stroke-linecap:round;" d="M34.5,16.345
		c2.256-0.515,4.337,0.45,6.168,1.652"/>
	<path style="fill:none;stroke:#010101;stroke-width:0.4771;stroke-linecap:round;" d="M34.835,32.556
		c0.086,0.024,0.219,0.052,0.336,0.068"/>
	<path style="fill:none;stroke:#010101;stroke-width:0.4896;stroke-linecap:round;" d="M35.442,24.888
		c0.09,0.037,0.179,0.052,0.268,0.068"/>
	<path style="fill:none;stroke:#010101;stroke-width:0.3616;stroke-linecap:round;" d="M28.31,28.184
		c0.14-0.046,0.238-0.052,0.337-0.068"/>
	<path style="fill:none;stroke:#010101;stroke-width:0.4931;stroke-linecap:round;" d="M32.01,57.647
		c-0.021-0.632-0.163-1.292,0-1.917"/>
	<path style="fill:none;stroke:#010101;stroke-width:0.4651;stroke-linecap:round;" d="M31.674,55.427
		c-0.501-0.154-1.107-0.425-1.254-1.008"/>
	<path style="fill:none;stroke:#010101;stroke-width:0.4309;stroke-linecap:round;" d="M32.347,55.427
		c0.493,0.003,0.87-0.407,1.211-0.74"/>
</g>
</svg>
