<?xml version="1.0" encoding="iso-8859-1"?>
<!-- Generator: Adobe Illustrator 15.0.0, SVG Export Plug-In . SVG Version: 6.00 Build 0)  -->
<!DOCTYPE svg PUBLIC "-//W3C//DTD SVG 1.1//EN" "http://www.w3.org/Graphics/SVG/1.1/DTD/svg11.dtd">
<svg version="1.1" id="Layer_1" xmlns="http://www.w3.org/2000/svg" xmlns:xlink="http://www.w3.org/1999/xlink" x="0px" y="0px"
	 width="64px" height="64px" viewBox="0 0 64 64" style="enable-background:new 0 0 64 64;" xml:space="preserve">
<g>
	<defs>
		<rect id="SVGID_1_" x="2.157" width="59.686" height="59.686"/>
	</defs>
	<clipPath id="SVGID_2_">
		<use xlink:href="#SVGID_1_"  style="overflow:visible;"/>
	</clipPath>
	<g style="clip-path:url(#SVGID_2_);">
		<defs>
			<rect id="SVGID_3_" x="2.157" width="59.686" height="59.686"/>
		</defs>
		<clipPath id="SVGID_4_">
			<use xlink:href="#SVGID_3_"  style="overflow:visible;"/>
		</clipPath>
		<g style="clip-path:url(#SVGID_4_);">
			<defs>
				<rect id="SVGID_5_" x="2.157" width="59.686" height="59.686"/>
			</defs>
			<clipPath id="SVGID_6_">
				<use xlink:href="#SVGID_5_"  style="overflow:visible;"/>
			</clipPath>
			<g style="clip-path:url(#SVGID_6_);">
				<defs>
					<rect id="SVGID_7_" x="2.157" width="59.686" height="59.686"/>
				</defs>
				<clipPath id="SVGID_8_">
					<use xlink:href="#SVGID_7_"  style="overflow:visible;"/>
				</clipPath>
				<path style="clip-path:url(#SVGID_8_);fill:#010101;" d="M30.823,42.584c0.19,0.111,0.44,0.043,0.551-0.148l0.61-1.06
					c0.112-0.19,0.045-0.44-0.146-0.551l-13.23-7.64c-0.192-0.11-0.439-0.042-0.549,0.148l-0.613,1.06
					c-0.109,0.191-0.044,0.438,0.148,0.549L30.823,42.584z"/>
				<path style="clip-path:url(#SVGID_8_);fill:#010101;" d="M19.078,43.28c0.191,0.112,0.438,0.043,0.547-0.146l2.059-3.566
					l-3.612-2.086l-2.059,3.565c-0.111,0.191-0.044,0.44,0.147,0.549L19.078,43.28z"/>
				<path style="clip-path:url(#SVGID_8_);fill:#010101;" d="M22.86,45.465l2.918,1.684c0.191,0.111,0.438,0.043,0.548-0.147
					l2.06-3.564l-3.613-2.089l-2.061,3.569C22.604,45.106,22.668,45.353,22.86,45.465z"/>
				<path style="clip-path:url(#SVGID_8_);fill:#010101;" d="M46.48,54.145h-3.768c3.809-3.64,6.187-8.767,6.187-14.452
					c0-5.316-2.079-10.146-5.464-13.726c-0.423,1.949-1.789,3.547-3.596,4.29c2.189,2.532,3.519,5.83,3.519,9.436
					c0,7.98-6.471,14.452-14.45,14.452H17.517c-1.327,0-2.416,1.086-2.416,2.416v3.125h33.799V56.56
					C48.899,55.231,47.811,54.145,46.48,54.145z"/>
				<circle style="clip-path:url(#SVGID_8_);fill:#010101;" cx="37.562" cy="24.698" r="4.352"/>
				<path style="clip-path:url(#SVGID_8_);fill:#010101;" d="M30.084,37.648l4.477-7.751c-1.795-1.04-3.007-2.978-3.007-5.199
					c0-3.312,2.695-6.008,6.009-6.008c1.093,0,2.117,0.298,3,0.811l3.483-6.032c0.165-0.288,0.199-0.618,0.119-0.917
					c-0.08-0.298-0.273-0.567-0.56-0.734l-0.687-0.396l3.741-6.479l0.291,0.17c0.222,0.128,0.51,0.051,0.638-0.17l0.706-1.225
					c0.127-0.22,0.053-0.506-0.168-0.635l-5.222-3.02c-0.223-0.129-0.509-0.052-0.636,0.171l-0.708,1.224
					c-0.128,0.221-0.05,0.507,0.17,0.634l0.291,0.169l-3.743,6.481l-0.604-0.349c-0.288-0.165-0.619-0.2-0.917-0.117
					c-0.299,0.08-0.567,0.272-0.733,0.56L22.063,33.018L30.084,37.648z"/>
			</g>
		</g>
	</g>
</g>
</svg>
