<?xml version="1.0" encoding="iso-8859-1"?>
<!-- Generator: Adobe Illustrator 15.0.0, SVG Export Plug-In . SVG Version: 6.00 Build 0)  -->
<!DOCTYPE svg PUBLIC "-//W3C//DTD SVG 1.1//EN" "http://www.w3.org/Graphics/SVG/1.1/DTD/svg11.dtd">
<svg version="1.1" id="Layer_1" xmlns="http://www.w3.org/2000/svg" xmlns:xlink="http://www.w3.org/1999/xlink" x="0px" y="0px"
	 width="64px" height="64px" viewBox="0 0 64 64" style="enable-background:new 0 0 64 64;" xml:space="preserve">
<path style="fill:#010101;" d="M41.76,28.751c-0.572,0.816-1.603,1.8-3.156,3.01l-1.442,1.125c-0.646,0.501-1.06,1.059-1.266,1.707
	c-0.095,0.289-0.207,0.896-0.223,2.146c-0.007,0.492-0.406,0.888-0.898,0.888h-5.531c-0.243,0-0.477-0.099-0.646-0.278
	c-0.168-0.174-0.259-0.413-0.253-0.655c0.085-2.428,0.318-4.083,0.718-5.072c0.417-1.036,1.4-2.151,3.004-3.403l1.505-1.177
	c0.403-0.299,0.731-0.633,0.99-1.007c0.43-0.601,0.64-1.237,0.64-1.945c0-0.853-0.242-1.608-0.738-2.308
	c-0.423-0.594-1.291-0.895-2.574-0.895c-1.256,0-2.101,0.376-2.587,1.149c-0.573,0.909-0.849,1.823-0.849,2.788
	c0,0.498-0.403,0.9-0.901,0.9h-5.901c-0.243,0-0.477-0.098-0.65-0.277c-0.17-0.178-0.258-0.417-0.249-0.66
	c0.174-4.173,1.683-7.187,4.477-8.967c1.744-1.125,3.904-1.692,6.407-1.692c3.248,0,6.006,0.797,8.195,2.371
	c2.272,1.643,3.426,4.083,3.426,7.262C43.25,25.719,42.744,27.402,41.76,28.751z M36.105,48.974c0,0.496-0.403,0.899-0.899,0.899
	h-6.107c-0.496,0-0.899-0.403-0.899-0.899v-5.901c0-0.498,0.403-0.901,0.899-0.901h6.107c0.496,0,0.899,0.403,0.899,0.901V48.974z
	 M32,5C17.089,5,5,17.089,5,32s12.089,27,27,27s27-12.089,27-27S46.911,5,32,5z"/>
</svg>
