<?xml version="1.0" encoding="iso-8859-1"?>
<!-- Generator: Adobe Illustrator 15.0.0, SVG Export Plug-In . SVG Version: 6.00 Build 0)  -->
<!DOCTYPE svg PUBLIC "-//W3C//DTD SVG 1.1//EN" "http://www.w3.org/Graphics/SVG/1.1/DTD/svg11.dtd">
<svg version="1.1" id="Layer_1" xmlns="http://www.w3.org/2000/svg" xmlns:xlink="http://www.w3.org/1999/xlink" x="0px" y="0px"
	 width="64px" height="64px" viewBox="0 0 64 64" style="enable-background:new 0 0 64 64;" xml:space="preserve">
<g>
	<path style="fill:#010101;" d="M51.518,54h-9.474c-2.772,0-5.019-2.262-5.019-5.05l0.046-2.604H27.025l-0.046,2.604
		c0,2.79-2.248,5.05-5.021,5.05h-9.472c-0.673,0-1.216,0.547-1.216,1.222c0,0.678,0.543,1.223,1.216,1.223h39.027
		c0.671,0,1.214-0.548,1.214-1.223C52.729,54.545,52.186,54,51.518,54z"/>
	<path style="fill:#010101;" d="M8.105,11.653h47.793v26.035H8.105V11.653z M56.469,7.556H7.533c-1.804,0-3.269,1.471-3.269,3.285
		V40.75c0,1.736,1.396,3.14,3.118,3.146h49.225c1.727,0,3.128-1.409,3.128-3.146V10.846C59.74,9.029,58.277,7.556,56.469,7.556z"/>
</g>
</svg>
