<?xml version="1.0" encoding="iso-8859-1"?>
<!-- Generator: Adobe Illustrator 15.0.0, SVG Export Plug-In . SVG Version: 6.00 Build 0)  -->
<!DOCTYPE svg PUBLIC "-//W3C//DTD SVG 1.1//EN" "http://www.w3.org/Graphics/SVG/1.1/DTD/svg11.dtd">
<svg version="1.1" id="Layer_1" xmlns="http://www.w3.org/2000/svg" xmlns:xlink="http://www.w3.org/1999/xlink" x="0px" y="0px"
	 width="64px" height="64px" viewBox="0 0 64 64" style="enable-background:new 0 0 64 64;" xml:space="preserve">
<g>
	<path style="fill:#010101;" d="M56.12,31.502h-9.647v-4.824h9.647V31.502z M56.12,38.736h-7.236v-4.822h7.236V38.736z
		 M56.12,45.973h-6.03v-4.824h6.03V45.973z M47.677,45.973H15.117v-4.824h32.561V45.973z M13.911,45.973H7.88v-4.824h6.03V45.973z
		 M7.88,33.914h8.441v4.822H7.88V33.914z M7.88,26.678h6.03v4.824H7.88V26.678z M15.117,26.678h6.028v4.824h-6.028V26.678z
		 M23.557,33.914v4.822h-6.029v-4.822H23.557z M22.351,26.678h6.03v4.824h-6.03V26.678z M32,33.914v4.822h-6.031v-4.822H32z
		 M30.793,26.678h6.031v4.824h-6.031V26.678z M39.237,33.914v4.822h-6.03v-4.822H39.237z M38.031,26.678h6.029v4.824h-6.029V26.678z
		 M3.056,23.06v26.531h57.888V23.06H3.056z"/>
	<rect x="29.587" y="20.646" style="fill:#010101;" width="4.825" height="2.413"/>
	<path style="fill:#010101;" d="M14.093,21.554c-3.313,0-6.499-1.45-8.734-6.099l2.172-1.046c3.229,6.703,8.54,5.095,15.15,2.293
		c2.073-0.88,3.867-1.636,5.331-1.727c1.89-0.116,3.34,0.399,4.314,1.517c1.648,1.894,1.141,4.698,1.08,5.012l-2.364-0.471
		c0.104-0.534,0.207-2.114-0.537-2.962c-0.459-0.521-1.247-0.754-2.347-0.687c-1.048,0.063-2.739,0.778-4.531,1.539
		C20.873,20.091,17.418,21.554,14.093,21.554z"/>
</g>
</svg>
