<?xml version="1.0" encoding="iso-8859-1"?>
<!-- Generator: Adobe Illustrator 15.0.0, SVG Export Plug-In . SVG Version: 6.00 Build 0)  -->
<!DOCTYPE svg PUBLIC "-//W3C//DTD SVG 1.1//EN" "http://www.w3.org/Graphics/SVG/1.1/DTD/svg11.dtd">
<svg version="1.1" id="Layer_1" xmlns="http://www.w3.org/2000/svg" xmlns:xlink="http://www.w3.org/1999/xlink" x="0px" y="0px"
	 width="64px" height="64px" viewBox="0 0 64 64" style="enable-background:new 0 0 64 64;" xml:space="preserve">
<g>
	<path style="fill:#010101;" d="M52.463,39.97h-40.93V17.221h40.93V39.97z M55.752,16.529c0-1.544-1.252-2.799-2.799-2.799H11.041
		c-1.545,0-2.799,1.252-2.799,2.799v26.928h47.51V16.529z"/>
	<path style="fill:#010101;" d="M58.916,48.533h-4.242c-0.375,0-0.68-0.304-0.68-0.679s0.305-0.679,0.68-0.679h4.242
		c0.375,0,0.68,0.304,0.68,0.679S59.291,48.533,58.916,48.533z M2.271,45.441v3.083c0,0.964,0.781,1.745,1.746,1.745h55.965
		c0.965,0,1.746-0.781,1.746-1.745v-3.083H2.271z"/>
</g>
</svg>
