<?xml version="1.0" encoding="iso-8859-1"?>
<!-- Generator: Adobe Illustrator 15.0.0, SVG Export Plug-In . SVG Version: 6.00 Build 0)  -->
<!DOCTYPE svg PUBLIC "-//W3C//DTD SVG 1.1//EN" "http://www.w3.org/Graphics/SVG/1.1/DTD/svg11.dtd">
<svg version="1.1" id="Layer_1" xmlns="http://www.w3.org/2000/svg" xmlns:xlink="http://www.w3.org/1999/xlink" x="0px" y="0px"
	 width="64px" height="64px" viewBox="0 0 64 64" style="enable-background:new 0 0 64 64;" xml:space="preserve">
<g>
	<path style="fill:#010101;" d="M33.631,14.031v-2.082c0-2.701-2.197-4.898-4.898-4.898h-0.576c-0.885,0-1.635-0.595-1.635-1.298
		V2.819h-3.264V5.75c0,2.517,2.199,4.562,4.898,4.562h0.576c0.902,0,1.635,0.734,1.635,1.635v2.082
		c0.537-0.053,1.084-0.08,1.633-0.08C32.551,13.951,33.094,13.978,33.631,14.031z"/>
	<path style="fill:#010101;" d="M45.914,33.902H18.086v13.365c0,7.687,6.23,13.914,13.914,13.914
		c7.686,0,13.914-6.231,13.914-13.914V33.902z"/>
	<path style="fill:#010101;" d="M33.631,17.313v13.325h12.271C45.662,23.729,40.387,18.103,33.631,17.313z"/>
	<path style="fill:#010101;" d="M30.367,30.638V17.313c-6.754,0.79-12.029,6.416-12.27,13.325H30.367z"/>
</g>
</svg>
