<?xml version="1.0" encoding="iso-8859-1"?>
<!-- Generator: Adobe Illustrator 15.0.0, SVG Export Plug-In . SVG Version: 6.00 Build 0)  -->
<!DOCTYPE svg PUBLIC "-//W3C//DTD SVG 1.1//EN" "http://www.w3.org/Graphics/SVG/1.1/DTD/svg11.dtd">
<svg version="1.1" id="Layer_1" xmlns="http://www.w3.org/2000/svg" xmlns:xlink="http://www.w3.org/1999/xlink" x="0px" y="0px"
	 width="64px" height="64px" viewBox="0 0 64 64" style="enable-background:new 0 0 64 64;" xml:space="preserve">
<path style="fill:#010101;" d="M36.018,23.911c-2.131,0-3.858-1.728-3.858-3.856c0-2.13,1.727-3.857,3.858-3.857
	c2.128,0,3.857,1.728,3.857,3.857C39.875,22.184,38.146,23.911,36.018,23.911z M37.927,29.374c-0.258,1.24-4.015,8.091-5.107,10.408
	c-0.625,1.328-1.85,3.165-1.581,4.711c0.213,1.229,1.483,1.895,2.591,2.161c0.367,0.089,1.426,0.208,1.426,0.747
	c0,0.218-0.174,0.392-0.394,0.396c0,0.006-8.342,0.006-8.342,0.006c-1.19,0-2.227-0.844-2.375-2.024
	c-0.172-1.33,0.729-2.526,1.27-3.663c1.167-2.435,2.49-4.801,3.648-7.244c0.417-0.882,0.806-1.775,1.228-2.651
	c0.424-0.874,0.951-1.862,0.602-2.852c-0.376-1.054-1.62-1.585-2.626-1.83c-0.368-0.085-1.428-0.206-1.428-0.742
	c0-0.221,0.175-0.394,0.394-0.399c0-0.006,8.34-0.006,8.34-0.006c1.235,0,2.347,0.965,2.413,2.195
	C38.004,28.847,37.98,29.109,37.927,29.374z M32,5C17.091,5,5,17.087,5,32s12.091,27,27,27s27-12.087,27-27S46.909,5,32,5z"/>
</svg>
