<?xml version="1.0" encoding="iso-8859-1"?>
<!-- Generator: Adobe Illustrator 15.0.0, SVG Export Plug-In . SVG Version: 6.00 Build 0)  -->
<!DOCTYPE svg PUBLIC "-//W3C//DTD SVG 1.1//EN" "http://www.w3.org/Graphics/SVG/1.1/DTD/svg11.dtd">
<svg version="1.1" id="Layer_1" xmlns="http://www.w3.org/2000/svg" xmlns:xlink="http://www.w3.org/1999/xlink" x="0px" y="0px"
	 width="64px" height="64px" viewBox="0 0 64 64" style="enable-background:new 0 0 64 64;" xml:space="preserve">
<path style="fill:#020202;" d="M49.878,20.5c1.555-1.583,1.54-4.122-0.035-5.669c-1.569-1.597-4.105-1.609-5.668-0.033
	c-1.549,1.537-1.535,4.074,0.034,5.667C45.78,22.013,48.318,22.027,49.878,20.5z M6.522,54.951l-0.034-7.336L27.88,26.225
	c-1.393-5.053-0.133-10.661,3.815-14.591c5.858-5.887,15.416-5.835,21.347,0.068c5.917,5.943,5.967,15.501,0.102,21.379
	c-3.937,3.923-9.528,5.181-14.573,3.798l-4.304,4.304H27.45l0.002,5.215h-5.004v5.142h-5.213v5.213H8.336
	C7.019,56.733,6.532,56.279,6.522,54.951z"/>
</svg>
