<?xml version="1.0" encoding="iso-8859-1"?>
<!-- Generator: Adobe Illustrator 15.0.0, SVG Export Plug-In . SVG Version: 6.00 Build 0)  -->
<!DOCTYPE svg PUBLIC "-//W3C//DTD SVG 1.1//EN" "http://www.w3.org/Graphics/SVG/1.1/DTD/svg11.dtd">
<svg version="1.1" id="Layer_1" xmlns="http://www.w3.org/2000/svg" xmlns:xlink="http://www.w3.org/1999/xlink" x="0px" y="0px"
	 width="64px" height="64px" viewBox="0 0 64 64" style="enable-background:new 0 0 64 64;" xml:space="preserve">
<g>
	<path style="fill:#010101;" d="M11.625,32.224L7.1,26.189c-0.929-1.236-2.683-1.486-3.916-0.558
		c-1.236,0.928-1.486,2.679-0.558,3.915l8.998,11.999V32.224z"/>
	<path style="fill:#010101;" d="M36.176,15.116c-0.338-0.276-0.676-0.545-1.01-0.813v15.927l11.015,8.896
		c0,0,8.9,7.188,15.753,4.762C48.041,24.698,39.144,17.51,36.176,15.116z"/>
	<path style="fill:#010101;" d="M27.122,47.675h-2.593v2.449h-2.303v-2.449h-2.452v-2.446h2.45v-2.449h2.302v2.449h2.594v2.446
		H27.122z M23.446,11.351c1.141,0,2.066,0.925,2.066,2.066s-0.925,2.065-2.066,2.065s-2.066-0.924-2.066-2.065
		C21.38,12.279,22.305,11.351,23.446,11.351z M32.367,13.466c0-4.948-4.025-8.976-8.974-8.976c-4.948,0-8.975,4.027-8.975,8.976
		v37.068c0,4.948,4.027,8.976,8.975,8.976c4.949,0,8.974-4.027,8.974-8.976V13.466z"/>
</g>
</svg>
