<?xml version="1.0" encoding="iso-8859-1"?>
<!-- Generator: Adobe Illustrator 15.0.0, SVG Export Plug-In . SVG Version: 6.00 Build 0)  -->
<!DOCTYPE svg PUBLIC "-//W3C//DTD SVG 1.1//EN" "http://www.w3.org/Graphics/SVG/1.1/DTD/svg11.dtd">
<svg version="1.1" id="Layer_1" xmlns="http://www.w3.org/2000/svg" xmlns:xlink="http://www.w3.org/1999/xlink" x="0px" y="0px"
	 width="64px" height="64px" viewBox="0 0 64 64" style="enable-background:new 0 0 64 64;" xml:space="preserve">
<g>
	<path style="fill:#010101;" d="M10.582,59.748c-1.919,0-6.186-3.396-6.186-6.503c0-3.107,13.562-17.216,13.562-17.216l4.514,3.157
		C22.473,39.188,12.502,59.748,10.582,59.748z"/>
	<path style="fill:#010101;" d="M40.275,18.273c-1.26,0.041-2.312-0.948-2.353-2.202c-0.04-1.26,0.945-2.312,2.208-2.351
		c1.257-0.043,2.31,0.945,2.35,2.202C42.521,17.181,41.533,18.233,40.275,18.273z M40.197,4.252L19.846,33.335l13.822,9.666
		c0,0,5.081-2.766,14.77-10.972c-3.544,4.622-7.27,9.111-11.435,13.305l2.254,1.578c14.065-12.232,20.346-29.086,20.346-29.086
		L40.197,4.252z"/>
</g>
</svg>
