<?xml version="1.0" encoding="iso-8859-1"?>
<!-- Generator: Adobe Illustrator 15.0.0, SVG Export Plug-In . SVG Version: 6.00 Build 0)  -->
<!DOCTYPE svg PUBLIC "-//W3C//DTD SVG 1.1//EN" "http://www.w3.org/Graphics/SVG/1.1/DTD/svg11.dtd">
<svg version="1.1" id="Layer_1" xmlns="http://www.w3.org/2000/svg" xmlns:xlink="http://www.w3.org/1999/xlink" x="0px" y="0px"
	 width="64px" height="64px" viewBox="0 0 64 64" style="enable-background:new 0 0 64 64;" xml:space="preserve">
<g>
	<path style="fill:#010101;" d="M11.514,43.063l-8.67,8.673c-0.313,0.31-0.451,0.757-0.367,1.192
		c0.087,0.434,0.379,0.803,0.783,0.973l13.19,5.656c0.166,0.073,0.346,0.106,0.526,0.106c0.346,0,0.687-0.137,0.942-0.39l4.82-4.826
		L11.514,43.063z"/>
	<path style="fill:#010101;" d="M45.241,16.88L22.632,39.489c-0.261,0.26-0.603,0.39-0.943,0.39c-0.34,0-0.683-0.13-0.942-0.39
		c-0.52-0.52-0.52-1.369,0-1.885l22.606-22.609c0.52-0.521,1.365-0.521,1.885,0C45.756,15.515,45.76,16.36,45.241,16.88z
		 M58.427,7.461c-1.985-1.982-4.729-3.125-7.537-3.125c-2.808,0-5.553,1.14-7.538,3.125L12.263,38.55
		c-0.311,0.31-0.411,0.727-0.353,1.133l14.048,14.249c0.14,0.05,0.284,0.086,0.433,0.086c0.354,0,0.693-0.14,0.943-0.39
		l31.089-31.09c2.015-2.015,3.124-4.689,3.124-7.534C61.548,12.157,60.442,9.476,58.427,7.461z"/>
</g>
</svg>
