<?xml version="1.0" encoding="iso-8859-1"?>
<!-- Generator: Adobe Illustrator 15.0.0, SVG Export Plug-In . SVG Version: 6.00 Build 0)  -->
<!DOCTYPE svg PUBLIC "-//W3C//DTD SVG 1.1//EN" "http://www.w3.org/Graphics/SVG/1.1/DTD/svg11.dtd">
<svg version="1.1" id="Layer_1" xmlns="http://www.w3.org/2000/svg" xmlns:xlink="http://www.w3.org/1999/xlink" x="0px" y="0px"
	 width="64px" height="64px" viewBox="0 0 64 64" style="enable-background:new 0 0 64 64;" xml:space="preserve">
<g>
	<path style="fill:#010101;" d="M31.293,41.783c0.34,0.103,0.656,0.184,0.852,0.232c-0.282-0.071-0.564-0.15-0.844-0.239
		L31.293,41.783z"/>
	<path style="fill:#010101;" d="M32.354,42.066l0.002-0.002c-0.051-0.012-0.102-0.021-0.154-0.034
		C32.298,42.054,32.354,42.066,32.354,42.066z"/>
	<path style="fill:#010101;" d="M42.277,40.802c-0.338,0.176-0.68,0.336-1.025,0.483c-0.002,0.002,0,0.005-0.002,0.006
		C41.284,41.278,41.699,41.104,42.277,40.802z"/>
	<path style="fill:#010101;" d="M42.496,40.684c0,0,0.001-0.001,0-0.003c-0.055,0.03-0.111,0.063-0.166,0.093
		C42.387,40.746,42.443,40.717,42.496,40.684z"/>
	<path style="fill:#010101;" d="M31.761,11.855l-6.159,6.159c-0.531,0.531-1.012,1.094-1.445,1.683
		c-0.092,0.127-0.179,0.261-0.269,0.392c2.976-0.806,6.135-0.759,9.088,0.144l3.899-3.899c2.98-2.98,7.811-2.978,10.789,0.002
		c2.98,2.981,2.98,7.813,0.003,10.79l-6.737,6.738c-1.346,1.345-3.066,2.079-4.825,2.21l-0.001,0.003c0,0,0,0-0.002-0.001
		c-0.369,0.034-0.688,0.033-0.957,0.025c-0.596-0.027-0.941-0.118-0.941-0.118s0,0-0.003-0.004c0,0,0,0-0.002-0.001
		c-1.487-0.263-2.911-0.965-4.06-2.114c-1.117-1.118-1.816-2.495-2.097-3.937c-0.009-0.042-0.011-0.083-0.021-0.123
		c-1.307,0.106-2.582,0.658-3.578,1.654l-2.051,2.051c0.704,1.78,1.77,3.452,3.209,4.894c1.439,1.438,3.11,2.508,4.891,3.212
		c0.328,0.128,0.659,0.242,0.994,0.349c0.279,0.084,0.562,0.168,0.845,0.239c0.021,0.004,0.038,0.009,0.058,0.016
		c0.052,0.013,0.104,0.021,0.152,0.034c2.953,0.68,6.074,0.418,8.896-0.777c0.347-0.15,0.69-0.307,1.026-0.484
		c0.02-0.011,0.034-0.02,0.055-0.029c0.057-0.026,0.111-0.062,0.164-0.093c0.143-0.08,0.287-0.155,0.427-0.236
		c0.003-0.002,0.003-0.002,0.006-0.002c1.021-0.605,1.987-1.346,2.866-2.225l6.158-6.159c5.63-5.629,5.627-14.753,0-20.381
		C46.514,6.228,37.391,6.226,31.761,11.855z"/>
	<path style="fill:#010101;" d="M32.24,52.146l6.16-6.16c0.531-0.531,1.014-1.096,1.444-1.683c0.093-0.128,0.181-0.262,0.269-0.392
		c-2.975,0.806-6.133,0.759-9.088-0.145l-3.896,3.897c-2.98,2.979-7.81,2.978-10.79-0.002c-2.979-2.979-2.977-7.81,0.001-10.787
		l6.737-6.738c1.344-1.343,3.065-2.079,4.826-2.21L27.9,27.923c0,0,0,0,0.003,0.003c0.368-0.034,0.686-0.034,0.956-0.026
		c0.596,0.024,0.941,0.12,0.941,0.12s0,0,0.002,0.001c0,0,0,0,0.004,0c1.488,0.262,2.914,0.967,4.062,2.115
		c1.117,1.117,1.814,2.496,2.092,3.938c0.01,0.044,0.017,0.083,0.021,0.123c1.306-0.106,2.584-0.654,3.58-1.651l2.051-2.052
		c-0.703-1.779-1.771-3.449-3.213-4.892c-1.439-1.439-3.108-2.507-4.889-3.209c-0.328-0.129-0.658-0.244-0.994-0.35
		c-0.281-0.087-0.562-0.167-0.844-0.238c-0.022-0.006-0.042-0.012-0.058-0.015c-0.052-0.014-0.103-0.022-0.153-0.035
		c-2.953-0.681-6.074-0.42-8.895,0.777c-0.348,0.149-0.689,0.307-1.027,0.482c-0.02,0.011-0.037,0.019-0.057,0.029
		c-0.055,0.03-0.109,0.065-0.165,0.093c-0.144,0.078-0.286,0.155-0.427,0.239c-0.002,0.002-0.002,0.002-0.004,0.004
		c-1.023,0.604-1.987,1.344-2.867,2.223l-6.16,6.162c-5.629,5.629-5.627,14.752-0.001,20.379
		C17.488,57.771,26.612,57.773,32.24,52.146z"/>
	<path style="fill:#010101;" d="M42.93,40.44c-0.002,0.002-0.004,0.001-0.006,0.003C42.928,40.442,42.93,40.44,42.93,40.44z"/>
	<path style="fill:#010101;" d="M42.277,40.802c0.02-0.011,0.035-0.02,0.057-0.03C42.316,40.786,42.299,40.794,42.277,40.802z"/>
	<path style="fill:#010101;" d="M34.016,35.799c0,0,0.344,0.09,0.939,0.117c0.001-0.004,0-0.009,0-0.013
		c-0.316-0.015-0.629-0.053-0.943-0.108C34.016,35.799,34.016,35.799,34.016,35.799z"/>
	<path style="fill:#010101;" d="M32.201,42.03c-0.018-0.007-0.037-0.009-0.057-0.015C32.164,42.021,32.182,42.026,32.201,42.03z"/>
	<path style="fill:#010101;" d="M34.955,35.903c0,0.004,0.001,0.009,0,0.013c0.271,0.013,0.59,0.009,0.959-0.024l-0.002-0.002
		C35.596,35.916,35.273,35.92,34.955,35.903z"/>
	<path style="fill:#010101;" d="M35.915,35.893c-0.001-0.001,0.001-0.003-0.002-0.01c0.001,0.004,0.001,0.009-0.001,0.011
		C35.914,35.892,35.914,35.892,35.915,35.893z"/>
	<rect x="35.912" y="35.892" style="fill:#010101;" width="0.003" height="0.001"/>
</g>
</svg>
