<?xml version="1.0" encoding="iso-8859-1"?>
<!-- Generator: Adobe Illustrator 15.0.0, SVG Export Plug-In . SVG Version: 6.00 Build 0)  -->
<!DOCTYPE svg PUBLIC "-//W3C//DTD SVG 1.1//EN" "http://www.w3.org/Graphics/SVG/1.1/DTD/svg11.dtd">
<svg version="1.1" id="Layer_1" xmlns="http://www.w3.org/2000/svg" xmlns:xlink="http://www.w3.org/1999/xlink" x="0px" y="0px"
	 width="64px" height="64px" viewBox="0 0 64 64" style="enable-background:new 0 0 64 64;" xml:space="preserve">
<path style="fill:#010101;" d="M45.629,50.16L40.35,34.914h4.939L57.051,50.16H45.629z M21.469,50.16l5.272-15.246h0.911
	c1.391,3.978,2.654,7.344,2.964,8.144c0.214,0.575,0.766,0.95,1.375,0.95c0.608,0,1.16-0.375,1.374-0.95
	c0.311-0.8,1.574-4.169,2.964-8.144h0.912l5.274,15.246H21.469z M6.932,50.16l11.762-15.246h4.939L18.359,50.16H6.932z
	 M31.991,16.215c2.02,0,3.652,1.631,3.652,3.652c0,2.014-1.633,3.653-3.652,3.653c-2.021,0-3.653-1.64-3.653-3.653
	C28.338,17.846,29.97,16.215,31.991,16.215z M61.093,50.598L47.18,32.548c-0.28-0.36-0.704-0.575-1.162-0.575h-8.674
	c1.704-5.071,3.314-10.372,3.314-12.407c0-4.78-3.889-8.67-8.667-8.67c-4.779,0-8.669,3.89-8.669,8.67
	c0,2.035,1.608,7.336,3.315,12.407h-8.676c-0.455,0-0.881,0.215-1.16,0.575L2.776,50.735c-0.344,0.448-0.404,1.044-0.152,1.55
	c0.248,0.502,0.758,0.816,1.316,0.816h40.64c0.009,0.008,0.015,0,0.015,0h15.45c0.007,0,0.007,0,0.016,0
	c0.808,0,1.47-0.655,1.47-1.472C61.53,51.229,61.358,50.869,61.093,50.598z"/>
</svg>
