<?xml version="1.0" encoding="iso-8859-1"?>
<!-- Generator: Adobe Illustrator 15.0.0, SVG Export Plug-In . SVG Version: 6.00 Build 0)  -->
<!DOCTYPE svg PUBLIC "-//W3C//DTD SVG 1.1//EN" "http://www.w3.org/Graphics/SVG/1.1/DTD/svg11.dtd">
<svg version="1.1" id="Layer_1" xmlns="http://www.w3.org/2000/svg" xmlns:xlink="http://www.w3.org/1999/xlink" x="0px" y="0px"
	 width="64px" height="64px" viewBox="0 0 64 64" style="enable-background:new 0 0 64 64;" xml:space="preserve">
<g>
	<rect x="29.452" y="7.166" style="fill:#010101;" width="5.096" height="22.206"/>
	<path style="fill:#010101;" d="M40.178,10.605v5.572c6.168,3.051,10.424,9.44,10.424,16.808c0,10.321-8.346,18.722-18.605,18.722
		c-10.256,0-18.602-8.397-18.602-18.722c0-7.372,4.258-13.757,10.427-16.808v-5.576C14.77,13.962,8.299,22.727,8.299,32.986
		c0,13.149,10.633,23.848,23.701,23.848c13.067,0,23.701-10.699,23.701-23.848C55.701,22.727,49.23,13.962,40.178,10.605z"/>
</g>
</svg>
