<?xml version="1.0" encoding="iso-8859-1"?>
<!-- Generator: Adobe Illustrator 15.0.0, SVG Export Plug-In . SVG Version: 6.00 Build 0)  -->
<!DOCTYPE svg PUBLIC "-//W3C//DTD SVG 1.1//EN" "http://www.w3.org/Graphics/SVG/1.1/DTD/svg11.dtd">
<svg version="1.1" id="Layer_1" xmlns="http://www.w3.org/2000/svg" xmlns:xlink="http://www.w3.org/1999/xlink" x="0px" y="0px"
	 width="64px" height="64px" viewBox="0 0 64 64" style="enable-background:new 0 0 64 64;" xml:space="preserve">
<g>
	<defs>
		<rect id="SVGID_1_" x="4.276" y="4.276" width="55.447" height="55.447"/>
	</defs>
	<clipPath id="SVGID_2_">
		<use xlink:href="#SVGID_1_"  style="overflow:visible;"/>
	</clipPath>
	<g style="clip-path:url(#SVGID_2_);">
		<defs>
			<rect id="SVGID_3_" x="4.276" y="4.276" width="55.447" height="55.447"/>
		</defs>
		<clipPath id="SVGID_4_">
			<use xlink:href="#SVGID_3_"  style="overflow:visible;"/>
		</clipPath>
		<g style="clip-path:url(#SVGID_4_);">
			<defs>
				<rect id="SVGID_5_" x="4.276" y="4.276" width="55.447" height="55.447"/>
			</defs>
			<clipPath id="SVGID_6_">
				<use xlink:href="#SVGID_5_"  style="overflow:visible;"/>
			</clipPath>
			<g style="clip-path:url(#SVGID_6_);">
				<defs>
					<rect id="SVGID_7_" x="4.276" y="4.276" width="55.447" height="55.447"/>
				</defs>
				<clipPath id="SVGID_8_">
					<use xlink:href="#SVGID_7_"  style="overflow:visible;"/>
				</clipPath>
				<path style="clip-path:url(#SVGID_8_);fill:#010101;" d="M6.681,32.062c0.004-0.011,0.415-0.593,1.088-1.41
					c0.247-0.299,0.687-0.343,0.986-0.097c0.299,0.246,0.344,0.688,0.097,0.985c-0.323,0.393-0.691,0.727-0.868,0.961
					c-0.177,0.237-0.381,0.366-0.381,0.366v0.002c0,0.193-0.242,0.298-0.461,0.298c-0.141,0-0.226-0.041-0.349-0.13
					C6.477,32.816,6.456,32.381,6.681,32.062z M10.518,28.205c0.303-0.267,0.542-0.519,1.426-1.122
					c0.319-0.217,0.757-0.136,0.973,0.185c0.219,0.318,0.135,0.755-0.183,0.974c-0.434,0.296-0.865,0.642-1.285,1.014
					c-0.134,0.117-0.299,0.175-0.463,0.175c-0.197,0-0.389-0.08-0.527-0.236C10.202,28.903,10.229,28.461,10.518,28.205z
					 M14.601,26.383c0.082-0.378,0.456-0.791,0.834-0.709c1.255,0.274,1.636,0.537,1.782,0.617c0.341,0.188,0.464,0.571,0.276,0.911
					c-0.128,0.23-0.366,0.341-0.613,0.341c-0.115,0-0.23,0.309-0.337,0.249c-0.509-0.278-0.985-0.228-1.408-0.228h0.003
					C14.76,27.564,14.519,26.762,14.601,26.383z M5.385,43.913l14.417,5.634V11.818L5.385,6.182V43.913z"/>
				<path style="clip-path:url(#SVGID_8_);fill:#010101;" d="M33.016,39.002c-0.186,0.02-0.37,0.03-0.552,0.03
					c-0.496,0-0.975-0.075-1.426-0.207c-0.373-0.109-0.586-0.497-0.478-0.869c0.109-0.372,0.497-0.585,0.869-0.479
					c0.341,0.101,0.681,0.154,1.034,0.154c0.13,0,0.259-0.008,0.393-0.024c0.387-0.043,0.734,0.235,0.777,0.62
					C33.677,38.613,33.399,38.959,33.016,39.002z M28.698,36.61c-0.141,0.171-0.344,0.261-0.548,0.261
					c-0.154,0-0.311-0.049-0.438-0.153c-0.452-0.363-0.896-0.732-1.339-1.082c-0.305-0.24-0.354-0.679-0.115-0.984
					c0.242-0.302,0.683-0.354,0.986-0.115c0.46,0.363,0.906,0.735,1.346,1.085C28.89,35.866,28.94,36.31,28.698,36.61z
					 M24.837,33.334c-0.138,0.195-0.354,0.3-0.575,0.3c-0.14,0-0.28-0.042-0.401-0.126c-0.471-0.333-0.94-0.695-1.409-1.077
					c-0.301-0.244-0.349-0.685-0.103-0.985c0.242-0.302,0.685-0.347,0.986-0.101c0.45,0.364,0.895,0.707,1.33,1.014
					C24.982,32.58,25.058,33.017,24.837,33.334z M34.218,35.391V6.182L20.91,11.818v37.729l13.308-5.634v-3.88
					c0-0.756-0.341-1.457-0.341-2.068C33.877,37.074,34.218,36.216,34.218,35.391z"/>
				<path style="clip-path:url(#SVGID_8_);fill:#010101;" d="M44.198,27.745V11.818l-7.762-5.637v25.552
					C37.545,29.483,40.872,27.972,44.198,27.745z"/>
				<path style="clip-path:url(#SVGID_8_);fill:#010101;" d="M56.968,17.579c-0.49,0.219-0.969,0.476-1.438,0.763
					c-0.112,0.069-0.24,0.104-0.365,0.104c-0.234,0-0.466-0.118-0.598-0.333c-0.204-0.328-0.101-0.761,0.228-0.964
					c0.518-0.319,1.052-0.604,1.604-0.851c0.35-0.158,0.766,0.003,0.923,0.357C57.482,17.009,57.322,17.423,56.968,17.579z
					 M52.642,20.666c-0.394,0.387-0.771,0.797-1.145,1.224c-0.141,0.159-0.333,0.239-0.53,0.239c-0.161,0-0.325-0.057-0.459-0.172
					c-0.293-0.255-0.323-0.697-0.068-0.989c0.394-0.45,0.798-0.882,1.211-1.296c0.275-0.272,0.721-0.271,0.993,0.004
					C52.919,19.951,52.913,20.394,52.642,20.666z M49.169,24.9c-0.323,0.462-0.641,0.935-0.953,1.412
					c-0.132,0.206-0.354,0.316-0.584,0.316c-0.129,0-0.266-0.036-0.384-0.112c-0.325-0.213-0.416-0.646-0.204-0.971
					c0.318-0.488,0.643-0.972,0.978-1.449c0.22-0.316,0.656-0.395,0.973-0.174C49.314,24.146,49.388,24.583,49.169,24.9z
					 M58.615,6.182l-13.308,5.637v15.964c5.545,0.598,9.27,4.926,9.27,10.185c0,2.363-1.96,5.985-4.041,9.404l8.079-3.458V6.182z"/>
				<path style="clip-path:url(#SVGID_8_);fill:#010101;" d="M33.877,37.965c0,0.612,0.341,1.313,0.341,2.068V35.39
					C34.218,36.216,33.877,37.074,33.877,37.965z"/>
				<path style="clip-path:url(#SVGID_8_);fill:#010101;" d="M44.528,29.03c-4.928,0-8.938,4.008-8.938,8.935
					c0,3.811,5.731,12.17,8.938,16.405c3.206-4.235,8.938-12.596,8.938-16.405C53.466,33.038,49.457,29.03,44.528,29.03z
					 M44.528,58.659l-1.035-1.302C42.411,56,32.943,43.925,32.943,37.965c0-6.386,5.197-11.583,11.585-11.583
					c6.39,0,11.588,5.197,11.588,11.583c0,5.96-9.473,18.035-10.552,19.393L44.528,58.659z"/>
				
					<circle style="clip-path:url(#SVGID_8_);fill-rule:evenodd;clip-rule:evenodd;fill:#010101;" cx="44.529" cy="37.353" r="4.582"/>
			</g>
		</g>
	</g>
</g>
</svg>
