<?xml version="1.0" encoding="iso-8859-1"?>
<!-- Generator: Adobe Illustrator 15.0.0, SVG Export Plug-In . SVG Version: 6.00 Build 0)  -->
<!DOCTYPE svg PUBLIC "-//W3C//DTD SVG 1.1//EN" "http://www.w3.org/Graphics/SVG/1.1/DTD/svg11.dtd">
<svg version="1.1" id="Layer_1" xmlns="http://www.w3.org/2000/svg" xmlns:xlink="http://www.w3.org/1999/xlink" x="0px" y="0px"
	 width="64px" height="64px" viewBox="0 0 64 64" style="enable-background:new 0 0 64 64;" xml:space="preserve">
<path style="fill:#010101;" d="M16.338,11.534c-9.412,9.411-9.409,24.721-0.002,34.129c9.411,9.411,24.721,9.409,34.129,0
	c0.117-0.116,0.232-0.231,0.346-0.35c-9.33,1.807-19.145-1.047-26.111-8.014c-6.965-6.966-9.817-16.784-8.011-26.113
	C16.571,11.301,16.453,11.419,16.338,11.534z M53.998,49.195c-11.356,11.356-29.838,11.356-41.193,0
	c-11.357-11.356-11.357-29.837,0-41.192c2.213-2.215,4.756-4.049,7.559-5.451c0.963-0.48,2.123-0.293,2.883,0.466
	c0.758,0.758,0.947,1.922,0.467,2.885c-4.66,9.309-2.844,20.507,4.518,27.867c7.359,7.361,18.561,9.175,27.867,4.517
	c0.963-0.479,2.124-0.293,2.884,0.468c0.763,0.762,0.95,1.923,0.467,2.883C58.045,44.438,56.211,46.983,53.998,49.195z"/>
</svg>
