<?xml version="1.0" encoding="iso-8859-1"?>
<!-- Generator: Adobe Illustrator 15.0.0, SVG Export Plug-In . SVG Version: 6.00 Build 0)  -->
<!DOCTYPE svg PUBLIC "-//W3C//DTD SVG 1.1//EN" "http://www.w3.org/Graphics/SVG/1.1/DTD/svg11.dtd">
<svg version="1.1" id="Layer_1" xmlns="http://www.w3.org/2000/svg" xmlns:xlink="http://www.w3.org/1999/xlink" x="0px" y="0px"
	 width="64px" height="64px" viewBox="0 0 64 64" style="enable-background:new 0 0 64 64;" xml:space="preserve">
<g>
	<polygon style="fill:#020202;" points="49.035,23.656 46.23,26.748 44.938,28.172 43.203,27.341 42.139,26.828 39.776,29.124 
		38.096,30.755 36.31,29.236 33.093,26.499 21.998,54.169 61.268,54.169 	"/>
	<path style="fill:#020202;" d="M41.581,23.723l2.686,1.29l3.646-4.021L43.377,9.676c-0.293-0.732-1.006-1.212-1.796-1.212
		s-1.502,0.48-1.796,1.215l-5.732,14.295l3.876,3.295L41.581,23.723z"/>
	<polygon style="fill:#020202;" points="24.549,29.543 22.285,32.038 21.244,33.186 19.845,32.515 18.984,32.103 17.078,33.953 
		15.721,35.272 14.28,34.047 11.685,31.838 2.731,54.169 34.425,54.169 	"/>
	<path style="fill:#020202;" d="M18.532,29.601l2.17,1.039l2.943-3.244l-3.662-9.134c-0.238-0.59-0.81-0.98-1.447-0.98
		c-0.639,0-1.213,0.39-1.451,0.98l-4.627,11.539l3.128,2.66L18.532,29.601z"/>
</g>
</svg>
