<?xml version="1.0" encoding="iso-8859-1"?>
<!-- Generator: Adobe Illustrator 15.0.0, SVG Export Plug-In . SVG Version: 6.00 Build 0)  -->
<!DOCTYPE svg PUBLIC "-//W3C//DTD SVG 1.1//EN" "http://www.w3.org/Graphics/SVG/1.1/DTD/svg11.dtd">
<svg version="1.1" id="Layer_1" xmlns="http://www.w3.org/2000/svg" xmlns:xlink="http://www.w3.org/1999/xlink" x="0px" y="0px"
	 width="64px" height="64px" viewBox="0 0 64 64" style="enable-background:new 0 0 64 64;" xml:space="preserve">
<g>
	<path style="fill:#010101;" d="M48.548,20.354c-1.015,0-1.841,0.822-1.841,1.838v7.659c0,8.111-6.6,14.71-14.71,14.71
		c-8.111,0-14.707-6.596-14.707-14.707v-7.659c0-1.015-0.823-1.837-1.841-1.837c-1.015,0-1.837,0.822-1.837,1.837v7.659
		c0,8.886,6.335,16.319,14.728,18.021c-0.012,0.122-0.018,0.243-0.018,0.368v8.58c0,2.031,1.647,3.678,3.678,3.678
		c2.03,0,3.678-1.647,3.678-3.678v-8.58c0-0.125-0.006-0.247-0.018-0.368c8.393-1.701,14.728-9.135,14.728-18.021v-7.659
		C50.388,21.179,49.563,20.354,48.548,20.354z"/>
	<path style="fill:#010101;" d="M43.032,14.532C43.032,8.44,38.092,3.5,32,3.5c-6.092,0-11.032,4.94-11.032,11.032v6.127h22.067
		v-6.127H43.032z"/>
	<path style="fill:#010101;" d="M32,40.885c6.092,0,11.032-4.94,11.032-11.032v-5.513H20.968v5.516
		C20.968,35.948,25.908,40.885,32,40.885z"/>
</g>
</svg>
