<?xml version="1.0" encoding="iso-8859-1"?>
<!-- Generator: Adobe Illustrator 15.0.0, SVG Export Plug-In . SVG Version: 6.00 Build 0)  -->
<!DOCTYPE svg PUBLIC "-//W3C//DTD SVG 1.1//EN" "http://www.w3.org/Graphics/SVG/1.1/DTD/svg11.dtd">
<svg version="1.1" id="Layer_1" xmlns="http://www.w3.org/2000/svg" xmlns:xlink="http://www.w3.org/1999/xlink" x="0px" y="0px"
	 width="64px" height="64px" viewBox="0 0 64 64" style="enable-background:new 0 0 64 64;" xml:space="preserve">
<g>
	<path style="fill:#010101;" d="M58.642,45.585l-0.952,7.45c-0.098,0.771-0.799,1.322-1.571,1.218l-0.033-0.007L55.7,57.298
		c-0.148,1.168-1.21,1.989-2.375,1.841l-2.697-0.342c-1.168-0.147-1.99-1.218-1.842-2.381l2.093-16.411
		c0.147-1.167,1.218-1.989,2.375-1.841l2.697,0.342c1.168,0.148,1.99,1.218,1.842,2.382l-0.399,3.117l0.033,0.007
		C58.192,44.112,58.739,44.819,58.642,45.585z"/>
	<path style="fill:#010101;" d="M56.264,29.852v5.733c0,0.688-3.117,0.355-3.117-0.366v-5.364c0-11.161-11.593-19.322-21.144-19.322
		c-9.55,0-21.144,8.162-21.144,19.322v5.364c0,0.722-3.116,1.058-3.116,0.366v-5.733c0-14.492,11.06-24.797,24.264-25.009
		C45.207,5.054,56.264,15.359,56.264,29.852z"/>
	<path style="fill:#010101;" d="M5.358,45.585l0.952,7.45c0.098,0.771,0.799,1.322,1.57,1.218l0.034-0.007l0.385,3.052
		c0.148,1.168,1.211,1.989,2.375,1.841l2.698-0.342c1.167-0.147,1.988-1.218,1.841-2.381l-2.093-16.411
		c-0.147-1.167-1.218-1.989-2.375-1.841l-2.697,0.342c-1.167,0.148-1.989,1.218-1.842,2.382l0.399,3.117l-0.033,0.007
		C5.807,44.112,5.259,44.819,5.358,45.585z"/>
</g>
</svg>
