<?xml version="1.0" encoding="iso-8859-1"?>
<!-- Generator: Adobe Illustrator 15.0.0, SVG Export Plug-In . SVG Version: 6.00 Build 0)  -->
<!DOCTYPE svg PUBLIC "-//W3C//DTD SVG 1.1//EN" "http://www.w3.org/Graphics/SVG/1.1/DTD/svg11.dtd">
<svg version="1.1" id="Layer_1" xmlns="http://www.w3.org/2000/svg" xmlns:xlink="http://www.w3.org/1999/xlink" x="0px" y="0px"
	 width="64px" height="64px" viewBox="0 0 64 64" style="enable-background:new 0 0 64 64;" xml:space="preserve">
<g>
	<path style="fill:#010101;" d="M41.494,58.158v-9.803h1.521c0-0.84-0.681-1.521-1.521-1.521H21.321
		c-0.84,0-1.524,0.681-1.524,1.521h1.524v9.803c-2.125,0.047-3.836,1.781-3.836,3.914h27.868
		C45.355,59.931,43.633,58.191,41.494,58.158z"/>
	<path style="fill:#010101;" d="M42.479,2.381c-0.003-0.003-0.003,0-0.005-0.003c-0.023-0.021-0.045-0.042-0.067-0.061
		c-0.625-0.562-1.587-0.51-2.15,0.119c-0.162,0.179-0.273,0.389-0.333,0.606c-0.005,0.017-0.014,0.023-0.019,0.033
		c-1.237,7.989-6.115,14.78-12.884,18.611l-10.638,5.848c-0.066,0.041-0.127,0.091-0.188,0.14c-2.866,1.778-4.778,4.945-4.778,8.565
		c0,5.57,4.517,10.087,10.086,10.087v-2.712c-4.073,0-7.375-3.301-7.375-7.377c0-1.684,0.57-3.233,1.521-4.476v0.932
		c0,0.841,0.681,1.521,1.524,1.521c0.011,0,0.024-0.003,0.036-0.003c0.066,0.014,0.132,0.022,0.201,0.022l10.042-0.226
		c0.309,0.995,1.227,1.72,2.324,1.72c1.132,0,2.081-0.777,2.354-1.827l1.199-0.025c0.328,0,0.592-0.265,0.592-0.592
		c0-0.326-0.264-0.59-0.592-0.59l-1.201-0.028c-0.276-1.047-1.221-1.824-2.353-1.824c-1.095,0-2.013,0.724-2.322,1.719l-8.758-0.196
		v-2.422l10.525-3.425c2.714-0.965,5.638-1.489,8.684-1.489c4.52,0,8.767,1.16,12.468,3.195c0.207,0.104,0.443,0.165,0.691,0.165
		c0.827,0,1.494-0.659,1.519-1.48C51.933,17.563,48.239,9.062,42.479,2.381z"/>
	<path style="fill:#010101;" d="M31.407,43.208c-0.325,0-0.589,0.265-0.589,0.593H32C32,43.475,31.736,43.208,31.407,43.208z"/>
	<path style="fill:#010101;" d="M22.266,45.032c0,0.325,0.265,0.59,0.59,0.59h17.125c0.328,0,0.592-0.265,0.592-0.59
		c0-0.325-0.264-0.593-0.592-0.593H22.856C22.531,44.439,22.266,44.704,22.266,45.032z"/>
</g>
</svg>
