<?xml version="1.0" encoding="iso-8859-1"?>
<!-- Generator: Adobe Illustrator 15.0.0, SVG Export Plug-In . SVG Version: 6.00 Build 0)  -->
<!DOCTYPE svg PUBLIC "-//W3C//DTD SVG 1.1//EN" "http://www.w3.org/Graphics/SVG/1.1/DTD/svg11.dtd">
<svg version="1.1" id="Layer_1" xmlns="http://www.w3.org/2000/svg" xmlns:xlink="http://www.w3.org/1999/xlink" x="0px" y="0px"
	 width="64px" height="64px" viewBox="0 0 64 64" style="enable-background:new 0 0 64 64;" xml:space="preserve">
<path style="fill-rule:evenodd;clip-rule:evenodd;fill:#010101;" d="M36.9,21.004v32.568c-1.413,4.311-6.241,7.485-11.983,7.485
	c-6.851,0-12.401-4.522-12.401-10.098s5.551-10.097,12.401-10.097c2.21,0,4.283,0.472,6.079,1.292V2.942h0.893
	c0.641,4.056,3.393,6.619,6.614,8.763c3.798,2.527,7.278,5.361,9.839,9.195c4.378,6.55,4.174,13.682-0.564,19.681
	c-0.177,0.225-0.379,0.424-0.785,0.869C49.466,32.185,45.5,24.405,36.9,21.004z"/>
</svg>
