<?xml version="1.0" encoding="iso-8859-1"?>
<!-- Generator: Adobe Illustrator 15.0.0, SVG Export Plug-In . SVG Version: 6.00 Build 0)  -->
<!DOCTYPE svg PUBLIC "-//W3C//DTD SVG 1.1//EN" "http://www.w3.org/Graphics/SVG/1.1/DTD/svg11.dtd">
<svg version="1.1" id="Layer_1" xmlns="http://www.w3.org/2000/svg" xmlns:xlink="http://www.w3.org/1999/xlink" x="0px" y="0px"
	 width="64px" height="64px" viewBox="0 0 64 64" style="enable-background:new 0 0 64 64;" xml:space="preserve">
<g>
	<path style="fill:#020202;" d="M12.656,51.344C7.051,45.739,6.001,41.105,9.534,37.57c2.278-2.278,5.755-2.927,8.291-3.403
		c1.77-0.331,3.048-0.57,3.866-1.269c0.934-0.802,1.356-1.923,1.804-3.111c0.471-1.24,0.954-2.521,2.061-3.583
		c2.047-1.963,4.812-1.268,5.609-1.011c0.521,0.169,1.697,1.065,2.853,2.068l-4.404,4.405c-1.519-0.513-3.263-0.173-4.47,1.035
		c-1.698,1.698-1.698,4.448-0.001,6.146c1.698,1.699,4.452,1.696,6.147,0.001c1.21-1.21,1.553-2.953,1.036-4.471l4.4-4.402
		c1.019,1.171,1.908,2.352,2.069,2.849c0.261,0.801,0.952,3.564-1.006,5.613c-1.061,1.109-2.343,1.591-3.585,2.06
		c-1.186,0.451-2.307,0.873-3.107,1.806c-0.705,0.818-0.944,2.098-1.274,3.868c-0.471,2.537-1.121,6.006-3.401,8.287
		C22.893,57.997,18.259,56.947,12.656,51.344z M30.225,33.775c1.106,1.106,1.106,2.901,0,4.008c-1.106,1.106-2.905,1.106-4.01,0.002
		c-1.106-1.107-1.104-2.903,0.002-4.01C27.321,32.671,29.118,32.668,30.225,33.775z M32.798,46.729
		c0.172-0.916,0.407-2.17,0.594-2.452c0.299-0.347,1.07-0.64,1.886-0.949c1.41-0.532,3.163-1.195,4.697-2.795
		c3.12-3.258,2.091-7.433,1.702-8.631c-0.372-1.156-1.704-2.823-2.8-4.066l14.227-14.227c0.615,0.114,1.846,0.313,2.029,0.13
		c0.243-0.243,4.406-4.407,4.406-4.407s-0.057-1.535-1.696-3.175c-1.639-1.639-3.175-1.696-3.175-1.696s-4.165,4.166-4.406,4.407
		c-0.181,0.18,0.017,1.408,0.131,2.029L36.166,25.124c-1.235-1.087-2.909-2.426-4.067-2.8c-1.203-0.39-5.379-1.419-8.632,1.7
		c-1.6,1.536-2.263,3.289-2.796,4.698c-0.307,0.816-0.602,1.588-0.931,1.874c-0.297,0.203-1.556,0.436-2.471,0.605
		c-2.758,0.515-6.929,1.294-9.868,4.235c-2.79,2.785-6.091,8.836,3.117,18.044c9.206,9.206,15.258,5.906,18.045,3.118
		C31.503,53.659,32.282,49.488,32.798,46.729z"/>
	
		<rect x="13.259" y="43.312" transform="matrix(-0.7071 -0.7071 0.7071 -0.7071 1.0351 90.0762)" style="fill:#020202;" width="11.824" height="3.022"/>
</g>
</svg>
