<?xml version="1.0" encoding="iso-8859-1"?>
<!-- Generator: Adobe Illustrator 15.0.0, SVG Export Plug-In . SVG Version: 6.00 Build 0)  -->
<!DOCTYPE svg PUBLIC "-//W3C//DTD SVG 1.1//EN" "http://www.w3.org/Graphics/SVG/1.1/DTD/svg11.dtd">
<svg version="1.1" id="Layer_1" xmlns="http://www.w3.org/2000/svg" xmlns:xlink="http://www.w3.org/1999/xlink" x="0px" y="0px"
	 width="64px" height="64px" viewBox="0 0 64 64" style="enable-background:new 0 0 64 64;" xml:space="preserve">
<path style="fill:#010101;" d="M23.832,32c0-4.513,3.654-8.169,8.168-8.169c2.17,0,4.131,0.86,5.592,2.24l13.611-12.034
	C46.402,8.903,39.584,5.675,32,5.675C17.461,5.675,5.676,17.461,5.676,32c0,5.25,1.557,10.132,4.203,14.242l15.646-9.312
	C24.477,35.556,23.832,33.862,23.832,32z M53.641,17.029l-15.725,9.36c1.391,1.466,2.256,3.431,2.256,5.61
	c0,4.513-3.656,8.169-8.17,8.169c-2.535,0-4.771-1.18-6.271-2.994L12.115,49.213c4.822,5.57,11.938,9.112,19.885,9.112
	c14.539,0,26.324-11.786,26.324-26.325C58.324,26.436,56.588,21.283,53.641,17.029z"/>
</svg>
