<?xml version="1.0" encoding="iso-8859-1"?>
<!-- Generator: Adobe Illustrator 15.0.0, SVG Export Plug-In . SVG Version: 6.00 Build 0)  -->
<!DOCTYPE svg PUBLIC "-//W3C//DTD SVG 1.1//EN" "http://www.w3.org/Graphics/SVG/1.1/DTD/svg11.dtd">
<svg version="1.1" id="Layer_1" xmlns="http://www.w3.org/2000/svg" xmlns:xlink="http://www.w3.org/1999/xlink" x="0px" y="0px"
	 width="64px" height="64px" viewBox="0 0 64 64" style="enable-background:new 0 0 64 64;" xml:space="preserve">
<g>
	<path style="fill:#010101;" d="M38.798,3.69c-5.244-0.103-10.174,1.78-13.949,5.347L7.023,25.918
		c-1.153,1.152-1.255,3.042-0.104,4.2c1.152,1.256,3.043,1.256,4.299,0.104L29.043,13.34c2.621-2.414,6.078-3.773,9.645-3.669
		c3.567,0.104,6.919,1.572,9.437,4.194c2.415,2.621,3.775,6.078,3.671,9.645c-0.104,3.567-1.574,6.919-4.195,9.438L27.574,51.925
		c-3.353,3.25-8.809,3.146-12.058-0.316c-3.251-3.354-3.147-8.81,0.316-12.059l19.289-18.242c0.732-0.628,1.677-0.944,2.621-0.944
		c0.945,0.104,1.891,0.42,2.519,1.152c0.627,0.732,0.943,1.677,0.943,2.621c-0.102,0.945-0.42,1.89-1.152,2.518l-7.023,6.608
		c-1.255,1.152-1.255,3.042-0.104,4.297c1.154,1.257,3.043,1.257,4.299,0.104l6.925-6.504c1.889-1.78,2.939-4.194,3.043-6.815
		c0.102-2.622-0.842-5.03-2.623-6.919c-1.779-1.89-4.194-2.939-6.815-3.042c-2.621-0.104-5.03,0.841-6.919,2.621L11.644,35.148
		C5.771,40.702,5.56,49.932,11.12,55.803c2.829,2.938,6.711,4.51,10.588,4.51c3.67,0,7.237-1.261,10.066-3.986l20.021-18.978
		c3.78-3.567,5.877-8.389,6.083-13.632c0.214-5.242-1.779-10.278-5.45-13.942C48.862,5.996,44.04,3.794,38.798,3.69z"/>
</g>
</svg>
