<?xml version="1.0" encoding="iso-8859-1"?>
<!-- Generator: Adobe Illustrator 15.0.0, SVG Export Plug-In . SVG Version: 6.00 Build 0)  -->
<!DOCTYPE svg PUBLIC "-//W3C//DTD SVG 1.1//EN" "http://www.w3.org/Graphics/SVG/1.1/DTD/svg11.dtd">
<svg version="1.1" id="Layer_1" xmlns="http://www.w3.org/2000/svg" xmlns:xlink="http://www.w3.org/1999/xlink" x="0px" y="0px"
	 width="64px" height="64px" viewBox="0 0 64 64" style="enable-background:new 0 0 64 64;" xml:space="preserve">
<g>
	<polygon style="fill:#010101;" points="28.113,6.562 11.86,22.814 18.488,29.658 35.062,13.191 	"/>
	<polygon style="fill:#010101;" points="21.805,29.658 35.062,15.865 47.786,28.803 34.793,42.596 	"/>
	<polygon style="fill:#010101;" points="34.793,45.697 51.099,29.229 57.623,35.646 41.371,52.219 	"/>
	<path style="fill:#010101;" d="M11.144,57.438c-1.219,0-2.44-0.465-3.37-1.396c-1.863-1.861-1.863-4.879,0-6.74L25.97,31.105
		c1.86-1.859,4.881-1.859,6.74,0c1.863,1.861,1.863,4.879,0,6.742L14.514,56.041C13.585,56.973,12.363,57.438,11.144,57.438z"/>
</g>
</svg>
