<?xml version="1.0" encoding="iso-8859-1"?>
<!-- Generator: Adobe Illustrator 15.0.0, SVG Export Plug-In . SVG Version: 6.00 Build 0)  -->
<!DOCTYPE svg PUBLIC "-//W3C//DTD SVG 1.1//EN" "http://www.w3.org/Graphics/SVG/1.1/DTD/svg11.dtd">
<svg version="1.1" id="Layer_1" xmlns="http://www.w3.org/2000/svg" xmlns:xlink="http://www.w3.org/1999/xlink" x="0px" y="0px"
	 width="64px" height="64px" viewBox="0 0 64 64" style="enable-background:new 0 0 64 64;" xml:space="preserve">
<path style="fill:#010101;" d="M35.089,16.846c-0.841,0.249-2.03,0.441-3.55,0.578c0.068-3.39,0.953-6.315,2.666-8.77
	c1.682-2.439,4.523-4.124,8.527-5.056c0.025,0.065,0.057,0.196,0.088,0.377c0.031,0.182,0.063,0.306,0.087,0.374
	c0,0.09,0.006,0.205,0.019,0.343c0.007,0.137,0.012,0.249,0.012,0.344c0,1.387-0.33,2.933-0.99,4.639
	c-0.679,1.707-1.739,3.277-3.171,4.711C37.55,15.612,36.317,16.435,35.089,16.846z M50.382,40.772
	c-1.569-2.249-2.354-4.791-2.354-7.612c0-2.572,0.736-4.928,2.218-7.064c0.798-1.165,2.094-2.504,3.893-4.03
	c-1.183-1.457-2.366-2.59-3.55-3.413c-2.144-1.477-4.566-2.218-7.276-2.218c-1.614,0-3.583,0.386-5.899,1.158
	c-2.23,0.779-3.862,1.161-4.884,1.161c-0.773,0-2.342-0.339-4.71-1.023c-2.392-0.684-4.404-1.021-6.042-1.021
	c-3.918,0-7.145,1.638-9.699,4.914c-2.573,3.32-3.856,7.581-3.856,12.764c0,5.514,1.676,11.232,5.022,17.175
	c3.389,5.894,6.815,8.84,10.272,8.84c1.158,0,2.666-0.387,4.503-1.159c1.844-0.753,3.464-1.128,4.853-1.128
	c1.477,0,3.196,0.364,5.151,1.091c2.069,0.729,3.664,1.093,4.778,1.093c2.916,0,5.837-2.229,8.777-6.689
	c1.906-2.845,3.307-5.688,4.199-8.531C53.747,44.46,51.953,43.027,50.382,40.772z"/>
</svg>
