<?xml version="1.0" encoding="iso-8859-1"?>
<!-- Generator: Adobe Illustrator 15.0.0, SVG Export Plug-In . SVG Version: 6.00 Build 0)  -->
<!DOCTYPE svg PUBLIC "-//W3C//DTD SVG 1.1//EN" "http://www.w3.org/Graphics/SVG/1.1/DTD/svg11.dtd">
<svg version="1.1" id="Layer_1" xmlns="http://www.w3.org/2000/svg" xmlns:xlink="http://www.w3.org/1999/xlink" x="0px" y="0px"
	 width="64px" height="64px" viewBox="0 0 64 64" style="enable-background:new 0 0 64 64;" xml:space="preserve">
<g>
	<g>
		<path style="fill:none;" d="M25.698,15.366c-0.333,0-0.603,0.279-0.603,0.625c0,0.344,0.27,0.624,0.603,0.624
			c0.331,0,0.597-0.28,0.597-0.624C26.295,15.646,26.029,15.366,25.698,15.366z"/>
		<ellipse style="fill:none;" cx="38.302" cy="15.991" rx="0.601" ry="0.625"/>
		<path style="fill:#010101;" d="M43.743,15.695c-0.015-0.026-0.031-0.049-0.046-0.074c-1.125-1.789-2.678-3.297-4.526-4.396
			l2.156-4.053c0.262-0.491,0.092-1.108-0.382-1.381c-0.47-0.271-1.062-0.095-1.325,0.397l-2.211,4.154
			c-1.66-0.689-3.489-1.07-5.41-1.07c-1.92,0-3.749,0.38-5.41,1.07L24.38,6.188c-0.264-0.492-0.856-0.668-1.326-0.397
			c-0.473,0.273-0.643,0.89-0.381,1.381l2.156,4.053c-3.891,2.312-6.484,6.453-6.484,11.173c0,0.035,0,0.068,0,0.101
			c0,0.017,0,0.036,0,0.056v0.12h27.311v-0.12c0-0.02,0-0.037,0-0.054c0-0.035,0-0.068,0-0.103
			C45.655,19.948,44.959,17.657,43.743,15.695z M25.698,16.616c-0.333,0-0.603-0.28-0.603-0.624c0-0.346,0.27-0.625,0.603-0.625
			c0.331,0,0.597,0.279,0.597,0.625C26.295,16.336,26.029,16.616,25.698,16.616z M38.302,16.616c-0.331,0-0.601-0.28-0.601-0.624
			c0-0.346,0.27-0.625,0.601-0.625s0.603,0.279,0.603,0.625C38.904,16.336,38.633,16.616,38.302,16.616z"/>
	</g>
	<path style="fill:#010101;" d="M18.345,44.116c0,1.9,1.478,3.437,3.301,3.437h1.652v7.035c0,2.068,1.611,3.749,3.601,3.749
		c1.988,0,3.601-1.681,3.601-3.749v-7.035h3.002v7.035c0,2.068,1.612,3.749,3.601,3.749c1.99,0,3.601-1.681,3.601-3.749v-7.035
		h1.651c1.823,0,3.302-1.537,3.302-3.437V23.214H18.345V44.116z"/>
	<path style="fill:#010101;" d="M14.142,22.398c-1.99,0-3.601,1.679-3.601,3.75v13.283c0,2.07,1.61,3.749,3.601,3.749
		c1.988,0,3.602-1.679,3.602-3.749V26.147C17.743,24.077,16.13,22.398,14.142,22.398z"/>
	<path style="fill:#010101;" d="M49.859,22.398c-1.989,0-3.604,1.679-3.604,3.75v13.283c0,2.07,1.614,3.749,3.604,3.749
		c1.988,0,3.6-1.679,3.6-3.749V26.147C53.459,24.077,51.848,22.398,49.859,22.398z"/>
</g>
</svg>
