<?xml version="1.0" encoding="iso-8859-1"?>
<!-- Generator: Adobe Illustrator 15.0.0, SVG Export Plug-In . SVG Version: 6.00 Build 0)  -->
<!DOCTYPE svg PUBLIC "-//W3C//DTD SVG 1.1//EN" "http://www.w3.org/Graphics/SVG/1.1/DTD/svg11.dtd">
<svg version="1.1" id="Layer_1" xmlns="http://www.w3.org/2000/svg" xmlns:xlink="http://www.w3.org/1999/xlink" x="0px" y="0px"
	 width="64px" height="64px" viewBox="0 0 64 64" style="enable-background:new 0 0 64 64;" xml:space="preserve">
<g>
	<path id="rect17577-4" d="M6.051,11.504v0.914V51.07v0.914h0.913h50.072h0.913V51.07V12.417v-0.914h-0.913H6.964H6.051z
		 M7.878,13.33h48.244v36.827H7.878V13.33z"/>
	<path id="path23-6-2" d="M48.676,38.883c-3.161,1.882-7.133,3.139-12.629,3.248l0.048,2.357c5.836-0.116,10.271-1.481,13.789-3.576
		L48.676,38.883z"/>
	<path id="path25-1-5" d="M15.235,38.731l-1.09,2.098c6.647,3.422,13.58,4.199,20.765,3.741l-0.152-2.369
		C27.834,42.643,21.419,41.913,15.235,38.731L15.235,38.731z"/>
	<path id="path27-8" d="M19.14,18.551v6.039h2.356v-6.039H19.14z"/>
	<path id="path29-6" d="M41.043,18.551v6.039h2.368v-6.039H41.043z"/>
	<path id="path31-2" d="M38.85,5.032c-6.489,7.674-12.15,17.77-12.769,29.63l-0.07,1.243h1.243h7.891
		C33.261,43.682,34.6,52.076,38.1,58.968l2.111-1.067c-3.476-6.84-4.7-15.344-2.439-22.841l0.457-1.523h-1.595h-8.067
		c0.903-10.644,6.059-19.85,12.089-26.98L38.85,5.032L38.85,5.032z"/>
</g>
</svg>
