<?xml version="1.0" encoding="iso-8859-1"?>
<!-- Generator: Adobe Illustrator 15.0.0, SVG Export Plug-In . SVG Version: 6.00 Build 0)  -->
<!DOCTYPE svg PUBLIC "-//W3C//DTD SVG 1.1//EN" "http://www.w3.org/Graphics/SVG/1.1/DTD/svg11.dtd">
<svg version="1.1" id="Layer_1" xmlns="http://www.w3.org/2000/svg" xmlns:xlink="http://www.w3.org/1999/xlink" x="0px" y="0px"
	 width="64px" height="64px" viewBox="0 0 64 64" style="enable-background:new 0 0 64 64;" xml:space="preserve">
<g>
	<path style="fill:#010101;" d="M56.277,7.725c3.392,3.392,3.392,8.893,0,12.285L43.992,7.725C47.385,4.33,52.886,4.33,56.277,7.725
		z"/>
	<path style="fill:#010101;" d="M23.362,44.686c-1.117-1.118-3.229-0.813-3.696-0.347c0.467-0.467,0.771-2.582-0.347-3.699
		c-1.117-1.117-3.347-1.515-3.347-1.515l-4.996,12.053l1.85,1.85l12.054-4.995C24.877,48.035,24.48,45.803,23.362,44.686z
		 M26.159,50.128L5.18,58.822l8.691-20.979l26.758-26.757L52.916,23.37L26.159,50.128z"/>
</g>
</svg>
