<?xml version="1.0" encoding="iso-8859-1"?>
<!-- Generator: Adobe Illustrator 15.0.0, SVG Export Plug-In . SVG Version: 6.00 Build 0)  -->
<!DOCTYPE svg PUBLIC "-//W3C//DTD SVG 1.1//EN" "http://www.w3.org/Graphics/SVG/1.1/DTD/svg11.dtd">
<svg version="1.1" id="Layer_1" xmlns="http://www.w3.org/2000/svg" xmlns:xlink="http://www.w3.org/1999/xlink" x="0px" y="0px"
	 width="64px" height="64px" viewBox="0 0 64 64" style="enable-background:new 0 0 64 64;" xml:space="preserve">
<path style="fill-rule:evenodd;clip-rule:evenodd;fill:#010101;" d="M31.194,37.14c0,0,7.013,7.224,10.393,9.971
	c1.992-4.069-1.273-10.473-1.273-10.473l13.201-17.31c0,0,4.303,1.966,6.453,1.122C54.671,14.803,49.198,9.333,43.55,4.034
	c-0.8,2.104,1.125,6.312,1.125,6.312L27.502,23.688c0,0-6.476-3.315-10.614-1.272c2.771,3.309,9.972,10.253,9.972,10.253
	S11.268,50.379,4.117,59.877c-0.198,0.17-0.011,0.056,0.139,0C13.525,52.583,31.194,37.14,31.194,37.14z"/>
</svg>
