<?xml version="1.0" encoding="iso-8859-1"?>
<!-- Generator: Adobe Illustrator 15.0.0, SVG Export Plug-In . SVG Version: 6.00 Build 0)  -->
<!DOCTYPE svg PUBLIC "-//W3C//DTD SVG 1.1//EN" "http://www.w3.org/Graphics/SVG/1.1/DTD/svg11.dtd">
<svg version="1.1" id="Layer_1" xmlns="http://www.w3.org/2000/svg" xmlns:xlink="http://www.w3.org/1999/xlink" x="0px" y="0px"
	 width="64px" height="64px" viewBox="0 0 64 64" style="enable-background:new 0 0 64 64;" xml:space="preserve">
<g>
	<path style="fill:#010101;" d="M45.862,62.003c9.902,0,17.945-8.029,17.945-17.93c0-2.864,0-10.471,0-12.031
		c0-1.645-1.262-2.126-2.352-0.925c-0.65,0.711-15.271,15.434-22.583,23.409c0-6.421,0-15.232,0-17.41
		c0-0.434,0.184-0.768,0.704-0.768c7.505,0,14.29-8.083,14.29-15.846c0-5.743-1.211-9.911-3.876-15.238
		c-0.347-0.693-0.397-1.078-1.37-1.078c-0.454,0-0.892,0.205-1.103,0.569c-0.692,1.201-4.436,7.673-4.677,8.101
		c-0.292,0.521-0.918,0.575-1.21,0c-0.224-0.437-3.981-6.897-4.678-8.101c-0.211-0.364-0.644-0.569-1.099-0.569
		s-0.889,0.205-1.1,0.569c-0.695,1.201-4.454,7.664-4.676,8.101c-0.293,0.575-0.918,0.521-1.211,0
		c-0.238-0.428-3.981-6.897-4.678-8.101c-0.21-0.364-0.647-0.569-1.103-0.569c-0.973,0-1.024,0.385-1.369,1.081
		c-2.665,5.331-3.876,9.496-3.876,15.238c0,7.764,6.786,15.846,14.286,15.846c0.518,0,0.702,0.334,0.702,0.769
		c0,3.562,0,24.887,0,24.887L45.862,62.003z"/>
	<path style="fill:#010101;" d="M10.08,31.12c-1.092-1.204-2.367-0.719-2.367,0.925c0,1.56,0.029,9.167,0.029,12.031
		c0,9.901,8.029,17.93,17.932,17.93c1.072,0,3.616,0,4.837,0V51.939C26.82,48.196,10.846,31.964,10.08,31.12z"/>
</g>
</svg>
