<?xml version="1.0" encoding="iso-8859-1"?>
<!-- Generator: Adobe Illustrator 15.0.0, SVG Export Plug-In . SVG Version: 6.00 Build 0)  -->
<!DOCTYPE svg PUBLIC "-//W3C//DTD SVG 1.1//EN" "http://www.w3.org/Graphics/SVG/1.1/DTD/svg11.dtd">
<svg version="1.1" id="Layer_1" xmlns="http://www.w3.org/2000/svg" xmlns:xlink="http://www.w3.org/1999/xlink" x="0px" y="0px"
	 width="64px" height="64px" viewBox="0 0 64 64" style="enable-background:new 0 0 64 64;" xml:space="preserve">
<g>
	<path style="fill-rule:evenodd;clip-rule:evenodd;fill:#010101;" d="M22.564,49.888c-8.294-2.459-32.217-12.963-5.104-47.867
		c14.66,9.949,20.309,18.704,21.355,25.937c-7.012,2.512-11.841,7.395-11.239,16.228c-3.818-9.085-6.816-21.648-8.103-29.479
		C18.831,23.856,20.18,40.131,22.564,49.888z"/>
	<path style="fill-rule:evenodd;clip-rule:evenodd;fill:#010101;" d="M31.95,52.079c-2.017-5.61-6.212-23.855,25.125-22.848
		c0.921,28.66-14.258,27.602-21.152,25.666c2.854-5.555,6.528-10.568,11.175-14.801C41.396,43.254,36.317,47.258,31.95,52.079z"/>
</g>
</svg>
