<?xml version="1.0" encoding="iso-8859-1"?>
<!-- Generator: Adobe Illustrator 15.0.0, SVG Export Plug-In . SVG Version: 6.00 Build 0)  -->
<!DOCTYPE svg PUBLIC "-//W3C//DTD SVG 1.1//EN" "http://www.w3.org/Graphics/SVG/1.1/DTD/svg11.dtd">
<svg version="1.1" id="Layer_1" xmlns="http://www.w3.org/2000/svg" xmlns:xlink="http://www.w3.org/1999/xlink" x="0px" y="0px"
	 width="64px" height="64px" viewBox="0 0 64 64" style="enable-background:new 0 0 64 64;" xml:space="preserve">
<path style="fill:#020202;" d="M55.795,35.155c0,0.641-0.52,1.161-1.16,1.161s-1.16-0.521-1.16-1.161v-1.653h-1.804l-2.21,2.286
	c0,0-0.149,0.174-0.635,0.174c-0.481,0-0.631-0.174-0.631-0.174l-2.209-2.286H44.46c0,0,0.077,2.984-1.319,2.984
	c-1.396,0-1.319-2.984-1.319-2.984h-6.614c-0.564,1.205-1.79,2.039-3.208,2.039s-2.645-0.834-3.208-2.039h-6.614
	c0,0,0.077,2.984-1.319,2.984c-1.396,0-1.318-2.984-1.318-2.984h-1.525l-2.209,2.286c0,0-0.15,0.174-0.635,0.174
	c-0.481,0-0.634-0.174-0.634-0.174l-2.209-2.286h-1.804v1.653c0,0.641-0.52,1.161-1.16,1.161c-0.641,0-1.158-0.521-1.158-1.161
	v-6.311c0-0.641,0.52-1.159,1.158-1.159c0.64,0,1.16,0.519,1.16,1.159v1.654h1.804l2.209-2.286c0,0,0.149-0.17,0.634-0.17
	c0.482,0,0.635,0.17,0.635,0.17l2.209,2.286h1.525c0,0-0.077-2.982,1.318-2.982c1.396,0,1.319,2.982,1.319,2.982h6.611
	c0.564-1.205,1.789-2.039,3.208-2.039c1.418,0,2.644,0.834,3.208,2.039h6.613c0,0-0.076-2.982,1.319-2.982s1.319,2.982,1.319,2.982
	h1.525l2.209-2.286c0,0,0.15-0.17,0.632-0.17c0.481,0,0.635,0.17,0.635,0.17l2.209,2.286h1.804v-1.654
	c0-0.641,0.52-1.159,1.161-1.159c0.64,0,1.161,0.519,1.161,1.159v6.311H55.795z M60.165,38.87V25.131c0,0,0.138-1.89-1.922-1.89
	h-2.392c0,0-1.107-0.02-1.107-1.115c0-1.097,1.072-1.105,1.072-1.105h0.514v-2.532c0,0,0.076-1.515-1.869-1.515H9.535
	c-1.942,0-1.868,1.515-1.868,1.515v2.532h0.517c0,0,1.072,0.013,1.072,1.105s-1.104,1.115-1.104,1.115H5.757
	c-2.059,0-1.921,1.89-1.921,1.89V38.87c0,0-0.141,1.889,1.921,1.889h2.395c0,0,1.104,0.021,1.104,1.117
	c0,1.093-1.072,1.104-1.072,1.104H7.669v2.533c0,0-0.076,1.514,1.869,1.514h44.927c1.942,0,1.869-1.514,1.869-1.514v-2.533h-0.514
	c0,0-1.072-0.011-1.072-1.104c0-1.097,1.107-1.117,1.107-1.117h2.392C60.303,40.759,60.165,38.87,60.165,38.87z"/>
</svg>
