<?xml version="1.0" encoding="iso-8859-1"?>
<!-- Generator: Adobe Illustrator 15.0.0, SVG Export Plug-In . SVG Version: 6.00 Build 0)  -->
<!DOCTYPE svg PUBLIC "-//W3C//DTD SVG 1.1//EN" "http://www.w3.org/Graphics/SVG/1.1/DTD/svg11.dtd">
<svg version="1.1" id="Layer_1" xmlns="http://www.w3.org/2000/svg" xmlns:xlink="http://www.w3.org/1999/xlink" x="0px" y="0px"
	 width="64px" height="64px" viewBox="0 0 64 64" style="enable-background:new 0 0 64 64;" xml:space="preserve">
<g>
	<path style="fill:#010101;" d="M55.044,31.687c-1.573-2.877-2.935-5.875-4.644-8.678c-3.027,1.799-6.469,3.832-9.944,5.786
		c1.582,3.164,3.403,6.226,5.149,9.303c1.666,2.93,3.479,5.82,4.236,9.146c1.55-2.753,3.228-5.422,4.898-8.099
		c0.671-1.076,1.411-2.238,1.698-3.49C56.791,34.101,55.738,32.953,55.044,31.687C54.532,30.753,55.221,32.014,55.044,31.687z"/>
	<path style="fill:#010101;" d="M46.303,43.149c-2.885-0.055-5.788,0.185-8.663-0.125l-0.587-0.063l-0.04-0.59
		c-0.029-0.451-0.021-0.937-0.006-1.431c-1.573,2.845-3.328,5.589-4.82,8.48l0.631,1.197c1.292,2.461,2.619,4.98,4.042,7.382
		c-0.003-0.882,0.023-1.796,0.164-2.625l0.113-0.672l0.674,0.087c2.761,0.356,6.13,0.318,8.397-1.556
		c1.203-0.991,1.839-2.438,1.998-3.967C48.442,46.917,47.298,45.164,46.303,43.149C45.313,43.128,46.484,43.52,46.303,43.149z"/>
	<path style="fill:#010101;" d="M18.619,54.964c3.278,0.069,6.558,0.382,9.837,0.292c-0.052-3.521-0.102-7.515-0.066-11.506
		c-3.533-0.202-7.093-0.15-10.632-0.165c-3.369-0.015-6.778,0.119-10.043-0.882c1.616,2.716,3.094,5.5,4.587,8.282
		c0.599,1.119,1.236,2.34,2.183,3.209C15.655,55.279,17.177,54.936,18.619,54.964C19.684,54.987,18.249,54.958,18.619,54.964z"/>
	<path style="fill:#010101;" d="M13.029,41.678c1.483-2.476,2.722-5.113,4.422-7.455l0.347-0.477l0.532,0.257
		c0.405,0.199,0.824,0.448,1.246,0.705c-1.686-2.778-3.189-5.67-4.956-8.402l-1.35-0.049c-2.776-0.104-5.628-0.209-8.418-0.171
		C5.619,26.522,6.396,27,7.047,27.534l0.523,0.44l-0.41,0.54c-1.683,2.215-3.326,5.155-2.831,8.056
		c0.263,1.539,1.196,2.812,2.449,3.707C8.695,41.656,10.785,41.535,13.029,41.678C13.538,40.83,12.616,41.651,13.029,41.678z"/>
	<path style="fill:#010101;" d="M17.006,11.923c-1.7,2.805-3.611,5.485-5.176,8.371c3.076,1.718,6.558,3.672,9.995,5.699
		c1.943-2.958,3.679-6.066,5.463-9.122c1.7-2.909,3.288-5.932,5.789-8.253c-3.161,0.04-6.31-0.073-9.467-0.174
		c-1.27-0.041-2.643-0.098-3.872,0.283C18.217,9.199,17.752,10.686,17.006,11.923C16.454,12.834,17.196,11.604,17.006,11.923z"/>
	<path style="fill:#010101;" d="M31.301,13.733c1.399,2.524,3.066,4.912,4.242,7.556l0.238,0.537l-0.489,0.333
		c-0.373,0.251-0.801,0.488-1.234,0.723c3.25-0.069,6.503,0.078,9.753-0.084l0.72-1.146c1.48-2.353,2.996-4.768,4.357-7.202
		c-0.761,0.445-1.563,0.882-2.354,1.174l-0.636,0.237l-0.264-0.625c-1.075-2.567-2.799-5.462-5.557-6.482
		c-1.464-0.544-3.03-0.37-4.437,0.263C33.49,9.988,32.548,11.862,31.301,13.733C31.784,14.598,31.533,13.389,31.301,13.733z"/>
</g>
</svg>
