<?xml version="1.0" encoding="iso-8859-1"?>
<!-- Generator: Adobe Illustrator 15.0.0, SVG Export Plug-In . SVG Version: 6.00 Build 0)  -->
<!DOCTYPE svg PUBLIC "-//W3C//DTD SVG 1.1//EN" "http://www.w3.org/Graphics/SVG/1.1/DTD/svg11.dtd">
<svg version="1.1" id="Layer_1" xmlns="http://www.w3.org/2000/svg" xmlns:xlink="http://www.w3.org/1999/xlink" x="0px" y="0px"
	 width="64px" height="64px" viewBox="0 0 64 64" style="enable-background:new 0 0 64 64;" xml:space="preserve">
<g>
	<defs>
		<rect id="SVGID_1_" x="0.291" y="0.291" width="63.418" height="63.418"/>
	</defs>
	<clipPath id="SVGID_2_">
		<use xlink:href="#SVGID_1_"  style="overflow:visible;"/>
	</clipPath>
	<g style="clip-path:url(#SVGID_2_);">
		<defs>
			<rect id="SVGID_3_" x="0.291" y="0.291" width="63.418" height="63.418"/>
		</defs>
		<clipPath id="SVGID_4_">
			<use xlink:href="#SVGID_3_"  style="overflow:visible;"/>
		</clipPath>
		<g style="clip-path:url(#SVGID_4_);">
			<defs>
				<rect id="SVGID_5_" x="0.291" y="0.291" width="63.418" height="63.418"/>
			</defs>
			<clipPath id="SVGID_6_">
				<use xlink:href="#SVGID_5_"  style="overflow:visible;"/>
			</clipPath>
			<g style="clip-path:url(#SVGID_6_);">
				<defs>
					<rect id="SVGID_7_" x="0.291" y="0.291" width="63.418" height="63.418"/>
				</defs>
				<clipPath id="SVGID_8_">
					<use xlink:href="#SVGID_7_"  style="overflow:visible;"/>
				</clipPath>
				<path style="clip-path:url(#SVGID_8_);fill:#010101;" d="M21.158,38.089c1.457,1.821,3.065,3.43,4.887,4.888
					c0.098,0.078,0.195,0.155,0.292,0.234c4.4-1.919,8.376-3.96,11.927-6.12c-4.447-2.96-8.262-6.774-11.222-11.221
					c-2.159,3.552-4.201,7.527-6.118,11.927C21.003,37.894,21.08,37.991,21.158,38.089z"/>
				<path style="clip-path:url(#SVGID_8_);fill:#010101;" d="M58.738,14.511c1.025-2.896,1.625-5.911,1.797-9.051
					c0.059-1.05-0.811-1.918-1.861-1.861c-3.139,0.173-6.154,0.771-9.05,1.797C53.09,7.976,56.159,11.046,58.738,14.511z"/>
				<path style="clip-path:url(#SVGID_8_);fill:#010101;" d="M28.986,42.796c2.876-1.33,5.562-2.716,8.057-4.16
					c0.352,2.465,0.703,4.928,1.055,7.391C33.1,50.19,28.104,54.355,23.105,58.52c-0.417-0.416-0.833-0.833-1.25-1.25
					c2.916-3.748,5.83-7.496,8.746-11.243C30.063,44.95,29.524,43.873,28.986,42.796z"/>
				<path style="clip-path:url(#SVGID_8_);fill:#010101;" d="M25.497,27.092c-1.443,2.495-2.829,5.179-4.159,8.056
					c-1.076-0.538-2.154-1.077-3.23-1.615c-3.749,2.916-7.497,5.83-11.245,8.746c-0.417-0.417-0.832-0.833-1.249-1.25
					c4.164-4.997,8.329-9.995,12.494-14.992C20.57,26.388,23.033,26.74,25.497,27.092z"/>
				<path style="clip-path:url(#SVGID_8_);fill:#010101;" d="M49.318,22.263c-2.058,2.056-5.391,2.056-7.446,0
					c-2.056-2.057-2.056-5.39,0-7.445s5.389-2.056,7.446,0C51.372,16.873,51.372,20.206,49.318,22.263z M48.83,5.689
					c-8.096,3.113-15.221,9.618-21.378,19.518c0.06,0.091,0.12,0.18,0.181,0.271c2.907,4.369,6.654,8.117,11.024,11.024
					c0.091,0.06,0.181,0.12,0.271,0.18c9.898-6.156,16.404-13.283,19.518-21.378C55.762,11.617,52.518,8.373,48.83,5.689z"/>
				<path style="clip-path:url(#SVGID_8_);fill:#010101;" d="M17.018,51.142c0.377-0.341,0.51-0.451,0.832-1.106
					c-0.961,0.847-1.443,1.587-3.136,2.298c0.626-0.847,0.979-0.992,1.38-1.721c-2.142,2.555-4.065,2.098-6.58,3.716
					c2.664-4.523,1.674-4.79,3.994-8.07c-0.254,0.102-1.106,0.917-1.106,0.917c1.384-2.607,2.821-3.8,4.743-4.235
					c1.137,1.331,2.354,2.564,3.666,3.718C20.061,49.739,17.018,51.142,17.018,51.142z M20.606,38.53
					c-1.667,0.832-3.333,1.666-4.997,2.498c0.249,0.333,0.504,0.658,0.761,0.979c-3.305,0.656-5.583,2.292-7.938,6.583
					c0,0,0.568-0.047,0.992-0.21c-3.861,5.284-1.525,4.739-5.961,12.022c4.188-2.604,7.389-1.868,10.953-5.984
					c-0.664,1.175-0.131,0.672-1.172,2.033c2.818-1.143,2.496-1.6,4.098-2.962c-0.538,1.056-0.333,0.869-0.759,1.46
					c0,0,4.55-1.979,5.726-7.044c0.264,0.208,0.526,0.416,0.797,0.62c0.832-1.666,1.666-3.332,2.498-4.999
					C23.742,42.037,22.096,40.392,20.606,38.53z"/>
			</g>
		</g>
	</g>
</g>
</svg>
