<?xml version="1.0" encoding="iso-8859-1"?>
<!-- Generator: Adobe Illustrator 15.0.0, SVG Export Plug-In . SVG Version: 6.00 Build 0)  -->
<!DOCTYPE svg PUBLIC "-//W3C//DTD SVG 1.1//EN" "http://www.w3.org/Graphics/SVG/1.1/DTD/svg11.dtd">
<svg version="1.1" id="Layer_1" xmlns="http://www.w3.org/2000/svg" xmlns:xlink="http://www.w3.org/1999/xlink" x="0px" y="0px"
	 width="64px" height="64px" viewBox="0 0 64 64" style="enable-background:new 0 0 64 64;" xml:space="preserve">
<g>
	<path style="fill:#010101;" d="M32,53.462c-11.835,0-21.462-9.627-21.462-21.462c0-11.832,9.627-21.462,21.462-21.462
		c11.836,0,21.463,9.628,21.463,21.462C53.463,43.835,43.836,53.462,32,53.462z M32,5C17.113,5,5,17.114,5,32
		c0,14.888,12.113,27,27,27s27-12.112,27-27C59,17.114,46.887,5,32,5z"/>
	<path style="fill:#010101;" d="M28.884,24.426c0,4.615-6.921,4.615-6.921,0S28.884,19.811,28.884,24.426"/>
	<path style="fill:#010101;" d="M42.201,24.426c0,4.615-6.924,4.615-6.924,0S42.201,19.811,42.201,24.426"/>
	<path style="fill:#010101;" d="M43.641,44.924C42.837,39.212,37.932,34.799,32,34.799s-10.836,4.413-11.641,10.125h-4.196
		c0.823-8.01,7.613-14.278,15.837-14.278c8.225,0,15.014,6.269,15.838,14.278H43.641z"/>
</g>
</svg>
