<?xml version="1.0" encoding="iso-8859-1"?>
<!-- Generator: Adobe Illustrator 15.0.0, SVG Export Plug-In . SVG Version: 6.00 Build 0)  -->
<!DOCTYPE svg PUBLIC "-//W3C//DTD SVG 1.1//EN" "http://www.w3.org/Graphics/SVG/1.1/DTD/svg11.dtd">
<svg version="1.1" id="Layer_1" xmlns="http://www.w3.org/2000/svg" xmlns:xlink="http://www.w3.org/1999/xlink" x="0px" y="0px"
	 width="64px" height="64px" viewBox="0 0 64 64" style="enable-background:new 0 0 64 64;" xml:space="preserve">
<g>
	<defs>
		<rect id="SVGID_1_" x="-2.236" y="-2.236" width="68.473" height="68.473"/>
	</defs>
	<clipPath id="SVGID_2_">
		<use xlink:href="#SVGID_1_"  style="overflow:visible;"/>
	</clipPath>
	<g style="clip-path:url(#SVGID_2_);">
		<defs>
			<rect id="SVGID_3_" x="-2.236" y="-2.236" width="68.473" height="68.473"/>
		</defs>
		<clipPath id="SVGID_4_">
			<use xlink:href="#SVGID_3_"  style="overflow:visible;"/>
		</clipPath>
		<g style="clip-path:url(#SVGID_4_);">
			<defs>
				<rect id="SVGID_5_" x="-2.236" y="-2.236" width="68.473" height="68.473"/>
			</defs>
			<clipPath id="SVGID_6_">
				<use xlink:href="#SVGID_5_"  style="overflow:visible;"/>
			</clipPath>
			<g style="clip-path:url(#SVGID_6_);">
				<defs>
					<rect id="SVGID_7_" x="-2.236" y="-2.236" width="68.473" height="68.473"/>
				</defs>
				<clipPath id="SVGID_8_">
					<use xlink:href="#SVGID_7_"  style="overflow:visible;"/>
				</clipPath>
				<path style="clip-path:url(#SVGID_8_);fill:#010101;" d="M51.418,45.703c-0.834,1.236-3.779,0.881-7.866-0.695
					c1.099-0.963,2.095-2.076,2.949-3.344c0.603-0.895,1.104-1.824,1.521-2.779C50.877,41.984,52.233,44.494,51.418,45.703z
					 M12.243,19.291c0.814-1.209,3.648-0.893,7.592,0.592c-0.729,0.744-1.402,1.557-2.006,2.453
					c-0.854,1.268-1.512,2.607-1.991,3.986C12.842,23.125,11.408,20.527,12.243,19.291z M49.208,34.9
					c1.102-6.488-1.566-13.318-7.379-17.236c-5.811-3.918-13.144-3.828-18.746-0.375C13.072,12.5,5.023,11.014,2.916,14.141
					c-2.618,3.883,4.805,13.605,17.093,23.027c0.02,0.014,0.037,0.029,0.057,0.043c0.405,0.311,0.818,0.621,1.234,0.932
					c0.057,0.041,0.113,0.086,0.171,0.129c0.374,0.275,0.754,0.553,1.136,0.828c0.102,0.074,0.2,0.148,0.303,0.221
					c0.361,0.26,0.728,0.518,1.097,0.777c0.122,0.084,0.239,0.17,0.361,0.254c0.488,0.342,0.982,0.68,1.482,1.016
					c0.501,0.338,1.003,0.67,1.501,0.996c0.099,0.064,0.196,0.125,0.294,0.189c0.405,0.262,0.81,0.523,1.214,0.779
					c0.081,0.049,0.16,0.1,0.241,0.148c0.423,0.268,0.846,0.529,1.267,0.787c0.053,0.031,0.106,0.062,0.159,0.096
					c0.45,0.273,0.899,0.543,1.347,0.807c0.021,0.014,0.042,0.025,0.062,0.037c13.341,7.859,25.139,11.092,27.758,7.207
					C61.799,49.289,57.403,42.385,49.208,34.9z"/>
				<path style="clip-path:url(#SVGID_8_);fill:#010101;" d="M15.053,34.475c0.675,4.656,3.237,9.023,7.447,11.861
					c4.209,2.838,9.219,3.576,13.789,2.453c-3.536-1.834-7.259-4.039-11.015-6.57C21.52,39.688,18.079,37.062,15.053,34.475z"/>
			</g>
		</g>
	</g>
</g>
</svg>
