<?xml version="1.0" encoding="iso-8859-1"?>
<!-- Generator: Adobe Illustrator 15.0.0, SVG Export Plug-In . SVG Version: 6.00 Build 0)  -->
<!DOCTYPE svg PUBLIC "-//W3C//DTD SVG 1.1//EN" "http://www.w3.org/Graphics/SVG/1.1/DTD/svg11.dtd">
<svg version="1.1" id="Layer_1" xmlns="http://www.w3.org/2000/svg" xmlns:xlink="http://www.w3.org/1999/xlink" x="0px" y="0px"
	 width="64px" height="64px" viewBox="0 0 64 64" style="enable-background:new 0 0 64 64;" xml:space="preserve">
<g>
	<g>
		<path style="fill:#010101;" d="M9.243,27.319v4.682c0,6.618,2.48,13.245,7.452,18.207c4.96,4.972,11.587,7.45,18.208,7.45
			c5.216,0,9.022-1.241,13.767-3.979c1.839-1.068,1.839-1.068,0.771-2.906l-1.069-1.84c-1.067-1.879-1.067-1.879-2.904-0.811
			c-4.878,2.564-7.186,3.121-10.541,3.121c-4.917,0-9.836-1.881-13.587-5.635c-3.752-3.764-5.676-8.682-5.676-13.611v-4.683h6.509
			l-9.365-9.365l-9.369,9.369H9.243z M43.583,14.812l1.881,1.067c1.838,1.068,1.838,1.068,2.906-0.812l1.066-1.838
			c1.069-1.839,1.069-1.839-0.769-2.907l-1.881-1.068c-1.839-1.067-1.839-1.067-2.906,0.771l-1.067,1.838
			C41.744,13.74,41.744,13.74,43.583,14.812z M52.092,23.32c1.067,1.839,1.067,1.839,2.952,0.771l1.837-1.068
			c1.838-1.067,1.838-1.067,0.771-2.907l-1.067-1.88c-1.069-1.838-1.069-1.838-2.907-0.77l-1.837,1.067
			c-1.881,1.068-1.881,1.068-0.813,2.906L52.092,23.32z M33.832,12.76h2.137c2.141,0,2.141,0,2.141-2.139V8.482
			c0-2.141,0-2.141-2.141-2.141h-2.137c-2.141,0-2.141,0-2.141,2.141v2.139C31.695,12.76,31.695,12.76,33.832,12.76z M56.282,35.208
			h2.141c2.139,0,2.139,0,2.139-2.139v-2.14c0-2.139,0-2.139-2.139-2.139h-2.141c-2.138,0-2.138,0-2.138,2.139v2.14
			C54.145,35.208,54.145,35.208,56.282,35.208z M21.003,14.895c1.069,2.14,1.069,2.14,3.208,1.068l2.138-1.068
			c2.139-1.067,2.139-1.067,1.067-3.207l-1.067-2.139c-1.069-1.066-1.069-1.066-3.206,0l-2.14,1.068
			c-2.139,1.068-2.139,1.068-1.067,2.139L21.003,14.895z M51.836,45.473l1.838,1.068c1.839,1.066,1.839,1.066,2.906-0.771
			l1.069-1.881c1.067-1.838,1.067-1.838-0.771-2.905l-1.838-1.068c-1.881-1.068-1.881-1.068-2.951,0.771l-1.067,1.88
			C49.954,44.404,49.954,44.404,51.836,45.473z"/>
	</g>
	<polygon style="fill:#010101;" points="44.297,37.263 44.299,34.039 35.469,34.039 35.467,19.32 32.243,19.319 32.243,37.264 	"/>
</g>
</svg>
