<?xml version="1.0" encoding="iso-8859-1"?>
<!-- Generator: Adobe Illustrator 15.0.0, SVG Export Plug-In . SVG Version: 6.00 Build 0)  -->
<!DOCTYPE svg PUBLIC "-//W3C//DTD SVG 1.1//EN" "http://www.w3.org/Graphics/SVG/1.1/DTD/svg11.dtd">
<svg version="1.1" id="Layer_1" xmlns="http://www.w3.org/2000/svg" xmlns:xlink="http://www.w3.org/1999/xlink" x="0px" y="0px"
	 width="64px" height="64px" viewBox="0 0 64 64" style="enable-background:new 0 0 64 64;" xml:space="preserve">
<g>
	<defs>
		<rect id="SVGID_1_" x="3.679" y="3.679" width="56.643" height="56.643"/>
	</defs>
	<clipPath id="SVGID_2_">
		<use xlink:href="#SVGID_1_"  style="overflow:visible;"/>
	</clipPath>
	<g style="clip-path:url(#SVGID_2_);">
		<defs>
			<rect id="SVGID_3_" x="3.679" y="3.679" width="56.643" height="56.643"/>
		</defs>
		<clipPath id="SVGID_4_">
			<use xlink:href="#SVGID_3_"  style="overflow:visible;"/>
		</clipPath>
		<g style="clip-path:url(#SVGID_4_);">
			<defs>
				<rect id="SVGID_5_" x="3.679" y="3.679" width="56.643" height="56.643"/>
			</defs>
			<clipPath id="SVGID_6_">
				<use xlink:href="#SVGID_5_"  style="overflow:visible;"/>
			</clipPath>
			<g style="clip-path:url(#SVGID_6_);">
				<defs>
					<rect id="SVGID_7_" x="3.679" y="3.679" width="56.643" height="56.643"/>
				</defs>
				<clipPath id="SVGID_8_">
					<use xlink:href="#SVGID_7_"  style="overflow:visible;"/>
				</clipPath>
				<circle style="clip-path:url(#SVGID_8_);fill:#010101;" cx="32" cy="32" r="3.102"/>
				<path style="clip-path:url(#SVGID_8_);fill:#010101;" d="M51.054,43.002c-0.41,0.709-1.595,1.101-3.339,1.101c0,0,0,0,0,0
					c-2.125,0-4.844-0.565-7.859-1.581c0.288-1.782,0.501-3.668,0.633-5.622c1.628-1.094,3.156-2.222,4.556-3.363
					C49.882,37.821,51.917,41.507,51.054,43.002z M40.627,30.05c0.92,0.656,1.782,1.307,2.584,1.949
					c-0.819,0.655-1.683,1.305-2.584,1.947c0.017-0.645,0.027-1.292,0.027-1.947C40.654,31.345,40.643,30.696,40.627,30.05z
					 M47.716,19.897c1.743,0,2.928,0.39,3.338,1.099c0.542,0.938,0.015,3.164-3.089,6.596c-0.856,0.946-1.839,1.906-2.925,2.866
					c-1.399-1.14-2.926-2.267-4.552-3.359c-0.132-1.956-0.346-3.841-0.633-5.624C42.871,20.461,45.591,19.897,47.716,19.897z
					 M38.212,35.583c-0.988,0.639-2.009,1.266-3.062,1.873c-1.05,0.607-2.104,1.175-3.151,1.71c-1.047-0.535-2.101-1.103-3.151-1.71
					c-1.052-0.607-2.072-1.233-3.061-1.873C25.731,34.434,25.7,33.239,25.7,32s0.031-2.435,0.088-3.584
					c0.988-0.639,2.009-1.266,3.061-1.873c1.05-0.607,2.104-1.175,3.151-1.71c1.047,0.536,2.1,1.104,3.15,1.71
					c1.074,0.62,2.094,1.245,3.062,1.87C38.269,29.564,38.3,30.759,38.3,32C38.301,33.239,38.269,34.434,38.212,35.583z
					 M37.608,41.704c-0.974-0.38-1.969-0.803-2.978-1.263c0.566-0.307,1.133-0.62,1.697-0.946c0.566-0.327,1.124-0.661,1.674-0.999
					C37.895,39.619,37.763,40.689,37.608,41.704z M32,54.003c-1.728,0-3.903-3.608-5.193-9.945c1.686-0.641,3.429-1.4,5.192-2.261
					c1.765,0.861,3.508,1.62,5.193,2.261C35.903,50.395,33.728,54.003,32,54.003z M25.999,38.496
					c0.55,0.337,1.107,0.672,1.674,0.999c0.564,0.326,1.13,0.639,1.697,0.945c-1.009,0.461-2.003,0.883-2.976,1.264
					C26.238,40.689,26.105,39.619,25.999,38.496z M26.393,22.295c0.972,0.381,1.967,0.803,2.976,1.264
					c-0.566,0.307-1.133,0.62-1.697,0.946c-0.566,0.327-1.124,0.662-1.674,0.999C26.105,24.38,26.238,23.311,26.393,22.295z
					 M32,9.997c1.728,0,3.902,3.608,5.192,9.945c-1.686,0.64-3.43,1.398-5.193,2.26c-1.763-0.861-3.506-1.62-5.191-2.26
					C28.098,13.604,30.272,9.997,32,9.997z M38.002,25.504c-0.55-0.337-1.108-0.671-1.674-0.999
					c-0.564-0.326-1.13-0.639-1.697-0.946c1.009-0.461,2.004-0.883,2.977-1.264C37.763,23.311,37.895,24.38,38.002,25.504z
					 M23.513,27.098c-1.627,1.093-3.154,2.221-4.554,3.36c-1.086-0.958-2.069-1.919-2.924-2.865
					c-3.103-3.433-3.631-5.659-3.089-6.597c0.409-0.709,1.595-1.099,3.338-1.099c2.125,0,4.845,0.564,7.86,1.58
					C23.857,23.257,23.645,25.144,23.513,27.098z M23.374,33.946c-0.901-0.642-1.766-1.292-2.583-1.947
					c0.817-0.654,1.682-1.305,2.583-1.946c-0.017,0.645-0.027,1.294-0.027,1.947C23.346,32.653,23.357,33.302,23.374,33.946z
					 M16.284,44.103c-1.743,0-2.929-0.391-3.338-1.101c-0.542-0.938-0.014-3.163,3.089-6.596c0.855-0.946,1.838-1.906,2.924-2.866
					c1.4,1.14,2.926,2.267,4.554,3.36c0.132,1.955,0.345,3.84,0.632,5.622C21.128,43.538,18.409,44.103,16.284,44.103z
					 M46.847,31.999c1.056-0.946,2.018-1.893,2.864-2.828c3.505-3.878,4.675-7.112,3.381-9.352c-0.6-1.039-2.019-2.276-5.375-2.276
					c-2.274,0-5.138,0.574-8.29,1.608c-0.292-1.391-0.631-2.701-1.02-3.904c-1.604-4.974-3.82-7.604-6.407-7.604
					c-2.587,0-4.803,2.629-6.408,7.604c-0.388,1.203-0.727,2.513-1.019,3.905c-3.152-1.035-6.017-1.609-8.29-1.609
					c-3.356,0-4.775,1.238-5.375,2.276c-1.294,2.24-0.125,5.475,3.381,9.353c0.846,0.935,1.808,1.882,2.862,2.829
					c-1.055,0.946-2.017,1.893-2.862,2.828c-3.505,3.877-4.675,7.111-3.381,9.351c0.6,1.039,2.019,2.277,5.376,2.277
					c2.273,0,5.137-0.574,8.289-1.608c0.292,1.391,0.632,2.701,1.02,3.904c1.604,4.974,3.82,7.604,6.407,7.604
					s4.802-2.63,6.407-7.605c0.388-1.203,0.728-2.513,1.02-3.904c3.152,1.034,6.016,1.608,8.289,1.608c0,0,0,0,0,0
					c3.356,0,4.777-1.238,5.376-2.277c1.293-2.24,0.124-5.474-3.381-9.351C48.864,33.893,47.903,32.945,46.847,31.999z"/>
			</g>
		</g>
	</g>
</g>
</svg>
