<?xml version="1.0" encoding="iso-8859-1"?>
<!-- Generator: Adobe Illustrator 15.0.0, SVG Export Plug-In . SVG Version: 6.00 Build 0)  -->
<!DOCTYPE svg PUBLIC "-//W3C//DTD SVG 1.1//EN" "http://www.w3.org/Graphics/SVG/1.1/DTD/svg11.dtd">
<svg version="1.1" id="Layer_1" xmlns="http://www.w3.org/2000/svg" xmlns:xlink="http://www.w3.org/1999/xlink" x="0px" y="0px"
	 width="64px" height="64px" viewBox="0 0 64 64" style="enable-background:new 0 0 64 64;" xml:space="preserve">
<g>
	<defs>
		<rect id="SVGID_1_" x="6.449" y="6.449" width="51.102" height="51.102"/>
	</defs>
	<clipPath id="SVGID_2_">
		<use xlink:href="#SVGID_1_"  style="overflow:visible;"/>
	</clipPath>
	<g style="clip-path:url(#SVGID_2_);">
		<defs>
			<rect id="SVGID_3_" x="6.449" y="6.449" width="51.102" height="51.102"/>
		</defs>
		<clipPath id="SVGID_4_">
			<use xlink:href="#SVGID_3_"  style="overflow:visible;"/>
		</clipPath>
		<g style="clip-path:url(#SVGID_4_);">
			<defs>
				<rect id="SVGID_5_" x="6.449" y="6.449" width="51.102" height="51.102"/>
			</defs>
			<clipPath id="SVGID_6_">
				<use xlink:href="#SVGID_5_"  style="overflow:visible;"/>
			</clipPath>
			<g style="clip-path:url(#SVGID_6_);">
				<defs>
					<rect id="SVGID_7_" x="6.449" y="6.449" width="51.102" height="51.102"/>
				</defs>
				<clipPath id="SVGID_8_">
					<use xlink:href="#SVGID_7_"  style="overflow:visible;"/>
				</clipPath>
				<path style="clip-path:url(#SVGID_8_);fill:#020202;" d="M26.348,36.838c-0.295-0.646-0.538-1.35-0.714-2.119h12.73
					c-0.178,0.77-0.424,1.473-0.72,2.119H26.348z M37.674,27.212c0.29,0.645,0.533,1.35,0.705,2.118H25.617
					c0.172-0.768,0.414-1.473,0.705-2.118H37.674z M38.617,33.083H25.381c-0.029-0.352-0.051-0.709-0.051-1.082
					c0-0.356,0.018-0.7,0.045-1.036h13.248c0.028,0.336,0.045,0.679,0.045,1.036C38.668,32.374,38.647,32.733,38.617,33.083z
					 M25.621,54.881c0.173-0.77,0.415-1.474,0.704-2.118h11.35c0.289,0.646,0.532,1.349,0.704,2.118H25.621L25.621,54.881z
					 M38.37,9.167c-0.177,0.772-0.427,1.472-0.724,2.119H26.349c-0.295-0.646-0.539-1.35-0.715-2.119H38.37z M27.274,38.472h9.438
					c-0.807,1.169-1.755,2.073-2.631,2.746c-1.479,1.136-2.754,1.627-2.784,1.638c-0.097,0.035-0.701,0.267-1.565,0.733
					c-0.004,0.002-0.007,0.005-0.011,0.005c-0.96,0.521-2.239,1.332-3.515,2.503c-2.494,2.288-4.965,5.946-4.965,11.454h4.089
					c0-0.355,0.019-0.698,0.046-1.034h13.248c0.026,0.336,0.045,0.679,0.045,1.034h4.088c0-5.502-2.465-9.156-4.955-11.446
					c-0.978,0.743-1.884,1.291-2.554,1.653l-0.112,0.06c-0.412,0.219-0.764,0.387-1.044,0.512c0.893,0.683,1.855,1.603,2.669,2.8
					h-9.523c0.814-1.197,1.778-2.118,2.672-2.8c1.433-1.096,2.68-1.59,2.802-1.636c0.094-0.034,0.694-0.265,1.555-0.729
					c0.004-0.001,0.006-0.004,0.011-0.005c0.96-0.519,2.24-1.331,3.519-2.504c2.492-2.289,4.962-5.944,4.962-11.454
					c0-5.508-2.468-9.165-4.961-11.454c-1.526,1.161-2.917,1.874-3.703,2.229c0.892,0.683,1.855,1.603,2.67,2.801h-9.522
					c0.94-1.387,2.083-2.404,3.084-3.11c0.523-0.369,1.001-0.65,1.396-0.86l1.373-0.621c0.708-0.304,2.283-1.067,3.961-2.442
					c2.718-2.223,5.702-6.039,5.702-12.095h-4.089c0,0.376-0.029,0.729-0.06,1.083H25.382c-0.03-0.352-0.052-0.71-0.052-1.083
					h-4.089c0,5.506,2.47,9.162,4.963,11.452c1.526-1.16,2.916-1.874,3.704-2.23c-0.88-0.672-1.828-1.577-2.634-2.749h9.442
					c-2.119,3.084-5.23,4.312-5.429,4.386c-0.401,0.148-10.046,3.809-10.046,14.693c0,5.506,2.468,9.161,4.961,11.45
					c0.805-0.612,1.654-1.172,2.556-1.661c0.455-0.244,0.844-0.432,1.148-0.567C29.027,40.55,28.079,39.645,27.274,38.472z"/>
			</g>
		</g>
	</g>
</g>
</svg>
