<?xml version="1.0" encoding="iso-8859-1"?>
<!-- Generator: Adobe Illustrator 15.0.0, SVG Export Plug-In . SVG Version: 6.00 Build 0)  -->
<!DOCTYPE svg PUBLIC "-//W3C//DTD SVG 1.1//EN" "http://www.w3.org/Graphics/SVG/1.1/DTD/svg11.dtd">
<svg version="1.1" id="Layer_1" xmlns="http://www.w3.org/2000/svg" xmlns:xlink="http://www.w3.org/1999/xlink" x="0px" y="0px"
	 width="64px" height="64px" viewBox="0 0 64 64" style="enable-background:new 0 0 64 64;" xml:space="preserve">
<g>
	<defs>
		<rect id="SVGID_1_" x="2.938" y="3.663" width="56.676" height="56.675"/>
	</defs>
	<clipPath id="SVGID_2_">
		<use xlink:href="#SVGID_1_"  style="overflow:visible;"/>
	</clipPath>
	<g style="clip-path:url(#SVGID_2_);">
		<defs>
			<rect id="SVGID_3_" x="2.938" y="3.663" width="56.676" height="56.675"/>
		</defs>
		<clipPath id="SVGID_4_">
			<use xlink:href="#SVGID_3_"  style="overflow:visible;"/>
		</clipPath>
		<g style="clip-path:url(#SVGID_4_);">
			<defs>
				<rect id="SVGID_5_" x="2.938" y="3.663" width="56.676" height="56.675"/>
			</defs>
			<clipPath id="SVGID_6_">
				<use xlink:href="#SVGID_5_"  style="overflow:visible;"/>
			</clipPath>
			<g style="clip-path:url(#SVGID_6_);">
				<defs>
					<rect id="SVGID_7_" x="2.938" y="3.663" width="56.676" height="56.675"/>
				</defs>
				<clipPath id="SVGID_8_">
					<use xlink:href="#SVGID_7_"  style="overflow:visible;"/>
				</clipPath>
				<path style="clip-path:url(#SVGID_8_);fill:#010101;" d="M52.159,55.824H10.392c-3.854,0-5.039-2.465-2.633-5.477l18.26-26.82
					V13.104h-2.453c-1.285,0-2.338-1.052-2.338-2.336V9.815c0-1.285,1.051-2.337,2.338-2.337h15.422
					c1.285,0,2.338,1.052,2.338,2.337v0.952c0,1.284-1.053,2.336-2.338,2.336h-2.453v10.423l18.26,26.821
					C57.2,53.359,56.015,55.824,52.159,55.824z M57.079,48.669L39.368,22.654v-6.731c2.674-0.195,4.789-2.433,4.789-5.155V9.815
					c0-2.851-2.318-5.17-5.17-5.17H23.565c-2.852,0-5.17,2.319-5.17,5.17v0.952c0,2.722,2.115,4.96,4.789,5.155v6.73L5.474,48.669
					c-1.795,2.294-2.27,4.758-1.299,6.774c0.982,2.042,3.248,3.214,6.219,3.214h41.766c2.971,0,5.238-1.172,6.221-3.214
					C59.349,53.428,58.874,50.964,57.079,48.669z"/>
				<polygon style="clip-path:url(#SVGID_8_);fill:#010101;" points="51.331,50.79 47.063,44.596 51.331,50.791 				"/>
				<polygon style="clip-path:url(#SVGID_8_);fill:#010101;" points="19.632,38.409 15.421,44.596 19.634,38.408 				"/>
				<path style="clip-path:url(#SVGID_8_);fill:#010101;" d="M35.087,45.931c-1.73,0-3.131-1.401-3.131-3.131
					c0-1.729,1.402-3.132,3.131-3.132c1.73,0,3.131,1.403,3.131,3.132C38.218,44.53,36.815,45.931,35.087,45.931z M30.411,49.35
					c-0.854,0-1.545-0.691-1.545-1.544s0.691-1.544,1.545-1.544s1.543,0.691,1.543,1.544S31.265,49.35,30.411,49.35z M51.331,50.791
					l-4.266-6.196l-5.553-8.061h-2.268h-7.301c0.004,0.073,0.012,0.146,0.012,0.22c0,2.104-1.707,3.811-3.811,3.811
					c-2.105,0-3.811-1.707-3.811-3.811c0-0.074,0.006-0.147,0.01-0.22h-1.17h-2.268l-1.273,1.874l-4.213,6.188l-4.209,6.187
					c-0.703,1.03-0.256,1.874,0.992,1.874h38.146C51.597,52.656,52.038,51.817,51.331,50.791z"/>
			</g>
		</g>
	</g>
</g>
</svg>
