<?xml version="1.0" encoding="iso-8859-1"?>
<!-- Generator: Adobe Illustrator 15.0.0, SVG Export Plug-In . SVG Version: 6.00 Build 0)  -->
<!DOCTYPE svg PUBLIC "-//W3C//DTD SVG 1.1//EN" "http://www.w3.org/Graphics/SVG/1.1/DTD/svg11.dtd">
<svg version="1.1" id="Layer_1" xmlns="http://www.w3.org/2000/svg" xmlns:xlink="http://www.w3.org/1999/xlink" x="0px" y="0px"
	 width="64px" height="64px" viewBox="0 0 64 64" style="enable-background:new 0 0 64 64;" xml:space="preserve">
<g>
	<path style="fill:#010101;" d="M33.871,33.527c0,1.032-0.837,1.866-1.87,1.866s-1.869-0.837-1.869-1.866
		c0-1.032,0.836-1.869,1.869-1.869S33.871,32.495,33.871,33.527z M50.984,42.979c2.482,2.485,2.482,6.513,0,8.994
		c-2.485,2.482-6.509,2.484-8.993,0c-2.482-2.481-2.482-6.509,0-8.994C44.473,40.498,48.5,40.498,50.984,42.979z M22.015,42.979
		c2.482,2.485,2.485,6.51,0,8.994s-6.511,2.482-8.993,0c-2.482-2.481-2.485-6.509,0-8.994C15.503,40.498,19.53,40.498,22.015,42.979
		z M11.628,5.207c-2.82,5.806-1.824,12.997,2.997,17.818l9.964,9.967l-3.686,3.686c-3.889-1.217-8.308-0.287-11.392,2.795
		c-4.418,4.422-4.418,11.585,0,16.007c4.421,4.418,11.587,4.418,16.006,0c3.084-3.081,4.013-7.499,2.795-11.389l3.686-3.686
		l3.685,3.686c-1.214,3.89-0.285,8.308,2.796,11.389c4.421,4.418,11.584,4.418,16.005,0c4.421-4.422,4.421-11.585,0-16.007
		c-3.081-3.082-7.499-4.012-11.389-2.795L25.258,18.84L11.628,5.207z"/>
	<path style="fill:#010101;" d="M38.306,18.84l-3.319,3.317l7.413,7.413l6.545-6.545c4.821-4.821,5.817-12.016,2.997-17.818
		L38.306,18.84z"/>
</g>
</svg>
