<?xml version="1.0" encoding="iso-8859-1"?>
<!-- Generator: Adobe Illustrator 15.0.0, SVG Export Plug-In . SVG Version: 6.00 Build 0)  -->
<!DOCTYPE svg PUBLIC "-//W3C//DTD SVG 1.1//EN" "http://www.w3.org/Graphics/SVG/1.1/DTD/svg11.dtd">
<svg version="1.1" id="Layer_1" xmlns="http://www.w3.org/2000/svg" xmlns:xlink="http://www.w3.org/1999/xlink" x="0px" y="0px"
	 width="64px" height="64px" viewBox="0 0 64 64" style="enable-background:new 0 0 64 64;" xml:space="preserve">
<path style="fill-rule:evenodd;clip-rule:evenodd;fill:#010101;" d="M43.255,32c0-6.217-5.039-11.255-11.255-11.255
	c-6.217,0-11.255,5.038-11.255,11.255c0,6.216,5.038,11.255,11.255,11.255C38.216,43.255,43.255,38.216,43.255,32z M50.973,28.473
	l6.523-3.768l-6.432-11.137l-6.525,3.765c-1.785-1.525-3.848-2.73-6.107-3.529V6.273H25.568v7.531
	c-2.259,0.798-4.322,2.004-6.107,3.529l-6.526-3.765L6.504,24.706l6.523,3.768c-0.212,1.141-0.322,2.321-0.322,3.527
	s0.11,2.385,0.322,3.527l-6.523,3.768l6.432,11.137l6.526-3.765c1.785,1.524,3.848,2.73,6.107,3.529v7.53h12.863v-7.53
	c2.259-0.799,4.322-2.005,6.107-3.529l6.525,3.765l6.432-11.137l-6.523-3.768c0.212-1.142,0.322-2.321,0.322-3.527
	S51.185,29.614,50.973,28.473z"/>
</svg>
