<?xml version="1.0" encoding="iso-8859-1"?>
<!-- Generator: Adobe Illustrator 15.0.0, SVG Export Plug-In . SVG Version: 6.00 Build 0)  -->
<!DOCTYPE svg PUBLIC "-//W3C//DTD SVG 1.1//EN" "http://www.w3.org/Graphics/SVG/1.1/DTD/svg11.dtd">
<svg version="1.1" id="Layer_1" xmlns="http://www.w3.org/2000/svg" xmlns:xlink="http://www.w3.org/1999/xlink" x="0px" y="0px"
	 width="64px" height="64px" viewBox="0 0 64 64" style="enable-background:new 0 0 64 64;" xml:space="preserve">
<g>
	<defs>
		<rect id="SVGID_1_" x="2.436" y="4.393" width="59.129" height="55.215"/>
	</defs>
	<clipPath id="SVGID_2_">
		<use xlink:href="#SVGID_1_"  style="overflow:visible;"/>
	</clipPath>
	<g style="clip-path:url(#SVGID_2_);">
		<defs>
			<rect id="SVGID_3_" x="2.436" y="4.393" width="59.129" height="55.215"/>
		</defs>
		<clipPath id="SVGID_4_">
			<use xlink:href="#SVGID_3_"  style="overflow:visible;"/>
		</clipPath>
		<g style="clip-path:url(#SVGID_4_);">
			<defs>
				<rect id="SVGID_5_" x="2.436" y="4.393" width="59.129" height="55.215"/>
			</defs>
			<clipPath id="SVGID_6_">
				<use xlink:href="#SVGID_5_"  style="overflow:visible;"/>
			</clipPath>
			<g style="clip-path:url(#SVGID_6_);">
				<defs>
					<rect id="SVGID_7_" x="2.436" y="4.393" width="59.129" height="55.215"/>
				</defs>
				<clipPath id="SVGID_8_">
					<use xlink:href="#SVGID_7_"  style="overflow:visible;"/>
				</clipPath>
				<path style="clip-path:url(#SVGID_8_);fill:#020202;" d="M59.639,30.206h-7.342l3.264-2.358c0.84-0.606,0.996-1.734,0.346-2.52
					c-0.652-0.785-1.859-0.929-2.699-0.321l-7.193,5.199h-9.373l6.275-5.859c4.025-0.514,8.412-1.054,9.207-1.114
					c0.244,0.007,0.498-0.033,0.744-0.121c0.992-0.36,1.48-1.4,1.098-2.325c-0.555-1.332-1.641-1.206-3.598-0.98
					c-0.822,0.095-1.883,0.222-2.971,0.356l5.506-5.144c0.752-0.7,0.752-1.838,0-2.538c-0.75-0.7-1.967-0.7-2.717,0l-5.324,4.973
					l0.531-3.899c0.135-0.985-0.609-1.884-1.664-2.01c-1.047-0.122-2.014,0.572-2.152,1.554l-1.16,8.505l-6.494,6.062v-8.389
					c2.428-2.979,5.039-6.159,5.545-6.718c0.182-0.159,0.33-0.356,0.438-0.584c0.426-0.908-0.021-1.965-0.994-2.362
					c-1.396-0.569-2.064,0.229-3.279,1.684c-0.48,0.572-1.086,1.305-1.711,2.063V6.19c0.002-0.991-0.859-1.795-1.92-1.795
					c-1.062,0-1.924,0.804-1.924,1.795v7.227l-2.697-3.258c-0.65-0.784-1.857-0.928-2.697-0.321s-0.994,1.734-0.346,2.52l5.74,6.926
					v8.382l-6.502-6.069c-0.531-3.656-1.072-7.511-1.137-8.229c0.006-0.229-0.037-0.466-0.133-0.695
					c-0.387-0.923-1.502-1.381-2.49-1.019c-1.42,0.517-1.287,1.527-1.047,3.357c0.088,0.675,0.205,1.52,0.33,2.403l-5.285-4.934
					c-0.75-0.7-1.969-0.7-2.719,0s-0.75,1.838,0,2.538l5.549,5.182l-4.572-0.545c-1.047-0.123-2.014,0.57-2.15,1.553
					c-0.135,0.984,0.611,1.884,1.664,2.01l9.502,1.133l6.27,5.855h-9.381c-3.121-2.219-6.381-4.556-6.967-5.019
					c-0.17-0.165-0.377-0.307-0.617-0.404c-0.973-0.401-2.107,0.011-2.535,0.918c-0.617,1.307,0.24,1.933,1.801,3.069
					c0.555,0.406,1.252,0.909,1.986,1.436H4.357C3.295,30.204,2.436,31.008,2.436,32c0,0.99,0.861,1.794,1.922,1.794h7.791
					l-3.711,2.681c-0.84,0.606-0.994,1.733-0.346,2.52c0.379,0.459,0.947,0.697,1.523,0.697c0.41,0,0.824-0.123,1.174-0.377
					l7.643-5.521h8.924l-6.674,6.232c-3.912,0.499-8.041,1.005-8.809,1.063c-0.252-0.016-0.5,0.035-0.746,0.124
					c-0.988,0.36-1.477,1.402-1.092,2.326c0.555,1.328,1.637,1.202,3.598,0.978c0.723-0.082,1.625-0.19,2.574-0.309l-5.109,4.772
					c-0.752,0.7-0.752,1.838,0,2.538c0.375,0.353,0.867,0.525,1.359,0.525c0.49,0,0.982-0.173,1.357-0.525l5.375-5.02l-0.582,4.271
					c-0.135,0.982,0.611,1.883,1.664,2.008c0.082,0.011,0.164,0.016,0.244,0.016c0.953,0,1.781-0.661,1.906-1.568l1.213-8.875
					l6.441-6.017v8.711c-2.426,2.982-5.043,6.162-5.547,6.719c-0.182,0.161-0.332,0.359-0.438,0.587
					c-0.42,0.911,0.027,1.968,1.002,2.36c0.305,0.124,0.576,0.183,0.826,0.183c0.887,0,1.5-0.734,2.449-1.87
					c0.479-0.572,1.082-1.304,1.707-2.064v6.85c0,0.993,0.861,1.796,1.924,1.796c1.061,0,1.922-0.803,1.922-1.796v-6.904
					l2.697,3.258c0.65,0.784,1.857,0.928,2.697,0.321s0.996-1.734,0.346-2.52l-5.74-6.928v-8.702l6.447,6.02
					c0.549,3.762,1.127,7.86,1.193,8.602c-0.008,0.235,0.037,0.479,0.139,0.713c0.301,0.7,1.023,1.126,1.783,1.126
					c0.24,0,0.482-0.042,0.719-0.131c1.4-0.526,1.26-1.589,1.029-3.351c-0.102-0.768-0.238-1.759-0.383-2.774l5.336,4.98
					c0.377,0.353,0.867,0.525,1.359,0.525s0.984-0.173,1.359-0.525c0.75-0.699,0.75-1.838,0-2.539l-5.152-4.81l4.178,0.497
					c1.049,0.123,2.014-0.569,2.15-1.553c0.135-0.982-0.611-1.883-1.664-2.011l-9.107-1.083l-6.664-6.226h8.928
					c3.256,2.311,6.811,4.857,7.426,5.342c0.172,0.169,0.383,0.311,0.631,0.411c0.248,0.1,0.506,0.146,0.758,0.146
					c0.746,0,1.455-0.407,1.77-1.085c0.598-1.301-0.258-1.925-1.811-3.057c-0.668-0.487-1.541-1.115-2.436-1.757h7.732
					c1.061,0,1.922-0.804,1.922-1.796C61.562,31.008,60.701,30.206,59.639,30.206z"/>
			</g>
		</g>
	</g>
</g>
</svg>
