<?xml version="1.0" encoding="iso-8859-1"?>
<!-- Generator: Adobe Illustrator 15.0.0, SVG Export Plug-In . SVG Version: 6.00 Build 0)  -->
<!DOCTYPE svg PUBLIC "-//W3C//DTD SVG 1.1//EN" "http://www.w3.org/Graphics/SVG/1.1/DTD/svg11.dtd">
<svg version="1.1" id="Layer_1" xmlns="http://www.w3.org/2000/svg" xmlns:xlink="http://www.w3.org/1999/xlink" x="0px" y="0px"
	 width="64px" height="64px" viewBox="0 0 64 64" style="enable-background:new 0 0 64 64;" xml:space="preserve">
<g>
	<path id="rect2995" style="fill:#010101;" d="M13.894,8.148c-3.198,0-5.788,2.59-5.788,5.789s2.59,5.793,5.788,5.793
		s5.788-2.594,5.788-5.793S17.092,8.148,13.894,8.148z M44.216,23.227c-0.654-0.002-1.29,0.025-2.121,0.068
		c-1.821,0.094-6.07,2.061-7.627,5.205c0-1.365,0.016-2.617,0.016-4.486c-1.865,0-4.303,0.01-9.399,0.01
		c0,5.711-0.062,25.936-0.062,31.828h9.866c0-3.496,0.048-12.277,0.048-17.791c0-1.852,1.119-6.129,5.721-6.129
		c4.177,0,5.351,3.516,5.351,6.129c0,5.742-0.042,13.861-0.042,17.791h9.924c0-3.842,0.036-14.275-0.082-20.861
		c-0.144-7.994-5.008-11.404-9.373-11.674C45.537,23.26,44.869,23.229,44.216,23.227z M8.938,24.148v31.688h9.895V24.148H8.938z"/>
</g>
</svg>
