<?xml version="1.0" encoding="iso-8859-1"?>
<!-- Generator: Adobe Illustrator 15.0.0, SVG Export Plug-In . SVG Version: 6.00 Build 0)  -->
<!DOCTYPE svg PUBLIC "-//W3C//DTD SVG 1.1//EN" "http://www.w3.org/Graphics/SVG/1.1/DTD/svg11.dtd">
<svg version="1.1" id="Layer_1" xmlns="http://www.w3.org/2000/svg" xmlns:xlink="http://www.w3.org/1999/xlink" x="0px" y="0px"
	 width="64px" height="64px" viewBox="0 0 64 64" style="enable-background:new 0 0 64 64;" xml:space="preserve">
<path d="M58.696,15.44c-1.964,0.871-4.075,1.461-6.292,1.723c2.261-1.354,3.999-3.501,4.817-6.058
	c-2.117,1.252-4.46,2.168-6.956,2.657c-1.998-2.129-4.846-3.459-8-3.459c-6.05,0-10.95,4.902-10.95,10.952
	c0,0.859,0.097,1.697,0.282,2.497c-9.104-0.456-17.175-4.817-22.58-11.444c-0.94,1.619-1.48,3.5-1.48,5.508
	c0,3.802,1.934,7.151,4.871,9.118c-1.793-0.06-3.482-0.549-4.959-1.368c-0.002,0.044-0.002,0.092-0.002,0.136
	c0,5.309,3.775,9.736,8.785,10.742c-0.918,0.25-1.885,0.383-2.887,0.383c-0.706,0-1.392-0.067-2.057-0.196
	c1.392,4.352,5.438,7.518,10.229,7.609c-3.745,2.937-8.468,4.689-13.602,4.689c-0.885,0-1.757-0.05-2.613-0.152
	c4.845,3.105,10.604,4.919,16.792,4.919c20.146,0,31.166-16.69,31.166-31.168c0-0.474-0.014-0.948-0.033-1.419
	C55.37,19.566,57.225,17.639,58.696,15.44z"/>
</svg>
