<?xml version="1.0" encoding="iso-8859-1"?>
<!-- Generator: Adobe Illustrator 15.0.0, SVG Export Plug-In . SVG Version: 6.00 Build 0)  -->
<!DOCTYPE svg PUBLIC "-//W3C//DTD SVG 1.1//EN" "http://www.w3.org/Graphics/SVG/1.1/DTD/svg11.dtd">
<svg version="1.1" id="Layer_1" xmlns="http://www.w3.org/2000/svg" xmlns:xlink="http://www.w3.org/1999/xlink" x="0px" y="0px"
	 width="64px" height="64px" viewBox="0 0 64 64" style="enable-background:new 0 0 64 64;" xml:space="preserve">
<g>
	<path d="M40.309,29.165c-0.016,0.071-0.033,0.161-0.047,0.222l-0.536,2.512l0.564-2.647L40.309,29.165"/>
	<polyline points="24.225,30.847 23.928,31.896 24.225,30.847 24.225,30.847 	"/>
	<path d="M46.104,8.505c0.797,1.81,1.313,4.815,0.542,7.016c3.15,2.689,4.232,9.228,2.713,14.569
		c4.489,0.343,9.837-0.163,13.288,1.214c-3.228-0.415-7.634-1.229-11.795-0.945c-0.788,0.053-1.958-0.03-1.9,1.079
		c4.818,0.378,9.604,0.79,13.561,2.024c-3.923-0.641-8.686-1.616-13.561-1.753c-2.013,3.974-6.067,5.927-11.661,6.339
		c0.601,1.308,1.754,1.807,2.036,3.911c0.418,3.146-0.658,7.751,0.404,9.847c0.508,1.005,1.338,1.031,1.899,1.891
		c-1.371,1.622-4.769-0.183-5.154-1.891c-0.662-2.925,1.01-7.459-0.813-9.441c0.13,3.189-0.754,7.671,0.136,10.521
		c0.352,1.122,1.364,1.554,1.085,2.564c-6.369,0.646-3.707-8.243-4.748-13.49c-0.96,0.068-0.539,1.439-0.542,2.023
		c-0.027,5.126,1.049,12.152-4.474,11.467c-0.162-1.076,0.74-1.442,1.083-2.427c1.01-2.883-0.188-7.179,0.274-10.658
		c-2.107,1.589,0.221,7.137-1.085,9.981c-0.753,1.638-3.178,2.35-5.017,1.619c0.238-1.221,1.498-1.022,2.032-2.159
		c0.745-1.583,0.005-3.863,0.272-6.204c-3.903,0.778-6.929-0.112-8.409-2.563c-0.662-1.101-0.828-2.397-1.628-3.371
		c-0.798-0.976-2.07-1.108-2.439-2.428c4.831-1.163,5.017,4.972,9.356,5.125c1.331,0.048,2.022-0.385,3.253-0.674
		c0.346-1.548,1.084-2.701,2.17-3.51c-5.398-0.739-9.857-2.421-11.933-6.472c-4.909,0.242-9.4,0.897-13.561,1.887
		c3.775-1.372,8.434-1.863,13.425-2.024c-0.294-1.768-2.873-1.282-4.474-1.213c-2.976,0.131-6.721,0.501-9.087,0.945
		c3.43-1.223,8.24-1.07,12.885-1.079c-1.421-4.454-0.93-11.529,2.168-14.164c-0.876-2.213-0.604-5.832,0.544-7.556
		c3.458,0.155,5.556,1.664,7.729,3.104c2.695-0.767,5.528-1.147,9.221-0.945c1.555,0.087,3.169,0.784,4.337,0.674
		c1.148-0.106,2.414-1.395,3.526-1.888C43.216,8.81,44.442,8.564,46.104,8.505"/>
</g>
</svg>
