<?xml version="1.0" encoding="iso-8859-1"?>
<!-- Generator: Adobe Illustrator 15.0.0, SVG Export Plug-In . SVG Version: 6.00 Build 0)  -->
<!DOCTYPE svg PUBLIC "-//W3C//DTD SVG 1.1//EN" "http://www.w3.org/Graphics/SVG/1.1/DTD/svg11.dtd">
<svg version="1.1" id="Layer_1" xmlns="http://www.w3.org/2000/svg" xmlns:xlink="http://www.w3.org/1999/xlink" x="0px" y="0px"
	 width="64px" height="64px" viewBox="0 0 64 64" style="enable-background:new 0 0 64 64;" xml:space="preserve">
<g>
	<path style="fill:#010101;" d="M38.917,7.486H26.039c-1.707,0-3.537,0.199-5.491,0.596c-1.973,0.465-3.874,1.447-5.705,2.953
		c-2.668,2.576-3.999,5.443-3.999,8.607c0,2.615,0.941,4.908,2.824,6.879c1.798,2.113,4.41,3.191,7.84,3.234
		c0.646,0,1.336-0.043,2.066-0.125c-0.12,0.338-0.251,0.703-0.393,1.105c-0.161,0.377-0.242,0.854-0.242,1.422
		c0,0.943,0.211,1.756,0.635,2.432c0.363,0.691,0.777,1.346,1.242,1.957c-1.504,0.039-3.391,0.229-5.663,0.562
		c-2.296,0.398-4.486,1.193-6.571,2.383c-1.857,1.107-3.142,2.395-3.848,3.855c-0.733,1.463-1.098,2.793-1.098,3.982
		c0,2.447,1.125,4.545,3.367,6.303c2.226,1.879,5.592,2.842,10.104,2.881c5.387-0.082,9.512-1.369,12.366-3.861
		c2.756-2.412,4.135-5.174,4.135-8.295c-0.042-2.197-0.544-3.977-1.508-5.34c-1.022-1.34-2.213-2.561-3.569-3.672l-2.186-1.791
		c-0.314-0.314-0.643-0.682-0.974-1.1c-0.395-0.439-0.591-0.992-0.591-1.668c0-0.689,0.192-1.295,0.575-1.818
		c0.326-0.504,0.679-0.953,1.064-1.352c0.671-0.586,1.303-1.164,1.898-1.727c0.537-0.566,1.046-1.184,1.523-1.854
		c0.979-1.385,1.49-3.225,1.526-5.529c0-1.256-0.142-2.355-0.424-3.299c-0.346-0.943-0.74-1.756-1.186-2.449
		c-0.466-0.73-0.938-1.35-1.424-1.854c-0.505-0.48-0.958-0.848-1.365-1.098h3.971L38.917,7.486z M31.86,42.604
		c1.063,1.215,1.596,2.635,1.596,4.271c0,2.012-0.778,3.654-2.337,4.934c-1.598,1.299-3.915,1.967-6.949,2.012
		c-3.384-0.045-6.049-0.797-7.998-2.262c-2.049-1.467-3.071-3.332-3.071-5.594c0-1.152,0.232-2.135,0.706-2.951
		c0.408-0.777,0.911-1.428,1.506-1.949c0.616-0.502,1.221-0.891,1.814-1.162c0.595-0.252,1.055-0.441,1.383-0.566
		c1.395-0.418,2.76-0.723,4.092-0.91c1.352-0.127,2.193-0.166,2.521-0.127c0.552,0,1.034,0.02,1.445,0.062
		C28.969,40.039,30.73,41.451,31.86,42.604z M29.769,23.654c-0.155,0.861-0.505,1.701-1.052,2.518
		c-1.128,1.156-2.541,1.766-4.236,1.828c-1.343,0-2.534-0.408-3.576-1.229c-1.046-0.818-1.896-1.814-2.557-2.988
		c-1.363-2.521-2.043-4.941-2.043-7.27c-0.044-1.764,0.423-3.357,1.398-4.783c1.157-1.365,2.607-2.068,4.353-2.111
		c1.318,0.043,2.485,0.434,3.5,1.164c0.995,0.775,1.796,1.785,2.405,3.021c1.299,2.578,1.949,5.141,1.949,7.678
		C29.91,22.072,29.861,22.793,29.769,23.654z"/>
	<polygon style="fill:#010101;" points="49.607,14.52 49.607,7.762 46.333,7.762 46.333,14.52 39.577,14.52 39.577,17.793 
		46.333,17.793 46.333,24.551 49.607,24.551 49.607,17.793 56.363,17.793 56.363,14.52 	"/>
</g>
</svg>
