<?xml version="1.0" encoding="iso-8859-1"?>
<!-- Generator: Adobe Illustrator 15.0.0, SVG Export Plug-In . SVG Version: 6.00 Build 0)  -->
<!DOCTYPE svg PUBLIC "-//W3C//DTD SVG 1.1//EN" "http://www.w3.org/Graphics/SVG/1.1/DTD/svg11.dtd">
<svg version="1.1" id="Layer_1" xmlns="http://www.w3.org/2000/svg" xmlns:xlink="http://www.w3.org/1999/xlink" x="0px" y="0px"
	 width="64px" height="64px" viewBox="0 0 64 64" style="enable-background:new 0 0 64 64;" xml:space="preserve">
<g>
	<defs>
		<rect id="SVGID_1_" x="5.517" y="5.516" width="52.967" height="52.969"/>
	</defs>
	<clipPath id="SVGID_2_">
		<use xlink:href="#SVGID_1_"  style="overflow:visible;"/>
	</clipPath>
	<g style="clip-path:url(#SVGID_2_);">
		<defs>
			<rect id="SVGID_3_" x="5.517" y="5.516" width="52.967" height="52.969"/>
		</defs>
		<clipPath id="SVGID_4_">
			<use xlink:href="#SVGID_3_"  style="overflow:visible;"/>
		</clipPath>
		<g style="clip-path:url(#SVGID_4_);">
			<defs>
				<rect id="SVGID_5_" x="5.517" y="5.516" width="52.967" height="52.969"/>
			</defs>
			<clipPath id="SVGID_6_">
				<use xlink:href="#SVGID_5_"  style="overflow:visible;"/>
			</clipPath>
			<g style="clip-path:url(#SVGID_6_);">
				<defs>
					<rect id="SVGID_7_" x="5.517" y="5.516" width="52.967" height="52.969"/>
				</defs>
				<clipPath id="SVGID_8_">
					<use xlink:href="#SVGID_7_"  style="overflow:visible;"/>
				</clipPath>
				<path style="clip-path:url(#SVGID_8_);fill:#010101;" d="M42.267,39.587c-2.506,0-4.768,1.062-6.371,2.753l-6.803-5.558
					c0.898-1.38,1.426-3.021,1.426-4.782c0-1.802-0.545-3.476-1.479-4.872l6.928-5.39c1.598,1.646,3.832,2.675,6.299,2.675
					c4.846,0,8.787-3.941,8.787-8.786c0-4.847-3.941-8.788-8.787-8.788c-4.842,0-8.785,3.941-8.785,8.788
					c0,1.801,0.545,3.476,1.479,4.871l-6.928,5.392c-1.6-1.646-3.83-2.676-6.299-2.676c-4.844,0-8.787,3.941-8.787,8.786
					s3.941,8.786,8.787,8.786c2.508,0,4.768-1.062,6.369-2.752l6.805,5.56c-0.898,1.376-1.426,3.017-1.426,4.779
					c0,4.845,3.943,8.788,8.785,8.788c4.846,0,8.787-3.941,8.787-8.788C51.054,43.528,47.112,39.587,42.267,39.587z"/>
			</g>
		</g>
	</g>
</g>
</svg>
