<?xml version="1.0" encoding="iso-8859-1"?>
<!-- Generator: Adobe Illustrator 15.0.0, SVG Export Plug-In . SVG Version: 6.00 Build 0)  -->
<!DOCTYPE svg PUBLIC "-//W3C//DTD SVG 1.1//EN" "http://www.w3.org/Graphics/SVG/1.1/DTD/svg11.dtd">
<svg version="1.1" id="Layer_1" xmlns="http://www.w3.org/2000/svg" xmlns:xlink="http://www.w3.org/1999/xlink" x="0px" y="0px"
	 width="64px" height="64px" viewBox="0 0 64 64" style="enable-background:new 0 0 64 64;" xml:space="preserve">
<g>
	<path style="fill:#010101;" d="M14.021,43.459c-1.796,0-3.407,0.727-4.591,1.906v-0.002c-1.182,1.18-1.907,2.791-1.907,4.58
		c0,1.787,0.726,3.393,1.907,4.572c1.184,1.18,2.795,1.902,4.591,1.902c1.797,0,3.415-0.721,4.597-1.9l0.005-0.002
		c1.183-1.18,1.903-2.785,1.907-4.572c-0.004-1.789-0.725-3.395-1.912-4.578C17.434,44.186,15.818,43.459,14.021,43.459z"/>
	<path style="fill:#010101;" d="M9.431,54.518c0,0,0,0,0-0.002c-0.002,0-0.002,0-0.002,0L9.431,54.518z"/>
	<path style="fill:#010101;" d="M18.618,45.363v0.002c0.004,0,0.004,0,0.004,0L18.618,45.363z"/>
	<path style="fill:#010101;" d="M42.12,21.887C33.254,13.02,21.034,7.529,7.544,7.523v9.344
		c21.814,0.016,39.547,17.773,39.562,39.609h9.371C56.469,42.98,50.985,30.756,42.12,21.887z"/>
	<path style="fill:#010101;" d="M7.528,24.168v9.35c6.102,0.002,11.874,2.4,16.193,6.727c4.318,4.311,6.705,10.09,6.715,16.215
		h0.004v0.018h9.385c-0.008-8.904-3.627-16.969-9.478-22.826C24.493,27.797,16.433,24.176,7.528,24.168z"/>
</g>
</svg>
