<?xml version="1.0" encoding="iso-8859-1"?>
<!-- Generator: Adobe Illustrator 15.0.0, SVG Export Plug-In . SVG Version: 6.00 Build 0)  -->
<!DOCTYPE svg PUBLIC "-//W3C//DTD SVG 1.1//EN" "http://www.w3.org/Graphics/SVG/1.1/DTD/svg11.dtd">
<svg version="1.1" id="Layer_1" xmlns="http://www.w3.org/2000/svg" xmlns:xlink="http://www.w3.org/1999/xlink" x="0px" y="0px"
	 width="64px" height="64px" viewBox="0 0 64 64" style="enable-background:new 0 0 64 64;" xml:space="preserve">
<g>
	<g>
		<path style="fill:#010101;" d="M32.939,15.312c6.808,0,12.376,0.113,17.526,0.344h0.073h0.073c2.409,0,4.38,2.295,4.38,5.119
			v0.115l0.01,0.115c0.24,3.545,0.355,7.225,0.355,10.938l0,0l0,0c0.009,3.713-0.115,7.393-0.355,10.938l-0.01,0.115v0.115
			c0,1.438-0.49,2.771-1.398,3.764c-0.812,0.896-1.876,1.396-2.981,1.396h-0.084h-0.084c-5.515,0.262-11.343,0.396-17.35,0.396
			c-0.364,0-0.739,0-1.104,0H32h-0.01c-0.376,0-0.751,0-1.126,0c-6.027,0-11.854-0.135-17.33-0.385H13.45h-0.083
			c-1.104,0-2.157-0.502-2.972-1.398c-0.897-0.99-1.397-2.326-1.397-3.764v-0.115l-0.01-0.115c-0.25-3.555-0.365-7.234-0.343-10.914
			v-0.012v-0.01c-0.011-3.682,0.103-7.352,0.343-10.908l0.01-0.115v-0.113c0-2.838,1.961-5.141,4.369-5.141h0.073h0.072
			c5.162-0.24,10.73-0.344,17.538-0.344h0.939h0.949 M32.939,11.975c-0.313,0-0.626,0-0.939,0c-0.312,0-0.625,0-0.938,0
			c-6.007,0-11.908,0.084-17.685,0.346c-4.254,0-7.705,3.783-7.705,8.477c-0.261,3.732-0.375,7.445-0.365,11.168
			c-0.01,3.721,0.094,7.434,0.354,11.156c0,4.691,3.452,8.508,7.706,8.508c5.714,0.271,11.543,0.396,17.497,0.396
			c0.375,0,0.762,0,1.136,0c0.375,0,0.751,0,1.117,0c5.952,0,11.781-0.125,17.505-0.396c4.265,0,7.716-3.816,7.716-8.508
			c0.252-3.723,0.365-7.445,0.354-11.166c0.011-3.725-0.103-7.436-0.354-11.168c0-4.693-3.451-8.455-7.716-8.455
			C44.847,12.059,38.955,11.975,32.939,11.975L32.939,11.975z"/>
	</g>
	<g>
		<path style="fill:#010101;" d="M26.892,42.191V21.715l15.118,10.24L26.892,42.191z"/>
	</g>
</g>
</svg>
