<?xml version="1.0" encoding="iso-8859-1"?>
<!-- Generator: Adobe Illustrator 15.0.0, SVG Export Plug-In . SVG Version: 6.00 Build 0)  -->
<!DOCTYPE svg PUBLIC "-//W3C//DTD SVG 1.1//EN" "http://www.w3.org/Graphics/SVG/1.1/DTD/svg11.dtd">
<svg version="1.1" id="Layer_1" xmlns="http://www.w3.org/2000/svg" xmlns:xlink="http://www.w3.org/1999/xlink" x="0px" y="0px"
	 width="64px" height="64px" viewBox="0 0 64 64" style="enable-background:new 0 0 64 64;" xml:space="preserve">
<g>
	<path style="fill:#010101;" d="M47.671,42.828c0-0.77-0.633-1.397-1.404-1.397h-0.191c-0.771,0-1.403,0.628-1.403,1.397
		l-0.015,1.729h2.98L47.671,42.828z"/>
	<path style="fill:#010101;" d="M37.928,24.604c0.16,0.396,0.413,0.714,0.757,0.956c0.335,0.235,0.769,0.356,1.285,0.356
		c0.452,0,0.854-0.122,1.203-0.376c0.349-0.251,0.644-0.626,0.884-1.127l-0.06,1.233H45.5V10.746h-2.759v11.599
		c0,0.626-0.519,1.141-1.15,1.141c-0.627,0-1.148-0.515-1.148-1.141V10.746h-2.878v10.05c0,1.28,0.023,2.135,0.061,2.567
		C37.666,23.794,37.765,24.206,37.928,24.604z"/>
	<path style="fill:#010101;" d="M27.309,20.134c0,1.306,0.062,2.286,0.195,2.938c0.131,0.652,0.348,1.212,0.657,1.672
		c0.308,0.458,0.737,0.803,1.292,1.032c0.554,0.23,1.228,0.34,2.025,0.34c0.716,0,1.349-0.13,1.901-0.399
		c0.548-0.265,0.999-0.683,1.351-1.238c0.354-0.562,0.583-1.163,0.688-1.811c0.106-0.645,0.162-1.663,0.162-3.044v-3.769
		c0-1.092-0.057-1.903-0.175-2.439c-0.115-0.53-0.33-1.05-0.649-1.554c-0.311-0.501-0.762-0.908-1.344-1.221
		c-0.581-0.312-1.276-0.472-2.086-0.472c-0.963,0-1.756,0.244-2.375,0.734c-0.62,0.484-1.051,1.132-1.288,1.933
		c-0.235,0.806-0.355,1.923-0.355,3.352V20.134L27.309,20.134z M30.052,14.176c0-0.843,0.63-1.532,1.395-1.532
		s1.39,0.689,1.39,1.532v7.933c0,0.843-0.625,1.532-1.39,1.532s-1.395-0.689-1.395-1.532V14.176z"/>
	<path style="fill:#010101;" d="M36.467,40.85c-0.753,0-1.371,0.509-1.371,1.13v8.411c0,0.622,0.618,1.127,1.371,1.127
		c0.76,0,1.378-0.505,1.378-1.127v-8.411C37.846,41.358,37.227,40.85,36.467,40.85z"/>
	<polygon style="fill:#010101;" points="20.354,26.113 23.661,26.113 23.664,14.685 27.571,4.895 23.955,4.895 21.878,12.168 
		19.772,4.875 16.195,4.875 20.351,14.691 	"/>
	<path style="fill:#010101;" d="M47.207,29.167H16.793c-4.07,0-7.397,3.142-7.397,6.979v16.001c0,3.837,3.326,6.978,7.397,6.978
		h30.414c4.068,0,7.397-3.141,7.397-6.978V36.146C54.604,32.309,51.275,29.167,47.207,29.167z M15.677,53.884V36.981l-3.138-0.009
		v-2.456l10.051,0.017v2.497l-3.771-0.001l0.002,16.854H15.677z M30.122,53.879l-2.523-0.004l0.007-1.857
		c-0.679,1.456-3.39,2.628-4.803,1.607c-0.76-0.543-0.731-1.497-0.809-2.315c-0.042-0.463-0.01-1.483-0.01-2.851l-0.012-8.918H25.1
		l0.014,9.06c0.001,1.237-0.065,1.958,0.01,2.197c0.447,1.363,1.596,0.623,1.853-0.075c0.082-0.229,0.005-0.88,0.005-2.183v-8.999
		h3.143L30.122,53.879L30.122,53.879z M34.809,52.522l-0.235,1.198l-2.581,0.037l0.016-19.223l3.14-0.005l-0.012,5.57
		c2.901-2.311,5.035-0.602,5.038,2.255l0.006,7.49C40.185,53.477,38.11,55.552,34.809,52.522z M42.075,48.864v-4.466
		c0-1.342,0.132-2.395,0.399-3.167c0.266-0.772,0.723-1.347,1.32-1.776c1.904-1.374,5.673-0.949,6.058,1.737
		c0.123,0.848,0.161,2.332,0.161,3.816v2.03h-5.396v1.868v1.447v0.145c0,0.704,0.58,1.278,1.289,1.278h0.461
		c0.706,0,1.287-0.574,1.287-1.278v-1.314c0.002-0.117,0.006-0.226,0.006-0.319l2.358-0.012
		C51.093,55.239,42.075,56.289,42.075,48.864z"/>
</g>
</svg>
