<?xml version="1.0" encoding="iso-8859-1"?>
<!-- Generator: Adobe Illustrator 15.0.0, SVG Export Plug-In . SVG Version: 6.00 Build 0)  -->
<!DOCTYPE svg PUBLIC "-//W3C//DTD SVG 1.1//EN" "http://www.w3.org/Graphics/SVG/1.1/DTD/svg11.dtd">
<svg version="1.1" id="Layer_1" xmlns="http://www.w3.org/2000/svg" xmlns:xlink="http://www.w3.org/1999/xlink" x="0px" y="0px"
	 width="64px" height="64px" viewBox="0 0 64 64" style="enable-background:new 0 0 64 64;" xml:space="preserve">
<g>
	<path style="fill:#010101;" d="M33.3,2.612c-15.143,0-22.774,11.499-22.774,21.091c0,5.807,2.076,10.972,6.526,12.897
		c0.729,0.312,1.382,0.009,1.596-0.849c0.146-0.591,0.494-2.083,0.649-2.707c0.214-0.846,0.131-1.142-0.458-1.882
		c-1.285-1.605-2.103-3.68-2.103-6.62c0-8.529,6.023-16.17,15.686-16.17c8.563,0,13.264,5.54,13.264,12.937
		c0,9.736-4.067,17.95-10.104,17.95c-3.335,0-5.83-2.92-5.03-6.501c0.958-4.277,2.812-8.894,2.812-11.979
		c0-2.766-1.399-5.07-4.295-5.07c-3.407,0-6.146,3.735-6.146,8.739c0,3.187,1.014,5.342,1.014,5.342s-3.485,15.652-4.096,18.394
		c-1.218,5.462-0.185,12.157-0.098,12.832c0.049,0.399,0.541,0.494,0.757,0.194c0.317-0.438,4.375-5.745,5.757-11.049
		c0.386-1.504,2.239-9.279,2.239-9.279c1.105,2.236,4.341,4.208,7.784,4.208c10.246,0,17.194-9.895,17.194-23.139
		C53.475,11.937,45.467,2.612,33.3,2.612z"/>
</g>
</svg>
