<?xml version="1.0" encoding="iso-8859-1"?>
<!-- Generator: Adobe Illustrator 15.0.0, SVG Export Plug-In . SVG Version: 6.00 Build 0)  -->
<!DOCTYPE svg PUBLIC "-//W3C//DTD SVG 1.1//EN" "http://www.w3.org/Graphics/SVG/1.1/DTD/svg11.dtd">
<svg version="1.1" id="Layer_1" xmlns="http://www.w3.org/2000/svg" xmlns:xlink="http://www.w3.org/1999/xlink" x="0px" y="0px"
	 width="64px" height="64px" viewBox="0 0 64 64" style="enable-background:new 0 0 64 64;" xml:space="preserve">
<g>
	<path d="M32,5.959C17.619,5.959,5.959,17.619,5.959,32S17.619,58.041,32,58.041S58.041,46.381,58.041,32S46.381,5.959,32,5.959z
		 M49.226,17.804c3.135,3.807,5.031,8.671,5.082,13.97c-0.324-0.066-7.889-1.693-15.568-0.726c-0.155-0.384-0.316-0.769-0.479-1.16
		c-0.467-1.089-0.968-2.173-1.487-3.241C45.599,23.045,49.181,17.862,49.226,17.804z M31.964,9.652
		c5.657,0,10.826,2.107,14.761,5.574c-0.053,0.084-3.236,4.929-11.672,8.092c-3.82-7.019-8.021-12.589-8.355-13.039
		C28.388,9.872,30.15,9.652,31.964,9.652z M22.43,11.788c0.297,0.396,4.429,6.003,8.298,12.877
		c-10.731,2.853-20.045,2.736-20.633,2.73C11.544,20.474,16.195,14.729,22.43,11.788z M9.616,32c0-0.239,0.01-0.471,0.019-0.711
		c0.395,0.013,11.438,0.264,22.946-3.184c0.639,1.256,1.252,2.528,1.812,3.799c-0.295,0.085-0.59,0.172-0.883,0.27
		c-12.059,3.898-18.178,14.748-18.178,14.748s0.009,0.007,0.011,0.013C11.781,42.977,9.616,37.742,9.616,32z M31.964,54.348
		c-5.182,0-9.941-1.777-13.732-4.738c0.041-0.087,4.347-9.354,17.538-13.955c0.049-0.015,0.098-0.027,0.144-0.049
		c3.146,8.175,4.444,15.021,4.777,16.974C38.007,53.718,35.059,54.348,31.964,54.348z M44.455,50.536
		c-0.231-1.347-1.419-7.905-4.351-15.963c7.212-1.156,13.465,0.825,13.926,0.971C53.037,41.776,49.472,47.151,44.455,50.536z"/>
</g>
</svg>
