<?xml version="1.0" encoding="iso-8859-1"?>
<!-- Generator: Adobe Illustrator 15.0.0, SVG Export Plug-In . SVG Version: 6.00 Build 0)  -->
<!DOCTYPE svg PUBLIC "-//W3C//DTD SVG 1.1//EN" "http://www.w3.org/Graphics/SVG/1.1/DTD/svg11.dtd">
<svg version="1.1" id="Layer_1" xmlns="http://www.w3.org/2000/svg" xmlns:xlink="http://www.w3.org/1999/xlink" x="0px" y="0px"
	 width="64px" height="64px" viewBox="0 0 64 64" style="enable-background:new 0 0 64 64;" xml:space="preserve">
<path style="fill:#010101;" d="M57.359,36.006c0.205-1.307,0.315-2.644,0.315-4.007C57.675,17.818,46.18,6.324,32,6.324
	c-1.362,0-2.701,0.112-4.007,0.315c-2.365-1.461-5.154-2.309-8.146-2.309c-8.567,0-15.515,6.944-15.515,15.514
	c0,2.99,0.848,5.778,2.31,8.148c-0.202,1.309-0.313,2.64-0.313,4.006c0,14.179,11.494,25.67,25.672,25.67
	c1.36,0,2.701-0.104,4.007-0.312c2.366,1.462,5.157,2.312,8.147,2.312c8.569,0,15.514-6.948,15.514-15.519
	C59.668,41.162,58.822,38.373,57.359,36.006z M44.188,43.674c-1.086,1.564-2.681,2.788-4.767,3.665
	c-2.088,0.88-4.559,1.317-7.408,1.317c-3.418,0-6.248-0.597-8.48-1.803c-1.582-0.865-2.87-2.026-3.862-3.472
	c-0.99-1.448-1.494-2.866-1.494-4.248c0-0.814,0.312-1.525,0.918-2.103c0.611-0.581,1.4-0.875,2.329-0.875
	c0.762,0,1.415,0.23,1.949,0.687c0.528,0.453,0.971,1.113,1.334,1.984c0.435,1.011,0.907,1.855,1.411,2.528
	c0.497,0.666,1.2,1.221,2.112,1.657c0.9,0.436,2.096,0.653,3.595,0.653c2.053,0,3.711-0.442,4.979-1.319
	c1.274-0.883,1.888-1.958,1.888-3.256c0-1.037-0.331-1.86-1.008-2.501c-0.684-0.648-1.566-1.146-2.661-1.489
	c-1.1-0.348-2.576-0.72-4.426-1.108c-2.483-0.541-4.562-1.174-6.243-1.898c-1.685-0.726-3.027-1.722-4.02-2.978
	c-0.997-1.269-1.494-2.845-1.494-4.712c0-1.782,0.521-3.374,1.573-4.76c1.051-1.389,2.569-2.452,4.55-3.195
	c1.974-0.74,4.296-1.11,6.957-1.11c2.128,0,3.968,0.247,5.527,0.737c1.553,0.492,2.848,1.145,3.884,1.962
	c1.03,0.814,1.785,1.676,2.268,2.577c0.478,0.907,0.719,1.79,0.719,2.651c0,0.804-0.312,1.53-0.916,2.169
	c-0.606,0.639-1.38,0.964-2.287,0.961c-0.814,0-1.454-0.188-1.899-0.586c-0.432-0.386-0.885-0.999-1.375-1.854
	c-0.623-1.195-1.365-2.123-2.23-2.789c-0.841-0.651-2.23-0.993-4.162-0.989c-1.788,0-3.218,0.365-4.298,1.08
	c-1.087,0.727-1.608,1.568-1.608,2.557c0,0.619,0.178,1.14,0.537,1.586c0.361,0.449,0.867,0.839,1.518,1.168
	c0.65,0.334,1.311,0.593,1.977,0.778c0.67,0.189,1.785,0.465,3.336,0.829c1.945,0.421,3.709,0.889,5.293,1.399
	c1.581,0.513,2.931,1.13,4.046,1.868c1.124,0.734,2.004,1.671,2.629,2.802c0.631,1.133,0.946,2.517,0.946,4.145
	C45.823,40.352,45.277,42.113,44.188,43.674z"/>
</svg>
