<?xml version="1.0" encoding="iso-8859-1"?>
<!-- Generator: Adobe Illustrator 15.0.0, SVG Export Plug-In . SVG Version: 6.00 Build 0)  -->
<!DOCTYPE svg PUBLIC "-//W3C//DTD SVG 1.1//EN" "http://www.w3.org/Graphics/SVG/1.1/DTD/svg11.dtd">
<svg version="1.1" id="Layer_1" xmlns="http://www.w3.org/2000/svg" xmlns:xlink="http://www.w3.org/1999/xlink" x="0px" y="0px"
	 width="64px" height="64px" viewBox="0 0 64 64" style="enable-background:new 0 0 64 64;" xml:space="preserve">
<g>
	<path style="fill:#010101;" d="M45.944,24.412l-2.787,2.231c1.264,1.583,2.123,3.369,2.123,5.355c0,1.988-0.855,3.773-2.123,5.356
		l2.787,2.231c1.592-1.987,2.905-4.576,2.905-7.588C48.849,28.988,47.54,26.399,45.944,24.412z"/>
	<path style="fill:#010101;" d="M39.7,10.577c-0.268,0-0.667,0.178-0.935,0.445L24.566,23.52c-0.268,0.224-0.801,0.446-1.158,0.446
		h-7.588c-0.356,0-0.669,0.312-0.669,0.67v14.729c0,0.357,0.313,0.669,0.669,0.669h7.588c0.357,0,0.89,0.179,1.158,0.447
		l14.199,12.496c0.268,0.224,0.711,0.446,0.935,0.446c0.223,0,0.446-0.312,0.446-0.67V11.246
		C40.146,10.89,39.967,10.577,39.7,10.577z"/>
</g>
</svg>
