<?xml version="1.0" encoding="iso-8859-1"?>
<!-- Generator: Adobe Illustrator 15.0.0, SVG Export Plug-In . SVG Version: 6.00 Build 0)  -->
<!DOCTYPE svg PUBLIC "-//W3C//DTD SVG 1.1//EN" "http://www.w3.org/Graphics/SVG/1.1/DTD/svg11.dtd">
<svg version="1.1" id="Layer_1" xmlns="http://www.w3.org/2000/svg" xmlns:xlink="http://www.w3.org/1999/xlink" x="0px" y="0px"
	 width="64px" height="64px" viewBox="0 0 64 64" style="enable-background:new 0 0 64 64;" xml:space="preserve">
<g>
	<path style="fill:#010101;" d="M40.587,24.412L37.8,26.645c1.264,1.582,2.123,3.368,2.123,5.355s-0.855,3.772-2.123,5.355
		l2.787,2.231C42.18,37.6,43.493,35.011,43.493,32S42.183,26.399,40.587,24.412z M47.956,16.825l-2.568,2.567
		c3.234,3.234,5.246,7.73,5.246,12.607c0,4.879-2.011,9.376-5.246,12.606l2.568,2.568c3.907-3.907,6.25-9.344,6.25-15.175
		C54.205,26.168,51.862,20.731,47.956,16.825z"/>
	<path style="fill:#010101;" d="M34.343,10.577c-0.268,0-0.667,0.178-0.935,0.446L19.21,23.521c-0.268,0.223-0.8,0.446-1.157,0.446
		h-7.587c-0.357,0-0.67,0.312-0.67,0.669v14.729c0,0.357,0.313,0.67,0.67,0.67h7.587c0.357,0,0.889,0.179,1.157,0.446l14.199,12.496
		c0.268,0.224,0.711,0.446,0.935,0.446c0.223,0,0.446-0.312,0.446-0.669V11.247C34.79,10.89,34.611,10.577,34.343,10.577z"/>
</g>
</svg>
