<?xml version="1.0" encoding="iso-8859-1"?>
<!-- Generator: Adobe Illustrator 15.0.0, SVG Export Plug-In . SVG Version: 6.00 Build 0)  -->
<!DOCTYPE svg PUBLIC "-//W3C//DTD SVG 1.1//EN" "http://www.w3.org/Graphics/SVG/1.1/DTD/svg11.dtd">
<svg version="1.1" id="Layer_1" xmlns="http://www.w3.org/2000/svg" xmlns:xlink="http://www.w3.org/1999/xlink" x="0px" y="0px"
	 width="64px" height="64px" viewBox="0 0 64 64" style="enable-background:new 0 0 64 64;" xml:space="preserve">
<g>
	<path style="fill:#010101;" d="M35.232,24.413l-2.787,2.231c1.264,1.583,2.122,3.369,2.122,5.355c0,1.988-0.855,3.773-2.122,5.356
		l2.787,2.232c1.592-1.987,2.904-4.576,2.904-7.588C38.137,28.989,36.827,26.4,35.232,24.413z M42.601,16.825l-2.568,2.567
		c3.234,3.234,5.246,7.731,5.246,12.607c0,4.88-2.012,9.376-5.246,12.607l2.568,2.568C46.507,43.268,48.85,37.832,48.85,32
		C48.85,26.168,46.507,20.731,42.601,16.825z M50.077,9.348l-2.457,2.457c5.02,5.02,8.368,12.5,8.368,20.194
		S52.64,47.177,47.62,52.194l2.457,2.458C55.77,48.96,59.561,40.73,59.561,32C59.561,23.271,55.77,15.042,50.077,9.348z"/>
	<path style="fill:#010101;" d="M28.987,10.577c-0.268,0-0.666,0.178-0.935,0.446L13.854,23.52
		c-0.268,0.224-0.801,0.446-1.157,0.446H5.109c-0.357,0-0.67,0.312-0.67,0.67v14.728c0,0.357,0.312,0.67,0.67,0.67h7.588
		c0.356,0,0.89,0.179,1.157,0.446l14.198,12.497c0.269,0.223,0.712,0.446,0.935,0.446c0.224,0,0.446-0.312,0.446-0.669V11.247
		C29.434,10.89,29.255,10.577,28.987,10.577z"/>
</g>
</svg>
