<?xml version="1.0" encoding="iso-8859-1"?>
<!-- Generator: Adobe Illustrator 15.0.0, SVG Export Plug-In . SVG Version: 6.00 Build 0)  -->
<!DOCTYPE svg PUBLIC "-//W3C//DTD SVG 1.1//EN" "http://www.w3.org/Graphics/SVG/1.1/DTD/svg11.dtd">
<svg version="1.1" id="Layer_1" xmlns="http://www.w3.org/2000/svg" xmlns:xlink="http://www.w3.org/1999/xlink" x="0px" y="0px"
	 width="64px" height="64px" viewBox="0 0 64 64" style="enable-background:new 0 0 64 64;" xml:space="preserve">
<path style="fill:#010101;" d="M40.67,23.589l-2.539,2.538l5.871,5.87l-5.871,5.871l2.539,2.538l5.869-5.871l5.871,5.871
	l2.539-2.538l-5.873-5.871l5.873-5.87l-2.539-2.538l-5.871,5.87L40.67,23.589z M33.598,10.577c-0.27,0-0.666,0.178-0.936,0.446
	L18.463,23.52c-0.268,0.223-0.801,0.446-1.158,0.446H9.719c-0.357,0-0.668,0.312-0.668,0.67v14.728c0,0.357,0.311,0.669,0.668,0.669
	h7.586c0.357,0,0.891,0.178,1.158,0.446l14.199,12.497c0.27,0.224,0.711,0.446,0.936,0.446c0.223,0,0.445-0.312,0.445-0.669V11.246
	C34.043,10.889,33.865,10.577,33.598,10.577z"/>
</svg>
