<?xml version="1.0" encoding="iso-8859-1"?>
<!-- Generator: Adobe Illustrator 15.0.0, SVG Export Plug-In . SVG Version: 6.00 Build 0)  -->
<!DOCTYPE svg PUBLIC "-//W3C//DTD SVG 1.1//EN" "http://www.w3.org/Graphics/SVG/1.1/DTD/svg11.dtd">
<svg version="1.1" id="Layer_1" xmlns="http://www.w3.org/2000/svg" xmlns:xlink="http://www.w3.org/1999/xlink" x="0px" y="0px"
	 width="64px" height="64px" viewBox="0 0 64 64" style="enable-background:new 0 0 64 64;" xml:space="preserve">
<path style="fill:#010101;" d="M32.042,5.381c0.74,3.113,1.883,5.896,3.424,8.346c1.54,2.451,4.284,5.484,8.236,9.104
	c3.949,3.619,6.452,6.395,7.509,8.324c1.054,1.932,1.583,3.893,1.583,5.881c0,2.768-0.912,5.074-2.739,6.918
	c-1.825,1.846-4.049,2.768-6.675,2.768c-2.224,0-4.242-0.697-6.053-2.096c-1.811-1.398-3.417-3.438-4.812-6.119
	c0.028,4.236,0.577,7.605,1.648,10.098c1.067,2.496,2.781,4.457,5.132,5.881c2.351,1.43,5.482,2.271,9.39,2.529l0.296,1.605H15.058
	l0.341-1.602c5.247,0,9.317-1.549,12.214-4.648c2.895-3.096,4.285-7.719,4.171-13.861c-1.284,2.74-2.873,4.795-4.77,6.164
	c-1.896,1.371-4.042,2.055-6.438,2.055c-2.568,0-4.77-0.938-6.608-2.812c-1.841-1.873-2.762-4.123-2.762-6.746
	c0-2.104,0.472-4.006,1.415-5.709c1.284-2.363,3.363-4.74,6.244-7.137c2.881-2.395,5.005-4.367,6.375-5.926
	c2.083-2.393,3.599-4.525,4.556-6.4C30.75,10.125,31.499,7.918,32.042,5.381z"/>
</svg>
