<?xml version="1.0" encoding="iso-8859-1"?>
<!-- Generator: Adobe Illustrator 15.0.0, SVG Export Plug-In . SVG Version: 6.00 Build 0)  -->
<!DOCTYPE svg PUBLIC "-//W3C//DTD SVG 1.1//EN" "http://www.w3.org/Graphics/SVG/1.1/DTD/svg11.dtd">
<svg version="1.1" id="Layer_1" xmlns="http://www.w3.org/2000/svg" xmlns:xlink="http://www.w3.org/1999/xlink" x="0px" y="0px"
	 width="64px" height="64px" viewBox="0 0 64 64" style="enable-background:new 0 0 64 64;" xml:space="preserve">
<g>
	<defs>
		<rect id="SVGID_1_" x="1.069" y="1.069" width="61.861" height="61.861"/>
	</defs>
	<clipPath id="SVGID_2_">
		<use xlink:href="#SVGID_1_"  style="overflow:visible;"/>
	</clipPath>
	<g style="clip-path:url(#SVGID_2_);">
		<defs>
			<rect id="SVGID_3_" x="1.069" y="1.069" width="61.861" height="61.861"/>
		</defs>
		<clipPath id="SVGID_4_">
			<use xlink:href="#SVGID_3_"  style="overflow:visible;"/>
		</clipPath>
		<g style="clip-path:url(#SVGID_4_);">
			<defs>
				<rect id="SVGID_5_" x="1.069" y="1.069" width="61.861" height="61.861"/>
			</defs>
			<clipPath id="SVGID_6_">
				<use xlink:href="#SVGID_5_"  style="overflow:visible;"/>
			</clipPath>
			<g style="clip-path:url(#SVGID_6_);">
				<defs>
					<rect id="SVGID_7_" x="1.069" y="1.069" width="61.861" height="61.861"/>
				</defs>
				<clipPath id="SVGID_8_">
					<use xlink:href="#SVGID_7_"  style="overflow:visible;"/>
				</clipPath>
				<path style="clip-path:url(#SVGID_8_);fill:#010101;" d="M52.558,25.72c0.269,0,0.542-0.052,0.808-0.16l4.983-2.04
					c1.091-0.446,1.612-1.693,1.165-2.783c-0.445-1.091-1.692-1.612-2.783-1.167l-4.984,2.039c-1.09,0.447-1.612,1.693-1.166,2.784
					C50.919,25.219,51.715,25.72,52.558,25.72z"/>
				<path style="clip-path:url(#SVGID_8_);fill:#010101;" d="M42.483,51.49c-0.456-1.086-1.707-1.599-2.795-1.143
					c-1.087,0.456-1.599,1.706-1.143,2.794l2.064,4.924c0.342,0.818,1.135,1.31,1.969,1.31c0.275,0,0.555-0.054,0.825-0.166
					c1.087-0.456,1.599-1.706,1.143-2.794L42.483,51.49z"/>
				<path style="clip-path:url(#SVGID_8_);fill:#010101;" d="M31.955,44.668c-7.08,0-12.843-5.683-12.843-12.668
					s5.763-12.669,12.843-12.669c7.082,0,12.843,5.684,12.843,12.669S39.037,44.668,31.955,44.668z M31.955,15.062
					c-9.436,0-17.112,7.599-17.112,16.938s7.677,16.937,17.112,16.937S49.067,41.339,49.067,32S41.391,15.062,31.955,15.062z"/>
				<path style="clip-path:url(#SVGID_8_);fill:#010101;" d="M24.311,50.348c-1.086-0.456-2.337,0.057-2.793,1.144l-2.064,4.925
					c-0.455,1.087,0.057,2.338,1.145,2.793c0.269,0.113,0.548,0.168,0.823,0.168c0.834,0,1.627-0.492,1.97-1.311l2.063-4.925
					C25.91,52.054,25.398,50.803,24.311,50.348z"/>
				<path style="clip-path:url(#SVGID_8_);fill:#010101;" d="M58.348,40.479l-4.983-2.039c-1.09-0.447-2.338,0.075-2.784,1.166
					c-0.447,1.091,0.076,2.338,1.166,2.784l4.984,2.039c0.264,0.109,0.538,0.16,0.808,0.16c0.841,0,1.638-0.501,1.976-1.327
					C59.961,42.172,59.438,40.926,58.348,40.479z"/>
				<path style="clip-path:url(#SVGID_8_);fill:#010101;" d="M39.688,13.651c0.27,0.113,0.55,0.167,0.825,0.167
					c0.834,0,1.626-0.492,1.97-1.311l2.063-4.924c0.455-1.087-0.056-2.338-1.144-2.794c-1.086-0.456-2.338,0.057-2.793,1.144
					l-2.064,4.925C38.09,11.945,38.602,13.196,39.688,13.651z"/>
				<path style="clip-path:url(#SVGID_8_);fill:#010101;" d="M12.253,21.608L7.27,19.569c-1.092-0.445-2.338,0.076-2.783,1.167
					c-0.447,1.09,0.075,2.337,1.166,2.783l4.982,2.04c0.265,0.108,0.538,0.16,0.808,0.16c0.841,0,1.638-0.501,1.977-1.327
					C13.866,23.302,13.343,22.055,12.253,21.608z"/>
				<path style="clip-path:url(#SVGID_8_);fill:#010101;" d="M21.518,12.508c0.342,0.818,1.135,1.311,1.969,1.311
					c0.275,0,0.556-0.054,0.824-0.167c1.088-0.455,1.6-1.706,1.144-2.793L23.39,5.934c-0.454-1.087-1.706-1.6-2.794-1.144
					c-1.086,0.455-1.598,1.707-1.143,2.794L21.518,12.508z"/>
				<path style="clip-path:url(#SVGID_8_);fill:#010101;" d="M10.635,38.439l-4.982,2.039c-1.091,0.446-1.613,1.693-1.166,2.784
					c0.338,0.826,1.135,1.327,1.975,1.327c0.271,0,0.544-0.052,0.809-0.161l4.983-2.039c1.09-0.446,1.613-1.693,1.166-2.784
					C12.973,38.516,11.727,37.993,10.635,38.439z"/>
			</g>
		</g>
	</g>
</g>
</svg>
