<?xml version="1.0" encoding="iso-8859-1"?>
<!-- Generator: Adobe Illustrator 15.0.0, SVG Export Plug-In . SVG Version: 6.00 Build 0)  -->
<!DOCTYPE svg PUBLIC "-//W3C//DTD SVG 1.1//EN" "http://www.w3.org/Graphics/SVG/1.1/DTD/svg11.dtd">
<svg version="1.1" id="Layer_1" xmlns="http://www.w3.org/2000/svg" xmlns:xlink="http://www.w3.org/1999/xlink" x="0px" y="0px"
	 width="64px" height="64px" viewBox="0 0 64 64" style="enable-background:new 0 0 64 64;" xml:space="preserve">
<path style="fill:#010101;" d="M32,56.469c-1.144,0-2.271-0.085-3.375-0.237v-8.562c1.087,0.23,2.215,0.362,3.375,0.362
	c8.568,0,15.547-6.728,15.988-15.188h8.458C56,45.947,45.209,56.469,32,56.469z M30.312,7.597v8.463
	C22.25,16.903,15.969,23.716,15.969,32c0,0.284,0.028,0.562,0.041,0.844H7.554C7.543,32.562,7.531,32.281,7.531,32
	C7.531,19.075,17.606,8.466,30.312,7.597z M18.5,32c0-7.443,6.057-13.5,13.5-13.5S45.5,24.557,45.5,32S39.443,45.5,32,45.5
	S18.5,39.443,18.5,32z M32,5C17.088,5,5,17.088,5,32s12.088,27,27,27s27-12.088,27-27S46.912,5,32,5z"/>
</svg>
