<?xml version="1.0" encoding="iso-8859-1"?>
<!-- Generator: Adobe Illustrator 15.0.0, SVG Export Plug-In . SVG Version: 6.00 Build 0)  -->
<!DOCTYPE svg PUBLIC "-//W3C//DTD SVG 1.1//EN" "http://www.w3.org/Graphics/SVG/1.1/DTD/svg11.dtd">
<svg version="1.1" id="Layer_1" xmlns="http://www.w3.org/2000/svg" xmlns:xlink="http://www.w3.org/1999/xlink" x="0px" y="0px"
	 width="64px" height="64px" viewBox="0 0 64 64" style="enable-background:new 0 0 64 64;" xml:space="preserve">
<g>
	<path style="fill:#010101;" d="M7.523,40.909l6.549-2.59c0,0-6.042-11.407,6.581-20.23c0,0,7.89-5.035,16.54-1.601l2.689-6.15
		c0,0-13.134-5.136-24.164,2.86C15.716,13.198,0.343,22.674,7.523,40.909z"/>
	<polygon style="fill:#010101;" points="40.862,2.82 32.263,22.497 47.109,16.671 	"/>
	<path style="fill:#010101;" d="M56.479,23.105l-6.549,2.585c0,0,6.033,11.409-6.594,20.229c0,0-7.896,5.03-16.544,1.596
		l-2.69,6.144c0,0,13.133,5.146,24.17-2.85C48.275,50.812,63.653,41.341,56.479,23.105z"/>
	<polygon style="fill:#010101;" points="23.126,61.18 31.731,41.503 16.881,47.329 	"/>
</g>
</svg>
