<?xml version="1.0" encoding="iso-8859-1"?>
<!-- Generator: Adobe Illustrator 15.0.0, SVG Export Plug-In . SVG Version: 6.00 Build 0)  -->
<!DOCTYPE svg PUBLIC "-//W3C//DTD SVG 1.1//EN" "http://www.w3.org/Graphics/SVG/1.1/DTD/svg11.dtd">
<svg version="1.1" id="Layer_1" xmlns="http://www.w3.org/2000/svg" xmlns:xlink="http://www.w3.org/1999/xlink" x="0px" y="0px"
	 width="64px" height="64px" viewBox="0 0 64 64" style="enable-background:new 0 0 64 64;" xml:space="preserve">
<g>
	<path style="fill:#010101;" d="M42.781,28.438c0-4.268-4.836-7.736-10.781-7.736c-5.947,0-10.783,3.471-10.783,7.736
		S26.053,36.174,32,36.174C37.945,36.174,42.781,32.703,42.781,28.438z"/>
	<path style="fill:#010101;" d="M48.305,30.35c-0.248-0.359-0.678-0.551-1.115-0.475c-0.428,0.064-0.787,0.377-0.908,0.799
		c-1.428,4.756-7.34,8.211-14.066,8.211c-6.803,0-12.984-3.531-14.383-8.211c-0.125-0.422-0.479-0.729-0.91-0.799
		c-0.43-0.07-0.859,0.111-1.107,0.469l-6.338,9.023C9.346,39.559,9.27,39.785,9.27,40.02v9.803c0,2.324,2.785,3.811,4.703,3.811
		h36.055c1.918,0,4.699-1.482,4.699-3.811V40.02c0-0.232-0.068-0.457-0.199-0.643L48.305,30.35L48.305,30.35z"/>
	<path style="fill:#010101;" d="M32,10.367c-13.117,0-27.277,4.693-27.277,12.273v3.121c0,1.582,1.318,2.869,2.938,2.869h7.211
		c1.457,0,3.49-1.092,3.49-2.869V23.98c0-3.584,7.051-5.99,13.639-5.99c6.584,0,13.639,2.406,13.639,5.99v1.783
		c0,1.777,2.033,2.871,3.488,2.871h7.211c1.621,0,2.939-1.289,2.939-2.871v-3.119C59.277,15.062,45.117,10.367,32,10.367z"/>
</g>
</svg>
