<?xml version="1.0" encoding="iso-8859-1"?>
<!-- Generator: Adobe Illustrator 15.0.0, SVG Export Plug-In . SVG Version: 6.00 Build 0)  -->
<!DOCTYPE svg PUBLIC "-//W3C//DTD SVG 1.1//EN" "http://www.w3.org/Graphics/SVG/1.1/DTD/svg11.dtd">
<svg version="1.1" id="Layer_1" xmlns="http://www.w3.org/2000/svg" xmlns:xlink="http://www.w3.org/1999/xlink" x="0px" y="0px"
	 width="64px" height="64px" viewBox="0 0 64 64" style="enable-background:new 0 0 64 64;" xml:space="preserve">
<g>
	<path style="fill:#010101;" d="M28.495,17.682c-0.769,0.71-14.34,0.902-25.389,27.688c0,0,15.249,0.937,23.513,5.707
		C26.619,51.077,27.896,23.73,28.495,17.682z"/>
	<path style="fill:#010101;" d="M47.578,44.177l-8.861,0.852c-2.81-0.086-3.917-2.896-3.917-2.896l-5.112-17.04
		c3.577,2.3,8.519,0.256,8.519,0.256c1.706-0.937,3.664,0.085,3.664,0.085l7.665,15.505C50.729,43.583,47.578,44.177,47.578,44.177z
		 M29.26,17.511c0,0-1.958,24.025-1.791,33.819c0,0,12.183-4.941,32.459-4.77C59.929,46.562,47.578,17.172,29.26,17.511z"/>
	<path style="fill:#010101;" d="M34.712,38.979l-3.921-12.436c0,0,3.408,1.535,8.007-0.513c0,0,1.62-0.342,2.3-0.085l7.498,15.846"
		/>
	<path style="fill:#010101;" d="M34.796,39.833c0,0,1.278,4.515,4.514,4.428l7.922-0.679c0,0,1.107-0.513,1.363-1.107L34.796,39.833
		z"/>
</g>
</svg>
