<?xml version="1.0" encoding="iso-8859-1"?>
<!-- Generator: Adobe Illustrator 15.0.0, SVG Export Plug-In . SVG Version: 6.00 Build 0)  -->
<!DOCTYPE svg PUBLIC "-//W3C//DTD SVG 1.1//EN" "http://www.w3.org/Graphics/SVG/1.1/DTD/svg11.dtd">
<svg version="1.1" id="Layer_1" xmlns="http://www.w3.org/2000/svg" xmlns:xlink="http://www.w3.org/1999/xlink" x="0px" y="0px"
	 width="64px" height="64px" viewBox="0 0 64 64" style="enable-background:new 0 0 64 64;" xml:space="preserve">
<g>
	<path style="fill:#010101;" d="M44.713,36.529v7.389h-5.375l-6.946-9.672l-4.645,6.463l6.596,9.18
		c0.705,0.984,1.852,1.57,3.062,1.57h7.308v7.432c0,0,14.118-11.043,14.118-11.18C58.831,47.578,44.713,36.529,44.713,36.529z"/>
	<path style="fill:#010101;" d="M44.713,20.041v7.426l14.118-11.178L44.713,5.109v7.393h-7.497c-1.207,0-2.357,0.588-3.062,1.568
		L12.714,43.922H5.336v7.537h9.312c1.207,0,2.352-0.586,3.062-1.57l21.442-29.848H44.713z"/>
	<path style="fill:#010101;" d="M19.59,29.348l4.641-6.459l-6.335-8.812c-0.705-0.986-1.851-1.574-3.062-1.574H5.169v7.539H12.9
		L19.59,29.348z"/>
</g>
</svg>
