<?xml version="1.0" encoding="iso-8859-1"?>
<!-- Generator: Adobe Illustrator 15.0.0, SVG Export Plug-In . SVG Version: 6.00 Build 0)  -->
<!DOCTYPE svg PUBLIC "-//W3C//DTD SVG 1.1//EN" "http://www.w3.org/Graphics/SVG/1.1/DTD/svg11.dtd">
<svg version="1.1" id="Layer_1" xmlns="http://www.w3.org/2000/svg" xmlns:xlink="http://www.w3.org/1999/xlink" x="0px" y="0px"
	 width="64px" height="64px" viewBox="0 0 64 64" style="enable-background:new 0 0 64 64;" xml:space="preserve">
<g>
	<defs>
		<rect id="SVGID_1_" x="-6.318" y="-6.318" width="76.637" height="76.637"/>
	</defs>
	<clipPath id="SVGID_2_">
		<use xlink:href="#SVGID_1_"  style="overflow:visible;"/>
	</clipPath>
	<g style="clip-path:url(#SVGID_2_);">
		<defs>
			<rect id="SVGID_3_" x="-6.318" y="-6.318" width="76.637" height="76.637"/>
		</defs>
		<clipPath id="SVGID_4_">
			<use xlink:href="#SVGID_3_"  style="overflow:visible;"/>
		</clipPath>
		<g style="clip-path:url(#SVGID_4_);">
			<defs>
				<rect id="SVGID_5_" x="-6.318" y="-6.318" width="76.637" height="76.637"/>
			</defs>
			<clipPath id="SVGID_6_">
				<use xlink:href="#SVGID_5_"  style="overflow:visible;"/>
			</clipPath>
			<g style="clip-path:url(#SVGID_6_);">
				<defs>
					<rect id="SVGID_7_" x="-6.318" y="-6.318" width="76.637" height="76.637"/>
				</defs>
				<clipPath id="SVGID_8_">
					<use xlink:href="#SVGID_7_"  style="overflow:visible;"/>
				</clipPath>
				<path style="clip-path:url(#SVGID_8_);fill-rule:evenodd;clip-rule:evenodd;fill:#010101;" d="M52.963,44.079 M52.963,44.079
					c-3.338,0-5.757,2.389-8.711,2.082c-2.38-0.245-6.273-2.03-8.673-2.082c-2.802-0.061-6.592,1.747-8.983,1.566
					c-3.822-0.292-7.346-1.566-8.675-1.566c-5.601,0-8.912,4.418-8.912,4.418s6.21-2.336,8.912-2.336
					c3.359,0,4.266,1.956,8.675,2.336c2.887,0.247,5.911-2.049,8.983-1.973c3.671,0.091,5.277,1.921,8.673,2.434
					c2.996,0.45,5.848-2.459,8.711-2.434c4.424,0.039,6.407,2.722,6.407,2.722S56.3,44.079,52.963,44.079z M31.493,16.943
					c0,0-1.593,8.201-4.255,12.501c-2.66,4.3-6.812,6.683-6.812,6.683l12.137-1.495L31.493,16.943z M34.481,23.578
					c-0.188-4.62-3.539-15.99-3.539-15.99s8.191,7.047,12.686,12.671c4.496,5.623,8.208,12.623,8.208,12.623l-17.354,1.355
					C34.481,34.237,34.672,28.266,34.481,23.578z M8.859,39.244c0,0-0.928,1.262,3.88,3.315c1.395,0.596,3.528-1.151,5.848-0.673
					c2.021,0.418,5.19,1.967,7.941,1.967s5.992-1.967,9.031-1.967c4.769,0,6.736,2.79,9.9,2.372c2.123-0.28,4.295-2.161,5.633-2.468
					c1.336-0.309,2.853,0.507,3.935,0c4.343-2.039,4.515-7.604,4.515-7.604L8.859,39.244z"/>
			</g>
		</g>
	</g>
</g>
</svg>
