<?xml version="1.0" encoding="iso-8859-1"?>
<!-- Generator: Adobe Illustrator 15.0.0, SVG Export Plug-In . SVG Version: 6.00 Build 0)  -->
<!DOCTYPE svg PUBLIC "-//W3C//DTD SVG 1.1//EN" "http://www.w3.org/Graphics/SVG/1.1/DTD/svg11.dtd">
<svg version="1.1" id="Layer_1" xmlns="http://www.w3.org/2000/svg" xmlns:xlink="http://www.w3.org/1999/xlink" x="0px" y="0px"
	 width="64px" height="64px" viewBox="0 0 64 64" style="enable-background:new 0 0 64 64;" xml:space="preserve">
<path style="fill:#010101;" d="M13.604,21.629c0-9.526,5.979-17.514,14.034-19.669c-6.294,2.505-10.884,10.288-10.884,19.502
	c0,13.163,12.733,21.756,12.188,31.137c-0.333-0.23-0.688-0.518-0.688-0.861C28.254,42.602,13.604,34.72,13.604,21.629z
	 M30.976,53.248c-0.418-0.042-0.666-0.113-1.023-0.212c0.701-9.246-8.545-18.305-8.545-31.392c0-10.26,3.998-18.733,9.183-20.052
	c-2.031,2.527-3.513,10.366-3.513,19.644C27.074,34.493,30.976,41.748,30.976,53.248z M33.41,1.591
	c5.182,1.318,9.183,9.792,9.183,20.052c0,13.087-9.285,22.273-8.541,31.374c-0.357,0.103-0.603,0.179-1.023,0.224
	c0-11.67,3.895-18.748,3.895-32.005C36.926,11.954,35.444,4.118,33.41,1.591z M50.396,21.629c0,13.091-14.65,20.973-14.65,30.109
	c0,0.333-0.351,0.61-0.681,0.84c-0.595-9.43,12.181-17.95,12.181-31.112c0-9.214-4.59-17-10.884-19.502
	C44.419,4.115,50.396,12.103,50.396,21.629z M29.959,53.659c0.361,0.121,1.12,0.248,1.754,0.273l0.021,2.045
	c-0.659,0.021-1.361,0.131-1.775,0.273 M32.309,53.935c0.818,0,1.325-0.131,1.732-0.259v2.555c-0.393-0.12-0.946-0.287-1.722-0.269
	L32.309,53.935z M28.364,57.107l-0.021-4.196c0.224,0.156,0.538,0.454,0.936,0.553v2.973C28.97,56.568,28.542,56.923,28.364,57.107z
	 M34.768,56.419c-0.007-0.003-0.07-2.931-0.07-2.931c0.23-0.085,1.073-0.542,1.073-0.648l-0.018,4.224
	C35.54,56.87,35.059,56.568,34.768,56.419z M36.395,52.362c0-9.289,16.33-17.426,16.33-30.829c0-11.447-9.277-20.764-20.725-20.764
	s-20.725,9.257-20.725,20.704c0,13.403,16.33,21.611,16.33,30.903c0,0.071,0.025,8.133,0.025,8.813c0,2.722,8.739,2.722,8.739,0
	C36.37,60.509,36.395,52.503,36.395,52.362z"/>
</svg>
