<?xml version="1.0" encoding="iso-8859-1"?>
<!-- Generator: Adobe Illustrator 15.0.0, SVG Export Plug-In . SVG Version: 6.00 Build 0)  -->
<!DOCTYPE svg PUBLIC "-//W3C//DTD SVG 1.1//EN" "http://www.w3.org/Graphics/SVG/1.1/DTD/svg11.dtd">
<svg version="1.1" id="Layer_1" xmlns="http://www.w3.org/2000/svg" xmlns:xlink="http://www.w3.org/1999/xlink" x="0px" y="0px"
	 width="64px" height="64px" viewBox="0 0 64 64" style="enable-background:new 0 0 64 64;" xml:space="preserve">
<g>
	<path style="fill:none;" d="M11.995,41.585c0,1.541-1.251,2.791-2.792,2.791c-1.543,0-2.793-1.25-2.793-2.791
		c0-1.542,1.25-2.793,2.793-2.793c0.3,0,0.59,0.049,0.862,0.138c-0.646-0.567-1.629-1.112-3.522-1.53
		c-1.378,0.878-2.293,2.42-2.293,4.176c0,2.731,2.214,4.947,4.947,4.947c2.668,0,4.843-2.112,4.942-4.758
		c-0.967-0.209-1.716-0.514-2.231-0.867C11.964,41.115,11.995,41.348,11.995,41.585z"/>
	<path style="fill:#010101;" d="M8.892,31.353c-3.491,0-6.159,1.406-7.872,4.235l-0.014,0.038c-0.336,0.584-0.298,1.037,0.934,1.16
		c0.04,0.006,0.066,0.012,0.066,0.012c0.383,0.027,0.746,0.059,1.093,0.091c-0.997,1.297-1.592,2.923-1.592,4.687
		c0,4.248,3.443,7.689,7.689,7.689c4.085,0,7.426-3.185,7.675-7.205c0.648,0.011,1.35-0.009,2.099-0.068
		C18.785,36.082,14.344,31.353,8.892,31.353z M9.197,46.522c-2.733,0-4.947-2.216-4.947-4.947c0-1.756,0.915-3.298,2.293-4.176
		c1.894,0.418,2.877,0.963,3.522,1.53c-0.272-0.089-0.562-0.138-0.862-0.138c-1.543,0-2.793,1.251-2.793,2.793
		c0,1.541,1.25,2.791,2.793,2.791c1.541,0,2.792-1.25,2.792-2.791c0-0.237-0.031-0.47-0.087-0.688
		c0.516,0.354,1.265,0.658,2.231,0.867C14.04,44.41,11.865,46.522,9.197,46.522z"/>
	<path style="fill:#010101;" d="M47.936,27.179h1.152c0.396,0,0.719-0.321,0.719-0.717v-3.089c0-0.396-0.322-0.716-0.719-0.716
		l-17.477,0.869c-0.395,0-0.715,0.32-0.715,0.715v2.221c0,0.284,0.164,0.53,0.4,0.658c3.195,1.114,5.418,3.601,5.418,6.491
		c0,2.228-0.734,5.48-4.525,5.52h-3.965c-4.418-0.165-6.51-3.912-6.51-8.413c0-1.051,0.178-2.141,0.463-3.071
		c0.02-0.064,0.039-0.13,0.057-0.195l1.541-3.764c0.146-0.411,0.217-0.878,0.188-1.367c-0.074-1.234-0.754-2.239-1.631-2.543
		l0.814-1.696l0.113-0.249l2.377,1.029c0.766,0.332,1.264-0.818,0.498-1.15l-2.736-1.185c-0.188-1.266-2.457-2.277-5.148-2.283
		l0.377,4.72c0.684-0.001,1.33-0.067,1.912-0.187l-3.055,6.371c-0.463,0.915-0.943,1.863-1.129,2.146
		c-0.676,1.018-1.389,1.095-1.389,1.095c-1.674,0.452-1.771,1.648-1.572,2.361c2.477,0.978,4.541,2.953,5.795,5.498
		c0.086,0.198,0.969,2.446,0.969,2.446c0.596,1.581,2.311,2.876,3.895,2.876h19.449c0.262,4.011,3.596,7.184,7.672,7.184
		s7.412-3.171,7.674-7.182h2.994C61.381,33.464,56.297,29.184,47.936,27.179z M51.172,46.014c-2.561,0-4.668-1.946-4.922-4.442
		h2.154c0.238,1.313,1.387,2.308,2.768,2.308s2.529-0.994,2.768-2.306h2.154C55.842,44.067,53.732,46.014,51.172,46.014z"/>
</g>
</svg>
