<?xml version="1.0" encoding="iso-8859-1"?>
<!-- Generator: Adobe Illustrator 15.0.0, SVG Export Plug-In . SVG Version: 6.00 Build 0)  -->
<!DOCTYPE svg PUBLIC "-//W3C//DTD SVG 1.1//EN" "http://www.w3.org/Graphics/SVG/1.1/DTD/svg11.dtd">
<svg version="1.1" id="Layer_1" xmlns="http://www.w3.org/2000/svg" xmlns:xlink="http://www.w3.org/1999/xlink" x="0px" y="0px"
	 width="64px" height="64px" viewBox="0 0 64 64" style="enable-background:new 0 0 64 64;" xml:space="preserve">
<g>
	<path style="fill:#010101;" d="M59.286,37.775c-0.137-0.268-0.291-0.568-0.459-0.887c0.143-0.148,0.231-0.351,0.231-0.57
		c0-0.459-0.373-0.832-0.832-0.832h-0.169c-0.06-0.106-0.119-0.209-0.182-0.314c-1.078-1.842-2.423-3.651-4.364-5.869
		c-2.941-3.364-5.436-5.448-8.084-6.762c-2.73-1.351-5.74-1.955-9.766-1.955c-2.047,0-4.275,0.108-6.741,0.895
		c-3.209,1.026-5.909,2.976-8.026,5.792c-0.034,0.049-0.065,0.114-0.135,0.148c0,0-0.193,0.011-0.204,0.011
		C15.411,27.468,10.362,29.264,8.45,31H8.446l-0.895,0.812c-0.196,0.094-1.474,0.062-1.474,0.892v1.521
		c0,0.026,0.003,0.049,0.003,0.074c0,0.115,0,0.232,0,0.342c-0.108,0.274-0.211,0.557-0.309,0.847H5.468
		c-0.458,0-0.832,0.373-0.832,0.832c0,0.442,0.342,0.801,0.775,0.827c-0.032,0.53,0.023,0.9,0.023,0.9
		c0.581,0.048,0.929-0.194,0.996-0.684c0.349-2.559,3.003-4.307,5.71-4.307c2.962,0,5.422,2.178,5.867,5.014
		c0.047,0.302,0.526,1.471,2.477,1.471c2.551,0,19.565,0,19.565,0c1.547,0,1.727-1.149,1.77-1.439
		c0.431-2.854,2.901-5.048,5.871-5.048c2.763,0,5.092,1.895,5.753,4.455c0.122,0.473,0.519,1.485,2.855,1.485
		c1.226,0,2.084-0.137,2.4-0.197c0.095-0.006,0.191-0.031,0.279-0.077C59.326,38.544,59.463,38.12,59.286,37.775z M22.936,28.124
		c-0.251,0-0.456-0.2-0.456-0.448c0-0.068,0.015-0.13,0.04-0.185c4.05-4.892,9.238-5.427,12.165-5.484l0.003,6.117H22.936z
		 M49.425,28.124h-13.33v-6.126c5.732,0.066,9.47,1.457,13.577,5.322C49.724,27.365,50.438,28.124,49.425,28.124z"/>
	<path style="fill:#010101;" d="M47.694,34.571c-2.44,0-4.424,1.984-4.424,4.421s1.983,4.421,4.424,4.421
		c2.437,0,4.42-1.984,4.42-4.421C52.114,36.552,50.131,34.571,47.694,34.571z"/>
	<path style="fill:#010101;" d="M12.141,34.571c-0.382,0-0.749,0.049-1.103,0.14c-1.907,0.49-3.317,2.224-3.317,4.282
		c0,2.057,1.41,3.792,3.317,4.281c0.354,0.092,0.724,0.14,1.103,0.14c2.438,0,4.424-1.984,4.424-4.421
		C16.564,36.552,14.581,34.571,12.141,34.571z"/>
</g>
</svg>
