<?xml version="1.0" encoding="iso-8859-1"?>
<!-- Generator: Adobe Illustrator 15.0.0, SVG Export Plug-In . SVG Version: 6.00 Build 0)  -->
<!DOCTYPE svg PUBLIC "-//W3C//DTD SVG 1.1//EN" "http://www.w3.org/Graphics/SVG/1.1/DTD/svg11.dtd">
<svg version="1.1" id="Layer_1" xmlns="http://www.w3.org/2000/svg" xmlns:xlink="http://www.w3.org/1999/xlink" x="0px" y="0px"
	 width="64px" height="64px" viewBox="0 0 64 64" style="enable-background:new 0 0 64 64;" xml:space="preserve">
<g>
	<defs>
		<rect id="SVGID_1_" x="3.972" y="4.072" width="56.057" height="55.855"/>
	</defs>
	<clipPath id="SVGID_2_">
		<use xlink:href="#SVGID_1_"  style="overflow:visible;"/>
	</clipPath>
	<g style="clip-path:url(#SVGID_2_);">
		<defs>
			<rect id="SVGID_3_" x="3.972" y="4.072" width="56.057" height="55.855"/>
		</defs>
		<clipPath id="SVGID_4_">
			<use xlink:href="#SVGID_3_"  style="overflow:visible;"/>
		</clipPath>
		<g style="clip-path:url(#SVGID_4_);">
			<defs>
				<rect id="SVGID_5_" x="3.972" y="4.072" width="56.057" height="55.855"/>
			</defs>
			<clipPath id="SVGID_6_">
				<use xlink:href="#SVGID_5_"  style="overflow:visible;"/>
			</clipPath>
			<g style="clip-path:url(#SVGID_6_);">
				<defs>
					<rect id="SVGID_7_" x="3.972" y="4.072" width="56.057" height="55.855"/>
				</defs>
				<clipPath id="SVGID_8_">
					<use xlink:href="#SVGID_7_"  style="overflow:visible;"/>
				</clipPath>
				<path style="clip-path:url(#SVGID_8_);fill:#010101;" d="M31.439,32c-0.929,0-1.682,0.751-1.682,1.676v17.873
					c0,1.856-1.359,2.514-2.522,2.514s-2.522-0.657-2.522-2.514c0-0.923,0.629-1.606,0.629-1.606c0.657-0.654,0.657-1.716,0-2.37
					s-1.722-0.654-2.378,0c-0.166,0.165-1.614,1.675-1.614,3.977c0,1.763,0.667,3.322,1.879,4.396
					c1.069,0.948,2.493,1.47,4.007,1.47c2.925,0,5.886-2.013,5.886-5.865V33.676C33.121,32.751,32.369,32,31.439,32z"/>
				<path style="clip-path:url(#SVGID_8_);fill:#010101;" d="M54.983,33.117c0-5.735-2.321-11.38-6.368-15.486
					c-3.989-4.049-9.441-6.433-15.494-6.804V7.982c0-0.926-0.752-1.676-1.682-1.676c-0.929,0-1.682,0.75-1.682,1.676v2.845
					c-6.052,0.373-11.505,2.755-15.494,6.805c-4.047,4.105-6.368,9.75-6.368,15.485v0.559c0,0.927,0.754,1.676,1.682,1.676
					c0.929,0,1.682-0.749,1.682-1.676c0-1.462,1.208-2.653,2.691-2.653c1.484,0,2.69,1.191,2.69,2.653
					c0,0.927,0.753,1.676,1.682,1.676c0.93,0,1.682-0.749,1.682-1.676c0-1.462,1.207-2.653,2.691-2.653
					c1.483,0,2.69,1.191,2.69,2.653c0,0.927,0.753,1.676,1.682,1.676c0.93,0,1.682-0.749,1.682-1.676
					c0-1.462,1.207-2.653,2.691-2.653c1.483,0,2.69,1.191,2.69,2.653c0,0.927,0.753,1.676,1.682,1.676s1.682-0.749,1.682-1.676
					c0-1.462,1.207-2.653,2.691-2.653c1.482,0,2.69,1.191,2.69,2.653c0,0.927,0.753,1.676,1.682,1.676s1.682-0.749,1.682-1.676
					c0-1.462,1.207-2.653,2.69-2.653c1.484,0,2.689,1.191,2.689,2.653c0,0.927,0.753,1.676,1.682,1.676
					c0.93,0,1.683-0.749,1.683-1.676c0-0.122-0.004-0.244-0.011-0.365C54.979,33.247,54.983,33.183,54.983,33.117z"/>
			</g>
		</g>
	</g>
</g>
</svg>
