<?xml version="1.0" encoding="iso-8859-1"?>
<!-- Generator: Adobe Illustrator 15.0.0, SVG Export Plug-In . SVG Version: 6.00 Build 0)  -->
<!DOCTYPE svg PUBLIC "-//W3C//DTD SVG 1.1//EN" "http://www.w3.org/Graphics/SVG/1.1/DTD/svg11.dtd">
<svg version="1.1" id="Layer_1" xmlns="http://www.w3.org/2000/svg" xmlns:xlink="http://www.w3.org/1999/xlink" x="0px" y="0px"
	 width="64px" height="64px" viewBox="0 0 64 64" style="enable-background:new 0 0 64 64;" xml:space="preserve">
<path d="M58.361,31.916l0.006-0.004l-0.064-0.078c-0.229-0.308-0.478-0.602-0.74-0.88L47.273,18.677l-0.006,0.003
	c-1.053-1.285-2.651-2.106-4.444-2.106c-3.173,0-5.743,2.571-5.743,5.743c0,0.223,0.021,0.441,0.043,0.657
	c-1.582-0.647-3.309-1.007-5.125-1.007c-1.814,0-3.545,0.36-5.125,1.007c0.026-0.216,0.047-0.431,0.047-0.657
	c0-3.172-2.57-5.743-5.743-5.743c-1.788,0-3.388,0.821-4.441,2.104L6.512,30.872c-0.311,0.323-0.599,0.667-0.863,1.03l-0.006,0.006
	c-1.171,1.612-1.861,3.594-1.861,5.736c0,5.402,4.379,9.782,9.781,9.782c4.85,0,8.877-3.532,9.648-8.166l0.639-2.841
	C25.592,33.763,28.586,32,32,32c3.424,0,6.425,1.772,8.166,4.44l0.598,2.66c0.706,4.709,4.768,8.324,9.674,8.324
	c5.402,0,9.781-4.379,9.781-9.782C60.219,35.506,59.528,33.527,58.361,31.916z M13.562,44.496c-3.779,0-6.848-3.067-6.848-6.848
	c0-3.781,3.064-6.848,6.848-6.848c3.781,0,6.849,3.064,6.849,6.848C20.411,41.432,17.344,44.496,13.562,44.496z M50.438,44.496
	c-3.781,0-6.849-3.067-6.849-6.848c0-3.781,3.063-6.848,6.849-6.848c3.779,0,6.848,3.064,6.848,6.848
	C57.285,41.432,54.221,44.496,50.438,44.496z"/>
</svg>
