<?xml version="1.0" encoding="iso-8859-1"?>
<!-- Generator: Adobe Illustrator 15.0.0, SVG Export Plug-In . SVG Version: 6.00 Build 0)  -->
<!DOCTYPE svg PUBLIC "-//W3C//DTD SVG 1.1//EN" "http://www.w3.org/Graphics/SVG/1.1/DTD/svg11.dtd">
<svg version="1.1" id="Layer_1" xmlns="http://www.w3.org/2000/svg" xmlns:xlink="http://www.w3.org/1999/xlink" x="0px" y="0px"
	 width="64px" height="64px" viewBox="0 0 64 64" style="enable-background:new 0 0 64 64;" xml:space="preserve">
<g>
	<path style="fill:#010101;" d="M57.482,31.786l-6.893-3.573l0.168-0.439c0.2-0.527-0.041-1.116-0.549-1.355L37.828,20.63
		l0.412-1.091c0.191-0.51-0.028-1.086-0.514-1.335L14.24,6.058c-0.271-0.141-0.591-0.158-0.877-0.049
		c-0.287,0.108-0.513,0.336-0.621,0.622L6.006,24.394c-0.105,0.282-0.089,0.594,0.047,0.863c0.137,0.269,0.377,0.469,0.665,0.551
		L32.08,33.01c0.098,0.027,0.197,0.041,0.293,0.041c0.438,0,0.842-0.266,1.004-0.695l0.402-1.064l12.934,4.241
		c0.111,0.035,0.223,0.054,0.336,0.054c0.436,0,0.842-0.266,1.005-0.695l0.157-0.413l7.416,2.099c0.1,0.027,0.196,0.041,0.294,0.041
		c0.438,0,0.842-0.266,1.005-0.692l1.064-2.808C58.188,32.611,57.969,32.036,57.482,31.786z"/>
	<g>
		<path style="fill:#010101;" d="M36.736,43.381c-0.13-0.462-0.553-0.782-1.033-0.782h-9.062c-0.48,0-0.9,0.318-1.034,0.782
			L21.83,56.694c-0.16,0.57,0.17,1.165,0.741,1.328c0.098,0.024,0.194,0.041,0.294,0.041c0.467,0,0.897-0.31,1.031-0.782
			l3.554-12.532h2.644v12.238c0,0.592,0.48,1.075,1.074,1.075c0.596,0,1.076-0.48,1.076-1.075V44.747h2.645l3.553,12.531
			c0.135,0.475,0.564,0.785,1.035,0.785c0.098,0,0.195-0.016,0.293-0.043c0.57-0.161,0.901-0.755,0.741-1.328L36.736,43.381z"/>
		<g>
			<rect x="29.549" y="38.981" style="fill:#010101;" width="3.242" height="3.909"/>
			<path style="fill:#010101;" d="M31.17,33.096c-1.945,0-3.522,1.577-3.522,3.522s1.577,3.522,3.522,3.522s3.523-1.577,3.523-3.522
				S33.115,33.096,31.17,33.096z M31.17,38.358c-0.961,0-1.739-0.779-1.739-1.74s0.778-1.74,1.739-1.74s1.74,0.779,1.74,1.74
				S32.131,38.358,31.17,38.358z"/>
		</g>
	</g>
	<circle style="fill:#010101;" cx="31.17" cy="36.618" r="1.166"/>
</g>
</svg>
