<?xml version="1.0" encoding="iso-8859-1"?>
<!-- Generator: Adobe Illustrator 15.0.0, SVG Export Plug-In . SVG Version: 6.00 Build 0)  -->
<!DOCTYPE svg PUBLIC "-//W3C//DTD SVG 1.1//EN" "http://www.w3.org/Graphics/SVG/1.1/DTD/svg11.dtd">
<svg version="1.1" id="Layer_1" xmlns="http://www.w3.org/2000/svg" xmlns:xlink="http://www.w3.org/1999/xlink" x="0px" y="0px"
	 width="64px" height="64px" viewBox="0 0 64 64" style="enable-background:new 0 0 64 64;" xml:space="preserve">
<g>
	<defs>
		<rect id="SVGID_1_" x="4.78" y="4.78" width="54.439" height="54.439"/>
	</defs>
	<clipPath id="SVGID_2_">
		<use xlink:href="#SVGID_1_"  style="overflow:visible;"/>
	</clipPath>
	<g style="clip-path:url(#SVGID_2_);">
		<defs>
			<rect id="SVGID_3_" x="4.78" y="4.78" width="54.439" height="54.439"/>
		</defs>
		<clipPath id="SVGID_4_">
			<use xlink:href="#SVGID_3_"  style="overflow:visible;"/>
		</clipPath>
		<g style="clip-path:url(#SVGID_4_);">
			<defs>
				<rect id="SVGID_5_" x="4.78" y="4.78" width="54.439" height="54.439"/>
			</defs>
			<clipPath id="SVGID_6_">
				<use xlink:href="#SVGID_5_"  style="overflow:visible;"/>
			</clipPath>
			<g style="clip-path:url(#SVGID_6_);">
				<defs>
					<rect id="SVGID_7_" x="4.78" y="4.78" width="54.439" height="54.439"/>
				</defs>
				<clipPath id="SVGID_8_">
					<use xlink:href="#SVGID_7_"  style="overflow:visible;"/>
				</clipPath>
				<path style="clip-path:url(#SVGID_8_);fill:#010101;" d="M32,28.462c-3.901,0-7.077,3.174-7.077,7.076s3.176,7.078,7.077,7.078
					s7.077-3.176,7.077-7.078S35.901,28.462,32,28.462z"/>
				<path style="clip-path:url(#SVGID_8_);fill:#010101;" d="M32,48.06c-6.904,0-12.521-5.617-12.521-12.521
					c0-6.903,5.616-12.521,12.521-12.521s12.521,5.617,12.521,12.521C44.521,42.442,38.904,48.06,32,48.06z M52.142,18.117h-8.166
					c0-3.907-3.167-7.076-7.077-7.076h-9.797c-3.91,0-7.077,3.169-7.077,7.076h-8.166c-3.909,0-7.078,3.17-7.078,7.078v20.688
					c0,3.907,3.169,7.076,7.078,7.076h40.283c3.909,0,7.078-3.169,7.078-7.076V25.195C59.22,21.287,56.051,18.117,52.142,18.117z"/>
			</g>
		</g>
	</g>
</g>
</svg>
