<?xml version="1.0" encoding="iso-8859-1"?>
<!-- Generator: Adobe Illustrator 15.0.0, SVG Export Plug-In . SVG Version: 6.00 Build 0)  -->
<!DOCTYPE svg PUBLIC "-//W3C//DTD SVG 1.1//EN" "http://www.w3.org/Graphics/SVG/1.1/DTD/svg11.dtd">
<svg version="1.1" id="Layer_1" xmlns="http://www.w3.org/2000/svg" xmlns:xlink="http://www.w3.org/1999/xlink" x="0px" y="0px"
	 width="64px" height="64px" viewBox="0 0 64 64" style="enable-background:new 0 0 64 64;" xml:space="preserve">
<path style="fill:#010101;" d="M55.148,23.746h-0.008c-1.225,3.039-4.266,4.773-6.033,4.678c-0.283,0-0.566-0.033-0.836-0.096
	c-0.424-0.09-0.854-0.318-1.238-0.65c2.021-3.047,3.617-6.701,4.641-10.766c0.127-0.014,0.258-0.041,0.371-0.041
	c0.049,0,0.088,0.004,0.135,0.004c0.291,0.004,0.545,0.037,0.803,0.098c1.354,0.275,2.697,1.742,2.711,4.117
	C55.693,21.926,55.521,22.826,55.148,23.746z M15.711,28.33c-0.275,0.064-0.549,0.096-0.824,0.096
	c-1.764,0.096-4.811-1.641-6.021-4.676c-0.387-0.924-0.557-1.822-0.557-2.654c0.008-2.373,1.352-3.844,2.697-4.117
	c0.254-0.062,0.51-0.094,0.811-0.1c0.043,0,0.088-0.002,0.129-0.002c0.117,0,0.252,0.027,0.377,0.041
	c1.025,4.064,2.621,7.721,4.643,10.766C16.576,28.014,16.145,28.242,15.711,28.33z M60.746,21.094
	c0.01-3.375-1.955-6.711-6.213-7.803c-0.676-0.172-1.387-0.248-2.076-0.268c0.336-2.181,0.52-4.441,0.52-6.768
	c0-0.363-0.029-0.713-0.045-1.072H11.062c-0.01,0.359-0.035,0.713-0.035,1.072c0,2.326,0.182,4.59,0.518,6.768
	c-0.684,0.018-1.395,0.094-2.096,0.271c-4.232,1.082-6.195,4.414-6.195,7.799c0.008,1.23,0.25,2.525,0.803,3.832
	c1.764,4.123,5.809,7.268,10.83,7.363c0.785,0,1.574-0.096,2.32-0.264c0.902-0.232,1.693-0.568,2.393-0.975
	c2.609,2.805,5.672,4.754,9.002,5.551v12.996c-0.055,0.033-0.113,0.055-0.164,0.088l-10.52,6.82
	c-1.959,1.271-1.652,2.311,0.682,2.311h26.793c2.334,0,2.643-1.039,0.686-2.311l-10.514-6.82c-0.051-0.037-0.113-0.059-0.168-0.088
	V36.602c3.326-0.797,6.393-2.742,9-5.549c0.693,0.408,1.477,0.736,2.369,0.967c0.781,0.189,1.564,0.273,2.346,0.273
	c5.021-0.096,9.078-3.234,10.84-7.363l-2.404-0.588l2.404,0.578C60.48,23.629,60.746,22.342,60.746,21.094z"/>
</svg>
