<?xml version="1.0" encoding="iso-8859-1"?>
<!-- Generator: Adobe Illustrator 15.0.0, SVG Export Plug-In . SVG Version: 6.00 Build 0)  -->
<!DOCTYPE svg PUBLIC "-//W3C//DTD SVG 1.1//EN" "http://www.w3.org/Graphics/SVG/1.1/DTD/svg11.dtd">
<svg version="1.1" id="Layer_1" xmlns="http://www.w3.org/2000/svg" xmlns:xlink="http://www.w3.org/1999/xlink" x="0px" y="0px"
	 width="64px" height="64px" viewBox="0 0 64 64" style="enable-background:new 0 0 64 64;" xml:space="preserve">
<g>
	<path style="fill:#010101;" d="M-0.531,2.387l18.078,25.324c0.297-0.283,0.601-0.555,0.918-0.818L0.969,2.387H-0.531z"/>
	<polygon style="fill:#010101;" points="31.625,16.965 21.219,2.387 19.719,2.387 30.875,18.018 	"/>
	<path style="fill:#010101;" d="M18.219,2.387H2.469l16.957,23.752c2.398-1.771,5.199-3.035,8.238-3.625l2.461-3.447L18.219,2.387z"
		/>
	<path style="fill:#010101;" d="M32.75,18.543L44.281,2.387h-1.5L32,17.492l-1.5,2.102l-1.98,2.773
		c0.535-0.082,1.078-0.139,1.625-0.172l1.105-1.553L32.75,18.543z"/>
	<path style="fill:#010101;" d="M63.781,2.387h-0.75L45.227,27.332c0.152,0.137,0.301,0.277,0.453,0.418
		c0.148,0.139,0.301,0.281,0.445,0.426L64.531,2.387H63.781z"/>
	<path style="fill:#010101;" d="M45.781,2.387L33.5,19.594L32,21.695l-0.316,0.443c0.215,0,0.43,0.01,0.645,0.018
		c0.535,0.016,1.059,0.055,1.582,0.111c0.57,0.068,1.133,0.154,1.684,0.26c3.238,0.641,6.199,2.047,8.691,4.016L61.531,2.387H45.781
		z"/>
	<path style="fill:#010101;" d="M31.568,59.365c-9.422,0-17.062-7.641-17.062-17.062S22.146,25.24,31.568,25.24
		s17.062,7.641,17.062,17.062S40.99,59.365,31.568,59.365z M31.568,22.99c-10.668,0-19.312,8.648-19.312,19.312
		S20.9,61.615,31.568,61.615s19.312-8.648,19.312-19.312S42.236,22.99,31.568,22.99z"/>
	<path style="fill:#010101;" d="M31.568,26.74c-8.581,0-15.562,6.98-15.562,15.562s6.981,15.562,15.562,15.562
		c8.582,0,15.562-6.98,15.562-15.562S40.15,26.74,31.568,26.74z M37.064,50.768l-5.499-2.887l-5.498,2.887l1.049-6.125l-4.449-4.336
		l6.147-0.896l2.751-5.572l2.752,5.572l6.152,0.896l-4.455,4.336L37.064,50.768z"/>
</g>
</svg>
