<?xml version="1.0" encoding="iso-8859-1"?>
<!-- Generator: Adobe Illustrator 15.0.0, SVG Export Plug-In . SVG Version: 6.00 Build 0)  -->
<!DOCTYPE svg PUBLIC "-//W3C//DTD SVG 1.1//EN" "http://www.w3.org/Graphics/SVG/1.1/DTD/svg11.dtd">
<svg version="1.1" id="Layer_1" xmlns="http://www.w3.org/2000/svg" xmlns:xlink="http://www.w3.org/1999/xlink" x="0px" y="0px"
	 width="64px" height="64px" viewBox="0 0 64 64" style="enable-background:new 0 0 64 64;" xml:space="preserve">
<g>
	<g>
		<path style="fill:#010101;" d="M11.322,40.355v1.801c0,9.434,5.021,15.531,11.459,18.404
			C21.723,51.746,17.345,44.301,11.322,40.355z"/>
		<path style="fill:#010101;" d="M41.222,60.535c6.438-2.904,11.456-9.029,11.456-18.379v-1.801
			C46.662,44.299,42.285,51.734,41.222,60.535z"/>
		<path style="fill:#010101;" d="M11.322,35.346v2.883c7.196,4.193,12.409,12.832,13.367,23.072
			c2.357,0.799,4.846,1.193,7.311,1.193s4.953-0.404,7.312-1.207c0.959-10.234,6.172-18.865,13.365-23.059v-2.883H11.322z"/>
	</g>
	<g>
		<path style="fill:#010101;" d="M25.473,20.479c0,3.387-5.054,3.387-5.054,0C20.419,17.094,25.473,17.094,25.473,20.479"/>
		<path style="fill:#010101;" d="M44.488,20.479c0,4.988-7.441,4.988-7.441,0C37.047,15.492,44.488,15.492,44.488,20.479"/>
		<path style="fill-rule:evenodd;clip-rule:evenodd;fill:#010101;" d="M52.678,35.449c0-14.156,0-33.943,0-33.943l-8.683,5.125
			H21.658L11.322,1.506v33.943H52.678z M33.25,30.912l-1.257,2.703l-2.514-5.408h5.027L33.25,30.912z M41.066,13.145
			c3.918,0,7.094,3.191,7.094,7.129c0,3.939-3.176,7.129-7.094,7.129s-7.093-3.189-7.093-7.129
			C33.974,16.336,37.148,13.145,41.066,13.145z M23.1,13.145c3.916-0.004,7.094,3.188,7.094,7.125c0,3.939-3.178,7.133-7.094,7.133
			c-3.918,0-7.098-3.189-7.098-7.129C16.002,16.336,19.182,13.145,23.1,13.145z"/>
	</g>
</g>
</svg>
