<?xml version="1.0" encoding="iso-8859-1"?>
<!-- Generator: Adobe Illustrator 15.0.0, SVG Export Plug-In . SVG Version: 6.00 Build 0)  -->
<!DOCTYPE svg PUBLIC "-//W3C//DTD SVG 1.1//EN" "http://www.w3.org/Graphics/SVG/1.1/DTD/svg11.dtd">
<svg version="1.1" id="Layer_1" xmlns="http://www.w3.org/2000/svg" xmlns:xlink="http://www.w3.org/1999/xlink" x="0px" y="0px"
	 width="64px" height="64px" viewBox="0 0 64 64" style="enable-background:new 0 0 64 64;" xml:space="preserve">
<g>
	<path style="fill:#010101;" d="M44.877,11.427h5.283c0.695,0,1.27,0.571,1.27,1.269c0,0.711-0.571,1.282-1.27,1.282h-5.229
		c-0.334,0-0.667,0.112-0.92,0.36c-0.392,0.404-0.488,0.975-0.264,1.452c0.193,0.418,0.461,0.85,0.752,1.214l3.013-0.015
		c0.225,0.015,0.474,0.069,0.683,0.182l7.084,3.793c0.586,0.36,0.99,1.017,0.99,1.758c0,1.156-0.936,2.077-2.077,2.077h-4.615
		l-6.193,15.184l-3.975,3.975v14.529c0,1.463-1.2,2.662-2.679,2.662s-2.662-1.199-2.662-2.662V42.854H23.351l-2.414,3.668
		l5.927,10.317c0.725,1.284,0.263,2.915-1.018,3.638c-1.283,0.726-2.915,0.265-3.638-1.017l-6.079-10.43v-4.628l-3.024,4.057v9.831
		c0,1.479-1.199,2.663-2.677,2.663c-1.464,0-2.664-1.185-2.664-2.663L7.746,47.873l2.496-3.958v-4.713l-1.937,3.024
		c-0.043,0.112-0.152,0.183-0.28,0.183c-0.154,0-0.295-0.125-0.295-0.292v-10.5c0.098-2.064,1.828-3.776,3.905-3.776h26.255
		l4.169-6.413l-3.459-3.442c-0.112-0.098-0.182-0.237-0.182-0.392c0-0.308,0.236-0.544,0.529-0.544l2.522,0.015
		c-0.629-1.312-0.99-2.774-0.99-4.324c0.003-5.455,4.438-9.889,9.904-9.889c0.711,0,1.281,0.571,1.281,1.285
		c0,0.698-0.57,1.296-1.281,1.296c-3.737,0-6.832,2.817-7.251,6.443C43.65,11.582,44.236,11.427,44.877,11.427z"/>
</g>
</svg>
