<?xml version="1.0" encoding="iso-8859-1"?>
<!-- Generator: Adobe Illustrator 15.0.0, SVG Export Plug-In . SVG Version: 6.00 Build 0)  -->
<!DOCTYPE svg PUBLIC "-//W3C//DTD SVG 1.1//EN" "http://www.w3.org/Graphics/SVG/1.1/DTD/svg11.dtd">
<svg version="1.1" id="Layer_1" xmlns="http://www.w3.org/2000/svg" xmlns:xlink="http://www.w3.org/1999/xlink" x="0px" y="0px"
	 width="64px" height="64px" viewBox="0 0 64 64" style="enable-background:new 0 0 64 64;" xml:space="preserve">
<path d="M58.27,41.268V26.587c0-8.932-7.243-16.171-16.176-16.171H22.689c-6.271,0-11.697,3.575-14.381,8.792
	c-4.022,3.567-6.914,10.129-7.537,17.879h2.623c0.393-3.974,1.512-7.541,3.121-10.342v29.991h14.887v-7.025
	c0,0,3.068-0.944,6.139-0.944c3.068,0,6.138,0.944,6.138,0.944v7.025h13.886V40.562c0.009-0.009,0.203-0.593,1.022-0.593
	c0.815,0,1.005,0.601,1.005,0.601v0.722C49.6,48.8,55.713,54.907,63.229,54.907v-8.683C60.494,46.225,58.27,44,58.27,41.268z
	 M49.782,31.311c-2.874,0-2.874-4.451,0-4.451C52.654,26.859,52.654,31.311,49.782,31.311z"/>
</svg>
