<?xml version="1.0" encoding="iso-8859-1"?>
<!-- Generator: Adobe Illustrator 15.0.0, SVG Export Plug-In . SVG Version: 6.00 Build 0)  -->
<!DOCTYPE svg PUBLIC "-//W3C//DTD SVG 1.1//EN" "http://www.w3.org/Graphics/SVG/1.1/DTD/svg11.dtd">
<svg version="1.1" id="Layer_1" xmlns="http://www.w3.org/2000/svg" xmlns:xlink="http://www.w3.org/1999/xlink" x="0px" y="0px"
	 width="64px" height="64px" viewBox="0 0 64 64" style="enable-background:new 0 0 64 64;" xml:space="preserve">
<g>
	<path style="fill:#010101;" d="M36.09,36.95c1.617-1.887,4.406-4.34,8.518-5.303c0.496-0.119,0.648-0.19,0.684-0.232
		c0.075-0.091,0.066-0.146,0.062-0.166c-0.028-0.193-0.364-0.438-0.61-0.615c-0.13-0.094-0.248-0.179-0.334-0.259
		c-0.479-0.444-0.919-0.933-1.288-1.352c-0.397-0.458-1.386-2.566-2.282-4.506l-0.259-0.562c-0.53-1.129-1.148-2.221-1.841-3.25
		c-1.379-2.053-3.073-3.893-5.035-5.469c-3.51-2.82-7.729-4.31-12.204-4.31c-0.717,0-1.442,0.039-2.16,0.119
		c-5.188,0.565-9.85,3.121-13.122,7.19C0.861,24.912,1.929,34.705,8.598,40.06c2.18,1.747,4.92,2.709,7.715,2.709
		c1.589,0,3.143-0.301,4.613-0.899c1.94-0.79,3.655-2.067,4.964-3.697c1.625-2.025,2.364-4.561,2.083-7.141
		c-0.281-2.58-1.551-4.895-3.573-6.52c-1.35-1.087-3.049-1.686-4.784-1.686c-2.34,0-4.521,1.043-5.984,2.859
		c-2.068,2.58-1.653,6.368,0.927,8.443c0.976,0.783,2.187,1.139,3.438,1.004c1.246-0.138,2.363-0.748,3.148-1.725
		c1.251-1.564,0.999-3.852-0.558-5.099c-0.58-0.466-1.302-0.676-2.046-0.601c-0.739,0.083-1.402,0.444-1.866,1.023L16.6,28.794
		c-0.022,0.014-0.141,0.077-0.307,0.077s-0.318-0.066-0.444-0.19c-0.218-0.218-0.194-0.494-0.148-0.621l0.044-0.077
		c0.665-0.828,1.615-1.347,2.668-1.46c1.066-0.113,2.096,0.19,2.923,0.855c2.071,1.658,2.405,4.696,0.741,6.776
		c-0.988,1.225-2.388,1.995-3.947,2.166c-1.579,0.171-3.1-0.276-4.322-1.258c-3.087-2.489-3.587-7.03-1.108-10.12
		c1.692-2.1,4.21-3.306,6.914-3.306c2.006,0,3.973,0.692,5.534,1.951c2.271,1.821,3.695,4.42,4.013,7.317
		c0.317,2.9-0.514,5.747-2.34,8.018c-0.547,0.679-1.162,1.308-1.827,1.868c-0.107,0.091-0.289,0.215-0.499,0.359
		c-0.323,0.221-1.181,0.806-1.203,1.029c-0.003,0.033,0.003,0.075,0.05,0.127c0.228,0.251,0.949,0.4,2.152,0.444l0.055,0.003
		c2.158,0.085,4.07-0.409,5.827-1.512C33.339,40.005,35.171,38.023,36.09,36.95z"/>
	<path style="fill:#010101;" d="M53.679,27.305c-0.278-0.351-1.062-1.761-1.269-2.291c-0.447-1.128-0.519-2.737-0.183-4.194
		l0.094-0.403c0.1-0.422,0.196-0.819,0.257-1.255c0.05-0.358-0.063-0.599-0.355-0.756c-0.224-0.122-0.483-0.144-0.798-0.072
		l-0.091,0.022v-5.272c0.354-0.119,0.612-0.441,0.612-0.836c0-0.494-0.4-0.891-0.892-0.891c-0.493,0-0.894,0.4-0.894,0.891
		c0,0.375,0.24,0.684,0.568,0.816v5.546c-0.24,0.127-0.478,0.271-0.689,0.403l-0.188,0.116c-0.108,0.066-0.207,0.141-0.31,0.215
		l-0.151,0.113v-4.232c0.331-0.13,0.568-0.441,0.568-0.819c0-0.494-0.398-0.892-0.892-0.892s-0.891,0.4-0.891,0.892
		c0,0.395,0.259,0.717,0.612,0.836v4.831c-0.475,0.574-0.809,1.272-0.993,2.138c-0.201,0.944-0.243,1.934-0.124,2.947
		c0.035,0.323,0.085,0.64,0.138,0.955c0.088,0.558,0.18,1.134,0.195,1.73l0.006,0.119c0.033,0.629,0.13,2.533-1.365,3.921
		c-0.455,0.419-1.198,0.621-1.981,0.831c-0.417,0.113-0.85,0.229-1.267,0.386c-0.665,0.246-1.354,0.574-2.174,1.035
		c-1.371,0.767-2.671,1.799-3.865,3.062c-0.359,0.381-0.727,0.784-1.09,1.179c-0.878,0.959-1.708,1.864-2.352,2.402
		c-0.924,0.772-1.807,1.391-3.366,2.078l-0.011,0.005c0.215,0.011,0.431,0.022,0.648,0.033c0.544,0.027,1.084,0.052,1.628,0.074
		c0.422,0.017,1.401,0.028,2.627,0.028c2.836,0,6.79-0.052,9.37-0.199c5.306-0.306,10.97-4.194,10.97-9.508
		C55.784,31.118,55.037,28.99,53.679,27.305z"/>
</g>
</svg>
