<?xml version="1.0" encoding="iso-8859-1"?>
<!-- Generator: Adobe Illustrator 15.0.0, SVG Export Plug-In . SVG Version: 6.00 Build 0)  -->
<!DOCTYPE svg PUBLIC "-//W3C//DTD SVG 1.1//EN" "http://www.w3.org/Graphics/SVG/1.1/DTD/svg11.dtd">
<svg version="1.1" id="Layer_1" xmlns="http://www.w3.org/2000/svg" xmlns:xlink="http://www.w3.org/1999/xlink" x="0px" y="0px"
	 width="64px" height="64px" viewBox="0 0 64 64" style="enable-background:new 0 0 64 64;" xml:space="preserve">
<g>
	<path style="fill:#010101;" d="M51.834,26.646c-3.033,1.751-2.936,6.03-10.357,11.756c-1.808,1.396,1.91,8.71,0.301,10.34
		c-1.641,1.661-8.207,1.745-9.797,0.838c-2.336-1.333-0.506-4.814,0.018-9.894c-4.791,0.488-6.342,0.408-11.153,0.207
		c0.733,3.854,1.808,8.14,0.249,9.552c-1.271,1.148-7.443,1.273-9.374,0.014c-2.417-1.579,1.751-10.552,0.339-10.697
		c-1.623-0.166-11.534,0.222-9.779-10.53c1.852,2.711,5.025,5.258,8.661,4.113c0.495-9.122,6.03-17.326,14.86-17.326
		c8.832,0,15.076,6.851,15.125,15.339c5.227-3.926,1.385-13.577,7.654-17.187c4.461-2.569,9.679-1.244,12.168,2.828
		c1.298,2.125,1.703,5.874,0.092,7.934C58.442,27.002,53.914,25.444,51.834,26.646z"/>
</g>
</svg>
