<?xml version="1.0" encoding="iso-8859-1"?>
<!-- Generator: Adobe Illustrator 15.0.0, SVG Export Plug-In . SVG Version: 6.00 Build 0)  -->
<!DOCTYPE svg PUBLIC "-//W3C//DTD SVG 1.1//EN" "http://www.w3.org/Graphics/SVG/1.1/DTD/svg11.dtd">
<svg version="1.1" id="Layer_1" xmlns="http://www.w3.org/2000/svg" xmlns:xlink="http://www.w3.org/1999/xlink" x="0px" y="0px"
	 width="64px" height="64px" viewBox="0 0 64 64" style="enable-background:new 0 0 64 64;" xml:space="preserve">
<g>
	<path style="fill:#010101;" d="M57.647,18.727l-5.995-5.464l0.113-5.719L33.243,24.502H7.312c-1.671,0-3.088,0.594-4.254,1.784
		c-1.168,1.191-1.746,2.624-1.746,4.289V40.74h4.283V30.719l2.22-3.434v12.638l-2.22,3.5l0.019,13.909
		c0,1.241,1.003,2.25,2.247,2.25c1.241,0,2.247-1.006,2.247-2.25l0.015-11.269l-0.012-0.009l8.748-10.574l0.999,0.805l-6.676,8.067
		l5.494,14.007c0.446,1.153,1.748,1.724,2.905,1.278c1.157-0.449,1.731-1.747,1.282-2.905l-4.478-11.413l3.362-4.536l13.757,0.018
		v16.531c0,1.241,1.006,2.25,2.247,2.25c1.24,0,2.247-1.006,2.247-2.25v-14.05l9.226-21.055l6.583,1.542
		c0.814,0.135,1.553-0.058,2.211-0.575c0.661-0.521,0.987-1.192,0.987-2.013C59.007,20.139,58.553,19.318,57.647,18.727z"/>
</g>
</svg>
