<?xml version="1.0" encoding="iso-8859-1"?>
<!-- Generator: Adobe Illustrator 15.0.0, SVG Export Plug-In . SVG Version: 6.00 Build 0)  -->
<!DOCTYPE svg PUBLIC "-//W3C//DTD SVG 1.1//EN" "http://www.w3.org/Graphics/SVG/1.1/DTD/svg11.dtd">
<svg version="1.1" id="Layer_1" xmlns="http://www.w3.org/2000/svg" xmlns:xlink="http://www.w3.org/1999/xlink" x="0px" y="0px"
	 width="64px" height="64px" viewBox="0 0 64 64" style="enable-background:new 0 0 64 64;" xml:space="preserve">
<g>
	<g>
		<defs>
			<rect id="SVGID_1_" x="-2.001" y="2.441" width="59.116" height="59.116"/>
		</defs>
		<clipPath id="SVGID_2_">
			<use xlink:href="#SVGID_1_"  style="overflow:visible;"/>
		</clipPath>
	</g>
	<g>
		<defs>
			<rect id="SVGID_3_" x="-2.001" y="2.441" width="59.116" height="59.116"/>
		</defs>
		<clipPath id="SVGID_4_">
			<use xlink:href="#SVGID_3_"  style="overflow:visible;"/>
		</clipPath>
		<g style="clip-path:url(#SVGID_4_);">
			<defs>
				<rect id="SVGID_5_" x="-2.001" y="2.441" width="59.116" height="59.116"/>
			</defs>
			<clipPath id="SVGID_6_">
				<use xlink:href="#SVGID_5_"  style="overflow:visible;"/>
			</clipPath>
		</g>
	</g>
	<g>
		<defs>
			<rect id="SVGID_7_" x="-2.001" y="2.441" width="59.116" height="59.116"/>
		</defs>
		<clipPath id="SVGID_8_">
			<use xlink:href="#SVGID_7_"  style="overflow:visible;"/>
		</clipPath>
		<g style="clip-path:url(#SVGID_8_);">
			<defs>
				<rect id="SVGID_9_" x="-2.001" y="2.441" width="59.116" height="59.116"/>
			</defs>
			<clipPath id="SVGID_10_">
				<use xlink:href="#SVGID_9_"  style="overflow:visible;"/>
			</clipPath>
			<g style="clip-path:url(#SVGID_10_);">
				<defs>
					<rect id="SVGID_11_" x="-2.001" y="2.441" width="59.116" height="59.116"/>
				</defs>
				<clipPath id="SVGID_12_">
					<use xlink:href="#SVGID_11_"  style="overflow:visible;"/>
				</clipPath>
			</g>
		</g>
	</g>
	<g>
		<defs>
			<rect id="SVGID_13_" x="-2.001" y="2.441" width="59.116" height="59.116"/>
		</defs>
		<clipPath id="SVGID_14_">
			<use xlink:href="#SVGID_13_"  style="overflow:visible;"/>
		</clipPath>
		<g style="clip-path:url(#SVGID_14_);">
			<defs>
				<rect id="SVGID_15_" x="-2.001" y="2.441" width="59.116" height="59.116"/>
			</defs>
			<clipPath id="SVGID_16_">
				<use xlink:href="#SVGID_15_"  style="overflow:visible;"/>
			</clipPath>
			<g style="clip-path:url(#SVGID_16_);">
				<defs>
					<rect id="SVGID_17_" x="-2.001" y="2.441" width="59.116" height="59.116"/>
				</defs>
				<clipPath id="SVGID_18_">
					<use xlink:href="#SVGID_17_"  style="overflow:visible;"/>
				</clipPath>
				<g style="clip-path:url(#SVGID_18_);">
					<defs>
						<rect id="SVGID_19_" x="-2.001" y="2.441" width="59.116" height="59.116"/>
					</defs>
					<clipPath id="SVGID_20_">
						<use xlink:href="#SVGID_19_"  style="overflow:visible;"/>
					</clipPath>
				</g>
			</g>
		</g>
	</g>
	<g>
		<defs>
			<rect id="SVGID_21_" x="-2.001" y="2.441" width="59.116" height="59.116"/>
		</defs>
		<clipPath id="SVGID_22_">
			<use xlink:href="#SVGID_21_"  style="overflow:visible;"/>
		</clipPath>
	</g>
	<g>
		<defs>
			<rect id="SVGID_23_" x="-2.001" y="2.441" width="59.116" height="59.116"/>
		</defs>
		<clipPath id="SVGID_24_">
			<use xlink:href="#SVGID_23_"  style="overflow:visible;"/>
		</clipPath>
		<g style="clip-path:url(#SVGID_24_);">
			<defs>
				<rect id="SVGID_25_" x="-2.001" y="2.441" width="59.116" height="59.116"/>
			</defs>
			<clipPath id="SVGID_26_">
				<use xlink:href="#SVGID_25_"  style="overflow:visible;"/>
			</clipPath>
		</g>
	</g>
	<g>
		<defs>
			<rect id="SVGID_27_" x="-2.001" y="2.441" width="59.116" height="59.116"/>
		</defs>
		<clipPath id="SVGID_28_">
			<use xlink:href="#SVGID_27_"  style="overflow:visible;"/>
		</clipPath>
		<g style="clip-path:url(#SVGID_28_);">
			<defs>
				<rect id="SVGID_29_" x="-2.001" y="2.441" width="59.116" height="59.116"/>
			</defs>
			<clipPath id="SVGID_30_">
				<use xlink:href="#SVGID_29_"  style="overflow:visible;"/>
			</clipPath>
			<g style="clip-path:url(#SVGID_30_);">
				<defs>
					<rect id="SVGID_31_" x="-2.001" y="2.441" width="59.116" height="59.116"/>
				</defs>
				<clipPath id="SVGID_32_">
					<use xlink:href="#SVGID_31_"  style="overflow:visible;"/>
				</clipPath>
			</g>
		</g>
	</g>
	<g>
		<defs>
			<rect id="SVGID_33_" x="-2.001" y="2.441" width="59.116" height="59.116"/>
		</defs>
		<clipPath id="SVGID_34_">
			<use xlink:href="#SVGID_33_"  style="overflow:visible;"/>
		</clipPath>
		<g style="clip-path:url(#SVGID_34_);">
			<defs>
				<rect id="SVGID_35_" x="-2.001" y="2.441" width="59.116" height="59.116"/>
			</defs>
			<clipPath id="SVGID_36_">
				<use xlink:href="#SVGID_35_"  style="overflow:visible;"/>
			</clipPath>
			<g style="clip-path:url(#SVGID_36_);">
				<defs>
					<rect id="SVGID_37_" x="-2.001" y="2.441" width="59.116" height="59.116"/>
				</defs>
				<clipPath id="SVGID_38_">
					<use xlink:href="#SVGID_37_"  style="overflow:visible;"/>
				</clipPath>
				<g style="clip-path:url(#SVGID_38_);">
					<defs>
						<rect id="SVGID_39_" x="-2.001" y="2.441" width="59.116" height="59.116"/>
					</defs>
					<clipPath id="SVGID_40_">
						<use xlink:href="#SVGID_39_"  style="overflow:visible;"/>
					</clipPath>
				</g>
			</g>
		</g>
	</g>
	<g>
		<defs>
			<rect id="SVGID_41_" x="-2.001" y="2.441" width="59.116" height="59.116"/>
		</defs>
		<clipPath id="SVGID_42_">
			<use xlink:href="#SVGID_41_"  style="overflow:visible;"/>
		</clipPath>
	</g>
	<g>
		<defs>
			<rect id="SVGID_43_" x="-2.001" y="2.441" width="59.116" height="59.116"/>
		</defs>
		<clipPath id="SVGID_44_">
			<use xlink:href="#SVGID_43_"  style="overflow:visible;"/>
		</clipPath>
		<g style="clip-path:url(#SVGID_44_);">
			<defs>
				<rect id="SVGID_45_" x="-2.001" y="2.441" width="59.116" height="59.116"/>
			</defs>
			<clipPath id="SVGID_46_">
				<use xlink:href="#SVGID_45_"  style="overflow:visible;"/>
			</clipPath>
		</g>
	</g>
	<g>
		<defs>
			<rect id="SVGID_47_" x="-2.001" y="2.441" width="59.116" height="59.116"/>
		</defs>
		<clipPath id="SVGID_48_">
			<use xlink:href="#SVGID_47_"  style="overflow:visible;"/>
		</clipPath>
		<g style="clip-path:url(#SVGID_48_);">
			<defs>
				<rect id="SVGID_49_" x="-2.001" y="2.441" width="59.116" height="59.116"/>
			</defs>
			<clipPath id="SVGID_50_">
				<use xlink:href="#SVGID_49_"  style="overflow:visible;"/>
			</clipPath>
			<g style="clip-path:url(#SVGID_50_);">
				<defs>
					<rect id="SVGID_51_" x="-2.001" y="2.441" width="59.116" height="59.116"/>
				</defs>
				<clipPath id="SVGID_52_">
					<use xlink:href="#SVGID_51_"  style="overflow:visible;"/>
				</clipPath>
			</g>
		</g>
	</g>
	<g>
		<defs>
			<rect id="SVGID_53_" x="-2.001" y="2.441" width="59.116" height="59.116"/>
		</defs>
		<clipPath id="SVGID_54_">
			<use xlink:href="#SVGID_53_"  style="overflow:visible;"/>
		</clipPath>
		<g style="clip-path:url(#SVGID_54_);">
			<defs>
				<rect id="SVGID_55_" x="-2.001" y="2.441" width="59.116" height="59.116"/>
			</defs>
			<clipPath id="SVGID_56_">
				<use xlink:href="#SVGID_55_"  style="overflow:visible;"/>
			</clipPath>
			<g style="clip-path:url(#SVGID_56_);">
				<defs>
					<rect id="SVGID_57_" x="-2.001" y="2.441" width="59.116" height="59.116"/>
				</defs>
				<clipPath id="SVGID_58_">
					<use xlink:href="#SVGID_57_"  style="overflow:visible;"/>
				</clipPath>
				<g style="clip-path:url(#SVGID_58_);">
					<defs>
						<rect id="SVGID_59_" x="-2.001" y="2.441" width="59.116" height="59.116"/>
					</defs>
					<clipPath id="SVGID_60_">
						<use xlink:href="#SVGID_59_"  style="overflow:visible;"/>
					</clipPath>
					<ellipse style="clip-path:url(#SVGID_60_);fill:#010101;" cx="44.814" cy="28.918" rx="1.357" ry="1.39"/>
					<path style="clip-path:url(#SVGID_60_);fill:#010101;" d="M44.814,32.771c-2.104,0-3.821-1.729-3.821-3.853
						c0-2.126,1.715-3.854,3.821-3.854c2.105,0,3.82,1.729,3.82,3.854C48.632,31.044,46.918,32.771,44.814,32.771L44.814,32.771z
						 M56.92,32.034C51.298,23.3,44.061,19.354,35.41,19.354h-0.096l-4.579-6.042c-0.344-0.417-0.924-1.047-1.422-0.841
						l-13.422,5.585c-0.367,0.154-0.636,0.47-0.727,0.86c-0.092,0.383,0.009,0.79,0.271,1.088l2.729,3.124
						c-2.861,1.934-6.177,4.524-7.945,5.933c-2.421-5.107-5.148-7.694-8.116-7.694c-2.244,0-3.646,1.509-3.795,1.68
						c-0.37,0.418-0.412,1.035-0.104,1.5C4.397,33.84,0.696,42.32,0.536,42.678c-0.17,0.374-0.142,0.812,0.078,1.162
						c0.22,0.351,0.597,0.563,1.008,0.578l0.448,0.006c2.941,0,5.25-0.843,6.862-2.503c1.225-1.261,1.787-2.736,2.04-3.877
						c5.652,2.359,11.453,3.891,17.291,4.569l-1.685,5.451c-0.199,0.643,0.155,1.327,0.796,1.534l5.867,1.906
						c0.126,0.043,0.256,0.061,0.382,0.061c0.443,0,0.869-0.242,1.084-0.65l4.28-7.981c0.267-0.01,0.53-0.018,0.771-0.039
						c10.466-0.658,15.336-5.058,15.54-5.244c0.256-0.231,0.396-0.548,0.395-0.89c0-0.348-0.147-0.645-0.401-0.874l-0.813-0.683
						l2.213-1.836C57.159,32.978,57.25,32.544,56.92,32.034L56.92,32.034z"/>
				</g>
			</g>
		</g>
	</g>
	<g>
		<defs>
			<rect id="SVGID_61_" x="-2.001" y="2.441" width="59.116" height="59.116"/>
		</defs>
		<clipPath id="SVGID_62_">
			<use xlink:href="#SVGID_61_"  style="overflow:visible;"/>
		</clipPath>
	</g>
	<g>
		<defs>
			<rect id="SVGID_63_" x="-2.001" y="2.441" width="59.116" height="59.116"/>
		</defs>
		<clipPath id="SVGID_64_">
			<use xlink:href="#SVGID_63_"  style="overflow:visible;"/>
		</clipPath>
		<g style="clip-path:url(#SVGID_64_);">
			<defs>
				<rect id="SVGID_65_" x="-2.001" y="2.441" width="59.116" height="59.116"/>
			</defs>
			<clipPath id="SVGID_66_">
				<use xlink:href="#SVGID_65_"  style="overflow:visible;"/>
			</clipPath>
		</g>
	</g>
	<g>
		<defs>
			<rect id="SVGID_67_" x="-2.001" y="2.441" width="59.116" height="59.116"/>
		</defs>
		<clipPath id="SVGID_68_">
			<use xlink:href="#SVGID_67_"  style="overflow:visible;"/>
		</clipPath>
		<g style="clip-path:url(#SVGID_68_);">
			<defs>
				<rect id="SVGID_69_" x="-2.001" y="2.441" width="59.116" height="59.116"/>
			</defs>
			<clipPath id="SVGID_70_">
				<use xlink:href="#SVGID_69_"  style="overflow:visible;"/>
			</clipPath>
			<g style="clip-path:url(#SVGID_70_);">
				<defs>
					<rect id="SVGID_71_" x="-2.001" y="2.441" width="59.116" height="59.116"/>
				</defs>
				<clipPath id="SVGID_72_">
					<use xlink:href="#SVGID_71_"  style="overflow:visible;"/>
				</clipPath>
			</g>
		</g>
	</g>
	<g>
		<defs>
			<rect id="SVGID_73_" x="-2.001" y="2.441" width="59.116" height="59.116"/>
		</defs>
		<clipPath id="SVGID_74_">
			<use xlink:href="#SVGID_73_"  style="overflow:visible;"/>
		</clipPath>
		<g style="clip-path:url(#SVGID_74_);">
			<defs>
				<rect id="SVGID_75_" x="-2.001" y="2.441" width="59.116" height="59.116"/>
			</defs>
			<clipPath id="SVGID_76_">
				<use xlink:href="#SVGID_75_"  style="overflow:visible;"/>
			</clipPath>
			<g style="clip-path:url(#SVGID_76_);">
				<defs>
					<rect id="SVGID_77_" x="-2.001" y="2.441" width="59.116" height="59.116"/>
				</defs>
				<clipPath id="SVGID_78_">
					<use xlink:href="#SVGID_77_"  style="overflow:visible;"/>
				</clipPath>
				<g style="clip-path:url(#SVGID_78_);">
					<defs>
						<rect id="SVGID_79_" x="-2.001" y="2.441" width="59.116" height="59.116"/>
					</defs>
					<clipPath id="SVGID_80_">
						<use xlink:href="#SVGID_79_"  style="overflow:visible;"/>
					</clipPath>
				</g>
			</g>
		</g>
	</g>
	<g>
		<defs>
			<rect id="SVGID_81_" x="-2.001" y="2.441" width="59.116" height="59.116"/>
		</defs>
		<clipPath id="SVGID_82_">
			<use xlink:href="#SVGID_81_"  style="overflow:visible;"/>
		</clipPath>
	</g>
	<g>
		<defs>
			<rect id="SVGID_83_" x="-2.001" y="2.441" width="59.116" height="59.116"/>
		</defs>
		<clipPath id="SVGID_84_">
			<use xlink:href="#SVGID_83_"  style="overflow:visible;"/>
		</clipPath>
		<g style="clip-path:url(#SVGID_84_);">
			<defs>
				<rect id="SVGID_85_" x="-2.001" y="2.441" width="59.116" height="59.116"/>
			</defs>
			<clipPath id="SVGID_86_">
				<use xlink:href="#SVGID_85_"  style="overflow:visible;"/>
			</clipPath>
		</g>
	</g>
	<g>
		<defs>
			<rect id="SVGID_87_" x="-2.001" y="2.441" width="59.116" height="59.116"/>
		</defs>
		<clipPath id="SVGID_88_">
			<use xlink:href="#SVGID_87_"  style="overflow:visible;"/>
		</clipPath>
		<g style="clip-path:url(#SVGID_88_);">
			<defs>
				<rect id="SVGID_89_" x="-2.001" y="2.441" width="59.116" height="59.116"/>
			</defs>
			<clipPath id="SVGID_90_">
				<use xlink:href="#SVGID_89_"  style="overflow:visible;"/>
			</clipPath>
			<g style="clip-path:url(#SVGID_90_);">
				<defs>
					<rect id="SVGID_91_" x="-2.001" y="2.441" width="59.116" height="59.116"/>
				</defs>
				<clipPath id="SVGID_92_">
					<use xlink:href="#SVGID_91_"  style="overflow:visible;"/>
				</clipPath>
			</g>
		</g>
	</g>
	<g>
		<defs>
			<rect id="SVGID_93_" x="-2.001" y="2.441" width="59.116" height="59.116"/>
		</defs>
		<clipPath id="SVGID_94_">
			<use xlink:href="#SVGID_93_"  style="overflow:visible;"/>
		</clipPath>
		<g style="clip-path:url(#SVGID_94_);">
			<defs>
				<rect id="SVGID_95_" x="-2.001" y="2.441" width="59.116" height="59.116"/>
			</defs>
			<clipPath id="SVGID_96_">
				<use xlink:href="#SVGID_95_"  style="overflow:visible;"/>
			</clipPath>
			<g style="clip-path:url(#SVGID_96_);">
				<defs>
					<rect id="SVGID_97_" x="-2.001" y="2.441" width="59.116" height="59.116"/>
				</defs>
				<clipPath id="SVGID_98_">
					<use xlink:href="#SVGID_97_"  style="overflow:visible;"/>
				</clipPath>
				<g style="clip-path:url(#SVGID_98_);">
					<defs>
						<rect id="SVGID_99_" x="-2.001" y="2.441" width="59.116" height="59.116"/>
					</defs>
					<clipPath id="SVGID_100_">
						<use xlink:href="#SVGID_99_"  style="overflow:visible;"/>
					</clipPath>
				</g>
			</g>
		</g>
	</g>
	<g>
		<defs>
			<rect id="SVGID_101_" x="-2.001" y="2.441" width="59.116" height="59.116"/>
		</defs>
		<clipPath id="SVGID_102_">
			<use xlink:href="#SVGID_101_"  style="overflow:visible;"/>
		</clipPath>
	</g>
	<g>
		<defs>
			<rect id="SVGID_103_" x="-2.001" y="2.441" width="59.116" height="59.116"/>
		</defs>
		<clipPath id="SVGID_104_">
			<use xlink:href="#SVGID_103_"  style="overflow:visible;"/>
		</clipPath>
		<g style="clip-path:url(#SVGID_104_);">
			<defs>
				<rect id="SVGID_105_" x="-2.001" y="2.441" width="59.116" height="59.116"/>
			</defs>
			<clipPath id="SVGID_106_">
				<use xlink:href="#SVGID_105_"  style="overflow:visible;"/>
			</clipPath>
		</g>
	</g>
	<g>
		<defs>
			<rect id="SVGID_107_" x="-2.001" y="2.441" width="59.116" height="59.116"/>
		</defs>
		<clipPath id="SVGID_108_">
			<use xlink:href="#SVGID_107_"  style="overflow:visible;"/>
		</clipPath>
		<g style="clip-path:url(#SVGID_108_);">
			<defs>
				<rect id="SVGID_109_" x="-2.001" y="2.441" width="59.116" height="59.116"/>
			</defs>
			<clipPath id="SVGID_110_">
				<use xlink:href="#SVGID_109_"  style="overflow:visible;"/>
			</clipPath>
			<g style="clip-path:url(#SVGID_110_);">
				<defs>
					<rect id="SVGID_111_" x="-2.001" y="2.441" width="59.116" height="59.116"/>
				</defs>
				<clipPath id="SVGID_112_">
					<use xlink:href="#SVGID_111_"  style="overflow:visible;"/>
				</clipPath>
			</g>
		</g>
	</g>
	<g>
		<defs>
			<rect id="SVGID_113_" x="-2.001" y="2.441" width="59.116" height="59.116"/>
		</defs>
		<clipPath id="SVGID_114_">
			<use xlink:href="#SVGID_113_"  style="overflow:visible;"/>
		</clipPath>
	</g>
	<g>
		<defs>
			<rect id="SVGID_115_" x="-2.001" y="2.441" width="59.116" height="59.116"/>
		</defs>
		<clipPath id="SVGID_116_">
			<use xlink:href="#SVGID_115_"  style="overflow:visible;"/>
		</clipPath>
		<g style="clip-path:url(#SVGID_116_);">
			<defs>
				<rect id="SVGID_117_" x="-2.001" y="2.441" width="59.116" height="59.116"/>
			</defs>
			<clipPath id="SVGID_118_">
				<use xlink:href="#SVGID_117_"  style="overflow:visible;"/>
			</clipPath>
		</g>
	</g>
	<g>
		<defs>
			<rect id="SVGID_119_" x="-2.001" y="2.441" width="59.116" height="59.116"/>
		</defs>
		<clipPath id="SVGID_120_">
			<use xlink:href="#SVGID_119_"  style="overflow:visible;"/>
		</clipPath>
	</g>
</g>
</svg>
