<?xml version="1.0" encoding="iso-8859-1"?>
<!-- Generator: Adobe Illustrator 15.0.0, SVG Export Plug-In . SVG Version: 6.00 Build 0)  -->
<!DOCTYPE svg PUBLIC "-//W3C//DTD SVG 1.1//EN" "http://www.w3.org/Graphics/SVG/1.1/DTD/svg11.dtd">
<svg version="1.1" id="Layer_1" xmlns="http://www.w3.org/2000/svg" xmlns:xlink="http://www.w3.org/1999/xlink" x="0px" y="0px"
	 width="64px" height="64px" viewBox="0 0 64 64" style="enable-background:new 0 0 64 64;" xml:space="preserve">
<g>
	<path style="fill-rule:evenodd;clip-rule:evenodd;fill:#010101;" d="M41.461,14.567c3.359,0,6.083,2.851,6.083,6.367
		c0,3.514-2.724,6.367-6.083,6.367s-6.082-2.85-6.082-6.367C35.379,17.421,38.102,14.567,41.461,14.567z M32.643,5.064
		c-6.181,0-22.021,2.077-22.516,22.261C9.631,47.507,4.531,58.183,4.531,58.183c20.348,2.717,51.122-0.356,47.866-36.032
		c0-13.197-13.579-17.086-19.759-17.086H32.643z"/>
	<path style="fill-rule:evenodd;clip-rule:evenodd;fill:#010101;" d="M53.145,22.79c0.309,3.809,0.244,7.266-0.154,10.374
		c0.01,0.014,0.01,0.033,0.023,0.047l6.455-5.289L53.145,22.79z"/>
	<ellipse style="fill:#010101;" cx="43.565" cy="22.79" rx="2.693" ry="2.82"/>
</g>
</svg>
