<?xml version="1.0" encoding="iso-8859-1"?>
<!-- Generator: Adobe Illustrator 15.0.0, SVG Export Plug-In . SVG Version: 6.00 Build 0)  -->
<!DOCTYPE svg PUBLIC "-//W3C//DTD SVG 1.1//EN" "http://www.w3.org/Graphics/SVG/1.1/DTD/svg11.dtd">
<svg version="1.1" id="Layer_1" xmlns="http://www.w3.org/2000/svg" xmlns:xlink="http://www.w3.org/1999/xlink" x="0px" y="0px"
	 width="64px" height="64px" viewBox="0 0 64 64" style="enable-background:new 0 0 64 64;" xml:space="preserve">
<g>
	<path style="fill-rule:evenodd;clip-rule:evenodd;fill:#010101;" d="M47.257,58.175c-6.89,1.089-5.764-2.66-5.844-6.939
		l-0.407-8.383l-1.771,8.1c-0.323,1.536-0.728,2.946,1.45,4.072c1.534,1.333-0.197,3.228-1.848,2.983
		c-5.045,0.164-4.316-3.184-3.879-5.56l0.284-3.431c0.203-2.336,0.647-3.793,0.769-7.057l-0.683-1.771
		c-5.442-1.41-9.198-2.459-13.425-4.718l-3.029,0.401c-1.371,0.203-1.004,1.817-1.163,2.863l-0.441,2.86l-2.506,6.495l-0.197,0.564
		c-0.167,0.447-0.127,2.219,0.524,3.141l1.326,2.703c1.05,1.533,1.33,5.325-1.489,4.109l-2.1-0.882
		c-1.486-0.604-2.702-4.755-3.221-7.781l0.041-4.236c-1.294-0.401-1.818,7.223-1.294,8.79l1.294,3.956
		c0.397,1.283-1.09,1.73-2.139,1.73c-2.462,0-3.548-2.499-4.072-4.598l-0.401-1.567c-0.611-2.42-0.29-6.094,0.963-8.231l0.564-1.324
		c1.125-2.626-0.244-4.52-0.564-5.853c-1.05-4.273-1.896-8.427,1.049-12.54l0.203-0.28c-0.087-0.321-0.935-1.003-1.456-2.617
		c-1.13-3.634-2.139-9.596-0.722-9.596l0.926-0.046c2.381,0,1.689,9.84,4.517,9.194l20.481,0.204l3.589-0.972
		c1.332-0.358,2.459-1.207,3.625-1.935l2.333-1.45c2.702,2.702,5.044,4.356,8.913,5.767c1.053,8.019-0.117,9.799-1.126,14.591
		l-0.407,1.938c-0.719,3.429-0.963,6.979-0.799,10.484l0.08,1.651c-0.037,1.693,0.923,1.814,2.256,2.215
		C48.306,55.676,48.907,57.369,47.257,58.175z"/>
	<path style="fill-rule:evenodd;clip-rule:evenodd;fill:#010101;" d="M51.586,9.193c1.126,0.768,2.539,2.138,3.669,3.344
		l1.413,1.537c0.926,0.963,2.332,0.846,3.588,1.086l0.441,0.08c1.37,0.723,0.935,2.176,0.484,3.265l-0.284,0.682
		c-1.292,3.107-5.121,3.351-7.824,1.895l-1.207-0.642h-0.407l-0.842,0.564l-1.734,1.37c-3.508-1.533-6.37-3.385-8.67-5.844
		l5.285-6.615l1.771-2.58l0.36-0.848l0.407-0.933c0.321-1.042,1.651-2.052,2.626-1.65c0.923,0.407,1.526,2.176,1.284,3.11
		l-0.241,1.049L51.586,9.193z"/>
</g>
</svg>
