<?xml version="1.0" encoding="iso-8859-1"?>
<!-- Generator: Adobe Illustrator 15.0.0, SVG Export Plug-In . SVG Version: 6.00 Build 0)  -->
<!DOCTYPE svg PUBLIC "-//W3C//DTD SVG 1.1//EN" "http://www.w3.org/Graphics/SVG/1.1/DTD/svg11.dtd">
<svg version="1.1" id="Layer_1" xmlns="http://www.w3.org/2000/svg" xmlns:xlink="http://www.w3.org/1999/xlink" x="0px" y="0px"
	 width="64px" height="64px" viewBox="0 0 64 64" style="enable-background:new 0 0 64 64;" xml:space="preserve">
<path style="fill:#010101;" d="M57.978,50.741c-0.618-0.051-6.101-0.676-7.578-6.956c-0.688-2.922-0.447-6.897-0.444-6.96
	c0.019-0.259-0.03-2.991-0.394-4.243c-1.684-5.846-10.484-9.148-20.779-7.109c-1.916,0.378-3.867,0.799-5.756,1.285
	c0.21,1.957,0.272,5.723-1.823,8.212c-1.774,2.107-5.491,2.747-5.911,2.813c-0.066,0.009-0.13,0.015-0.195,0.015
	c-0.598,0-1.123-0.436-1.219-1.045c-0.108-0.676,0.354-1.31,1.029-1.414c0.886-0.145,3.402-0.771,4.404-1.964
	c1.246-1.48,1.402-3.801,1.324-5.446c-0.054-1.117-0.026-9.392-0.026-9.392l-4.69,3.569c-1.081-0.411-2.27-0.643-3.524-0.643
	c-1.216,0-2.375,0.217-3.429,0.604L4.834,18.6v6.594c-0.813,1.171-1.291,2.537-1.291,4.008c0,3.453,2.591,6.378,6.164,7.371
	c-0.123,1.178,0.009,2.478,0.456,3.931c0.609,1.979,2.265,3.603,4.585,4.813v8.671c0,1.688,1.369,3.057,3.057,3.057
	s3.057-1.369,3.057-3.057v-6.705c2.948,0.517,6.248,0.606,9.581,0.207l-5.129,4.132c-1.314,1.06-1.521,2.984-0.462,4.3
	c0.604,0.747,1.489,1.138,2.381,1.138c0.673,0,1.352-0.223,1.916-0.676l9.169-7.386c0.045-0.036,0.078-0.078,0.123-0.12v5.062
	c0,1.687,1.369,3.056,3.057,3.056s3.057-1.369,3.057-3.056v-7.945c2.315,8.137,9.449,10.746,13.007,10.969
	c0.066,0.006,0.132,0.006,0.198,0.006c1.621,0,2.973-1.255,3.09-2.894C60.972,52.369,59.684,50.883,57.978,50.741z"/>
</svg>
