<?xml version="1.0" encoding="iso-8859-1"?>
<!-- Generator: Adobe Illustrator 15.0.0, SVG Export Plug-In . SVG Version: 6.00 Build 0)  -->
<!DOCTYPE svg PUBLIC "-//W3C//DTD SVG 1.1//EN" "http://www.w3.org/Graphics/SVG/1.1/DTD/svg11.dtd">
<svg version="1.1" id="Layer_1" xmlns="http://www.w3.org/2000/svg" xmlns:xlink="http://www.w3.org/1999/xlink" x="0px" y="0px"
	 width="64px" height="64px" viewBox="0 0 64 64" style="enable-background:new 0 0 64 64;" xml:space="preserve">
<g>
	<polygon style="fill:#020202;" points="35.773,23.312 27.939,23.312 27.939,15.479 22.719,15.479 22.719,23.312 14.887,23.312 
		14.887,28.534 22.719,28.534 22.719,36.367 27.939,36.367 27.939,28.534 35.773,28.534 	"/>
	<path style="fill:#010101;" d="M25.232,39.921c-8.074,0-14.643-6.568-14.643-14.64c0-8.075,6.568-14.643,14.643-14.643
		s14.641,6.568,14.641,14.643C39.873,33.353,33.305,39.921,25.232,39.921z M58.85,53.346l-16.912-16.91
		c2.195-3.274,3.375-7.124,3.375-11.155c0-5.363-2.088-10.406-5.881-14.201c-3.793-3.793-8.836-5.881-14.199-5.881
		S14.826,7.287,11.031,11.08C7.24,14.872,5.15,19.914,5.15,25.278s2.09,10.406,5.881,14.2c3.793,3.792,8.836,5.88,14.201,5.88
		c4.078,0,7.969-1.207,11.266-3.451l16.896,16.896L58.85,53.346z"/>
</g>
</svg>
